<?xml version="1.0" encoding="utf-8"?>
<svg version="1.1" xmlns:xlink="http://www.w3.org/1999/xlink" width="12px" height="12px" viewBox="570 703.5  12 12" xmlns="http://www.w3.org/2000/svg">
  <path d="M 576 703.5  C 579.36 703.5  582 706.14  582 709.5  C 582 712.86  579.36 715.5  576 715.5  C 572.64 715.5  570 712.86  570 709.5  C 570 706.14  572.64 703.5  576 703.5  Z " fill-rule="nonzero" fill="#ffffff" stroke="none" />
  <path d="M 576 704  C 579.08 704  581.5 706.42  581.5 709.5  C 581.5 712.58  579.08 715  576 715  C 572.92 715  570.5 712.58  570.5 709.5  C 570.5 706.42  572.92 704  576 704  Z " stroke-width="1" stroke="#797979" fill="none" />
  <path d="M 576 712.5  C 574.32 712.5  573 711.18  573 709.5  C 573 707.82  574.32 706.5  576 706.5  C 577.68 706.5  579 707.82  579 709.5  C 579 711.18  577.68 712.5  576 712.5  " fill-rule="nonzero" fill="#797979" stroke="none" />
</svg>