<?xml version="1.0" encoding="utf-8"?>
<svg version="1.1" xmlns:xlink="http://www.w3.org/1999/xlink" width="12px" height="12px" viewBox="124 703.5  12 12" xmlns="http://www.w3.org/2000/svg">
  <path d="M 130 703.5  C 133.36 703.5  136 706.14  136 709.5  C 136 712.86  133.36 715.5  130 715.5  C 126.64 715.5  124 712.86  124 709.5  C 124 706.14  126.64 703.5  130 703.5  Z " fill-rule="nonzero" fill="#ffffff" stroke="none" />
  <path d="M 130 704  C 133.08 704  135.5 706.42  135.5 709.5  C 135.5 712.58  133.08 715  130 715  C 126.92 715  124.5 712.58  124.5 709.5  C 124.5 706.42  126.92 704  130 704  Z " stroke-width="1" stroke="#797979" fill="none" />
  <path d="M 130 712.5  C 128.32 712.5  127 711.18  127 709.5  C 127 707.82  128.32 706.5  130 706.5  C 131.68 706.5  133 707.82  133 709.5  C 133 711.18  131.68 712.5  130 712.5  " fill-rule="nonzero" fill="#797979" stroke="none" />
</svg>