<?xml version="1.0" encoding="utf-8"?>
<svg version="1.1" xmlns:xlink="http://www.w3.org/1999/xlink" width="12px" height="12px" viewBox="234 703.5  12 12" xmlns="http://www.w3.org/2000/svg">
  <path d="M 240 703.5  C 243.36 703.5  246 706.14  246 709.5  C 246 712.86  243.36 715.5  240 715.5  C 236.64 715.5  234 712.86  234 709.5  C 234 706.14  236.64 703.5  240 703.5  Z " fill-rule="nonzero" fill="#ffffff" stroke="none" />
  <path d="M 240 704  C 243.08 704  245.5 706.42  245.5 709.5  C 245.5 712.58  243.08 715  240 715  C 236.92 715  234.5 712.58  234.5 709.5  C 234.5 706.42  236.92 704  240 704  Z " stroke-width="1" stroke="#797979" fill="none" />
  <path d="M 240 712.5  C 238.32 712.5  237 711.18  237 709.5  C 237 707.82  238.32 706.5  240 706.5  C 241.68 706.5  243 707.82  243 709.5  C 243 711.18  241.68 712.5  240 712.5  " fill-rule="nonzero" fill="#797979" stroke="none" />
</svg>