<?xml version="1.0" encoding="utf-8"?>
<svg version="1.1" xmlns:xlink="http://www.w3.org/1999/xlink" width="12px" height="12px" viewBox="344 703.5  12 12" xmlns="http://www.w3.org/2000/svg">
  <path d="M 350 703.5  C 353.36 703.5  356 706.14  356 709.5  C 356 712.86  353.36 715.5  350 715.5  C 346.64 715.5  344 712.86  344 709.5  C 344 706.14  346.64 703.5  350 703.5  Z " fill-rule="nonzero" fill="#ffffff" stroke="none" />
  <path d="M 350 704  C 353.08 704  355.5 706.42  355.5 709.5  C 355.5 712.58  353.08 715  350 715  C 346.92 715  344.5 712.58  344.5 709.5  C 344.5 706.42  346.92 704  350 704  Z " stroke-width="1" stroke="#797979" fill="none" />
  <path d="M 350 712.5  C 348.32 712.5  347 711.18  347 709.5  C 347 707.82  348.32 706.5  350 706.5  C 351.68 706.5  353 707.82  353 709.5  C 353 711.18  351.68 712.5  350 712.5  " fill-rule="nonzero" fill="#797979" stroke="none" />
</svg>