<?xml version="1.0" encoding="utf-8"?>
<svg version="1.1" xmlns:xlink="http://www.w3.org/1999/xlink" width="12px" height="12px" viewBox="70 89  12 12" xmlns="http://www.w3.org/2000/svg">
  <path d="M 76 89  C 79.36 89  82 91.64  82 95  C 82 98.36  79.36 101  76 101  C 72.64 101  70 98.36  70 95  C 70 91.64  72.64 89  76 89  Z " fill-rule="nonzero" fill="#ffffff" stroke="none" />
  <path d="M 76 89.5  C 79.08 89.5  81.5 91.92  81.5 95  C 81.5 98.08  79.08 100.5  76 100.5  C 72.92 100.5  70.5 98.08  70.5 95  C 70.5 91.92  72.92 89.5  76 89.5  Z " stroke-width="1" stroke="#797979" fill="none" />
  <path d="M 76 98  C 74.32 98  73 96.68  73 95  C 73 93.32  74.32 92  76 92  C 77.68 92  79 93.32  79 95  C 79 96.68  77.68 98  76 98  " fill-rule="nonzero" fill="#797979" stroke="none" />
</svg>