<?xml version="1.0" encoding="utf-8"?>
<svg version="1.1" xmlns:xlink="http://www.w3.org/1999/xlink" width="12px" height="12px" viewBox="228 2283  12 12" xmlns="http://www.w3.org/2000/svg">
  <path d="M 234 2283  C 237.36 2283  240 2285.64  240 2289  C 240 2292.36  237.36 2295  234 2295  C 230.64 2295  228 2292.36  228 2289  C 228 2285.64  230.64 2283  234 2283  Z " fill-rule="nonzero" fill="#ffffff" stroke="none" />
  <path d="M 234 2283.5  C 237.08 2283.5  239.5 2285.92  239.5 2289  C 239.5 2292.08  237.08 2294.5  234 2294.5  C 230.92 2294.5  228.5 2292.08  228.5 2289  C 228.5 2285.92  230.92 2283.5  234 2283.5  Z " stroke-width="1" stroke="#797979" fill="none" />
  <path d="M 234 2292  C 232.32 2292  231 2290.68  231 2289  C 231 2287.32  232.32 2286  234 2286  C 235.68 2286  237 2287.32  237 2289  C 237 2290.68  235.68 2292  234 2292  " fill-rule="nonzero" fill="#797979" stroke="none" />
</svg>