<?xml version="1.0" encoding="utf-8"?>
<svg version="1.1" xmlns:xlink="http://www.w3.org/1999/xlink" width="12px" height="12px" viewBox="70 2258  12 12" xmlns="http://www.w3.org/2000/svg">
  <path d="M 76 2258  C 79.36 2258  82 2260.64  82 2264  C 82 2267.36  79.36 2270  76 2270  C 72.64 2270  70 2267.36  70 2264  C 70 2260.64  72.64 2258  76 2258  Z " fill-rule="nonzero" fill="#ffffff" stroke="none" />
  <path d="M 76 2258.5  C 79.08 2258.5  81.5 2260.92  81.5 2264  C 81.5 2267.08  79.08 2269.5  76 2269.5  C 72.92 2269.5  70.5 2267.08  70.5 2264  C 70.5 2260.92  72.92 2258.5  76 2258.5  Z " stroke-width="1" stroke="#797979" fill="none" />
  <path d="M 76 2267  C 74.32 2267  73 2265.68  73 2264  C 73 2262.32  74.32 2261  76 2261  C 77.68 2261  79 2262.32  79 2264  C 79 2265.68  77.68 2267  76 2267  " fill-rule="nonzero" fill="#797979" stroke="none" />
</svg>