<?xml version="1.0" encoding="utf-8"?>
<svg version="1.1" xmlns:xlink="http://www.w3.org/1999/xlink" width="12px" height="12px" viewBox="228 1825  12 12" xmlns="http://www.w3.org/2000/svg">
  <path d="M 234 1825  C 237.36 1825  240 1827.64  240 1831  C 240 1834.36  237.36 1837  234 1837  C 230.64 1837  228 1834.36  228 1831  C 228 1827.64  230.64 1825  234 1825  Z " fill-rule="nonzero" fill="#ffffff" stroke="none" />
  <path d="M 234 1825.5  C 237.08 1825.5  239.5 1827.92  239.5 1831  C 239.5 1834.08  237.08 1836.5  234 1836.5  C 230.92 1836.5  228.5 1834.08  228.5 1831  C 228.5 1827.92  230.92 1825.5  234 1825.5  Z " stroke-width="1" stroke="#797979" fill="none" />
  <path d="M 234 1834  C 232.32 1834  231 1832.68  231 1831  C 231 1829.32  232.32 1828  234 1828  C 235.68 1828  237 1829.32  237 1831  C 237 1832.68  235.68 1834  234 1834  " fill-rule="nonzero" fill="#797979" stroke="none" />
</svg>