<?xml version="1.0" encoding="utf-8"?>
<svg version="1.1" xmlns:xlink="http://www.w3.org/1999/xlink" width="12px" height="12px" viewBox="70 1850  12 12" xmlns="http://www.w3.org/2000/svg">
  <path d="M 76 1850  C 79.36 1850  82 1852.64  82 1856  C 82 1859.36  79.36 1862  76 1862  C 72.64 1862  70 1859.36  70 1856  C 70 1852.64  72.64 1850  76 1850  Z " fill-rule="nonzero" fill="#ffffff" stroke="none" />
  <path d="M 76 1850.5  C 79.08 1850.5  81.5 1852.92  81.5 1856  C 81.5 1859.08  79.08 1861.5  76 1861.5  C 72.92 1861.5  70.5 1859.08  70.5 1856  C 70.5 1852.92  72.92 1850.5  76 1850.5  Z " stroke-width="1" stroke="#797979" fill="none" />
  <path d="M 76 1859  C 74.32 1859  73 1857.68  73 1856  C 73 1854.32  74.32 1853  76 1853  C 77.68 1853  79 1854.32  79 1856  C 79 1857.68  77.68 1859  76 1859  " fill-rule="nonzero" fill="#797979" stroke="none" />
</svg>