<?xml version="1.0" encoding="utf-8"?>
<svg version="1.1" xmlns:xlink="http://www.w3.org/1999/xlink" width="12px" height="12px" viewBox="70 1825  12 12" xmlns="http://www.w3.org/2000/svg">
  <path d="M 76 1825  C 79.36 1825  82 1827.64  82 1831  C 82 1834.36  79.36 1837  76 1837  C 72.64 1837  70 1834.36  70 1831  C 70 1827.64  72.64 1825  76 1825  Z " fill-rule="nonzero" fill="#ffffff" stroke="none" />
  <path d="M 76 1825.5  C 79.08 1825.5  81.5 1827.92  81.5 1831  C 81.5 1834.08  79.08 1836.5  76 1836.5  C 72.92 1836.5  70.5 1834.08  70.5 1831  C 70.5 1827.92  72.92 1825.5  76 1825.5  Z " stroke-width="1" stroke="#797979" fill="none" />
  <path d="M 76 1834  C 74.32 1834  73 1832.68  73 1831  C 73 1829.32  74.32 1828  76 1828  C 77.68 1828  79 1829.32  79 1831  C 79 1832.68  77.68 1834  76 1834  " fill-rule="nonzero" fill="#797979" stroke="none" />
</svg>