<?xml version="1.0" encoding="utf-8"?>
<svg version="1.1" xmlns:xlink="http://www.w3.org/1999/xlink" width="12px" height="12px" viewBox="228 1425  12 12" xmlns="http://www.w3.org/2000/svg">
  <path d="M 234 1425  C 237.36 1425  240 1427.64  240 1431  C 240 1434.36  237.36 1437  234 1437  C 230.64 1437  228 1434.36  228 1431  C 228 1427.64  230.64 1425  234 1425  Z " fill-rule="nonzero" fill="#ffffff" stroke="none" />
  <path d="M 234 1425.5  C 237.08 1425.5  239.5 1427.92  239.5 1431  C 239.5 1434.08  237.08 1436.5  234 1436.5  C 230.92 1436.5  228.5 1434.08  228.5 1431  C 228.5 1427.92  230.92 1425.5  234 1425.5  Z " stroke-width="1" stroke="#797979" fill="none" />
  <path d="M 234 1434  C 232.32 1434  231 1432.68  231 1431  C 231 1429.32  232.32 1428  234 1428  C 235.68 1428  237 1429.32  237 1431  C 237 1432.68  235.68 1434  234 1434  " fill-rule="nonzero" fill="#797979" stroke="none" />
</svg>