<?xml version="1.0" encoding="utf-8"?>
<svg version="1.1" xmlns:xlink="http://www.w3.org/1999/xlink" width="12px" height="12px" viewBox="228 1850  12 12" xmlns="http://www.w3.org/2000/svg">
  <path d="M 234 1850  C 237.36 1850  240 1852.64  240 1856  C 240 1859.36  237.36 1862  234 1862  C 230.64 1862  228 1859.36  228 1856  C 228 1852.64  230.64 1850  234 1850  Z " fill-rule="nonzero" fill="#ffffff" stroke="none" />
  <path d="M 234 1850.5  C 237.08 1850.5  239.5 1852.92  239.5 1856  C 239.5 1859.08  237.08 1861.5  234 1861.5  C 230.92 1861.5  228.5 1859.08  228.5 1856  C 228.5 1852.92  230.92 1850.5  234 1850.5  Z " stroke-width="1" stroke="#797979" fill="none" />
  <path d="M 234 1859  C 232.32 1859  231 1857.68  231 1856  C 231 1854.32  232.32 1853  234 1853  C 235.68 1853  237 1854.32  237 1856  C 237 1857.68  235.68 1859  234 1859  " fill-rule="nonzero" fill="#797979" stroke="none" />
</svg>