<?xml version="1.0" encoding="utf-8"?>
<svg version="1.1" xmlns:xlink="http://www.w3.org/1999/xlink" width="12px" height="12px" viewBox="70 2447  12 12" xmlns="http://www.w3.org/2000/svg">
  <path d="M 76 2447  C 79.36 2447  82 2449.64  82 2453  C 82 2456.36  79.36 2459  76 2459  C 72.64 2459  70 2456.36  70 2453  C 70 2449.64  72.64 2447  76 2447  Z " fill-rule="nonzero" fill="#ffffff" stroke="none" />
  <path d="M 76 2447.5  C 79.08 2447.5  81.5 2449.92  81.5 2453  C 81.5 2456.08  79.08 2458.5  76 2458.5  C 72.92 2458.5  70.5 2456.08  70.5 2453  C 70.5 2449.92  72.92 2447.5  76 2447.5  Z " stroke-width="1" stroke="#797979" fill="none" />
  <path d="M 76 2456  C 74.32 2456  73 2454.68  73 2453  C 73 2451.32  74.32 2450  76 2450  C 77.68 2450  79 2451.32  79 2453  C 79 2454.68  77.68 2456  76 2456  " fill-rule="nonzero" fill="#797979" stroke="none" />
</svg>