<?xml version="1.0" encoding="utf-8"?>
<svg version="1.1" xmlns:xlink="http://www.w3.org/1999/xlink" width="12px" height="12px" viewBox="228 2376  12 12" xmlns="http://www.w3.org/2000/svg">
  <path d="M 234 2376  C 237.36 2376  240 2378.64  240 2382  C 240 2385.36  237.36 2388  234 2388  C 230.64 2388  228 2385.36  228 2382  C 228 2378.64  230.64 2376  234 2376  Z " fill-rule="nonzero" fill="#ffffff" stroke="none" />
  <path d="M 234 2376.5  C 237.08 2376.5  239.5 2378.92  239.5 2382  C 239.5 2385.08  237.08 2387.5  234 2387.5  C 230.92 2387.5  228.5 2385.08  228.5 2382  C 228.5 2378.92  230.92 2376.5  234 2376.5  Z " stroke-width="1" stroke="#797979" fill="none" />
  <path d="M 234 2385  C 232.32 2385  231 2383.68  231 2382  C 231 2380.32  232.32 2379  234 2379  C 235.68 2379  237 2380.32  237 2382  C 237 2383.68  235.68 2385  234 2385  " fill-rule="nonzero" fill="#797979" stroke="none" />
</svg>