<?xml version="1.0" encoding="utf-8"?>
<svg version="1.1" xmlns:xlink="http://www.w3.org/1999/xlink" width="12px" height="12px" viewBox="228 1450  12 12" xmlns="http://www.w3.org/2000/svg">
  <path d="M 234 1450  C 237.36 1450  240 1452.64  240 1456  C 240 1459.36  237.36 1462  234 1462  C 230.64 1462  228 1459.36  228 1456  C 228 1452.64  230.64 1450  234 1450  Z " fill-rule="nonzero" fill="#ffffff" stroke="none" />
  <path d="M 234 1450.5  C 237.08 1450.5  239.5 1452.92  239.5 1456  C 239.5 1459.08  237.08 1461.5  234 1461.5  C 230.92 1461.5  228.5 1459.08  228.5 1456  C 228.5 1452.92  230.92 1450.5  234 1450.5  Z " stroke-width="1" stroke="#797979" fill="none" />
  <path d="M 234 1459  C 232.32 1459  231 1457.68  231 1456  C 231 1454.32  232.32 1453  234 1453  C 235.68 1453  237 1454.32  237 1456  C 237 1457.68  235.68 1459  234 1459  " fill-rule="nonzero" fill="#797979" stroke="none" />
</svg>