<?xml version="1.0" encoding="utf-8"?>
<svg version="1.1" xmlns:xlink="http://www.w3.org/1999/xlink" width="12px" height="12px" viewBox="70 2376  12 12" xmlns="http://www.w3.org/2000/svg">
  <path d="M 76 2376  C 79.36 2376  82 2378.64  82 2382  C 82 2385.36  79.36 2388  76 2388  C 72.64 2388  70 2385.36  70 2382  C 70 2378.64  72.64 2376  76 2376  Z " fill-rule="nonzero" fill="#ffffff" stroke="none" />
  <path d="M 76 2376.5  C 79.08 2376.5  81.5 2378.92  81.5 2382  C 81.5 2385.08  79.08 2387.5  76 2387.5  C 72.92 2387.5  70.5 2385.08  70.5 2382  C 70.5 2378.92  72.92 2376.5  76 2376.5  Z " stroke-width="1" stroke="#797979" fill="none" />
  <path d="M 76 2385  C 74.32 2385  73 2383.68  73 2382  C 73 2380.32  74.32 2379  76 2379  C 77.68 2379  79 2380.32  79 2382  C 79 2383.68  77.68 2385  76 2385  " fill-rule="nonzero" fill="#797979" stroke="none" />
</svg>