<?xml version="1.0" encoding="utf-8"?>
<svg version="1.1" xmlns:xlink="http://www.w3.org/1999/xlink" width="12px" height="12px" viewBox="228 2351  12 12" xmlns="http://www.w3.org/2000/svg">
  <path d="M 234 2351  C 237.36 2351  240 2353.64  240 2357  C 240 2360.36  237.36 2363  234 2363  C 230.64 2363  228 2360.36  228 2357  C 228 2353.64  230.64 2351  234 2351  Z " fill-rule="nonzero" fill="#ffffff" stroke="none" />
  <path d="M 234 2351.5  C 237.08 2351.5  239.5 2353.92  239.5 2357  C 239.5 2360.08  237.08 2362.5  234 2362.5  C 230.92 2362.5  228.5 2360.08  228.5 2357  C 228.5 2353.92  230.92 2351.5  234 2351.5  Z " stroke-width="1" stroke="#797979" fill="none" />
  <path d="M 234 2360  C 232.32 2360  231 2358.68  231 2357  C 231 2355.32  232.32 2354  234 2354  C 235.68 2354  237 2355.32  237 2357  C 237 2358.68  235.68 2360  234 2360  " fill-rule="nonzero" fill="#797979" stroke="none" />
</svg>