<?xml version="1.0" encoding="utf-8"?>
<svg version="1.1" xmlns:xlink="http://www.w3.org/1999/xlink" width="12px" height="12px" viewBox="70 2351  12 12" xmlns="http://www.w3.org/2000/svg">
  <path d="M 76 2351  C 79.36 2351  82 2353.64  82 2357  C 82 2360.36  79.36 2363  76 2363  C 72.64 2363  70 2360.36  70 2357  C 70 2353.64  72.64 2351  76 2351  Z " fill-rule="nonzero" fill="#ffffff" stroke="none" />
  <path d="M 76 2351.5  C 79.08 2351.5  81.5 2353.92  81.5 2357  C 81.5 2360.08  79.08 2362.5  76 2362.5  C 72.92 2362.5  70.5 2360.08  70.5 2357  C 70.5 2353.92  72.92 2351.5  76 2351.5  Z " stroke-width="1" stroke="#797979" fill="none" />
  <path d="M 76 2360  C 74.32 2360  73 2358.68  73 2357  C 73 2355.32  74.32 2354  76 2354  C 77.68 2354  79 2355.32  79 2357  C 79 2358.68  77.68 2360  76 2360  " fill-rule="nonzero" fill="#797979" stroke="none" />
</svg>