<?xml version="1.0" encoding="utf-8"?>
<svg version="1.1" xmlns:xlink="http://www.w3.org/1999/xlink" width="12px" height="12px" viewBox="228 2472  12 12" xmlns="http://www.w3.org/2000/svg">
  <path d="M 234 2472  C 237.36 2472  240 2474.64  240 2478  C 240 2481.36  237.36 2484  234 2484  C 230.64 2484  228 2481.36  228 2478  C 228 2474.64  230.64 2472  234 2472  Z " fill-rule="nonzero" fill="#ffffff" stroke="none" />
  <path d="M 234 2472.5  C 237.08 2472.5  239.5 2474.92  239.5 2478  C 239.5 2481.08  237.08 2483.5  234 2483.5  C 230.92 2483.5  228.5 2481.08  228.5 2478  C 228.5 2474.92  230.92 2472.5  234 2472.5  Z " stroke-width="1" stroke="#797979" fill="none" />
  <path d="M 234 2481  C 232.32 2481  231 2479.68  231 2478  C 231 2476.32  232.32 2475  234 2475  C 235.68 2475  237 2476.32  237 2478  C 237 2479.68  235.68 2481  234 2481  " fill-rule="nonzero" fill="#797979" stroke="none" />
</svg>