<?xml version="1.0" encoding="utf-8"?>
<svg version="1.1" xmlns:xlink="http://www.w3.org/1999/xlink" width="12px" height="12px" viewBox="70 529  12 12" xmlns="http://www.w3.org/2000/svg">
  <path d="M 76 529  C 79.36 529  82 531.64  82 535  C 82 538.36  79.36 541  76 541  C 72.64 541  70 538.36  70 535  C 70 531.64  72.64 529  76 529  Z " fill-rule="nonzero" fill="#ffffff" stroke="none" />
  <path d="M 76 529.5  C 79.08 529.5  81.5 531.92  81.5 535  C 81.5 538.08  79.08 540.5  76 540.5  C 72.92 540.5  70.5 538.08  70.5 535  C 70.5 531.92  72.92 529.5  76 529.5  Z " stroke-width="1" stroke="#797979" fill="none" />
  <path d="M 76 538  C 74.32 538  73 536.68  73 535  C 73 533.32  74.32 532  76 532  C 77.68 532  79 533.32  79 535  C 79 536.68  77.68 538  76 538  " fill-rule="nonzero" fill="#797979" stroke="none" />
</svg>