<?xml version="1.0" encoding="utf-8"?>
<svg version="1.1" xmlns:xlink="http://www.w3.org/1999/xlink" width="12px" height="12px" viewBox="228 529  12 12" xmlns="http://www.w3.org/2000/svg">
  <path d="M 234 529  C 237.36 529  240 531.64  240 535  C 240 538.36  237.36 541  234 541  C 230.64 541  228 538.36  228 535  C 228 531.64  230.64 529  234 529  Z " fill-rule="nonzero" fill="#ffffff" stroke="none" />
  <path d="M 234 529.5  C 237.08 529.5  239.5 531.92  239.5 535  C 239.5 538.08  237.08 540.5  234 540.5  C 230.92 540.5  228.5 538.08  228.5 535  C 228.5 531.92  230.92 529.5  234 529.5  Z " stroke-width="1" stroke="#797979" fill="none" />
  <path d="M 234 538  C 232.32 538  231 536.68  231 535  C 231 533.32  232.32 532  234 532  C 235.68 532  237 533.32  237 535  C 237 536.68  235.68 538  234 538  " fill-rule="nonzero" fill="#797979" stroke="none" />
</svg>