<?xml version="1.0" encoding="utf-8"?>
<svg version="1.1" xmlns:xlink="http://www.w3.org/1999/xlink" width="12px" height="12px" viewBox="70 554  12 12" xmlns="http://www.w3.org/2000/svg">
  <path d="M 76 554  C 79.36 554  82 556.64  82 560  C 82 563.36  79.36 566  76 566  C 72.64 566  70 563.36  70 560  C 70 556.64  72.64 554  76 554  Z " fill-rule="nonzero" fill="#ffffff" stroke="none" />
  <path d="M 76 554.5  C 79.08 554.5  81.5 556.92  81.5 560  C 81.5 563.08  79.08 565.5  76 565.5  C 72.92 565.5  70.5 563.08  70.5 560  C 70.5 556.92  72.92 554.5  76 554.5  Z " stroke-width="1" stroke="#797979" fill="none" />
  <path d="M 76 563  C 74.32 563  73 561.68  73 560  C 73 558.32  74.32 557  76 557  C 77.68 557  79 558.32  79 560  C 79 561.68  77.68 563  76 563  " fill-rule="nonzero" fill="#797979" stroke="none" />
</svg>