<?xml version="1.0" encoding="utf-8"?>
<svg version="1.1" xmlns:xlink="http://www.w3.org/1999/xlink" width="12px" height="12px" viewBox="247 2837  12 12" xmlns="http://www.w3.org/2000/svg">
  <path d="M 253 2837  C 256.36 2837  259 2839.64  259 2843  C 259 2846.36  256.36 2849  253 2849  C 249.64 2849  247 2846.36  247 2843  C 247 2839.64  249.64 2837  253 2837  Z " fill-rule="nonzero" fill="#ffffff" stroke="none" />
  <path d="M 253 2837.5  C 256.08 2837.5  258.5 2839.92  258.5 2843  C 258.5 2846.08  256.08 2848.5  253 2848.5  C 249.92 2848.5  247.5 2846.08  247.5 2843  C 247.5 2839.92  249.92 2837.5  253 2837.5  Z " stroke-width="1" stroke="#797979" fill="none" />
  <path d="M 253 2846  C 251.32 2846  250 2844.68  250 2843  C 250 2841.32  251.32 2840  253 2840  C 254.68 2840  256 2841.32  256 2843  C 256 2844.68  254.68 2846  253 2846  " fill-rule="nonzero" fill="#797979" stroke="none" />
</svg>