<?xml version="1.0" encoding="utf-8"?>
<svg version="1.1" xmlns:xlink="http://www.w3.org/1999/xlink" width="12px" height="12px" viewBox="247 2862  12 12" xmlns="http://www.w3.org/2000/svg">
  <path d="M 253 2862  C 256.36 2862  259 2864.64  259 2868  C 259 2871.36  256.36 2874  253 2874  C 249.64 2874  247 2871.36  247 2868  C 247 2864.64  249.64 2862  253 2862  Z " fill-rule="nonzero" fill="#ffffff" stroke="none" />
  <path d="M 253 2862.5  C 256.08 2862.5  258.5 2864.92  258.5 2868  C 258.5 2871.08  256.08 2873.5  253 2873.5  C 249.92 2873.5  247.5 2871.08  247.5 2868  C 247.5 2864.92  249.92 2862.5  253 2862.5  Z " stroke-width="1" stroke="#797979" fill="none" />
  <path d="M 253 2871  C 251.32 2871  250 2869.68  250 2868  C 250 2866.32  251.32 2865  253 2865  C 254.68 2865  256 2866.32  256 2868  C 256 2869.68  254.68 2871  253 2871  " fill-rule="nonzero" fill="#797979" stroke="none" />
</svg>