<?xml version="1.0" encoding="utf-8"?>
<svg version="1.1" xmlns:xlink="http://www.w3.org/1999/xlink" width="12px" height="12px" viewBox="70 1450  12 12" xmlns="http://www.w3.org/2000/svg">
  <path d="M 76 1450  C 79.36 1450  82 1452.64  82 1456  C 82 1459.36  79.36 1462  76 1462  C 72.64 1462  70 1459.36  70 1456  C 70 1452.64  72.64 1450  76 1450  Z " fill-rule="nonzero" fill="#ffffff" stroke="none" />
  <path d="M 76 1450.5  C 79.08 1450.5  81.5 1452.92  81.5 1456  C 81.5 1459.08  79.08 1461.5  76 1461.5  C 72.92 1461.5  70.5 1459.08  70.5 1456  C 70.5 1452.92  72.92 1450.5  76 1450.5  Z " stroke-width="1" stroke="#797979" fill="none" />
  <path d="M 76 1459  C 74.32 1459  73 1457.68  73 1456  C 73 1454.32  74.32 1453  76 1453  C 77.68 1453  79 1454.32  79 1456  C 79 1457.68  77.68 1459  76 1459  " fill-rule="nonzero" fill="#797979" stroke="none" />
</svg>