<?xml version="1.0" encoding="utf-8"?>
<svg version="1.1" xmlns:xlink="http://www.w3.org/1999/xlink" width="12px" height="12px" viewBox="70 2837  12 12" xmlns="http://www.w3.org/2000/svg">
  <path d="M 76 2837  C 79.36 2837  82 2839.64  82 2843  C 82 2846.36  79.36 2849  76 2849  C 72.64 2849  70 2846.36  70 2843  C 70 2839.64  72.64 2837  76 2837  Z " fill-rule="nonzero" fill="#ffffff" stroke="none" />
  <path d="M 76 2837.5  C 79.08 2837.5  81.5 2839.92  81.5 2843  C 81.5 2846.08  79.08 2848.5  76 2848.5  C 72.92 2848.5  70.5 2846.08  70.5 2843  C 70.5 2839.92  72.92 2837.5  76 2837.5  Z " stroke-width="1" stroke="#797979" fill="none" />
  <path d="M 76 2846  C 74.32 2846  73 2844.68  73 2843  C 73 2841.32  74.32 2840  76 2840  C 77.68 2840  79 2841.32  79 2843  C 79 2844.68  77.68 2846  76 2846  " fill-rule="nonzero" fill="#797979" stroke="none" />
</svg>