<?xml version="1.0" encoding="utf-8"?>
<svg version="1.1" xmlns:xlink="http://www.w3.org/1999/xlink" width="12px" height="12px" viewBox="70 5706  12 12" xmlns="http://www.w3.org/2000/svg">
  <path d="M 76 5706  C 79.36 5706  82 5708.64  82 5712  C 82 5715.36  79.36 5718  76 5718  C 72.64 5718  70 5715.36  70 5712  C 70 5708.64  72.64 5706  76 5706  Z " fill-rule="nonzero" fill="#ffffff" stroke="none" />
  <path d="M 76 5706.5  C 79.08 5706.5  81.5 5708.92  81.5 5712  C 81.5 5715.08  79.08 5717.5  76 5717.5  C 72.92 5717.5  70.5 5715.08  70.5 5712  C 70.5 5708.92  72.92 5706.5  76 5706.5  Z " stroke-width="1" stroke="#797979" fill="none" />
  <path d="M 76 5715  C 74.32 5715  73 5713.68  73 5712  C 73 5710.32  74.32 5709  76 5709  C 77.68 5709  79 5710.32  79 5712  C 79 5713.68  77.68 5715  76 5715  " fill-rule="nonzero" fill="#797979" stroke="none" />
</svg>