<?xml version="1.0" encoding="utf-8"?>
<svg version="1.1" xmlns:xlink="http://www.w3.org/1999/xlink" width="12px" height="12px" viewBox="70 5444  12 12" xmlns="http://www.w3.org/2000/svg">
  <path d="M 76 5444  C 79.36 5444  82 5446.64  82 5450  C 82 5453.36  79.36 5456  76 5456  C 72.64 5456  70 5453.36  70 5450  C 70 5446.64  72.64 5444  76 5444  Z " fill-rule="nonzero" fill="#ffffff" stroke="none" />
  <path d="M 76 5444.5  C 79.08 5444.5  81.5 5446.92  81.5 5450  C 81.5 5453.08  79.08 5455.5  76 5455.5  C 72.92 5455.5  70.5 5453.08  70.5 5450  C 70.5 5446.92  72.92 5444.5  76 5444.5  Z " stroke-width="1" stroke="#797979" fill="none" />
  <path d="M 76 5453  C 74.32 5453  73 5451.68  73 5450  C 73 5448.32  74.32 5447  76 5447  C 77.68 5447  79 5448.32  79 5450  C 79 5451.68  77.68 5453  76 5453  " fill-rule="nonzero" fill="#797979" stroke="none" />
</svg>