<?xml version="1.0" encoding="utf-8"?>
<svg version="1.1" xmlns:xlink="http://www.w3.org/1999/xlink" width="12px" height="12px" viewBox="139 5108  12 12" xmlns="http://www.w3.org/2000/svg">
  <path d="M 145 5108  C 148.36 5108  151 5110.64  151 5114  C 151 5117.36  148.36 5120  145 5120  C 141.64 5120  139 5117.36  139 5114  C 139 5110.64  141.64 5108  145 5108  Z " fill-rule="nonzero" fill="#ffffff" stroke="none" />
  <path d="M 145 5108.5  C 148.08 5108.5  150.5 5110.92  150.5 5114  C 150.5 5117.08  148.08 5119.5  145 5119.5  C 141.92 5119.5  139.5 5117.08  139.5 5114  C 139.5 5110.92  141.92 5108.5  145 5108.5  Z " stroke-width="1" stroke="#797979" fill="none" />
  <path d="M 145 5117  C 143.32 5117  142 5115.68  142 5114  C 142 5112.32  143.32 5111  145 5111  C 146.68 5111  148 5112.32  148 5114  C 148 5115.68  146.68 5117  145 5117  " fill-rule="nonzero" fill="#797979" stroke="none" />
</svg>