<?xml version="1.0" encoding="utf-8"?>
<svg version="1.1" xmlns:xlink="http://www.w3.org/1999/xlink" width="12px" height="12px" viewBox="139 5514  12 12" xmlns="http://www.w3.org/2000/svg">
  <path d="M 145 5514  C 148.36 5514  151 5516.64  151 5520  C 151 5523.36  148.36 5526  145 5526  C 141.64 5526  139 5523.36  139 5520  C 139 5516.64  141.64 5514  145 5514  Z " fill-rule="nonzero" fill="#ffffff" stroke="none" />
  <path d="M 145 5514.5  C 148.08 5514.5  150.5 5516.92  150.5 5520  C 150.5 5523.08  148.08 5525.5  145 5525.5  C 141.92 5525.5  139.5 5523.08  139.5 5520  C 139.5 5516.92  141.92 5514.5  145 5514.5  Z " stroke-width="1" stroke="#797979" fill="none" />
  <path d="M 145 5523  C 143.32 5523  142 5521.68  142 5520  C 142 5518.32  143.32 5517  145 5517  C 146.68 5517  148 5518.32  148 5520  C 148 5521.68  146.68 5523  145 5523  " fill-rule="nonzero" fill="#797979" stroke="none" />
</svg>