<?xml version="1.0" encoding="utf-8"?>
<svg version="1.1" xmlns:xlink="http://www.w3.org/1999/xlink" width="12px" height="12px" viewBox="70 5323  12 12" xmlns="http://www.w3.org/2000/svg">
  <path d="M 76 5323  C 79.36 5323  82 5325.64  82 5329  C 82 5332.36  79.36 5335  76 5335  C 72.64 5335  70 5332.36  70 5329  C 70 5325.64  72.64 5323  76 5323  Z " fill-rule="nonzero" fill="#ffffff" stroke="none" />
  <path d="M 76 5323.5  C 79.08 5323.5  81.5 5325.92  81.5 5329  C 81.5 5332.08  79.08 5334.5  76 5334.5  C 72.92 5334.5  70.5 5332.08  70.5 5329  C 70.5 5325.92  72.92 5323.5  76 5323.5  Z " stroke-width="1" stroke="#797979" fill="none" />
  <path d="M 76 5332  C 74.32 5332  73 5330.68  73 5329  C 73 5327.32  74.32 5326  76 5326  C 77.68 5326  79 5327.32  79 5329  C 79 5330.68  77.68 5332  76 5332  " fill-rule="nonzero" fill="#797979" stroke="none" />
</svg>