<?xml version="1.0" encoding="utf-8"?>
<svg version="1.1" xmlns:xlink="http://www.w3.org/1999/xlink" width="12px" height="12px" viewBox="139 5706  12 12" xmlns="http://www.w3.org/2000/svg">
  <path d="M 145 5706  C 148.36 5706  151 5708.64  151 5712  C 151 5715.36  148.36 5718  145 5718  C 141.64 5718  139 5715.36  139 5712  C 139 5708.64  141.64 5706  145 5706  Z " fill-rule="nonzero" fill="#ffffff" stroke="none" />
  <path d="M 145 5706.5  C 148.08 5706.5  150.5 5708.92  150.5 5712  C 150.5 5715.08  148.08 5717.5  145 5717.5  C 141.92 5717.5  139.5 5715.08  139.5 5712  C 139.5 5708.92  141.92 5706.5  145 5706.5  Z " stroke-width="1" stroke="#797979" fill="none" />
  <path d="M 145 5715  C 143.32 5715  142 5713.68  142 5712  C 142 5710.32  143.32 5709  145 5709  C 146.68 5709  148 5710.32  148 5712  C 148 5713.68  146.68 5715  145 5715  " fill-rule="nonzero" fill="#797979" stroke="none" />
</svg>