<?xml version="1.0" encoding="utf-8"?>
<svg version="1.1" xmlns:xlink="http://www.w3.org/1999/xlink" width="12px" height="12px" viewBox="70 5251  12 12" xmlns="http://www.w3.org/2000/svg">
  <path d="M 76 5251  C 79.36 5251  82 5253.64  82 5257  C 82 5260.36  79.36 5263  76 5263  C 72.64 5263  70 5260.36  70 5257  C 70 5253.64  72.64 5251  76 5251  Z " fill-rule="nonzero" fill="#ffffff" stroke="none" />
  <path d="M 76 5251.5  C 79.08 5251.5  81.5 5253.92  81.5 5257  C 81.5 5260.08  79.08 5262.5  76 5262.5  C 72.92 5262.5  70.5 5260.08  70.5 5257  C 70.5 5253.92  72.92 5251.5  76 5251.5  Z " stroke-width="1" stroke="#797979" fill="none" />
  <path d="M 76 5260  C 74.32 5260  73 5258.68  73 5257  C 73 5255.32  74.32 5254  76 5254  C 77.68 5254  79 5255.32  79 5257  C 79 5258.68  77.68 5260  76 5260  " fill-rule="nonzero" fill="#797979" stroke="none" />
</svg>