<?xml version="1.0" encoding="utf-8"?>
<svg version="1.1" xmlns:xlink="http://www.w3.org/1999/xlink" width="12px" height="12px" viewBox="139 5323  12 12" xmlns="http://www.w3.org/2000/svg">
  <path d="M 145 5323  C 148.36 5323  151 5325.64  151 5329  C 151 5332.36  148.36 5335  145 5335  C 141.64 5335  139 5332.36  139 5329  C 139 5325.64  141.64 5323  145 5323  Z " fill-rule="nonzero" fill="#ffffff" stroke="none" />
  <path d="M 145 5323.5  C 148.08 5323.5  150.5 5325.92  150.5 5329  C 150.5 5332.08  148.08 5334.5  145 5334.5  C 141.92 5334.5  139.5 5332.08  139.5 5329  C 139.5 5325.92  141.92 5323.5  145 5323.5  Z " stroke-width="1" stroke="#797979" fill="none" />
  <path d="M 145 5332  C 143.32 5332  142 5330.68  142 5329  C 142 5327.32  143.32 5326  145 5326  C 146.68 5326  148 5327.32  148 5329  C 148 5330.68  146.68 5332  145 5332  " fill-rule="nonzero" fill="#797979" stroke="none" />
</svg>