<?xml version="1.0" encoding="utf-8"?>
<svg version="1.1" xmlns:xlink="http://www.w3.org/1999/xlink" width="12px" height="12px" viewBox="139 5181  12 12" xmlns="http://www.w3.org/2000/svg">
  <path d="M 145 5181  C 148.36 5181  151 5183.64  151 5187  C 151 5190.36  148.36 5193  145 5193  C 141.64 5193  139 5190.36  139 5187  C 139 5183.64  141.64 5181  145 5181  Z " fill-rule="nonzero" fill="#ffffff" stroke="none" />
  <path d="M 145 5181.5  C 148.08 5181.5  150.5 5183.92  150.5 5187  C 150.5 5190.08  148.08 5192.5  145 5192.5  C 141.92 5192.5  139.5 5190.08  139.5 5187  C 139.5 5183.92  141.92 5181.5  145 5181.5  Z " stroke-width="1" stroke="#797979" fill="none" />
  <path d="M 145 5190  C 143.32 5190  142 5188.68  142 5187  C 142 5185.32  143.32 5184  145 5184  C 146.68 5184  148 5185.32  148 5187  C 148 5188.68  146.68 5190  145 5190  " fill-rule="nonzero" fill="#797979" stroke="none" />
</svg>