<?xml version="1.0" encoding="utf-8"?>
<svg version="1.1" xmlns:xlink="http://www.w3.org/1999/xlink" width="12px" height="12px" viewBox="70 5576  12 12" xmlns="http://www.w3.org/2000/svg">
  <path d="M 76 5576  C 79.36 5576  82 5578.64  82 5582  C 82 5585.36  79.36 5588  76 5588  C 72.64 5588  70 5585.36  70 5582  C 70 5578.64  72.64 5576  76 5576  Z " fill-rule="nonzero" fill="#ffffff" stroke="none" />
  <path d="M 76 5576.5  C 79.08 5576.5  81.5 5578.92  81.5 5582  C 81.5 5585.08  79.08 5587.5  76 5587.5  C 72.92 5587.5  70.5 5585.08  70.5 5582  C 70.5 5578.92  72.92 5576.5  76 5576.5  Z " stroke-width="1" stroke="#797979" fill="none" />
  <path d="M 76 5585  C 74.32 5585  73 5583.68  73 5582  C 73 5580.32  74.32 5579  76 5579  C 77.68 5579  79 5580.32  79 5582  C 79 5583.68  77.68 5585  76 5585  " fill-rule="nonzero" fill="#797979" stroke="none" />
</svg>