<?xml version="1.0" encoding="utf-8"?>
<svg version="1.1" xmlns:xlink="http://www.w3.org/1999/xlink" width="12px" height="12px" viewBox="615 414  12 12" xmlns="http://www.w3.org/2000/svg">
  <path d="M 621 414  C 624.36 414  627 416.64  627 420  C 627 423.36  624.36 426  621 426  C 617.64 426  615 423.36  615 420  C 615 416.64  617.64 414  621 414  Z " fill-rule="nonzero" fill="#ffffff" stroke="none" />
  <path d="M 621 414.5  C 624.08 414.5  626.5 416.92  626.5 420  C 626.5 423.08  624.08 425.5  621 425.5  C 617.92 425.5  615.5 423.08  615.5 420  C 615.5 416.92  617.92 414.5  621 414.5  Z " stroke-width="1" stroke="#797979" fill="none" />
  <path d="M 621 423  C 619.32 423  618 421.68  618 420  C 618 418.32  619.32 417  621 417  C 622.68 417  624 418.32  624 420  C 624 421.68  622.68 423  621 423  " fill-rule="nonzero" fill="#797979" stroke="none" />
</svg>