<?xml version="1.0" encoding="utf-8"?>
<svg version="1.1" xmlns:xlink="http://www.w3.org/1999/xlink" width="12px" height="12px" viewBox="534 414  12 12" xmlns="http://www.w3.org/2000/svg">
  <path d="M 540 414  C 543.36 414  546 416.64  546 420  C 546 423.36  543.36 426  540 426  C 536.64 426  534 423.36  534 420  C 534 416.64  536.64 414  540 414  Z " fill-rule="nonzero" fill="#ffffff" stroke="none" />
  <path d="M 540 414.5  C 543.08 414.5  545.5 416.92  545.5 420  C 545.5 423.08  543.08 425.5  540 425.5  C 536.92 425.5  534.5 423.08  534.5 420  C 534.5 416.92  536.92 414.5  540 414.5  Z " stroke-width="1" stroke="#797979" fill="none" />
  <path d="M 540 423  C 538.32 423  537 421.68  537 420  C 537 418.32  538.32 417  540 417  C 541.68 417  543 418.32  543 420  C 543 421.68  541.68 423  540 423  " fill-rule="nonzero" fill="#797979" stroke="none" />
</svg>