<?xml version="1.0" encoding="utf-8"?>
<svg version="1.1" xmlns:xlink="http://www.w3.org/1999/xlink" width="15px" height="15px" xmlns="http://www.w3.org/2000/svg">
  <g transform="matrix(1 0 0 1 -169 -161 )">
    <path d="M 6.99551569506727 11.25  L 7.46636771300448 11.25  L 8.44170403587444 10.0142045454545  L 7.16367713004484 8.39488636363636  L 6.18834080717489 9.63068181818182  L 6.18834080717489 10.2272727272727  L 6.99551569506727 10.2272727272727  L 6.99551569506727 11.25  Z M 11.1575112107623 3.93110795454545  C 11.252802690583 3.81036931818182  11.2556053811659 3.69318181818182  11.1659192825112 3.57954545454545  C 11.0762331838565 3.46590909090909  10.9837443946188 3.46946022727273  10.8884529147982 3.59019886363636  L 7.94562780269058 7.31889204545455  C 7.85033632286996 7.43963068181818  7.847533632287 7.55681818181818  7.9372197309417 7.67045454545455  C 8.02690582959641 7.78409090909091  8.11939461883408 7.78053977272727  8.21468609865471 7.65980113636364  L 11.1575112107623 3.93110795454545  Z M 11.6704035874439 9.59872159090909  C 11.7825112107623 9.65553977272727  11.8385650224215 9.75852272727273  11.8385650224215 9.90767045454546  L 11.8385650224215 11.9318181818182  C 11.8385650224215 12.7769886363636  11.6017376681614 13.4996448863636  11.1280829596413 14.0997869318182  C 10.6544282511211 14.6999289772727  10.0840807174888 15  9.41704035874439 15  L 2.42152466367713 15  C 1.75448430493274 15  1.18413677130045 14.6999289772727  0.710482062780269 14.0997869318182  C 0.23682735426009 13.4996448863636  0 12.7769886363636  0 11.9318181818182  L 0 3.06818181818182  C 0 2.22301136363636  0.23682735426009 1.50035511363636  0.710482062780269 0.900213068181819  C 1.18413677130045 0.300071022727271  1.75448430493274 0  2.42152466367713 0  L 9.41704035874439 0  C 9.77017937219731 0  10.0980941704036 0.0887784090909083  10.4007847533632 0.266335227272727  C 10.484865470852 0.316051136363635  10.5353139013453 0.397727272727272  10.5521300448431 0.511363636363636  C 10.5689461883408 0.632102272727272  10.5437219730942 0.735085227272727  10.4764573991031 0.8203125  L 10.0644618834081 1.34232954545455  C 9.9859865470852 1.44176136363636  9.89630044843049 1.47017045454545  9.79540358744395 1.42755681818182  C 9.6664798206278 1.38494318181818  9.54035874439462 1.36363636363636  9.41704035874439 1.36363636363636  L 2.42152466367713 1.36363636363636  C 2.05156950672646 1.36363636363636  1.73486547085202 1.53053977272727  1.47141255605381 1.86434659090909  C 1.20795964125561 2.19815340909091  1.0762331838565 2.59943181818182  1.0762331838565 3.06818181818182  L 1.0762331838565 11.9318181818182  C 1.0762331838565 12.4005681818182  1.20795964125561 12.8018465909091  1.47141255605381 13.1356534090909  C 1.73486547085202 13.4694602272727  2.05156950672646 13.6363636363636  2.42152466367713 13.6363636363636  L 9.41704035874439 13.6363636363636  C 9.78699551569507 13.6363636363636  10.1036995515695 13.4694602272727  10.3671524663677 13.1356534090909  C 10.6306053811659 12.8018465909091  10.762331838565 12.4005681818182  10.762331838565 11.9318181818182  L 10.762331838565 10.5894886363636  C 10.762331838565 10.4971590909091  10.7875560538117 10.4190340909091  10.8380044843049 10.3551136363636  L 11.3761210762332 9.67329545454546  C 11.460201793722 9.56676136363636  11.5582959641256 9.54190340909091  11.6704035874439 9.59872159090909  Z M 5.38116591928251 9.20454545454546  L 11.0313901345291 2.04545454545455  L 13.4529147982063 5.11363636363636  L 7.80269058295964 12.2727272727273  L 5.38116591928251 12.2727272727273  L 5.38116591928251 9.20454545454546  Z M 15 2.72727272727273  C 15 3.01136363636364  14.9215246636771 3.25284090909091  14.7645739910314 3.45170454545455  L 13.9910313901345 4.43181818181818  L 11.5695067264574 1.36363636363636  L 12.3430493273543 0.383522727272727  C 12.5 0.184659090909089  12.6905829596413 0.0852272727272735  12.914798206278 0.0852272727272735  C 13.1390134529148 0.0852272727272735  13.3295964125561 0.184659090909089  13.4865470852018 0.383522727272727  L 14.7645739910314 2.00284090909091  C 14.9215246636771 2.20170454545454  15 2.44318181818182  15 2.72727272727273  Z " fill-rule="nonzero" fill="#ffffff" stroke="none" transform="matrix(1 0 0 1 169 161 )" />
  </g>
</svg>