<?xml version="1.0" encoding="utf-8"?>
<svg version="1.1" xmlns:xlink="http://www.w3.org/1999/xlink" width="15px" height="15px" xmlns="http://www.w3.org/2000/svg">
  <g transform="matrix(1 0 0 1 -151 -161 )">
    <path d="M 13.8490513392857 13.8490513392857  C 13.9020647321429 13.7960379464286  13.9285714285714 13.7332589285714  13.9285714285714 13.6607142857143  L 13.9285714285714 4.55357142857143  C 13.9285714285714 4.48102678571428  13.9020647321429 4.41824776785714  13.8490513392857 4.365234375  C 13.7960379464286 4.31222098214286  13.7332589285714 4.28571428571429  13.6607142857143 4.28571428571429  L 4.55357142857143 4.28571428571429  C 4.48102678571429 4.28571428571429  4.41824776785714 4.31222098214286  4.365234375 4.365234375  C 4.31222098214286 4.41824776785714  4.28571428571429 4.48102678571428  4.28571428571429 4.55357142857143  L 4.28571428571429 13.6607142857143  C 4.28571428571429 13.7332589285714  4.31222098214286 13.7960379464286  4.365234375 13.8490513392857  C 4.41824776785714 13.9020647321429  4.48102678571429 13.9285714285714  4.55357142857143 13.9285714285714  L 13.6607142857143 13.9285714285714  C 13.7332589285714 13.9285714285714  13.7960379464286 13.9020647321429  13.8490513392857 13.8490513392857  Z M 14.6065848214286 3.60770089285714  C 14.8688616071429 3.86997767857143  15 4.18526785714286  15 4.55357142857143  L 15 13.6607142857143  C 15 14.0290178571429  14.8688616071429 14.3443080357143  14.6065848214286 14.6065848214286  C 14.3443080357143 14.8688616071429  14.0290178571429 15  13.6607142857143 15  L 4.55357142857143 15  C 4.18526785714286 15  3.86997767857143 14.8688616071429  3.60770089285714 14.6065848214286  C 3.34542410714286 14.3443080357143  3.21428571428571 14.0290178571429  3.21428571428571 13.6607142857143  L 3.21428571428571 4.55357142857143  C 3.21428571428571 4.18526785714286  3.34542410714286 3.86997767857143  3.60770089285714 3.60770089285714  C 3.86997767857143 3.34542410714286  4.18526785714286 3.21428571428571  4.55357142857143 3.21428571428571  L 13.6607142857143 3.21428571428571  C 14.0290178571429 3.21428571428571  14.3443080357143 3.34542410714286  14.6065848214286 3.60770089285714  Z M 11.3922991071429 0.393415178571429  C 11.6545758928571 0.655691964285713  11.7857142857143 0.970982142857144  11.7857142857143 1.33928571428571  L 11.7857142857143 2.67857142857143  L 10.7142857142857 2.67857142857143  L 10.7142857142857 1.33928571428571  C 10.7142857142857 1.26674107142857  10.6877790178571 1.20396205357143  10.634765625 1.15094866071429  C 10.5817522321429 1.09793526785714  10.5189732142857 1.07142857142857  10.4464285714286 1.07142857142857  L 1.33928571428571 1.07142857142857  C 1.26674107142857 1.07142857142857  1.20396205357143 1.09793526785714  1.15094866071429 1.15094866071429  C 1.09793526785714 1.20396205357143  1.07142857142857 1.26674107142857  1.07142857142857 1.33928571428571  L 1.07142857142857 10.4464285714286  C 1.07142857142857 10.5189732142857  1.09793526785714 10.5817522321429  1.15094866071429 10.634765625  C 1.20396205357143 10.6877790178571  1.26674107142857 10.7142857142857  1.33928571428571 10.7142857142857  L 2.67857142857143 10.7142857142857  L 2.67857142857143 11.7857142857143  L 1.33928571428571 11.7857142857143  C 0.970982142857143 11.7857142857143  0.655691964285714 11.6545758928571  0.393415178571429 11.3922991071429  C 0.131138392857143 11.1300223214286  0 10.8147321428571  0 10.4464285714286  L 0 1.33928571428571  C 0 0.970982142857144  0.131138392857143 0.655691964285713  0.393415178571429 0.393415178571429  C 0.655691964285714 0.131138392857143  0.970982142857143 0  1.33928571428571 0  L 10.4464285714286 0  C 10.8147321428571 0  11.1300223214286 0.131138392857143  11.3922991071429 0.393415178571429  Z " fill-rule="nonzero" fill="#ffffff" stroke="none" transform="matrix(1 0 0 1 151 161 )" />
  </g>
</svg>