<?xml version="1.0" encoding="utf-8"?>
<svg version="1.1" xmlns:xlink="http://www.w3.org/1999/xlink" width="30px" height="30px" xmlns="http://www.w3.org/2000/svg">
  <g transform="matrix(1 0 0 1 -1152 -234 )">
    <path d="M 29.4034090909091 11.5056818181818  C 29.8011363636364 11.9034090909091  30 12.3863636363636  30 12.9545454545455  L 30 17.0454545454545  C 30 17.6136363636364  29.8011363636364 18.0965909090909  29.4034090909091 18.4943181818182  C 29.0056818181818 18.8920454545455  28.5227272727273 19.0909090909091  27.9545454545455 19.0909090909091  L 19.0909090909091 19.0909090909091  L 19.0909090909091 27.9545454545455  C 19.0909090909091 28.5227272727273  18.8920454545455 29.0056818181818  18.4943181818182 29.4034090909091  C 18.0965909090909 29.8011363636364  17.6136363636364 30  17.0454545454545 30  L 12.9545454545455 30  C 12.3863636363636 30  11.9034090909091 29.8011363636364  11.5056818181818 29.4034090909091  C 11.1079545454545 29.0056818181818  10.9090909090909 28.5227272727273  10.9090909090909 27.9545454545455  L 10.9090909090909 19.0909090909091  L 2.04545454545455 19.0909090909091  C 1.47727272727273 19.0909090909091  0.994318181818182 18.8920454545455  0.596590909090909 18.4943181818182  C 0.198863636363636 18.0965909090909  0 17.6136363636364  0 17.0454545454545  L 0 12.9545454545455  C 0 12.3863636363636  0.198863636363636 11.9034090909091  0.596590909090909 11.5056818181818  C 0.994318181818182 11.1079545454545  1.47727272727273 10.9090909090909  2.04545454545455 10.9090909090909  L 10.9090909090909 10.9090909090909  L 10.9090909090909 2.04545454545455  C 10.9090909090909 1.47727272727273  11.1079545454545 0.99431818181818  11.5056818181818 0.596590909090909  C 11.9034090909091 0.198863636363635  12.3863636363636 0  12.9545454545455 0  L 17.0454545454545 0  C 17.6136363636364 0  18.0965909090909 0.198863636363635  18.4943181818182 0.596590909090909  C 18.8920454545455 0.99431818181818  19.0909090909091 1.47727272727273  19.0909090909091 2.04545454545455  L 19.0909090909091 10.9090909090909  L 27.9545454545455 10.9090909090909  C 28.5227272727273 10.9090909090909  29.0056818181818 11.1079545454545  29.4034090909091 11.5056818181818  Z " fill-rule="nonzero" fill="#ffffff" stroke="none" transform="matrix(1 0 0 1 1152 234 )" />
  </g>
</svg>