<?xml version="1.0" encoding="utf-8"?>
<svg version="1.1" xmlns:xlink="http://www.w3.org/1999/xlink" width="30px" height="28px" xmlns="http://www.w3.org/2000/svg">
  <g transform="matrix(1 0 0 1 -1151 -295 )">
    <path d="M 2.15999999999995 12.5383522727273  C 3.39481239565112 12.5528476105834  8.2192871066316 12.0192001107677  9.24000000000006 12.0909090909091  L 5.27999999999997 20.1747159090909  L 6.12000000000003 19.7272727272727  C 6.12000000000003 19.8482403318082  3.1883791851667 14.2001025150503  2.15999999999995 12.7272727272727  C 1.1316208148332 11.2544429394952  2.88999498839239 13.5143820438831  2.83733916837364 13.4659916761408  C 2.52000000000003 13.174358974359  2.27999999999997 12.851282051282  3.12000000000003 12.7272727272727  C 3.12000000000003 12.7272727272727  0.925187604348775 12.5238569348711  2.15999999999995 12.5383522727273  Z M 29.8409598214285 23.0980113636364  C 29.9469866071428 23.2239583333333  30 23.3731060606061  30 23.5454545454545  L 30 27.3636363636364  C 30 27.5359848484848  29.9469866071428 27.6851325757576  29.8409598214285 27.8110795454545  C 29.7349330357142 27.9370265151516  29.609375 28  29.4642857142857 28  L 0.535714285714266 28  C 0.390625000000045 28  0.265066964285779 27.9370265151516  0.159040178571468 27.8110795454545  C 0.0530133928571558 27.6851325757576  0 27.5359848484848  0 27.3636363636364  L 0 23.5454545454545  C 0 23.3731060606061  0.0530133928571558 23.2239583333333  0.159040178571468 23.0980113636364  C 0.265066964285779 22.9720643939394  0.390625000000045 22.9090909090909  0.535714285714266 23  L 29.4642857142857 23  C 29.609375 22.9090909090909  29.7349330357142 22.9720643939394  29.8409598214285 23.0980113636364  Z M 29.8409598214285 15.4616477272727  C 29.9469866071428 15.5875946969697  30 15.7367424242424  30 15.9090909090909  L 30 19.7272727272727  C 30 19.8996212121212  29.9469866071428 20.0487689393939  29.8409598214285 20.1747159090909  C 29.7349330357142 20.3006628787879  29.609375 20.3636363636364  29.4642857142857 20  L 11.25 20  C 11.1049107142858 20.3636363636364  10.9793526785714 20.3006628787879  10.8733258928572 20.1747159090909  C 10.7672991071429 20.0487689393939  10.7142857142857 19.8996212121212  10.7142857142857 19.7272727272727  L 10.7142857142857 15.9090909090909  C 10.7142857142857 15.7367424242424  10.7672991071429 15.5875946969697  10.8733258928572 15.4616477272727  C 10.9793526785714 15.3357007575758  11.1049107142858 15.2727272727273  11.25 15  L 29.4642857142857 15  C 29.609375 15.2727272727273  29.7349330357142 15.3357007575758  29.8409598214285 15.4616477272727  Z M 29.8409598214285 7.82528409090907  C 29.9469866071428 7.95123106060607  30 8.10037878787878  30 8.27272727272726  L 30 12.0909090909091  C 30 12.2632575757576  29.9469866071428 12.4124053030303  29.8409598214285 12.5383522727273  C 29.7349330357142 12.6642992424242  29.609375 12.7272727272727  29.4642857142857 13  L 11.25 13  C 11.1049107142858 12.7272727272727  10.9793526785714 12.6642992424242  10.8733258928572 12.5383522727273  C 10.7672991071429 12.4124053030303  10.7142857142857 12.2632575757576  10.7142857142857 12.0909090909091  L 10.7142857142857 8.27272727272726  C 10.7142857142857 8.10037878787878  10.7672991071429 7.95123106060607  10.8733258928572 7.82528409090907  C 10.9793526785714 7.69933712121211  11.1049107142858 7.63636363636363  11.25 8  L 29.4642857142857 8  C 29.609375 7.63636363636363  29.7349330357142 7.69933712121211  29.8409598214285 7.82528409090907  Z M 29.8409598214285 0.188920454545443  C 29.9469866071428 0.314867424242406  30 0.464015151515148  30 0.636363636363629  L 30 4.45454545454544  C 30 4.62689393939393  29.9469866071428 4.77604166666667  29.8409598214285 4.90198863636363  C 29.7349330357142 5.02793560606059  29.609375 5.09090909090907  29.4642857142857 5  L 0.535714285714266 5  C 0.390625000000045 5.09090909090907  0.265066964285779 5.02793560606059  0.159040178571468 4.90198863636363  C 0.0530133928571558 4.77604166666667  0 4.62689393939393  0 4.45454545454544  L 0 0.636363636363629  C 0 0.464015151515148  0.0530133928571558 0.314867424242406  0.159040178571468 0.188920454545443  C 0.265066964285779 0.0629734848484811  0.390625000000045 0  0.535714285714266 0  L 29.4642857142857 0  C 29.609375 0  29.7349330357142 0.0629734848484811  29.8409598214285 0.188920454545443  Z " fill-rule="nonzero" fill="#ffffff" stroke="none" transform="matrix(1 0 0 1 1151 295 )" />
  </g>
</svg>