<?xml version="1.0" encoding="utf-8"?>
<svg version="1.1" xmlns:xlink="http://www.w3.org/1999/xlink" width="12px" height="12px" viewBox="234 701.5  12 12" xmlns="http://www.w3.org/2000/svg">
  <path d="M 240 701.5  C 243.36 701.5  246 704.14  246 707.5  C 246 710.86  243.36 713.5  240 713.5  C 236.64 713.5  234 710.86  234 707.5  C 234 704.14  236.64 701.5  240 701.5  Z " fill-rule="nonzero" fill="#ffffff" stroke="none" />
  <path d="M 240 702  C 243.08 702  245.5 704.42  245.5 707.5  C 245.5 710.58  243.08 713  240 713  C 236.92 713  234.5 710.58  234.5 707.5  C 234.5 704.42  236.92 702  240 702  Z " stroke-width="1" stroke="#797979" fill="none" />
  <path d="M 240 710.5  C 238.32 710.5  237 709.18  237 707.5  C 237 705.82  238.32 704.5  240 704.5  C 241.68 704.5  243 705.82  243 707.5  C 243 709.18  241.68 710.5  240 710.5  " fill-rule="nonzero" fill="#797979" stroke="none" />
</svg>