<?xml version="1.0" encoding="utf-8"?>
<svg version="1.1" xmlns:xlink="http://www.w3.org/1999/xlink" width="12px" height="12px" viewBox="344 701.5  12 12" xmlns="http://www.w3.org/2000/svg">
  <path d="M 350 701.5  C 353.36 701.5  356 704.14  356 707.5  C 356 710.86  353.36 713.5  350 713.5  C 346.64 713.5  344 710.86  344 707.5  C 344 704.14  346.64 701.5  350 701.5  Z " fill-rule="nonzero" fill="#ffffff" stroke="none" />
  <path d="M 350 702  C 353.08 702  355.5 704.42  355.5 707.5  C 355.5 710.58  353.08 713  350 713  C 346.92 713  344.5 710.58  344.5 707.5  C 344.5 704.42  346.92 702  350 702  Z " stroke-width="1" stroke="#797979" fill="none" />
  <path d="M 350 710.5  C 348.32 710.5  347 709.18  347 707.5  C 347 705.82  348.32 704.5  350 704.5  C 351.68 704.5  353 705.82  353 707.5  C 353 709.18  351.68 710.5  350 710.5  " fill-rule="nonzero" fill="#797979" stroke="none" />
</svg>