<?xml version="1.0" encoding="utf-8"?>
<svg version="1.1" xmlns:xlink="http://www.w3.org/1999/xlink" width="12px" height="12px" viewBox="124 701.5  12 12" xmlns="http://www.w3.org/2000/svg">
  <path d="M 130 701.5  C 133.36 701.5  136 704.14  136 707.5  C 136 710.86  133.36 713.5  130 713.5  C 126.64 713.5  124 710.86  124 707.5  C 124 704.14  126.64 701.5  130 701.5  Z " fill-rule="nonzero" fill="#ffffff" stroke="none" />
  <path d="M 130 702  C 133.08 702  135.5 704.42  135.5 707.5  C 135.5 710.58  133.08 713  130 713  C 126.92 713  124.5 710.58  124.5 707.5  C 124.5 704.42  126.92 702  130 702  Z " stroke-width="1" stroke="#797979" fill="none" />
  <path d="M 130 710.5  C 128.32 710.5  127 709.18  127 707.5  C 127 705.82  128.32 704.5  130 704.5  C 131.68 704.5  133 705.82  133 707.5  C 133 709.18  131.68 710.5  130 710.5  " fill-rule="nonzero" fill="#797979" stroke="none" />
</svg>