<?xml version="1.0" encoding="utf-8"?>
<svg version="1.1" xmlns:xlink="http://www.w3.org/1999/xlink" width="12px" height="12px" viewBox="457 701.5  12 12" xmlns="http://www.w3.org/2000/svg">
  <path d="M 463 701.5  C 466.36 701.5  469 704.14  469 707.5  C 469 710.86  466.36 713.5  463 713.5  C 459.64 713.5  457 710.86  457 707.5  C 457 704.14  459.64 701.5  463 701.5  Z " fill-rule="nonzero" fill="#ffffff" stroke="none" />
  <path d="M 463 702  C 466.08 702  468.5 704.42  468.5 707.5  C 468.5 710.58  466.08 713  463 713  C 459.92 713  457.5 710.58  457.5 707.5  C 457.5 704.42  459.92 702  463 702  Z " stroke-width="1" stroke="#797979" fill="none" />
  <path d="M 463 710.5  C 461.32 710.5  460 709.18  460 707.5  C 460 705.82  461.32 704.5  463 704.5  C 464.68 704.5  466 705.82  466 707.5  C 466 709.18  464.68 710.5  463 710.5  " fill-rule="nonzero" fill="#797979" stroke="none" />
</svg>