<?xml version="1.0" encoding="utf-8"?>
<svg version="1.1" xmlns:xlink="http://www.w3.org/1999/xlink" width="9px" height="13px" xmlns="http://www.w3.org/2000/svg">
  <g transform="matrix(1 0 0 1 -1088 -178 )">
    <path d="M 8.78626444159178 6.07608695652174  C 8.92875481386393 6.30570652173913  9 6.57359601449275  9 6.87975543478261  C 9 7.18002717391304  8.92875481386393 7.44497282608696  8.78626444159178 7.67459239130435  L 8.35301668806162 8.33695652173913  C 8.20667522464698 8.5606884057971  8.03145057766367 8.67255434782609  7.82734274711168 8.67255434782609  C 7.6193838254172 8.67255434782609  7.44608472400513 8.5606884057971  7.30744544287548 8.33695652173913  L 5.60911424903723 5.74932065217391  L 5.60911424903723 11.9667119565217  C 5.60911424903723 12.2728713768116  5.53690629011553 12.5216259057971  5.39249037227214 12.7129755434783  C 5.24807445442876 12.9043251811594  5.07381258023107 13  4.86970474967908 13  L 4.13029525032092 13  C 3.92618741976893 13  3.75192554557125 12.9043251811594  3.60750962772786 12.7129755434783  C 3.46309370988447 12.5216259057971  3.39088575096277 12.2728713768116  3.39088575096277 11.9667119565217  L 3.39088575096277 5.74932065217391  L 1.69255455712452 8.33695652173913  C 1.55391527599487 8.5606884057971  1.3806161745828 8.67255434782609  1.17265725288832 8.67255434782609  C 0.964698331193838 8.67255434782609  0.791399229781771 8.5606884057971  0.652759948652118 8.33695652173913  L 0.219512195121951 7.67459239130435  C 0.0731707317073171 7.45086050724638  0 7.18591485507246  0 6.87975543478261  C 0 6.56770833333333  0.0731707317073171 6.29981884057971  0.219512195121951 6.07608695652174  L 3.9801026957638 0.326766304347826  C 4.11489088575096 0.108922101449275  4.28818998716303 0  4.5 0  C 4.70795892169448 0  4.88318356867779 0.108922101449275  5.02567394094994 0.326766304347826  L 8.78626444159178 6.07608695652174  Z " fill-rule="nonzero" fill="#ffffff" stroke="none" transform="matrix(1 0 0 1 1088 178 )" />
  </g>
</svg>