<?xml version="1.0" encoding="utf-8"?>
<svg version="1.1" xmlns:xlink="http://www.w3.org/1999/xlink" width="15px" height="13px" xmlns="http://www.w3.org/2000/svg">
  <g transform="matrix(1 0 0 1 -1063 -445 )">
    <path d="M 2.53465346534653 11.9016501650165  L 3.59405940594059 11.9016501650165  L 4.4950495049505 11.1207920792079  L 2.16831683168317 9.10429042904291  L 1.26732673267327 9.88514851485149  L 1.26732673267327 10.803300330033  L 2.53465346534653 10.803300330033  L 2.53465346534653 11.9016501650165  Z M 8.7029702970297 4.08448844884488  C 8.74917491749175 4.04444444444444  8.77227722772277 3.9958195819582  8.77227722772277 3.93861386138614  C 8.77227722772277 3.81276127612761  8.6996699669967 3.74983498349835  8.55445544554455 3.74983498349835  C 8.48844884488449 3.74983498349835  8.43234323432343 3.76985698569857  8.38613861386139 3.80990099009901  L 3.01980198019802 8.46072607260726  C 2.97359735973597 8.5007700770077  2.95049504950495 8.54939493949395  2.95049504950495 8.60660066006601  C 2.95049504950495 8.73245324532453  3.02310231023102 8.7953795379538  3.16831683168317 8.7953795379538  C 3.23432343234323 8.7953795379538  3.29042904290429 8.77535753575357  3.33663366336634 8.73531353135314  L 8.7029702970297 4.08448844884488  Z M 0 9.43036303630363  L 8.23762376237624 2.29108910891089  L 12.3564356435644 5.86072607260726  L 4.11881188118812 13  L 0 13  L 0 9.43036303630363  Z M 14.6336633663366 2.33399339933993  C 14.8778877887789 2.55709570957096  15 2.81738173817382  15 3.11485148514852  C 15 3.41804180418042  14.8778877887789 3.67546754675467  14.6336633663366 3.88712871287129  L 12.990099009901 5.31155115511551  L 8.87128712871287 1.74191419141914  L 10.5148514851485 0.326072607260725  C 10.7524752475248 0.108690869086908  11.049504950495 0  11.4059405940594 0  C 11.7557755775578 0  12.0561056105611 0.108690869086908  12.3069306930693 0.326072607260725  L 14.6336633663366 2.33399339933993  Z " fill-rule="nonzero" fill="#000000" stroke="none" transform="matrix(1 0 0 1 1063 445 )" />
  </g>
</svg>