<?xml version="1.0" encoding="utf-8"?>
<svg version="1.1" xmlns:xlink="http://www.w3.org/1999/xlink" width="9px" height="13px" xmlns="http://www.w3.org/2000/svg">
  <g transform="matrix(1 0 0 1 -1097 -178 )">
    <path d="M 8.78626444159178 5.37356709372893  C 8.92875481386393 5.60148347943358  9 5.86738592942234  9 6.17127444369521  C 9 6.48100696785795  8.92875481386393 6.74398741290178  8.78626444159178 6.9602157788267  L 5.02567394094994 12.6756574511126  C 4.87548138639281 12.8918858170375  4.7002567394095 13  4.5 13  C 4.29589216944801 13  4.12259306803594 12.8918858170375  3.9801026957638 12.6756574511126  L 0.219512195121951 6.9602157788267  C 0.0731707317073171 6.74983142279164  0 6.48685097774781  0 6.17127444369521  C 0 5.86154191953248  0.0731707317073171 5.59563946954372  0.219512195121951 5.37356709372893  L 0.646983311938383 4.71611598111935  C 0.797175866495507 4.49988761519442  0.972400513478819 4.39177343223196  1.17265725288832 4.39177343223196  C 1.37676508344031 4.39177343223196  1.55006418485238 4.49988761519442  1.69255455712452 4.71611598111935  L 3.39088575096277 7.29332434254889  L 3.39088575096277 1.12204989885367  C 3.39088575096277 0.818161384580805  3.46405648267009 0.555180939536973  3.61039794608472 0.333108563722185  C 3.75673940949936 0.111036187907393  3.93003851091143 0  4.13029525032092 0  L 4.86970474967908 0  C 5.06996148908858 0  5.24326059050064 0.111036187907393  5.38960205391528 0.333108563722185  C 5.53594351732991 0.555180939536973  5.60911424903723 0.818161384580805  5.60911424903723 1.12204989885367  L 5.60911424903723 7.29332434254889  L 7.30744544287548 4.71611598111935  C 7.44993581514763 4.49988761519442  7.62323491655969 4.39177343223196  7.82734274711168 4.39177343223196  C 8.02759948652118 4.39177343223196  8.20282413350449 4.49988761519442  8.35301668806162 4.71611598111935  L 8.78626444159178 5.37356709372893  Z " fill-rule="nonzero" fill="#ffffff" stroke="none" transform="matrix(1 0 0 1 1097 178 )" />
  </g>
</svg>