<?xml version="1.0" encoding="utf-8"?>
<svg version="1.1" xmlns:xlink="http://www.w3.org/1999/xlink" width="12px" height="12px" viewBox="499 384  12 12" xmlns="http://www.w3.org/2000/svg">
  <path d="M 505 384  C 508.36 384  511 386.64  511 390  C 511 393.36  508.36 396  505 396  C 501.64 396  499 393.36  499 390  C 499 386.64  501.64 384  505 384  Z " fill-rule="nonzero" fill="#ffffff" stroke="none" />
  <path d="M 505 384.5  C 508.08 384.5  510.5 386.92  510.5 390  C 510.5 393.08  508.08 395.5  505 395.5  C 501.92 395.5  499.5 393.08  499.5 390  C 499.5 386.92  501.92 384.5  505 384.5  Z " stroke-width="1" stroke="#797979" fill="none" />
  <path d="M 505 393  C 503.32 393  502 391.68  502 390  C 502 388.32  503.32 387  505 387  C 506.68 387  508 388.32  508 390  C 508 391.68  506.68 393  505 393  " fill-rule="nonzero" fill="#797979" stroke="none" />
</svg>