<?xml version="1.0" encoding="utf-8"?>
<svg version="1.1" xmlns:xlink="http://www.w3.org/1999/xlink" width="12px" height="12px" viewBox="554 379.5  12 12" xmlns="http://www.w3.org/2000/svg">
  <path d="M 560 379.5  C 563.36 379.5  566 382.14  566 385.5  C 566 388.86  563.36 391.5  560 391.5  C 556.64 391.5  554 388.86  554 385.5  C 554 382.14  556.64 379.5  560 379.5  Z " fill-rule="nonzero" fill="#ffffff" stroke="none" />
  <path d="M 560 380  C 563.08 380  565.5 382.42  565.5 385.5  C 565.5 388.58  563.08 391  560 391  C 556.92 391  554.5 388.58  554.5 385.5  C 554.5 382.42  556.92 380  560 380  Z " stroke-width="1" stroke="#797979" fill="none" />
  <path d="M 560 388.5  C 558.32 388.5  557 387.18  557 385.5  C 557 383.82  558.32 382.5  560 382.5  C 561.68 382.5  563 383.82  563 385.5  C 563 387.18  561.68 388.5  560 388.5  " fill-rule="nonzero" fill="#797979" stroke="none" />
</svg>