<?xml version="1.0" encoding="utf-8"?>
<svg version="1.1" xmlns:xlink="http://www.w3.org/1999/xlink" width="12px" height="12px" viewBox="26 57  12 12" xmlns="http://www.w3.org/2000/svg">
  <path d="M 32 57  C 35.36 57  38 59.64  38 63  C 38 66.36  35.36 69  32 69  C 28.64 69  26 66.36  26 63  C 26 59.64  28.64 57  32 57  Z " fill-rule="nonzero" fill="#ffffff" stroke="none" />
  <path d="M 32 57.5  C 35.08 57.5  37.5 59.92  37.5 63  C 37.5 66.08  35.08 68.5  32 68.5  C 28.92 68.5  26.5 66.08  26.5 63  C 26.5 59.92  28.92 57.5  32 57.5  Z " stroke-width="1" stroke="#797979" fill="none" />
  <path d="M 32 66  C 30.32 66  29 64.68  29 63  C 29 61.32  30.32 60  32 60  C 33.68 60  35 61.32  35 63  C 35 64.68  33.68 66  32 66  " fill-rule="nonzero" fill="#797979" stroke="none" />
</svg>