<?xml version="1.0" encoding="utf-8"?>
<svg version="1.1" xmlns:xlink="http://www.w3.org/1999/xlink" width="12px" height="12px" viewBox="666 147  12 12" xmlns="http://www.w3.org/2000/svg">
  <path d="M 672 147  C 675.36 147  678 149.64  678 153  C 678 156.36  675.36 159  672 159  C 668.64 159  666 156.36  666 153  C 666 149.64  668.64 147  672 147  Z " fill-rule="nonzero" fill="#ffffff" stroke="none" />
  <path d="M 672 147.5  C 675.08 147.5  677.5 149.92  677.5 153  C 677.5 156.08  675.08 158.5  672 158.5  C 668.92 158.5  666.5 156.08  666.5 153  C 666.5 149.92  668.92 147.5  672 147.5  Z " stroke-width="1" stroke="#797979" fill="none" />
  <path d="M 672 156  C 670.32 156  669 154.68  669 153  C 669 151.32  670.32 150  672 150  C 673.68 150  675 151.32  675 153  C 675 154.68  673.68 156  672 156  " fill-rule="nonzero" fill="#797979" stroke="none" />
</svg>