<?xml version="1.0" encoding="utf-8"?>
<svg version="1.1" xmlns:xlink="http://www.w3.org/1999/xlink" width="12px" height="12px" viewBox="232 282  12 12" xmlns="http://www.w3.org/2000/svg">
  <path d="M 238 282  C 241.36 282  244 284.64  244 288  C 244 291.36  241.36 294  238 294  C 234.64 294  232 291.36  232 288  C 232 284.64  234.64 282  238 282  Z " fill-rule="nonzero" fill="#ffffff" stroke="none" />
  <path d="M 238 282.5  C 241.08 282.5  243.5 284.92  243.5 288  C 243.5 291.08  241.08 293.5  238 293.5  C 234.92 293.5  232.5 291.08  232.5 288  C 232.5 284.92  234.92 282.5  238 282.5  Z " stroke-width="1" stroke="#797979" fill="none" />
  <path d="M 238 291  C 236.32 291  235 289.68  235 288  C 235 286.32  236.32 285  238 285  C 239.68 285  241 286.32  241 288  C 241 289.68  239.68 291  238 291  " fill-rule="nonzero" fill="#797979" stroke="none" />
</svg>