<?xml version="1.0" encoding="utf-8"?>
<svg version="1.1" xmlns:xlink="http://www.w3.org/1999/xlink" width="12px" height="12px" viewBox="316 81  12 12" xmlns="http://www.w3.org/2000/svg">
  <path d="M 322 81  C 325.36 81  328 83.64  328 87  C 328 90.36  325.36 93  322 93  C 318.64 93  316 90.36  316 87  C 316 83.64  318.64 81  322 81  Z " fill-rule="nonzero" fill="#ffffff" stroke="none" />
  <path d="M 322 81.5  C 325.08 81.5  327.5 83.92  327.5 87  C 327.5 90.08  325.08 92.5  322 92.5  C 318.92 92.5  316.5 90.08  316.5 87  C 316.5 83.92  318.92 81.5  322 81.5  Z " stroke-width="1" stroke="#797979" fill="none" />
  <path d="M 322 90  C 320.32 90  319 88.68  319 87  C 319 85.32  320.32 84  322 84  C 323.68 84  325 85.32  325 87  C 325 88.68  323.68 90  322 90  " fill-rule="nonzero" fill="#797979" stroke="none" />
</svg>