<?xml version="1.0" encoding="utf-8"?>
<svg version="1.1" xmlns:xlink="http://www.w3.org/1999/xlink" width="12px" height="12px" viewBox="783 300  12 12" xmlns="http://www.w3.org/2000/svg">
  <path d="M 789 300  C 792.36 300  795 302.64  795 306  C 795 309.36  792.36 312  789 312  C 785.64 312  783 309.36  783 306  C 783 302.64  785.64 300  789 300  Z " fill-rule="nonzero" fill="#ffffff" stroke="none" />
  <path d="M 789 300.5  C 792.08 300.5  794.5 302.92  794.5 306  C 794.5 309.08  792.08 311.5  789 311.5  C 785.92 311.5  783.5 309.08  783.5 306  C 783.5 302.92  785.92 300.5  789 300.5  Z " stroke-width="1" stroke="#797979" fill="none" />
  <path d="M 789 309  C 787.32 309  786 307.68  786 306  C 786 304.32  787.32 303  789 303  C 790.68 303  792 304.32  792 306  C 792 307.68  790.68 309  789 309  " fill-rule="nonzero" fill="#797979" stroke="none" />
</svg>