<?xml version="1.0" encoding="utf-8"?>
<svg version="1.1" xmlns:xlink="http://www.w3.org/1999/xlink" width="25px" height="20px" xmlns="http://www.w3.org/2000/svg">
  <g transform="matrix(1 0 0 1 -179 -51 )">
    <path d="M 8.40541294642857 7.15494791666667  C 8.75418526785714 7.48046875  8.92857142857143 7.87326388888889  8.92857142857143 8.33333333333333  C 8.92857142857143 8.79340277777778  8.75418526785714 9.18619791666667  8.40541294642857 9.51171875  C 8.056640625 9.83723958333333  7.63578869047619 10  7.14285714285714 10  C 6.6499255952381 10  6.22907366071429 9.83723958333333  5.88030133928571 9.51171875  C 5.53152901785714 9.18619791666667  5.35714285714286 8.79340277777778  5.35714285714286 8.33333333333333  C 5.35714285714286 7.87326388888889  5.53152901785714 7.48046875  5.88030133928571 7.15494791666667  C 6.22907366071429 6.82942708333333  6.6499255952381 6.66666666666667  7.14285714285714 6.66666666666667  C 7.63578869047619 6.66666666666667  8.056640625 6.82942708333333  8.40541294642857 7.15494791666667  Z M 13.7625558035714 7.15494791666667  C 14.111328125 7.48046875  14.2857142857143 7.87326388888889  14.2857142857143 8.33333333333333  C 14.2857142857143 8.79340277777778  14.111328125 9.18619791666667  13.7625558035714 9.51171875  C 13.4137834821429 9.83723958333333  12.992931547619 10  12.5 10  C 12.007068452381 10  11.5862165178571 9.83723958333333  11.2374441964286 9.51171875  C 10.888671875 9.18619791666667  10.7142857142857 8.79340277777778  10.7142857142857 8.33333333333333  C 10.7142857142857 7.87326388888889  10.888671875 7.48046875  11.2374441964286 7.15494791666667  C 11.5862165178571 6.82942708333333  12.007068452381 6.66666666666667  12.5 6.66666666666667  C 12.992931547619 6.66666666666667  13.4137834821429 6.82942708333333  13.7625558035714 7.15494791666667  Z M 19.1196986607143 7.15494791666667  C 19.4684709821429 7.48046875  19.6428571428571 7.87326388888889  19.6428571428571 8.33333333333333  C 19.6428571428571 8.79340277777778  19.4684709821429 9.18619791666667  19.1196986607143 9.51171875  C 18.7709263392857 9.83723958333333  18.3500744047619 10  17.8571428571429 10  C 17.3642113095238 10  16.943359375 9.83723958333333  16.5945870535714 9.51171875  C 16.2458147321429 9.18619791666667  16.0714285714286 8.79340277777778  16.0714285714286 8.33333333333333  C 16.0714285714286 7.87326388888889  16.2458147321429 7.48046875  16.5945870535714 7.15494791666667  C 16.943359375 6.82942708333333  17.3642113095238 6.66666666666667  17.8571428571429 6.66666666666667  C 18.3500744047619 6.66666666666667  18.7709263392857 6.82942708333333  19.1196986607143 7.15494791666667  Z M 17.822265625 2.57161458333333  C 16.1714099702381 1.96831597222222  14.3973214285714 1.66666666666667  12.5 1.66666666666667  C 10.6026785714286 1.66666666666667  8.82859002976191 1.96831597222222  7.177734375 2.57161458333333  C 5.52687872023809 3.17491319444444  4.21549479166667 3.98871527777778  3.24358258928571 5.01302083333333  C 2.27167038690476 6.03732638888889  1.78571428571429 7.14409722222222  1.78571428571429 8.33333333333333  C 1.78571428571429 9.30555555555556  2.11821056547619 10.2322048611111  2.783203125 11.11328125  C 3.44819568452381 11.9943576388889  4.38523065476191 12.7560763888889  5.59430803571429 13.3984375  L 6.80803571428571 14.0494791666667  L 6.43136160714286 15.2994791666667  C 6.20814732142857 16.0894097222222  5.88262648809524 16.8359375  5.45479910714286 17.5390625  C 6.86848958333333 16.9921875  8.14732142857143 16.25  9.29129464285714 15.3125  L 9.89118303571429 14.8177083333333  L 10.6863839285714 14.8958333333333  C 11.328125 14.9652777777778  11.9326636904762 15  12.5 15  C 14.3973214285714 15  16.1714099702381 14.6983506944444  17.822265625 14.0950520833333  C 19.4731212797619 13.4917534722222  20.7845052083333 12.6779513888889  21.7564174107143 11.6536458333333  C 22.7283296130952 10.6293402777778  23.2142857142857 9.52256944444444  23.2142857142857 8.33333333333333  C 23.2142857142857 7.14409722222222  22.7283296130952 6.03732638888889  21.7564174107143 5.01302083333333  C 20.7845052083333 3.98871527777778  19.4731212797619 3.17491319444444  17.822265625 2.57161458333333  Z M 24.0094866071429 5.09765625  C 24.6698288690476 6.12630208333333  25 7.20486111111111  25 8.33333333333333  C 25 9.84375  24.4419642857143 11.2391493055556  23.3258928571429 12.51953125  C 22.2098214285714 13.7999131944444  20.6938244047619 14.8111979166667  18.7779017857143 15.5533854166667  C 16.8619791666667 16.2955729166667  14.7693452380952 16.6666666666667  12.5 16.6666666666667  C 11.8489583333333 16.6666666666667  11.1746651785714 16.6319444444444  10.4771205357143 16.5625  C 8.63560267857143 18.0815972222222  6.49646577380952 19.1319444444444  4.05970982142857 19.7135416666667  C 3.60398065476191 19.8350694444444  3.07384672619048 19.9305555555556  2.46930803571429 20  L 2.39955357142857 20  C 2.26004464285714 20  2.13448660714286 19.9544270833333  2.02287946428571 19.86328125  C 1.91127232142857 19.7721354166667  1.83686755952381 19.6527777777778  1.79966517857143 19.5052083333333  L 1.79966517857143 19.4921875  C 1.77176339285714 19.4574652777778  1.76943824404762 19.4053819444444  1.79268973214286 19.3359375  C 1.8159412202381 19.2664930555556  1.82524181547619 19.2230902777778  1.82059151785714 19.2057291666667  C 1.8159412202381 19.1883680555556  1.83686755952381 19.1471354166667  1.88337053571429 19.08203125  L 1.96707589285714 18.96484375  C 1.96707589285714 18.96484375  1.99962797619048 18.9279513888889  2.06473214285714 18.8541666666667  C 2.12983630952381 18.7803819444444  2.16703869047619 18.7413194444444  2.17633928571429 18.7369791666667  C 2.24144345238095 18.6675347222222  2.38560267857143 18.5177951388889  2.60881696428571 18.2877604166667  C 2.83203125 18.0577256944444  2.99246651785714 17.8927951388889  3.09012276785714 17.79296875  C 3.18777901785714 17.6931423611111  3.33193824404762 17.5217013888889  3.52260044642857 17.2786458333333  C 3.71326264880952 17.0355902777778  3.86439732142857 16.8142361111111  3.97600446428571 16.6145833333333  C 4.08761160714286 16.4149305555556  4.21316964285714 16.1588541666667  4.35267857142857 15.8463541666667  C 4.4921875 15.5338541666667  4.61309523809524 15.2039930555556  4.71540178571429 14.8567708333333  C 3.25520833333333 14.0842013888889  2.10425967261905 13.1293402777778  1.26255580357143 11.9921875  C 0.420851934523809 10.8550347222222  0 9.63541666666667  0 8.33333333333333  C 0 7.20486111111111  0.330171130952381 6.12630208333333  0.990513392857143 5.09765625  C 1.6508556547619 4.06901041666667  2.5390625 3.18142361111111  3.65513392857143 2.43489583333333  C 4.77120535714286 1.68836805555555  6.10119047619048 1.09592013888889  7.64508928571429 0.657552083333333  C 9.1889880952381 0.219184027777777  10.8072916666667 0  12.5 0  C 14.1927083333333 0  15.8110119047619 0.219184027777777  17.3549107142857 0.657552083333333  C 18.8988095238095 1.09592013888889  20.2287946428571 1.68836805555555  21.3448660714286 2.43489583333333  C 22.4609375 3.18142361111111  23.3491443452381 4.06901041666667  24.0094866071429 5.09765625  Z " fill-rule="nonzero" fill="#ffff00" stroke="none" transform="matrix(1 0 0 1 179 51 )" />
  </g>
</svg>