<?xml version="1.0" encoding="utf-8"?>
<svg version="1.1" xmlns:xlink="http://www.w3.org/1999/xlink" width="838px" height="671px" xmlns="http://www.w3.org/2000/svg">
  <defs>
    <mask fill="white" id="clip54">
      <path d="M 190.6 495.8  L 13 575.8  L 0.199999999999989 618.2  L 24.2 671  L 205 584  L 217 584  L 245.8 643.8  L 369.8 582.2  L 403.4 540.6  L 437 517.4  L 502.6 498  L 537 498  L 618.6 506.2  L 701 442.2  L 785.8 311.8  L 821 278.2  L 831.4 265.4  L 837.8 241.4  L 825.8 223.8  L 785.8 231  L 771.4 228.6  L 757.8 222.2  L 710.6 54.2  L 608.2 0.599999999999994  L 539.4 4.59999999999999  L 519.4 9.40000000000001  L 539.4 62.2  L 547.4 73.4  L 482.6 108.6  L 470.6 137.4  L 499.4 184.6  L 458.6 211.8  L 421.8 155  L 301.8 335  L 197.8 387  L 189 410.2  L 213.8 458.2  L 190.6 495.8  Z " fill-rule="evenodd" />
    </mask>
  </defs>
  <g transform="matrix(1 0 0 1 -211 -89 )">
    <path d="M 190.6 495.8  L 13 575.8  L 0.199999999999989 618.2  L 24.2 671  L 205 584  L 217 584  L 245.8 643.8  L 369.8 582.2  L 403.4 540.6  L 437 517.4  L 502.6 498  L 537 498  L 618.6 506.2  L 701 442.2  L 785.8 311.8  L 821 278.2  L 831.4 265.4  L 837.8 241.4  L 825.8 223.8  L 785.8 231  L 771.4 228.6  L 757.8 222.2  L 710.6 54.2  L 608.2 0.599999999999994  L 539.4 4.59999999999999  L 519.4 9.40000000000001  L 539.4 62.2  L 547.4 73.4  L 482.6 108.6  L 470.6 137.4  L 499.4 184.6  L 458.6 211.8  L 421.8 155  L 301.8 335  L 197.8 387  L 189 410.2  L 213.8 458.2  L 190.6 495.8  Z " fill-rule="nonzero" fill="#ffffff" stroke="none" fill-opacity="0" transform="matrix(1 0 0 1 211 89 )" />
    <path d="M 190.6 495.8  L 13 575.8  L 0.199999999999989 618.2  L 24.2 671  L 205 584  L 217 584  L 245.8 643.8  L 369.8 582.2  L 403.4 540.6  L 437 517.4  L 502.6 498  L 537 498  L 618.6 506.2  L 701 442.2  L 785.8 311.8  L 821 278.2  L 831.4 265.4  L 837.8 241.4  L 825.8 223.8  L 785.8 231  L 771.4 228.6  L 757.8 222.2  L 710.6 54.2  L 608.2 0.599999999999994  L 539.4 4.59999999999999  L 519.4 9.40000000000001  L 539.4 62.2  L 547.4 73.4  L 482.6 108.6  L 470.6 137.4  L 499.4 184.6  L 458.6 211.8  L 421.8 155  L 301.8 335  L 197.8 387  L 189 410.2  L 213.8 458.2  L 190.6 495.8  Z " stroke-width="4" stroke-dasharray="18,8" stroke="#ffff00" fill="none" transform="matrix(1 0 0 1 211 89 )" mask="url(#clip54)" />
  </g>
</svg>