<?xml version="1.0" encoding="utf-8"?>
<svg version="1.1" xmlns:xlink="http://www.w3.org/1999/xlink" width="9px" height="15px" xmlns="http://www.w3.org/2000/svg">
  <g transform="matrix(1 0 0 1 -1036 -284 )">
    <path d="M 8.78626444159178 7.01086956521739  C 8.92875481386393 7.2758152173913  9 7.58491847826087  9 7.93817934782609  C 9 8.28464673913044  8.92875481386393 8.59035326086956  8.78626444159178 8.85529891304348  L 8.35301668806162 9.6195652173913  C 8.20667522464698 9.87771739130435  8.03145057766367 10.0067934782609  7.82734274711168 10.0067934782609  C 7.6193838254172 10.0067934782609  7.44608472400513 9.87771739130435  7.30744544287548 9.6195652173913  L 5.60911424903723 6.63383152173913  L 5.60911424903723 13.8077445652174  C 5.60911424903723 14.1610054347826  5.53690629011553 14.4480298913043  5.39249037227214 14.6688179347826  C 5.24807445442876 14.8896059782609  5.07381258023107 15  4.86970474967908 15  L 4.13029525032092 15  C 3.92618741976893 15  3.75192554557125 14.8896059782609  3.60750962772786 14.6688179347826  C 3.46309370988447 14.4480298913043  3.39088575096277 14.1610054347826  3.39088575096277 13.8077445652174  L 3.39088575096277 6.63383152173913  L 1.69255455712452 9.6195652173913  C 1.55391527599487 9.87771739130435  1.3806161745828 10.0067934782609  1.17265725288832 10.0067934782609  C 0.964698331193838 10.0067934782609  0.791399229781771 9.87771739130435  0.652759948652118 9.6195652173913  L 0.219512195121951 8.85529891304348  C 0.0731707317073171 8.59714673913043  0 8.2914402173913  0 7.93817934782609  C 0 7.578125  0.0731707317073171 7.26902173913043  0.219512195121951 7.01086956521739  L 3.9801026957638 0.377038043478261  C 4.11489088575096 0.125679347826086  4.28818998716303 0  4.5 0  C 4.70795892169448 0  4.88318356867779 0.125679347826086  5.02567394094994 0.377038043478261  L 8.78626444159178 7.01086956521739  Z " fill-rule="nonzero" fill="#ffffff" stroke="none" transform="matrix(1 0 0 1 1036 284 )" />
  </g>
</svg>