<?xml version="1.0" encoding="utf-8"?>
<svg version="1.1" xmlns:xlink="http://www.w3.org/1999/xlink" width="9px" height="15px" xmlns="http://www.w3.org/2000/svg">
  <g transform="matrix(1 0 0 1 -1045 -284 )">
    <path d="M 8.78626444159178 6.20026972353338  C 8.92875481386393 6.46325016857721  9 6.77006068779501  9 7.12070128118678  C 9 7.47808496291301  8.92875481386393 7.78152393796359  8.78626444159178 8.0310182063385  L 5.02567394094994 14.6257585974376  C 4.87548138639281 14.8752528658125  4.7002567394095 15  4.5 15  C 4.29589216944801 15  4.12259306803594 14.8752528658125  3.9801026957638 14.6257585974376  L 0.219512195121951 8.0310182063385  C 0.0731707317073171 7.78826702629804  0 7.48482805124747  0 7.12070128118678  C 0 6.76331759946055  0.0731707317073171 6.45650708024275  0.219512195121951 6.20026972353338  L 0.646983311938383 5.44167228590695  C 0.797175866495507 5.19217801753203  0.972400513478819 5.06743088334457  1.17265725288832 5.06743088334457  C 1.37676508344031 5.06743088334457  1.55006418485238 5.19217801753203  1.69255455712452 5.44167228590695  L 3.39088575096277 8.41537424140256  L 3.39088575096277 1.29467296021578  C 3.39088575096277 0.944032366824005  3.46405648267009 0.640593391773431  3.61039794608472 0.38435603506406  C 3.75673940949936 0.128118678354684  3.93003851091143 0  4.13029525032092 0  L 4.86970474967908 0  C 5.06996148908858 0  5.24326059050064 0.128118678354684  5.38960205391528 0.38435603506406  C 5.53594351732991 0.640593391773431  5.60911424903723 0.944032366824005  5.60911424903723 1.29467296021578  L 5.60911424903723 8.41537424140256  L 7.30744544287548 5.44167228590695  C 7.44993581514763 5.19217801753203  7.62323491655969 5.06743088334457  7.82734274711168 5.06743088334457  C 8.02759948652118 5.06743088334457  8.20282413350449 5.19217801753203  8.35301668806162 5.44167228590695  L 8.78626444159178 6.20026972353338  Z " fill-rule="nonzero" fill="#ffffff" stroke="none" transform="matrix(1 0 0 1 1045 284 )" />
  </g>
</svg>