<?xml version="1.0" encoding="utf-8"?>
<svg version="1.1" xmlns:xlink="http://www.w3.org/1999/xlink" width="65px" height="65px" xmlns="http://www.w3.org/2000/svg">
  <g transform="matrix(1 0 0 1 -298 -197 )">
    <path d="M 330.5 198  C 348.14 198  362 211.86  362 229.5  C 362 247.14  348.14 261  330.5 261  C 312.86 261  299 247.14  299 229.5  C 299 211.86  312.86 198  330.5 198  Z " fill-rule="nonzero" fill="#dc6b1f" stroke="none" />
    <path d="M 330.5 198  C 348.14 198  362 211.86  362 229.5  C 362 247.14  348.14 261  330.5 261  C 312.86 261  299 247.14  299 229.5  C 299 211.86  312.86 198  330.5 198  Z " stroke-width="2" stroke="#ffffff" fill="none" />
  </g>
</svg>