<?xml version="1.0" encoding="utf-8"?>
<svg version="1.1" xmlns:xlink="http://www.w3.org/1999/xlink" width="70px" height="70px" xmlns="http://www.w3.org/2000/svg">
  <g transform="matrix(1 0 0 1 -186 -194 )">
    <path d="M 221 195  C 240.04 195  255 209.96  255 229  C 255 248.04  240.04 263  221 263  C 201.96 263  187 248.04  187 229  C 187 209.96  201.96 195  221 195  Z " fill-rule="nonzero" fill="#1b5284" stroke="none" />
    <path d="M 221 195  C 240.04 195  255 209.96  255 229  C 255 248.04  240.04 263  221 263  C 201.96 263  187 248.04  187 229  C 187 209.96  201.96 195  221 195  Z " stroke-width="2" stroke="#ffffff" fill="none" />
  </g>
</svg>