<?xml version="1.0" encoding="utf-8"?>
<svg version="1.1" xmlns:xlink="http://www.w3.org/1999/xlink" width="50px" height="50px" xmlns="http://www.w3.org/2000/svg">
  <g transform="matrix(1 0 0 1 -500 -89 )">
    <path d="M 525 90  C 538.44 90  549 100.56  549 114  C 549 127.44  538.44 138  525 138  C 511.56 138  501 127.44  501 114  C 501 100.56  511.56 90  525 90  Z " fill-rule="nonzero" fill="#347faa" stroke="none" />
    <path d="M 525 90  C 538.44 90  549 100.56  549 114  C 549 127.44  538.44 138  525 138  C 511.56 138  501 127.44  501 114  C 501 100.56  511.56 90  525 90  Z " stroke-width="2" stroke="#ffffff" fill="none" />
  </g>
</svg>