<?xml version="1.0" encoding="utf-8"?>
<svg version="1.1" xmlns:xlink="http://www.w3.org/1999/xlink" width="45px" height="45px" xmlns="http://www.w3.org/2000/svg">
  <g transform="matrix(1 0 0 1 -293 -22 )">
    <path d="M 315.5 23  C 327.54 23  337 32.46  337 44.5  C 337 56.54  327.54 66  315.5 66  C 303.46 66  294 56.54  294 44.5  C 294 32.46  303.46 23  315.5 23  Z " fill-rule="nonzero" fill="#714b8a" stroke="none" />
    <path d="M 315.5 23  C 327.54 23  337 32.46  337 44.5  C 337 56.54  327.54 66  315.5 66  C 303.46 66  294 56.54  294 44.5  C 294 32.46  303.46 23  315.5 23  Z " stroke-width="2" stroke="#ffffff" fill="none" />
  </g>
</svg>