<?xml version="1.0" encoding="utf-8"?>
<svg version="1.1" xmlns:xlink="http://www.w3.org/1999/xlink" width="12px" height="12px" viewBox="507 360  12 12" xmlns="http://www.w3.org/2000/svg">
  <path d="M 513 360  C 516.36 360  519 362.64  519 366  C 519 369.36  516.36 372  513 372  C 509.64 372  507 369.36  507 366  C 507 362.64  509.64 360  513 360  Z " fill-rule="nonzero" fill="#ffffff" stroke="none" />
  <path d="M 513 360.5  C 516.08 360.5  518.5 362.92  518.5 366  C 518.5 369.08  516.08 371.5  513 371.5  C 509.92 371.5  507.5 369.08  507.5 366  C 507.5 362.92  509.92 360.5  513 360.5  Z " stroke-width="1" stroke="#797979" fill="none" />
  <path d="M 513 369  C 511.32 369  510 367.68  510 366  C 510 364.32  511.32 363  513 363  C 514.68 363  516 364.32  516 366  C 516 367.68  514.68 369  513 369  " fill-rule="nonzero" fill="#797979" stroke="none" />
</svg>