<?xml version="1.0" encoding="utf-8"?>
<svg version="1.1" xmlns:xlink="http://www.w3.org/1999/xlink" width="12px" height="12px" viewBox="426 247  12 12" xmlns="http://www.w3.org/2000/svg">
  <path d="M 432 247  C 435.36 247  438 249.64  438 253  C 438 256.36  435.36 259  432 259  C 428.64 259  426 256.36  426 253  C 426 249.64  428.64 247  432 247  Z " fill-rule="nonzero" fill="#ffffff" stroke="none" />
  <path d="M 432 247.5  C 435.08 247.5  437.5 249.92  437.5 253  C 437.5 256.08  435.08 258.5  432 258.5  C 428.92 258.5  426.5 256.08  426.5 253  C 426.5 249.92  428.92 247.5  432 247.5  Z " stroke-width="1" stroke="#797979" fill="none" />
  <path d="M 432 256  C 430.32 256  429 254.68  429 253  C 429 251.32  430.32 250  432 250  C 433.68 250  435 251.32  435 253  C 435 254.68  433.68 256  432 256  " fill-rule="nonzero" fill="#797979" stroke="none" />
</svg>