<?xml version="1.0" encoding="utf-8"?>
<svg version="1.1" xmlns:xlink="http://www.w3.org/1999/xlink" width="12px" height="12px" viewBox="437 360  12 12" xmlns="http://www.w3.org/2000/svg">
  <path d="M 443 360  C 446.36 360  449 362.64  449 366  C 449 369.36  446.36 372  443 372  C 439.64 372  437 369.36  437 366  C 437 362.64  439.64 360  443 360  Z " fill-rule="nonzero" fill="#ffffff" stroke="none" />
  <path d="M 443 360.5  C 446.08 360.5  448.5 362.92  448.5 366  C 448.5 369.08  446.08 371.5  443 371.5  C 439.92 371.5  437.5 369.08  437.5 366  C 437.5 362.92  439.92 360.5  443 360.5  Z " stroke-width="1" stroke="#797979" fill="none" />
  <path d="M 443 369  C 441.32 369  440 367.68  440 366  C 440 364.32  441.32 363  443 363  C 444.68 363  446 364.32  446 366  C 446 367.68  444.68 369  443 369  " fill-rule="nonzero" fill="#797979" stroke="none" />
</svg>