<?xml version="1.0" encoding="utf-8"?>
<svg version="1.1" xmlns:xlink="http://www.w3.org/1999/xlink" width="12px" height="12px" viewBox="361 359  12 12" xmlns="http://www.w3.org/2000/svg">
  <path d="M 367 359  C 370.36 359  373 361.64  373 365  C 373 368.36  370.36 371  367 371  C 363.64 371  361 368.36  361 365  C 361 361.64  363.64 359  367 359  Z " fill-rule="nonzero" fill="#ffffff" stroke="none" />
  <path d="M 367 359.5  C 370.08 359.5  372.5 361.92  372.5 365  C 372.5 368.08  370.08 370.5  367 370.5  C 363.92 370.5  361.5 368.08  361.5 365  C 361.5 361.92  363.92 359.5  367 359.5  Z " stroke-width="1" stroke="#797979" fill="none" />
  <path d="M 367 368  C 365.32 368  364 366.68  364 365  C 364 363.32  365.32 362  367 362  C 368.68 362  370 363.32  370 365  C 370 366.68  368.68 368  367 368  " fill-rule="nonzero" fill="#797979" stroke="none" />
</svg>