<?xml version="1.0" encoding="utf-8"?>
<svg version="1.1" xmlns:xlink="http://www.w3.org/1999/xlink" width="60px" height="85px" xmlns="http://www.w3.org/2000/svg">
  <g transform="matrix(1 0 0 1 -224 -226 )">
    <path d="M 59.6015625 61.4534505208333  C 59.8671875 64.2388237847222  60 67.1994357638889  60 70.3352864583333  C 60 74.3565538194444  59.0234375 77.8059895833333  57.0703125 80.68359375  C 55.1171875 83.5611979166667  52.765625 85  50.015625 85  L 9.984375 85  C 7.234375 85  4.8828125 83.5611979166667  2.9296875 80.68359375  C 0.9765625 77.8059895833333  0 74.3565538194444  0 70.3352864583333  C 0 67.1994357638889  0.1328125 64.2388237847222  0.3984375 61.4534505208333  C 0.6640625 58.6680772569444  1.15625 55.8642578125  1.875 53.0419921875  C 2.59375 50.2197265625  3.5078125 47.8032769097222  4.6171875 45.7926432291667  C 5.7265625 43.7820095486111  7.1953125 42.1402994791667  9.0234375 40.8675130208333  C 10.8515625 39.5947265625  12.953125 38.9583333333333  15.328125 38.9583333333333  C 19.421875 43.6805555555556  24.3125 46.0416666666667  30 46.0416666666667  C 35.6875 46.0416666666667  40.578125 43.6805555555556  44.671875 38.9583333333333  C 47.046875 38.9583333333333  49.1484375 39.5947265625  50.9765625 40.8675130208333  C 52.8046875 42.1402994791667  54.2734375 43.7820095486111  55.3828125 45.7926432291667  C 56.4921875 47.8032769097222  57.40625 50.2197265625  58.125 53.0419921875  C 58.84375 55.8642578125  59.3359375 58.6680772569444  59.6015625 61.4534505208333  Z M 42.7265625 6.2255859375  C 46.2421875 10.3759765625  48 15.3841145833333  48 21.25  C 48 27.1158854166667  46.2421875 32.1240234375  42.7265625 36.2744140625  C 39.2109375 40.4248046875  34.96875 42.5  30 42.5  C 25.03125 42.5  20.7890625 40.4248046875  17.2734375 36.2744140625  C 13.7578125 32.1240234375  12 27.1158854166667  12 21.25  C 12 15.3841145833333  13.7578125 10.3759765625  17.2734375 6.2255859375  C 20.7890625 2.0751953125  25.03125 0  30 0  C 34.96875 0  39.2109375 2.0751953125  42.7265625 6.2255859375  Z " fill-rule="nonzero" fill="#00ff00" stroke="none" transform="matrix(1 0 0 1 224 226 )" />
  </g>
</svg>