<?xml version="1.0" encoding="utf-8"?>
<svg version="1.1" xmlns:xlink="http://www.w3.org/1999/xlink" width="44px" height="55px" xmlns="http://www.w3.org/2000/svg">
  <g transform="matrix(1 0 0 1 -328 -526 )">
    <path d="M 43.7078125 39.7639973958333  C 43.9026041666667 41.5662977430556  44 43.4819878472222  44 45.5110677083333  C 44 48.1130642361111  43.2838541666667 50.3450520833333  41.8515625 52.20703125  C 40.4192708333333 54.0690104166667  38.6947916666667 55  36.678125 55  L 7.321875 55  C 5.30520833333333 55  3.58072916666667 54.0690104166667  2.1484375 52.20703125  C 0.716145833333333 50.3450520833333  0 48.1130642361111  0 45.5110677083333  C 0 43.4819878472222  0.0973958333333336 41.5662977430556  0.2921875 39.7639973958333  C 0.486979166666667 37.9616970486111  0.847916666666667 36.1474609375  1.375 34.3212890625  C 1.90208333333333 32.4951171875  2.57239583333333 30.9315321180556  3.3859375 29.6305338541667  C 4.19947916666667 28.3295355902778  5.2765625 27.2672526041667  6.6171875 26.4436848958333  C 7.9578125 25.6201171875  9.49895833333333 25.2083333333333  11.240625 25.2083333333333  C 14.2427083333333 28.2638888888889  17.8291666666667 29.7916666666667  22 29.7916666666667  C 26.1708333333333 29.7916666666667  29.7572916666667 28.2638888888889  32.759375 25.2083333333333  C 34.5010416666667 25.2083333333333  36.0421875 25.6201171875  37.3828125 26.4436848958333  C 38.7234375 27.2672526041667  39.8005208333333 28.3295355902778  40.6140625 29.6305338541667  C 41.4276041666667 30.9315321180556  42.0979166666667 32.4951171875  42.625 34.3212890625  C 43.1520833333333 36.1474609375  43.5130208333333 37.9616970486111  43.7078125 39.7639973958333  Z M 31.3328125 4.0283203125  C 33.9109375 6.7138671875  35.2 9.95442708333334  35.2 13.75  C 35.2 17.5455729166667  33.9109375 20.7861328125  31.3328125 23.4716796875  C 28.7546875 26.1572265625  25.64375 27.5  22 27.5  C 18.35625 27.5  15.2453125 26.1572265625  12.6671875 23.4716796875  C 10.0890625 20.7861328125  8.8 17.5455729166667  8.8 13.75  C 8.8 9.95442708333334  10.0890625 6.7138671875  12.6671875 4.0283203125  C 15.2453125 1.3427734375  18.35625 0  22 0  C 25.64375 0  28.7546875 1.3427734375  31.3328125 4.0283203125  Z " fill-rule="nonzero" fill="#00ff00" stroke="none" transform="matrix(1 0 0 1 328 526 )" />
  </g>
</svg>