<?xml version="1.0" encoding="utf-8"?>
<svg version="1.1" xmlns:xlink="http://www.w3.org/1999/xlink" width="52px" height="65px" xmlns="http://www.w3.org/2000/svg">
  <g transform="matrix(1 0 0 1 -224 -384 )">
    <path d="M 51.6546875 46.9938151041667  C 51.8848958333333 49.1238064236111  52 51.3878038194444  52 53.7858072916667  C 52 56.8608940972222  51.1536458333333 59.4986979166667  49.4609375 61.69921875  C 47.7682291666667 63.8997395833333  45.7302083333333 65  43.346875 65  L 8.653125 65  C 6.26979166666667 65  4.23177083333333 63.8997395833333  2.5390625 61.69921875  C 0.846354166666667 59.4986979166667  0 56.8608940972222  0 53.7858072916667  C 0 51.3878038194444  0.115104166666667 49.1238064236111  0.3453125 46.9938151041667  C 0.575520833333334 44.8638237847222  1.00208333333333 42.7197265625  1.625 40.5615234375  C 2.24791666666667 38.4033203125  3.04010416666667 36.5554470486111  4.0015625 35.0179036458333  C 4.96302083333333 33.4803602430556  6.2359375 32.2249348958333  7.8203125 31.2516276041667  C 9.4046875 30.2783203125  11.2260416666667 29.7916666666667  13.284375 29.7916666666667  C 16.8322916666667 33.4027777777778  21.0708333333333 35.2083333333333  26 35.2083333333333  C 30.9291666666667 35.2083333333333  35.1677083333333 33.4027777777778  38.715625 29.7916666666667  C 40.7739583333333 29.7916666666667  42.5953125 30.2783203125  44.1796875 31.2516276041667  C 45.7640625 32.2249348958333  47.0369791666667 33.4803602430556  47.9984375 35.0179036458333  C 48.9598958333333 36.5554470486111  49.7520833333333 38.4033203125  50.375 40.5615234375  C 50.9979166666667 42.7197265625  51.4244791666667 44.8638237847222  51.6546875 46.9938151041667  Z M 37.0296875 4.7607421875  C 40.0765625 7.9345703125  41.6 11.7643229166667  41.6 16.25  C 41.6 20.7356770833333  40.0765625 24.5654296875  37.0296875 27.7392578125  C 33.9828125 30.9130859375  30.30625 32.5  26 32.5  C 21.69375 32.5  18.0171875 30.9130859375  14.9703125 27.7392578125  C 11.9234375 24.5654296875  10.4 20.7356770833333  10.4 16.25  C 10.4 11.7643229166667  11.9234375 7.9345703125  14.9703125 4.7607421875  C 18.0171875 1.5869140625  21.69375 0  26 0  C 30.30625 0  33.9828125 1.5869140625  37.0296875 4.7607421875  Z " fill-rule="nonzero" fill="#00ff00" stroke="none" transform="matrix(1 0 0 1 224 384 )" />
  </g>
</svg>