<?xml version="1.0" encoding="utf-8"?>
<svg version="1.1" xmlns:xlink="http://www.w3.org/1999/xlink" width="56px" height="70px" xmlns="http://www.w3.org/2000/svg">
  <g transform="matrix(1 0 0 1 -542 -240 )">
    <path d="M 55.628125 50.6087239583333  C 55.8760416666667 52.9025607638889  56 55.3407118055556  56 57.9231770833333  C 56 61.2348090277778  55.0885416666667 64.0755208333333  53.265625 66.4453125  C 51.4427083333333 68.8151041666667  49.2479166666667 70  46.68125 70  L 9.31875 70  C 6.75208333333333 70  4.55729166666667 68.8151041666667  2.734375 66.4453125  C 0.911458333333334 64.0755208333333  0 61.2348090277778  0 57.9231770833333  C 0 55.3407118055556  0.123958333333334 52.9025607638889  0.371875 50.6087239583333  C 0.619791666666667 48.3148871527778  1.07916666666667 46.005859375  1.75 43.681640625  C 2.42083333333333 41.357421875  3.27395833333333 39.3674045138889  4.309375 37.7115885416667  C 5.34479166666667 36.0557725694444  6.715625 34.7037760416667  8.421875 33.6555989583333  C 10.128125 32.607421875  12.0895833333333 32.0833333333333  14.30625 32.0833333333333  C 18.1270833333333 35.9722222222222  22.6916666666667 37.9166666666667  28 37.9166666666667  C 33.3083333333333 37.9166666666667  37.8729166666667 35.9722222222222  41.69375 32.0833333333333  C 43.9104166666667 32.0833333333333  45.871875 32.607421875  47.578125 33.6555989583333  C 49.284375 34.7037760416667  50.6552083333333 36.0557725694444  51.690625 37.7115885416667  C 52.7260416666667 39.3674045138889  53.5791666666667 41.357421875  54.25 43.681640625  C 54.9208333333333 46.005859375  55.3802083333333 48.3148871527778  55.628125 50.6087239583333  Z M 39.878125 5.126953125  C 43.159375 8.544921875  44.8 12.6692708333333  44.8 17.5  C 44.8 22.3307291666667  43.159375 26.455078125  39.878125 29.873046875  C 36.596875 33.291015625  32.6375 35  28 35  C 23.3625 35  19.403125 33.291015625  16.121875 29.873046875  C 12.840625 26.455078125  11.2 22.3307291666667  11.2 17.5  C 11.2 12.6692708333333  12.840625 8.544921875  16.121875 5.126953125  C 19.403125 1.708984375  23.3625 0  28 0  C 32.6375 0  36.596875 1.708984375  39.878125 5.126953125  Z " fill-rule="nonzero" fill="#ff0000" stroke="none" transform="matrix(1 0 0 1 542 240 )" />
  </g>
</svg>