<?xml version="1.0" encoding="utf-8"?>
<svg version="1.1" xmlns:xlink="http://www.w3.org/1999/xlink" width="48px" height="60px" xmlns="http://www.w3.org/2000/svg">
  <g transform="matrix(1 0 0 1 -224 -522 )">
    <path d="M 47.68125 43.37890625  C 47.89375 45.3450520833333  48 47.4348958333333  48 49.6484375  C 48 52.4869791666667  47.21875 54.921875  45.65625 56.953125  C 44.09375 58.984375  42.2125 60  40.0125 60  L 7.9875 60  C 5.7875 60  3.90625 58.984375  2.34375 56.953125  C 0.78125 54.921875  0 52.4869791666667  0 49.6484375  C 0 47.4348958333333  0.10625 45.3450520833333  0.31875 43.37890625  C 0.53125 41.4127604166667  0.925 39.43359375  1.5 37.44140625  C 2.075 35.44921875  2.80625 33.7434895833333  3.69375 32.32421875  C 4.58125 30.9049479166667  5.75625 29.74609375  7.21875 28.84765625  C 8.68125 27.94921875  10.3625 27.5  12.2625 27.5  C 15.5375 30.8333333333333  19.45 32.5  24 32.5  C 28.55 32.5  32.4625 30.8333333333333  35.7375 27.5  C 37.6375 27.5  39.31875 27.94921875  40.78125 28.84765625  C 42.24375 29.74609375  43.41875 30.9049479166667  44.30625 32.32421875  C 45.19375 33.7434895833333  45.925 35.44921875  46.5 37.44140625  C 47.075 39.43359375  47.46875 41.4127604166667  47.68125 43.37890625  Z M 34.18125 4.39453125  C 36.99375 7.32421875  38.4 10.859375  38.4 15  C 38.4 19.140625  36.99375 22.67578125  34.18125 25.60546875  C 31.36875 28.53515625  27.975 30  24 30  C 20.025 30  16.63125 28.53515625  13.81875 25.60546875  C 11.00625 22.67578125  9.6 19.140625  9.6 15  C 9.6 10.859375  11.00625 7.32421875  13.81875 4.39453125  C 16.63125 1.46484375  20.025 0  24 0  C 27.975 0  31.36875 1.46484375  34.18125 4.39453125  Z " fill-rule="nonzero" fill="#00ff00" stroke="none" transform="matrix(1 0 0 1 224 522 )" />
  </g>
</svg>