<?xml version="1.0" encoding="utf-8"?>
<svg version="1.1" xmlns:xlink="http://www.w3.org/1999/xlink" width="23px" height="23px" xmlns="http://www.w3.org/2000/svg">
  <g transform="matrix(1 0 0 1 -249 -6 )">
    <path d="M 18.8821614583333 13.1321614583333  C 19.0718315972222 12.9424913194444  19.1666666666667 12.7178819444444  19.1666666666667 12.4583333333333  L 19.1666666666667 10.5416666666667  C 19.1666666666667 10.2821180555556  19.0718315972222 10.0575086805556  18.8821614583333 9.86783854166667  C 18.6924913194444 9.67816840277778  18.4678819444444 9.58333333333333  18.2083333333333 9.58333333333333  L 10.69140625 9.58333333333333  L 13.521484375 6.75325520833333  C 13.7111545138889 6.56358506944444  13.8059895833333 6.33897569444444  13.8059895833333 6.07942708333333  C 13.8059895833333 5.81987847222222  13.7111545138889 5.59526909722222  13.521484375 5.40559895833333  L 12.1588541666667 4.04296875  C 11.9791666666667 3.86328125  11.7545572916667 3.7734375  11.4850260416667 3.7734375  C 11.2154947916667 3.7734375  10.9908854166667 3.86328125  10.8111979166667 4.04296875  L 5.390625 9.46354166666667  L 4.02799479166667 10.826171875  C 3.84830729166667 11.005859375  3.75846354166667 11.23046875  3.75846354166667 11.5  C 3.75846354166667 11.76953125  3.84830729166667 11.994140625  4.02799479166667 12.173828125  L 5.390625 13.5364583333333  L 10.8111979166667 18.95703125  C 10.9908854166667 19.13671875  11.2154947916667 19.2265625  11.4850260416667 19.2265625  C 11.7545572916667 19.2265625  11.9791666666667 19.13671875  12.1588541666667 18.95703125  L 13.521484375 17.5944010416667  C 13.701171875 17.4147135416667  13.791015625 17.1901041666667  13.791015625 16.9205729166667  C 13.791015625 16.6510416666667  13.701171875 16.4264322916667  13.521484375 16.2467447916667  L 10.69140625 13.4166666666667  L 18.2083333333333 13.4166666666667  C 18.4678819444444 13.4166666666667  18.6924913194444 13.3218315972222  18.8821614583333 13.1321614583333  Z M 21.4576822916667 5.7275390625  C 22.4858940972222 7.48947482638889  23 9.41362847222222  23 11.5  C 23 13.5863715277778  22.4858940972222 15.5105251736111  21.4576822916667 17.2724609375  C 20.4294704861111 19.0343967013889  19.0343967013889 20.4294704861111  17.2724609375 21.4576822916667  C 15.5105251736111 22.4858940972222  13.5863715277778 23  11.5 23  C 9.41362847222222 23  7.48947482638889 22.4858940972222  5.7275390625 21.4576822916667  C 3.96560329861111 20.4294704861111  2.57052951388889 19.0343967013889  1.54231770833333 17.2724609375  C 0.514105902777778 15.5105251736111  0 13.5863715277778  0 11.5  C 0 9.41362847222222  0.514105902777778 7.48947482638889  1.54231770833333 5.7275390625  C 2.57052951388889 3.96560329861111  3.96560329861111 2.57052951388889  5.7275390625 1.54231770833333  C 7.48947482638889 0.514105902777776  9.41362847222222 0  11.5 0  C 13.5863715277778 0  15.5105251736111 0.514105902777776  17.2724609375 1.54231770833333  C 19.0343967013889 2.57052951388889  20.4294704861111 3.96560329861111  21.4576822916667 5.7275390625  Z " fill-rule="nonzero" fill="#ffffff" stroke="none" transform="matrix(1 0 0 1 249 6 )" />
  </g>
</svg>