<?xml version="1.0" encoding="utf-8"?>
<svg version="1.1" xmlns:xlink="http://www.w3.org/1999/xlink" width="150px" height="149px" xmlns="http://www.w3.org/2000/svg">
  <g transform="matrix(1 0 0 1 -1025 -508 )">
    <path d="M 1100 508  C 1142 508  1175 540.78  1175 582.5  C 1175 624.22  1142 657  1100 657  C 1058 657  1025 624.22  1025 582.5  C 1025 540.78  1058 508  1100 508  Z " fill-rule="nonzero" fill="#ffffff" stroke="none" fill-opacity="0" />
    <path d="M 1100 508.5  C 1141.72 508.5  1174.5 541.06  1174.5 582.5  C 1174.5 623.94  1141.72 656.5  1100 656.5  C 1058.28 656.5  1025.5 623.94  1025.5 582.5  C 1025.5 541.06  1058.28 508.5  1100 508.5  Z " stroke-width="1" stroke="#cccccc" fill="none" />
  </g>
</svg>