<?xml version="1.0" encoding="utf-8"?>
<svg version="1.1" xmlns:xlink="http://www.w3.org/1999/xlink" width="99px" height="98px" xmlns="http://www.w3.org/2000/svg">
  <g transform="matrix(1 0 0 1 -1051 -533 )">
    <path d="M 1100.5 533  C 1128.22 533  1150 554.56  1150 582  C 1150 609.44  1128.22 631  1100.5 631  C 1072.78 631  1051 609.44  1051 582  C 1051 554.56  1072.78 533  1100.5 533  Z " fill-rule="nonzero" fill="#ffffff" stroke="none" fill-opacity="0" />
    <path d="M 1100.5 533.5  C 1127.94 533.5  1149.5 554.84  1149.5 582  C 1149.5 609.16  1127.94 630.5  1100.5 630.5  C 1073.06 630.5  1051.5 609.16  1051.5 582  C 1051.5 554.84  1073.06 533.5  1100.5 533.5  Z " stroke-width="1" stroke="#cccccc" fill="none" />
  </g>
</svg>