<?xml version="1.0" encoding="utf-8"?>
<svg version="1.1" xmlns:xlink="http://www.w3.org/1999/xlink" width="28px" height="30px" xmlns="http://www.w3.org/2000/svg">
  <g transform="matrix(1 0 0 1 -1130 -146 )">
    <path d="M 27.3400673400673 22.4242424242424  C 27.7800224466891 22.8956228956229  28 23.4680134680135  28 24.1414141414141  C 28 24.8148148148148  27.7800224466891 25.3872053872054  27.3400673400673 25.8585858585859  L 24.1346801346801 29.2929292929293  C 23.6947250280584 29.7643097643098  23.1604938271605 30  22.5319865319865 30  C 21.9034792368126 30  21.3692480359147 29.7643097643098  20.9292929292929 29.2929292929293  L 14 21.8686868686869  L 7.07070707070707 29.2929292929293  C 6.6307519640853 29.7643097643098  6.09652076318743 30  5.46801346801347 30  C 4.83950617283951 30  4.30527497194164 29.7643097643098  3.86531986531987 29.2929292929293  L 0.65993265993266 25.8585858585859  C 0.219977553310887 25.3872053872054  0 24.8148148148148  0 24.1414141414141  C 0 23.4680134680135  0.219977553310887 22.8956228956229  0.65993265993266 22.4242424242424  L 7.58922558922559 15  L 0.65993265993266 7.57575757575757  C 0.219977553310887 7.1043771043771  0 6.53198653198653  0 5.85858585858586  C 0 5.18518518518519  0.219977553310887 4.61279461279461  0.65993265993266 4.14141414141414  L 3.86531986531987 0.707070707070707  C 4.30527497194164 0.235690235690235  4.83950617283951 0  5.46801346801347 0  C 6.09652076318743 0  6.6307519640853 0.235690235690235  7.07070707070707 0.707070707070707  L 14 8.13131313131313  L 20.9292929292929 0.707070707070707  C 21.3692480359147 0.235690235690235  21.9034792368126 0  22.5319865319865 0  C 23.1604938271605 0  23.6947250280584 0.235690235690235  24.1346801346801 0.707070707070707  L 27.3400673400673 4.14141414141414  C 27.7800224466891 4.61279461279461  28 5.18518518518519  28 5.85858585858586  C 28 6.53198653198653  27.7800224466891 7.1043771043771  27.3400673400673 7.57575757575757  L 20.4107744107744 15  L 27.3400673400673 22.4242424242424  Z " fill-rule="nonzero" fill="#ffffff" stroke="none" transform="matrix(1 0 0 1 1130 146 )" />
  </g>
</svg>