<?xml version="1.0" encoding="utf-8"?>
<svg version="1.1" xmlns:xlink="http://www.w3.org/1999/xlink" width="12px" height="12px" viewBox="595 513  12 12" xmlns="http://www.w3.org/2000/svg">
  <path d="M 601 513  C 604.36 513  607 515.64  607 519  C 607 522.36  604.36 525  601 525  C 597.64 525  595 522.36  595 519  C 595 515.64  597.64 513  601 513  Z " fill-rule="nonzero" fill="#ffffff" stroke="none" />
  <path d="M 601 513.5  C 604.08 513.5  606.5 515.92  606.5 519  C 606.5 522.08  604.08 524.5  601 524.5  C 597.92 524.5  595.5 522.08  595.5 519  C 595.5 515.92  597.92 513.5  601 513.5  Z " stroke-width="1" stroke="#797979" fill="none" />
  <path d="M 601 522  C 599.32 522  598 520.68  598 519  C 598 517.32  599.32 516  601 516  C 602.68 516  604 517.32  604 519  C 604 520.68  602.68 522  601 522  " fill-rule="nonzero" fill="#797979" stroke="none" />
</svg>