<?xml version="1.0" encoding="utf-8"?>
<svg version="1.1" xmlns:xlink="http://www.w3.org/1999/xlink" width="12px" height="12px" viewBox="228 1860  12 12" xmlns="http://www.w3.org/2000/svg">
  <path d="M 234 1860  C 237.36 1860  240 1862.64  240 1866  C 240 1869.36  237.36 1872  234 1872  C 230.64 1872  228 1869.36  228 1866  C 228 1862.64  230.64 1860  234 1860  Z " fill-rule="nonzero" fill="#ffffff" stroke="none" />
  <path d="M 234 1860.5  C 237.08 1860.5  239.5 1862.92  239.5 1866  C 239.5 1869.08  237.08 1871.5  234 1871.5  C 230.92 1871.5  228.5 1869.08  228.5 1866  C 228.5 1862.92  230.92 1860.5  234 1860.5  Z " stroke-width="1" stroke="#ffffff" fill="none" />
  <path d="M 234 1869  C 232.32 1869  231 1867.68  231 1866  C 231 1864.32  232.32 1863  234 1863  C 235.68 1863  237 1864.32  237 1866  C 237 1867.68  235.68 1869  234 1869  " fill-rule="nonzero" fill="#ffffff" stroke="none" />
</svg>