<?xml version="1.0" encoding="utf-8"?>
<svg version="1.1" xmlns:xlink="http://www.w3.org/1999/xlink" width="12px" height="12px" viewBox="227 101  12 12" xmlns="http://www.w3.org/2000/svg">
  <path d="M 233 101  C 236.36 101  239 103.64  239 107  C 239 110.36  236.36 113  233 113  C 229.64 113  227 110.36  227 107  C 227 103.64  229.64 101  233 101  Z " fill-rule="nonzero" fill="#ffffff" stroke="none" />
  <path d="M 233 101.5  C 236.08 101.5  238.5 103.92  238.5 107  C 238.5 110.08  236.08 112.5  233 112.5  C 229.92 112.5  227.5 110.08  227.5 107  C 227.5 103.92  229.92 101.5  233 101.5  Z " stroke-width="1" stroke="#ffffff" fill="none" />
  <path d="M 233 110  C 231.32 110  230 108.68  230 107  C 230 105.32  231.32 104  233 104  C 234.68 104  236 105.32  236 107  C 236 108.68  234.68 110  233 110  " fill-rule="nonzero" fill="#ffffff" stroke="none" />
</svg>