<?xml version="1.0" encoding="utf-8"?>
<svg version="1.1" xmlns:xlink="http://www.w3.org/1999/xlink" width="12px" height="12px" viewBox="228 1026  12 12" xmlns="http://www.w3.org/2000/svg">
  <path d="M 234 1026  C 237.36 1026  240 1028.64  240 1032  C 240 1035.36  237.36 1038  234 1038  C 230.64 1038  228 1035.36  228 1032  C 228 1028.64  230.64 1026  234 1026  Z " fill-rule="nonzero" fill="#ffffff" stroke="none" />
  <path d="M 234 1026.5  C 237.08 1026.5  239.5 1028.92  239.5 1032  C 239.5 1035.08  237.08 1037.5  234 1037.5  C 230.92 1037.5  228.5 1035.08  228.5 1032  C 228.5 1028.92  230.92 1026.5  234 1026.5  Z " stroke-width="1" stroke="#ffffff" fill="none" />
  <path d="M 234 1035  C 232.32 1035  231 1033.68  231 1032  C 231 1030.32  232.32 1029  234 1029  C 235.68 1029  237 1030.32  237 1032  C 237 1033.68  235.68 1035  234 1035  " fill-rule="nonzero" fill="#ffffff" stroke="none" />
</svg>