<?xml version="1.0" encoding="utf-8"?>
<svg version="1.1" xmlns:xlink="http://www.w3.org/1999/xlink" width="12px" height="12px" viewBox="70 564  12 12" xmlns="http://www.w3.org/2000/svg">
  <path d="M 76 564  C 79.36 564  82 566.64  82 570  C 82 573.36  79.36 576  76 576  C 72.64 576  70 573.36  70 570  C 70 566.64  72.64 564  76 564  Z " fill-rule="nonzero" fill="#ffffff" stroke="none" />
  <path d="M 76 564.5  C 79.08 564.5  81.5 566.92  81.5 570  C 81.5 573.08  79.08 575.5  76 575.5  C 72.92 575.5  70.5 573.08  70.5 570  C 70.5 566.92  72.92 564.5  76 564.5  Z " stroke-width="1" stroke="#ffffff" fill="none" />
  <path d="M 76 573  C 74.32 573  73 571.68  73 570  C 73 568.32  74.32 567  76 567  C 77.68 567  79 568.32  79 570  C 79 571.68  77.68 573  76 573  " fill-rule="nonzero" fill="#ffffff" stroke="none" />
</svg>