<?xml version="1.0" encoding="utf-8"?>
<svg version="1.1" xmlns:xlink="http://www.w3.org/1999/xlink" width="12px" height="12px" viewBox="227 76  12 12" xmlns="http://www.w3.org/2000/svg">
  <path d="M 233 76  C 236.36 76  239 78.64  239 82  C 239 85.36  236.36 88  233 88  C 229.64 88  227 85.36  227 82  C 227 78.64  229.64 76  233 76  Z " fill-rule="nonzero" fill="#ffffff" stroke="none" />
  <path d="M 233 76.5  C 236.08 76.5  238.5 78.92  238.5 82  C 238.5 85.08  236.08 87.5  233 87.5  C 229.92 87.5  227.5 85.08  227.5 82  C 227.5 78.92  229.92 76.5  233 76.5  Z " stroke-width="1" stroke="#ffffff" fill="none" />
  <path d="M 233 85  C 231.32 85  230 83.68  230 82  C 230 80.32  231.32 79  233 79  C 234.68 79  236 80.32  236 82  C 236 83.68  234.68 85  233 85  " fill-rule="nonzero" fill="#ffffff" stroke="none" />
</svg>