<?xml version="1.0" encoding="utf-8"?>
<svg version="1.1" xmlns:xlink="http://www.w3.org/1999/xlink" width="12px" height="12px" viewBox="70 1026  12 12" xmlns="http://www.w3.org/2000/svg">
  <path d="M 76 1026  C 79.36 1026  82 1028.64  82 1032  C 82 1035.36  79.36 1038  76 1038  C 72.64 1038  70 1035.36  70 1032  C 70 1028.64  72.64 1026  76 1026  Z " fill-rule="nonzero" fill="#ffffff" stroke="none" />
  <path d="M 76 1026.5  C 79.08 1026.5  81.5 1028.92  81.5 1032  C 81.5 1035.08  79.08 1037.5  76 1037.5  C 72.92 1037.5  70.5 1035.08  70.5 1032  C 70.5 1028.92  72.92 1026.5  76 1026.5  Z " stroke-width="1" stroke="#ffffff" fill="none" />
  <path d="M 76 1035  C 74.32 1035  73 1033.68  73 1032  C 73 1030.32  74.32 1029  76 1029  C 77.68 1029  79 1030.32  79 1032  C 79 1033.68  77.68 1035  76 1035  " fill-rule="nonzero" fill="#ffffff" stroke="none" />
</svg>