<?xml version="1.0" encoding="utf-8"?>
<svg version="1.1" xmlns:xlink="http://www.w3.org/1999/xlink" width="12px" height="12px" viewBox="228 2411  12 12" xmlns="http://www.w3.org/2000/svg">
  <path d="M 234 2411  C 237.36 2411  240 2413.64  240 2417  C 240 2420.36  237.36 2423  234 2423  C 230.64 2423  228 2420.36  228 2417  C 228 2413.64  230.64 2411  234 2411  Z " fill-rule="nonzero" fill="#ffffff" stroke="none" />
  <path d="M 234 2411.5  C 237.08 2411.5  239.5 2413.92  239.5 2417  C 239.5 2420.08  237.08 2422.5  234 2422.5  C 230.92 2422.5  228.5 2420.08  228.5 2417  C 228.5 2413.92  230.92 2411.5  234 2411.5  Z " stroke-width="1" stroke="#ffffff" fill="none" />
  <path d="M 234 2420  C 232.32 2420  231 2418.68  231 2417  C 231 2415.32  232.32 2414  234 2414  C 235.68 2414  237 2415.32  237 2417  C 237 2418.68  235.68 2420  234 2420  " fill-rule="nonzero" fill="#ffffff" stroke="none" />
</svg>