<?xml version="1.0" encoding="utf-8"?>
<svg version="1.1" xmlns:xlink="http://www.w3.org/1999/xlink" width="12px" height="12px" viewBox="228 2293  12 12" xmlns="http://www.w3.org/2000/svg">
  <path d="M 234 2293  C 237.36 2293  240 2295.64  240 2299  C 240 2302.36  237.36 2305  234 2305  C 230.64 2305  228 2302.36  228 2299  C 228 2295.64  230.64 2293  234 2293  Z " fill-rule="nonzero" fill="#ffffff" stroke="none" />
  <path d="M 234 2293.5  C 237.08 2293.5  239.5 2295.92  239.5 2299  C 239.5 2302.08  237.08 2304.5  234 2304.5  C 230.92 2304.5  228.5 2302.08  228.5 2299  C 228.5 2295.92  230.92 2293.5  234 2293.5  Z " stroke-width="1" stroke="#ffffff" fill="none" />
  <path d="M 234 2302  C 232.32 2302  231 2300.68  231 2299  C 231 2297.32  232.32 2296  234 2296  C 235.68 2296  237 2297.32  237 2299  C 237 2300.68  235.68 2302  234 2302  " fill-rule="nonzero" fill="#ffffff" stroke="none" />
</svg>