<?xml version="1.0" encoding="utf-8"?>
<svg version="1.1" xmlns:xlink="http://www.w3.org/1999/xlink" width="12px" height="12px" viewBox="228 1885  12 12" xmlns="http://www.w3.org/2000/svg">
  <path d="M 234 1885  C 237.36 1885  240 1887.64  240 1891  C 240 1894.36  237.36 1897  234 1897  C 230.64 1897  228 1894.36  228 1891  C 228 1887.64  230.64 1885  234 1885  Z " fill-rule="nonzero" fill="#ffffff" stroke="none" />
  <path d="M 234 1885.5  C 237.08 1885.5  239.5 1887.92  239.5 1891  C 239.5 1894.08  237.08 1896.5  234 1896.5  C 230.92 1896.5  228.5 1894.08  228.5 1891  C 228.5 1887.92  230.92 1885.5  234 1885.5  Z " stroke-width="1" stroke="#ffffff" fill="none" />
  <path d="M 234 1894  C 232.32 1894  231 1892.68  231 1891  C 231 1889.32  232.32 1888  234 1888  C 235.68 1888  237 1889.32  237 1891  C 237 1892.68  235.68 1894  234 1894  " fill-rule="nonzero" fill="#ffffff" stroke="none" />
</svg>