<?xml version="1.0" encoding="utf-8"?>
<svg version="1.1" xmlns:xlink="http://www.w3.org/1999/xlink" width="12px" height="12px" viewBox="70 3363  12 12" xmlns="http://www.w3.org/2000/svg">
  <path d="M 76 3363  C 79.36 3363  82 3365.64  82 3369  C 82 3372.36  79.36 3375  76 3375  C 72.64 3375  70 3372.36  70 3369  C 70 3365.64  72.64 3363  76 3363  Z " fill-rule="nonzero" fill="#ffffff" stroke="none" />
  <path d="M 76 3363.5  C 79.08 3363.5  81.5 3365.92  81.5 3369  C 81.5 3372.08  79.08 3374.5  76 3374.5  C 72.92 3374.5  70.5 3372.08  70.5 3369  C 70.5 3365.92  72.92 3363.5  76 3363.5  Z " stroke-width="1" stroke="#ffffff" fill="none" />
  <path d="M 76 3372  C 74.32 3372  73 3370.68  73 3369  C 73 3367.32  74.32 3366  76 3366  C 77.68 3366  79 3367.32  79 3369  C 79 3370.68  77.68 3372  76 3372  " fill-rule="nonzero" fill="#ffffff" stroke="none" />
</svg>