<?xml version="1.0" encoding="utf-8"?>
<svg version="1.1" xmlns:xlink="http://www.w3.org/1999/xlink" width="12px" height="12px" viewBox="70 3388  12 12" xmlns="http://www.w3.org/2000/svg">
  <path d="M 76 3388  C 79.36 3388  82 3390.64  82 3394  C 82 3397.36  79.36 3400  76 3400  C 72.64 3400  70 3397.36  70 3394  C 70 3390.64  72.64 3388  76 3388  Z " fill-rule="nonzero" fill="#ffffff" stroke="none" />
  <path d="M 76 3388.5  C 79.08 3388.5  81.5 3390.92  81.5 3394  C 81.5 3397.08  79.08 3399.5  76 3399.5  C 72.92 3399.5  70.5 3397.08  70.5 3394  C 70.5 3390.92  72.92 3388.5  76 3388.5  Z " stroke-width="1" stroke="#ffffff" fill="none" />
  <path d="M 76 3397  C 74.32 3397  73 3395.68  73 3394  C 73 3392.32  74.32 3391  76 3391  C 77.68 3391  79 3392.32  79 3394  C 79 3395.68  77.68 3397  76 3397  " fill-rule="nonzero" fill="#ffffff" stroke="none" />
</svg>