<?xml version="1.0" encoding="utf-8"?>
<svg version="1.1" xmlns:xlink="http://www.w3.org/1999/xlink" width="12px" height="12px" viewBox="70 2411  12 12" xmlns="http://www.w3.org/2000/svg">
  <path d="M 76 2411  C 79.36 2411  82 2413.64  82 2417  C 82 2420.36  79.36 2423  76 2423  C 72.64 2423  70 2420.36  70 2417  C 70 2413.64  72.64 2411  76 2411  Z " fill-rule="nonzero" fill="#ffffff" stroke="none" />
  <path d="M 76 2411.5  C 79.08 2411.5  81.5 2413.92  81.5 2417  C 81.5 2420.08  79.08 2422.5  76 2422.5  C 72.92 2422.5  70.5 2420.08  70.5 2417  C 70.5 2413.92  72.92 2411.5  76 2411.5  Z " stroke-width="1" stroke="#ffffff" fill="none" />
  <path d="M 76 2420  C 74.32 2420  73 2418.68  73 2417  C 73 2415.32  74.32 2414  76 2414  C 77.68 2414  79 2415.32  79 2417  C 79 2418.68  77.68 2420  76 2420  " fill-rule="nonzero" fill="#ffffff" stroke="none" />
</svg>