<?xml version="1.0" encoding="utf-8"?>
<svg version="1.1" xmlns:xlink="http://www.w3.org/1999/xlink" width="12px" height="12px" viewBox="70 2318  12 12" xmlns="http://www.w3.org/2000/svg">
  <path d="M 76 2318  C 79.36 2318  82 2320.64  82 2324  C 82 2327.36  79.36 2330  76 2330  C 72.64 2330  70 2327.36  70 2324  C 70 2320.64  72.64 2318  76 2318  Z " fill-rule="nonzero" fill="#ffffff" stroke="none" />
  <path d="M 76 2318.5  C 79.08 2318.5  81.5 2320.92  81.5 2324  C 81.5 2327.08  79.08 2329.5  76 2329.5  C 72.92 2329.5  70.5 2327.08  70.5 2324  C 70.5 2320.92  72.92 2318.5  76 2318.5  Z " stroke-width="1" stroke="#ffffff" fill="none" />
  <path d="M 76 2327  C 74.32 2327  73 2325.68  73 2324  C 73 2322.32  74.32 2321  76 2321  C 77.68 2321  79 2322.32  79 2324  C 79 2325.68  77.68 2327  76 2327  " fill-rule="nonzero" fill="#ffffff" stroke="none" />
</svg>