<?xml version="1.0" encoding="utf-8"?>
<svg version="1.1" xmlns:xlink="http://www.w3.org/1999/xlink" width="12px" height="12px" viewBox="70 2523  12 12" xmlns="http://www.w3.org/2000/svg">
  <path d="M 76 2523  C 79.36 2523  82 2525.64  82 2529  C 82 2532.36  79.36 2535  76 2535  C 72.64 2535  70 2532.36  70 2529  C 70 2525.64  72.64 2523  76 2523  Z " fill-rule="nonzero" fill="#ffffff" stroke="none" />
  <path d="M 76 2523.5  C 79.08 2523.5  81.5 2525.92  81.5 2529  C 81.5 2532.08  79.08 2534.5  76 2534.5  C 72.92 2534.5  70.5 2532.08  70.5 2529  C 70.5 2525.92  72.92 2523.5  76 2523.5  Z " stroke-width="1" stroke="#ffffff" fill="none" />
  <path d="M 76 2532  C 74.32 2532  73 2530.68  73 2529  C 73 2527.32  74.32 2526  76 2526  C 77.68 2526  79 2527.32  79 2529  C 79 2530.68  77.68 2532  76 2532  " fill-rule="nonzero" fill="#ffffff" stroke="none" />
</svg>