<?xml version="1.0" encoding="utf-8"?>
<svg version="1.1" xmlns:xlink="http://www.w3.org/1999/xlink" width="12px" height="12px" viewBox="70 2293  12 12" xmlns="http://www.w3.org/2000/svg">
  <path d="M 76 2293  C 79.36 2293  82 2295.64  82 2299  C 82 2302.36  79.36 2305  76 2305  C 72.64 2305  70 2302.36  70 2299  C 70 2295.64  72.64 2293  76 2293  Z " fill-rule="nonzero" fill="#ffffff" stroke="none" />
  <path d="M 76 2293.5  C 79.08 2293.5  81.5 2295.92  81.5 2299  C 81.5 2302.08  79.08 2304.5  76 2304.5  C 72.92 2304.5  70.5 2302.08  70.5 2299  C 70.5 2295.92  72.92 2293.5  76 2293.5  Z " stroke-width="1" stroke="#ffffff" fill="none" />
  <path d="M 76 2302  C 74.32 2302  73 2300.68  73 2299  C 73 2297.32  74.32 2296  76 2296  C 77.68 2296  79 2297.32  79 2299  C 79 2300.68  77.68 2302  76 2302  " fill-rule="nonzero" fill="#ffffff" stroke="none" />
</svg>