<?xml version="1.0" encoding="utf-8"?>
<svg version="1.1" xmlns:xlink="http://www.w3.org/1999/xlink" width="12px" height="12px" viewBox="70 5176  12 12" xmlns="http://www.w3.org/2000/svg">
  <path d="M 76 5176  C 79.36 5176  82 5178.64  82 5182  C 82 5185.36  79.36 5188  76 5188  C 72.64 5188  70 5185.36  70 5182  C 70 5178.64  72.64 5176  76 5176  Z " fill-rule="nonzero" fill="#ffffff" stroke="none" />
  <path d="M 76 5176.5  C 79.08 5176.5  81.5 5178.92  81.5 5182  C 81.5 5185.08  79.08 5187.5  76 5187.5  C 72.92 5187.5  70.5 5185.08  70.5 5182  C 70.5 5178.92  72.92 5176.5  76 5176.5  Z " stroke-width="1" stroke="#ffffff" fill="none" />
  <path d="M 76 5185  C 74.32 5185  73 5183.68  73 5182  C 73 5180.32  74.32 5179  76 5179  C 77.68 5179  79 5180.32  79 5182  C 79 5183.68  77.68 5185  76 5185  " fill-rule="nonzero" fill="#ffffff" stroke="none" />
</svg>