<?xml version="1.0" encoding="utf-8"?>
<svg version="1.1" xmlns:xlink="http://www.w3.org/1999/xlink" width="12px" height="12px" viewBox="70 5319  12 12" xmlns="http://www.w3.org/2000/svg">
  <path d="M 76 5319  C 79.36 5319  82 5321.64  82 5325  C 82 5328.36  79.36 5331  76 5331  C 72.64 5331  70 5328.36  70 5325  C 70 5321.64  72.64 5319  76 5319  Z " fill-rule="nonzero" fill="#ffffff" stroke="none" />
  <path d="M 76 5319.5  C 79.08 5319.5  81.5 5321.92  81.5 5325  C 81.5 5328.08  79.08 5330.5  76 5330.5  C 72.92 5330.5  70.5 5328.08  70.5 5325  C 70.5 5321.92  72.92 5319.5  76 5319.5  Z " stroke-width="1" stroke="#ffffff" fill="none" />
  <path d="M 76 5328  C 74.32 5328  73 5326.68  73 5325  C 73 5323.32  74.32 5322  76 5322  C 77.68 5322  79 5323.32  79 5325  C 79 5326.68  77.68 5328  76 5328  " fill-rule="nonzero" fill="#ffffff" stroke="none" />
</svg>