<?xml version="1.0" encoding="utf-8"?>
<svg version="1.1" xmlns:xlink="http://www.w3.org/1999/xlink" width="12px" height="12px" viewBox="766 5314  12 12" xmlns="http://www.w3.org/2000/svg">
  <path d="M 772 5314  C 775.36 5314  778 5316.64  778 5320  C 778 5323.36  775.36 5326  772 5326  C 768.64 5326  766 5323.36  766 5320  C 766 5316.64  768.64 5314  772 5314  Z " fill-rule="nonzero" fill="#ffffff" stroke="none" />
  <path d="M 772 5314.5  C 775.08 5314.5  777.5 5316.92  777.5 5320  C 777.5 5323.08  775.08 5325.5  772 5325.5  C 768.92 5325.5  766.5 5323.08  766.5 5320  C 766.5 5316.92  768.92 5314.5  772 5314.5  Z " stroke-width="1" stroke="#ffffff" fill="none" />
  <path d="M 772 5323  C 770.32 5323  769 5321.68  769 5320  C 769 5318.32  770.32 5317  772 5317  C 773.68 5317  775 5318.32  775 5320  C 775 5321.68  773.68 5323  772 5323  " fill-rule="nonzero" fill="#ffffff" stroke="none" />
</svg>