<?xml version="1.0" encoding="utf-8"?>
<svg version="1.1" xmlns:xlink="http://www.w3.org/1999/xlink" width="12px" height="12px" viewBox="70 5391  12 12" xmlns="http://www.w3.org/2000/svg">
  <path d="M 76 5391  C 79.36 5391  82 5393.64  82 5397  C 82 5400.36  79.36 5403  76 5403  C 72.64 5403  70 5400.36  70 5397  C 70 5393.64  72.64 5391  76 5391  Z " fill-rule="nonzero" fill="#ffffff" stroke="none" />
  <path d="M 76 5391.5  C 79.08 5391.5  81.5 5393.92  81.5 5397  C 81.5 5400.08  79.08 5402.5  76 5402.5  C 72.92 5402.5  70.5 5400.08  70.5 5397  C 70.5 5393.92  72.92 5391.5  76 5391.5  Z " stroke-width="1" stroke="#ffffff" fill="none" />
  <path d="M 76 5400  C 74.32 5400  73 5398.68  73 5397  C 73 5395.32  74.32 5394  76 5394  C 77.68 5394  79 5395.32  79 5397  C 79 5398.68  77.68 5400  76 5400  " fill-rule="nonzero" fill="#ffffff" stroke="none" />
</svg>