<?xml version="1.0" encoding="utf-8"?>
<svg version="1.1" xmlns:xlink="http://www.w3.org/1999/xlink" width="12px" height="12px" viewBox="139 5391  12 12" xmlns="http://www.w3.org/2000/svg">
  <path d="M 145 5391  C 148.36 5391  151 5393.64  151 5397  C 151 5400.36  148.36 5403  145 5403  C 141.64 5403  139 5400.36  139 5397  C 139 5393.64  141.64 5391  145 5391  Z " fill-rule="nonzero" fill="#ffffff" stroke="none" />
  <path d="M 145 5391.5  C 148.08 5391.5  150.5 5393.92  150.5 5397  C 150.5 5400.08  148.08 5402.5  145 5402.5  C 141.92 5402.5  139.5 5400.08  139.5 5397  C 139.5 5393.92  141.92 5391.5  145 5391.5  Z " stroke-width="1" stroke="#ffffff" fill="none" />
  <path d="M 145 5400  C 143.32 5400  142 5398.68  142 5397  C 142 5395.32  143.32 5394  145 5394  C 146.68 5394  148 5395.32  148 5397  C 148 5398.68  146.68 5400  145 5400  " fill-rule="nonzero" fill="#ffffff" stroke="none" />
</svg>