<?xml version="1.0" encoding="utf-8"?>
<svg version="1.1" xmlns:xlink="http://www.w3.org/1999/xlink" width="148px" height="145px" xmlns="http://www.w3.org/2000/svg">
  <g transform="matrix(1 0 0 1 -678 -415 )">
    <path d="M 752 415  C 793.44 415  826 446.9  826 487.5  C 826 528.1  793.44 560  752 560  C 710.56 560  678 528.1  678 487.5  C 678 446.9  710.56 415  752 415  Z " fill-rule="nonzero" fill="#ffffff" stroke="none" fill-opacity="0" />
    <path d="M 752 415.5  C 793.16 415.5  825.5 447.18  825.5 487.5  C 825.5 527.82  793.16 559.5  752 559.5  C 710.84 559.5  678.5 527.82  678.5 487.5  C 678.5 447.18  710.84 415.5  752 415.5  Z " stroke-width="1" stroke="#ffff00" fill="none" />
  </g>
</svg>