<?xml version="1.0" encoding="utf-8"?>
<svg version="1.1" xmlns:xlink="http://www.w3.org/1999/xlink" width="83px" height="86px" xmlns="http://www.w3.org/2000/svg">
  <g transform="matrix(1 0 0 1 -548 -267 )">
    <path d="M 589.5 267  C 612.74 267  631 285.92  631 310  C 631 334.08  612.74 353  589.5 353  C 566.26 353  548 334.08  548 310  C 548 285.92  566.26 267  589.5 267  Z " fill-rule="nonzero" fill="#ffffff" stroke="none" fill-opacity="0" />
    <path d="M 589.5 267.5  C 612.46 267.5  630.5 286.2  630.5 310  C 630.5 333.8  612.46 352.5  589.5 352.5  C 566.54 352.5  548.5 333.8  548.5 310  C 548.5 286.2  566.54 267.5  589.5 267.5  Z " stroke-width="1" stroke="#ffff00" fill="none" />
  </g>
</svg>