<?xml version="1.0" encoding="utf-8"?>
<svg version="1.1" xmlns:xlink="http://www.w3.org/1999/xlink" width="88px" height="88px" xmlns="http://www.w3.org/2000/svg">
  <g transform="matrix(1 0 0 1 -550 -566 )">
    <path d="M 594 566  C 618.64 566  638 585.36  638 610  C 638 634.64  618.64 654  594 654  C 569.36 654  550 634.64  550 610  C 550 585.36  569.36 566  594 566  Z " fill-rule="nonzero" fill="#ffffff" stroke="none" fill-opacity="0" />
    <path d="M 594 566.5  C 618.36 566.5  637.5 585.64  637.5 610  C 637.5 634.36  618.36 653.5  594 653.5  C 569.64 653.5  550.5 634.36  550.5 610  C 550.5 585.64  569.64 566.5  594 566.5  Z " stroke-width="1" stroke="#ffff00" fill="none" />
  </g>
</svg>