<?xml version="1.0" encoding="utf-8"?>
<svg version="1.1" xmlns:xlink="http://www.w3.org/1999/xlink" width="12px" height="12px" viewBox="247 3388  12 12" xmlns="http://www.w3.org/2000/svg">
  <path d="M 253 3388  C 256.36 3388  259 3390.64  259 3394  C 259 3397.36  256.36 3400  253 3400  C 249.64 3400  247 3397.36  247 3394  C 247 3390.64  249.64 3388  253 3388  Z " fill-rule="nonzero" fill="#ffffff" stroke="none" />
  <path d="M 253 3388.5  C 256.08 3388.5  258.5 3390.92  258.5 3394  C 258.5 3397.08  256.08 3399.5  253 3399.5  C 249.92 3399.5  247.5 3397.08  247.5 3394  C 247.5 3390.92  249.92 3388.5  253 3388.5  Z " stroke-width="1" stroke="#000000" fill="none" />
  <path d="M 253 3397  C 251.32 3397  250 3395.68  250 3394  C 250 3392.32  251.32 3391  253 3391  C 254.68 3391  256 3392.32  256 3394  C 256 3395.68  254.68 3397  253 3397  " fill-rule="nonzero" fill="#000000" stroke="none" />
</svg>