<?xml version="1.0" encoding="utf-8"?>
<svg version="1.1" xmlns:xlink="http://www.w3.org/1999/xlink" width="12px" height="12px" viewBox="70 1885  12 12" xmlns="http://www.w3.org/2000/svg">
  <path d="M 76 1885  C 79.36 1885  82 1887.64  82 1891  C 82 1894.36  79.36 1897  76 1897  C 72.64 1897  70 1894.36  70 1891  C 70 1887.64  72.64 1885  76 1885  Z " fill-rule="nonzero" fill="#ffffff" stroke="none" />
  <path d="M 76 1885.5  C 79.08 1885.5  81.5 1887.92  81.5 1891  C 81.5 1894.08  79.08 1896.5  76 1896.5  C 72.92 1896.5  70.5 1894.08  70.5 1891  C 70.5 1887.92  72.92 1885.5  76 1885.5  Z " stroke-width="1" stroke="#797979" fill="none" />
  <path d="M 76 1894  C 74.32 1894  73 1892.68  73 1891  C 73 1889.32  74.32 1888  76 1888  C 77.68 1888  79 1889.32  79 1891  C 79 1892.68  77.68 1894  76 1894  " fill-rule="nonzero" fill="#797979" stroke="none" />
</svg>