<?xml version="1.0" encoding="utf-8"?>
<svg version="1.1" xmlns:xlink="http://www.w3.org/1999/xlink" width="12px" height="12px" viewBox="70 589  12 12" xmlns="http://www.w3.org/2000/svg">
  <path d="M 76 589  C 79.36 589  82 591.64  82 595  C 82 598.36  79.36 601  76 601  C 72.64 601  70 598.36  70 595  C 70 591.64  72.64 589  76 589  Z " fill-rule="nonzero" fill="#ffffff" stroke="none" />
  <path d="M 76 589.5  C 79.08 589.5  81.5 591.92  81.5 595  C 81.5 598.08  79.08 600.5  76 600.5  C 72.92 600.5  70.5 598.08  70.5 595  C 70.5 591.92  72.92 589.5  76 589.5  Z " stroke-width="1" stroke="#797979" fill="none" />
  <path d="M 76 598  C 74.32 598  73 596.68  73 595  C 73 593.32  74.32 592  76 592  C 77.68 592  79 593.32  79 595  C 79 596.68  77.68 598  76 598  " fill-rule="nonzero" fill="#797979" stroke="none" />
</svg>