<?xml version="1.0" encoding="utf-8"?>
<svg version="1.1" xmlns:xlink="http://www.w3.org/1999/xlink" width="12px" height="12px" viewBox="247 2912  12 12" xmlns="http://www.w3.org/2000/svg">
  <path d="M 253 2912  C 256.36 2912  259 2914.64  259 2918  C 259 2921.36  256.36 2924  253 2924  C 249.64 2924  247 2921.36  247 2918  C 247 2914.64  249.64 2912  253 2912  Z " fill-rule="nonzero" fill="#ffffff" stroke="none" />
  <path d="M 253 2912.5  C 256.08 2912.5  258.5 2914.92  258.5 2918  C 258.5 2921.08  256.08 2923.5  253 2923.5  C 249.92 2923.5  247.5 2921.08  247.5 2918  C 247.5 2914.92  249.92 2912.5  253 2912.5  Z " stroke-width="1" stroke="#000000" fill="none" />
  <path d="M 253 2921  C 251.32 2921  250 2919.68  250 2918  C 250 2916.32  251.32 2915  253 2915  C 254.68 2915  256 2916.32  256 2918  C 256 2919.68  254.68 2921  253 2921  " fill-rule="nonzero" fill="#000000" stroke="none" />
</svg>