<?xml version="1.0" encoding="utf-8"?>
<svg version="1.1" xmlns:xlink="http://www.w3.org/1999/xlink" width="12px" height="12px" viewBox="228 2498  12 12" xmlns="http://www.w3.org/2000/svg">
  <path d="M 234 2498  C 237.36 2498  240 2500.64  240 2504  C 240 2507.36  237.36 2510  234 2510  C 230.64 2510  228 2507.36  228 2504  C 228 2500.64  230.64 2498  234 2498  Z " fill-rule="nonzero" fill="#ffffff" stroke="none" />
  <path d="M 234 2498.5  C 237.08 2498.5  239.5 2500.92  239.5 2504  C 239.5 2507.08  237.08 2509.5  234 2509.5  C 230.92 2509.5  228.5 2507.08  228.5 2504  C 228.5 2500.92  230.92 2498.5  234 2498.5  Z " stroke-width="1" stroke="#000000" fill="none" />
  <path d="M 234 2507  C 232.32 2507  231 2505.68  231 2504  C 231 2502.32  232.32 2501  234 2501  C 235.68 2501  237 2502.32  237 2504  C 237 2505.68  235.68 2507  234 2507  " fill-rule="nonzero" fill="#000000" stroke="none" />
</svg>