<?xml version="1.0" encoding="utf-8"?>
<svg version="1.1" xmlns:xlink="http://www.w3.org/1999/xlink" width="12px" height="12px" viewBox="228 589  12 12" xmlns="http://www.w3.org/2000/svg">
  <path d="M 234 589  C 237.36 589  240 591.64  240 595  C 240 598.36  237.36 601  234 601  C 230.64 601  228 598.36  228 595  C 228 591.64  230.64 589  234 589  Z " fill-rule="nonzero" fill="#ffffff" stroke="none" />
  <path d="M 234 589.5  C 237.08 589.5  239.5 591.92  239.5 595  C 239.5 598.08  237.08 600.5  234 600.5  C 230.92 600.5  228.5 598.08  228.5 595  C 228.5 591.92  230.92 589.5  234 589.5  Z " stroke-width="1" stroke="#797979" fill="none" />
  <path d="M 234 598  C 232.32 598  231 596.68  231 595  C 231 593.32  232.32 592  234 592  C 235.68 592  237 593.32  237 595  C 237 596.68  235.68 598  234 598  " fill-rule="nonzero" fill="#797979" stroke="none" />
</svg>