<?xml version="1.0" encoding="utf-8"?>
<svg version="1.1" xmlns:xlink="http://www.w3.org/1999/xlink" width="12px" height="12px" viewBox="70 1051  12 12" xmlns="http://www.w3.org/2000/svg">
  <path d="M 76 1051  C 79.36 1051  82 1053.64  82 1057  C 82 1060.36  79.36 1063  76 1063  C 72.64 1063  70 1060.36  70 1057  C 70 1053.64  72.64 1051  76 1051  Z " fill-rule="nonzero" fill="#ffffff" stroke="none" />
  <path d="M 76 1051.5  C 79.08 1051.5  81.5 1053.92  81.5 1057  C 81.5 1060.08  79.08 1062.5  76 1062.5  C 72.92 1062.5  70.5 1060.08  70.5 1057  C 70.5 1053.92  72.92 1051.5  76 1051.5  Z " stroke-width="1" stroke="#797979" fill="none" />
  <path d="M 76 1060  C 74.32 1060  73 1058.68  73 1057  C 73 1055.32  74.32 1054  76 1054  C 77.68 1054  79 1055.32  79 1057  C 79 1058.68  77.68 1060  76 1060  " fill-rule="nonzero" fill="#797979" stroke="none" />
</svg>