<?xml version="1.0" encoding="utf-8"?>
<svg version="1.1" xmlns:xlink="http://www.w3.org/1999/xlink" width="12px" height="12px" viewBox="228 2318  12 12" xmlns="http://www.w3.org/2000/svg">
  <path d="M 234 2318  C 237.36 2318  240 2320.64  240 2324  C 240 2327.36  237.36 2330  234 2330  C 230.64 2330  228 2327.36  228 2324  C 228 2320.64  230.64 2318  234 2318  Z " fill-rule="nonzero" fill="#ffffff" stroke="none" />
  <path d="M 234 2318.5  C 237.08 2318.5  239.5 2320.92  239.5 2324  C 239.5 2327.08  237.08 2329.5  234 2329.5  C 230.92 2329.5  228.5 2327.08  228.5 2324  C 228.5 2320.92  230.92 2318.5  234 2318.5  Z " stroke-width="1" stroke="#000000" fill="none" />
  <path d="M 234 2327  C 232.32 2327  231 2325.68  231 2324  C 231 2322.32  232.32 2321  234 2321  C 235.68 2321  237 2322.32  237 2324  C 237 2325.68  235.68 2327  234 2327  " fill-rule="nonzero" fill="#000000" stroke="none" />
</svg>