<?xml version="1.0" encoding="utf-8"?>
<svg version="1.1" xmlns:xlink="http://www.w3.org/1999/xlink" width="12px" height="12px" viewBox="70 1460  12 12" xmlns="http://www.w3.org/2000/svg">
  <path d="M 76 1460  C 79.36 1460  82 1462.64  82 1466  C 82 1469.36  79.36 1472  76 1472  C 72.64 1472  70 1469.36  70 1466  C 70 1462.64  72.64 1460  76 1460  Z " fill-rule="nonzero" fill="#ffffff" stroke="none" />
  <path d="M 76 1460.5  C 79.08 1460.5  81.5 1462.92  81.5 1466  C 81.5 1469.08  79.08 1471.5  76 1471.5  C 72.92 1471.5  70.5 1469.08  70.5 1466  C 70.5 1462.92  72.92 1460.5  76 1460.5  Z " stroke-width="1" stroke="#797979" fill="none" />
  <path d="M 76 1469  C 74.32 1469  73 1467.68  73 1466  C 73 1464.32  74.32 1463  76 1463  C 77.68 1463  79 1464.32  79 1466  C 79 1467.68  77.68 1469  76 1469  " fill-rule="nonzero" fill="#797979" stroke="none" />
</svg>