<?xml version="1.0" encoding="utf-8"?>
<svg version="1.1" xmlns:xlink="http://www.w3.org/1999/xlink" width="12px" height="12px" viewBox="228 1485  12 12" xmlns="http://www.w3.org/2000/svg">
  <path d="M 234 1485  C 237.36 1485  240 1487.64  240 1491  C 240 1494.36  237.36 1497  234 1497  C 230.64 1497  228 1494.36  228 1491  C 228 1487.64  230.64 1485  234 1485  Z " fill-rule="nonzero" fill="#ffffff" stroke="none" />
  <path d="M 234 1485.5  C 237.08 1485.5  239.5 1487.92  239.5 1491  C 239.5 1494.08  237.08 1496.5  234 1496.5  C 230.92 1496.5  228.5 1494.08  228.5 1491  C 228.5 1487.92  230.92 1485.5  234 1485.5  Z " stroke-width="1" stroke="#797979" fill="none" />
  <path d="M 234 1494  C 232.32 1494  231 1492.68  231 1491  C 231 1489.32  232.32 1488  234 1488  C 235.68 1488  237 1489.32  237 1491  C 237 1492.68  235.68 1494  234 1494  " fill-rule="nonzero" fill="#797979" stroke="none" />
</svg>