<?xml version="1.0" encoding="utf-8"?>
<svg version="1.1" xmlns:xlink="http://www.w3.org/1999/xlink" width="12px" height="12px" viewBox="70 2386  12 12" xmlns="http://www.w3.org/2000/svg">
  <path d="M 76 2386  C 79.36 2386  82 2388.64  82 2392  C 82 2395.36  79.36 2398  76 2398  C 72.64 2398  70 2395.36  70 2392  C 70 2388.64  72.64 2386  76 2386  Z " fill-rule="nonzero" fill="#ffffff" stroke="none" />
  <path d="M 76 2386.5  C 79.08 2386.5  81.5 2388.92  81.5 2392  C 81.5 2395.08  79.08 2397.5  76 2397.5  C 72.92 2397.5  70.5 2395.08  70.5 2392  C 70.5 2388.92  72.92 2386.5  76 2386.5  Z " stroke-width="1" stroke="#000000" fill="none" />
  <path d="M 76 2395  C 74.32 2395  73 2393.68  73 2392  C 73 2390.32  74.32 2389  76 2389  C 77.68 2389  79 2390.32  79 2392  C 79 2393.68  77.68 2395  76 2395  " fill-rule="nonzero" fill="#000000" stroke="none" />
</svg>