<?xml version="1.0" encoding="utf-8"?>
<svg version="1.1" xmlns:xlink="http://www.w3.org/1999/xlink" width="12px" height="12px" viewBox="228 2386  12 12" xmlns="http://www.w3.org/2000/svg">
  <path d="M 234 2386  C 237.36 2386  240 2388.64  240 2392  C 240 2395.36  237.36 2398  234 2398  C 230.64 2398  228 2395.36  228 2392  C 228 2388.64  230.64 2386  234 2386  Z " fill-rule="nonzero" fill="#ffffff" stroke="none" />
  <path d="M 234 2386.5  C 237.08 2386.5  239.5 2388.92  239.5 2392  C 239.5 2395.08  237.08 2397.5  234 2397.5  C 230.92 2397.5  228.5 2395.08  228.5 2392  C 228.5 2388.92  230.92 2386.5  234 2386.5  Z " stroke-width="1" stroke="#000000" fill="none" />
  <path d="M 234 2395  C 232.32 2395  231 2393.68  231 2392  C 231 2390.32  232.32 2389  234 2389  C 235.68 2389  237 2390.32  237 2392  C 237 2393.68  235.68 2395  234 2395  " fill-rule="nonzero" fill="#000000" stroke="none" />
</svg>