<?xml version="1.0" encoding="utf-8"?>
<svg version="1.1" xmlns:xlink="http://www.w3.org/1999/xlink" width="12px" height="12px" viewBox="139 5582  12 12" xmlns="http://www.w3.org/2000/svg">
  <path d="M 145 5582  C 148.36 5582  151 5584.64  151 5588  C 151 5591.36  148.36 5594  145 5594  C 141.64 5594  139 5591.36  139 5588  C 139 5584.64  141.64 5582  145 5582  Z " fill-rule="nonzero" fill="#ffffff" stroke="none" />
  <path d="M 145 5582.5  C 148.08 5582.5  150.5 5584.92  150.5 5588  C 150.5 5591.08  148.08 5593.5  145 5593.5  C 141.92 5593.5  139.5 5591.08  139.5 5588  C 139.5 5584.92  141.92 5582.5  145 5582.5  Z " stroke-width="1" stroke="#000000" fill="none" />
  <path d="M 145 5591  C 143.32 5591  142 5589.68  142 5588  C 142 5586.32  143.32 5585  145 5585  C 146.68 5585  148 5586.32  148 5588  C 148 5589.68  146.68 5591  145 5591  " fill-rule="nonzero" fill="#000000" stroke="none" />
</svg>