<?xml version="1.0" encoding="utf-8"?>
<svg version="1.1" xmlns:xlink="http://www.w3.org/1999/xlink" width="12px" height="12px" viewBox="70 5512  12 12" xmlns="http://www.w3.org/2000/svg">
  <path d="M 76 5512  C 79.36 5512  82 5514.64  82 5518  C 82 5521.36  79.36 5524  76 5524  C 72.64 5524  70 5521.36  70 5518  C 70 5514.64  72.64 5512  76 5512  Z " fill-rule="nonzero" fill="#ffffff" stroke="none" />
  <path d="M 76 5512.5  C 79.08 5512.5  81.5 5514.92  81.5 5518  C 81.5 5521.08  79.08 5523.5  76 5523.5  C 72.92 5523.5  70.5 5521.08  70.5 5518  C 70.5 5514.92  72.92 5512.5  76 5512.5  Z " stroke-width="1" stroke="#000000" fill="none" />
  <path d="M 76 5521  C 74.32 5521  73 5519.68  73 5518  C 73 5516.32  74.32 5515  76 5515  C 77.68 5515  79 5516.32  79 5518  C 79 5519.68  77.68 5521  76 5521  " fill-rule="nonzero" fill="#000000" stroke="none" />
</svg>