<?xml version="1.0" encoding="utf-8"?>
<svg version="1.1" xmlns:xlink="http://www.w3.org/1999/xlink" width="12px" height="12px" viewBox="139 5451  12 12" xmlns="http://www.w3.org/2000/svg">
  <path d="M 145 5451  C 148.36 5451  151 5453.64  151 5457  C 151 5460.36  148.36 5463  145 5463  C 141.64 5463  139 5460.36  139 5457  C 139 5453.64  141.64 5451  145 5451  Z " fill-rule="nonzero" fill="#ffffff" stroke="none" />
  <path d="M 145 5451.5  C 148.08 5451.5  150.5 5453.92  150.5 5457  C 150.5 5460.08  148.08 5462.5  145 5462.5  C 141.92 5462.5  139.5 5460.08  139.5 5457  C 139.5 5453.92  141.92 5451.5  145 5451.5  Z " stroke-width="1" stroke="#000000" fill="none" />
  <path d="M 145 5460  C 143.32 5460  142 5458.68  142 5457  C 142 5455.32  143.32 5454  145 5454  C 146.68 5454  148 5455.32  148 5457  C 148 5458.68  146.68 5460  145 5460  " fill-rule="nonzero" fill="#000000" stroke="none" />
</svg>