<?xml version="1.0" encoding="utf-8"?>
<svg version="1.1" xmlns:xlink="http://www.w3.org/1999/xlink" width="12px" height="12px" viewBox="70 5582  12 12" xmlns="http://www.w3.org/2000/svg">
  <path d="M 76 5582  C 79.36 5582  82 5584.64  82 5588  C 82 5591.36  79.36 5594  76 5594  C 72.64 5594  70 5591.36  70 5588  C 70 5584.64  72.64 5582  76 5582  Z " fill-rule="nonzero" fill="#ffffff" stroke="none" />
  <path d="M 76 5582.5  C 79.08 5582.5  81.5 5584.92  81.5 5588  C 81.5 5591.08  79.08 5593.5  76 5593.5  C 72.92 5593.5  70.5 5591.08  70.5 5588  C 70.5 5584.92  72.92 5582.5  76 5582.5  Z " stroke-width="1" stroke="#000000" fill="none" />
  <path d="M 76 5591  C 74.32 5591  73 5589.68  73 5588  C 73 5586.32  74.32 5585  76 5585  C 77.68 5585  79 5586.32  79 5588  C 79 5589.68  77.68 5591  76 5591  " fill-rule="nonzero" fill="#000000" stroke="none" />
</svg>