<?xml version="1.0" encoding="utf-8"?>
<svg version="1.1" xmlns:xlink="http://www.w3.org/1999/xlink" width="12px" height="12px" viewBox="139 5512  12 12" xmlns="http://www.w3.org/2000/svg">
  <path d="M 145 5512  C 148.36 5512  151 5514.64  151 5518  C 151 5521.36  148.36 5524  145 5524  C 141.64 5524  139 5521.36  139 5518  C 139 5514.64  141.64 5512  145 5512  Z " fill-rule="nonzero" fill="#ffffff" stroke="none" />
  <path d="M 145 5512.5  C 148.08 5512.5  150.5 5514.92  150.5 5518  C 150.5 5521.08  148.08 5523.5  145 5523.5  C 141.92 5523.5  139.5 5521.08  139.5 5518  C 139.5 5514.92  141.92 5512.5  145 5512.5  Z " stroke-width="1" stroke="#000000" fill="none" />
  <path d="M 145 5521  C 143.32 5521  142 5519.68  142 5518  C 142 5516.32  143.32 5515  145 5515  C 146.68 5515  148 5516.32  148 5518  C 148 5519.68  146.68 5521  145 5521  " fill-rule="nonzero" fill="#000000" stroke="none" />
</svg>