<?xml version="1.0" encoding="utf-8"?>
<svg version="1.1" xmlns:xlink="http://www.w3.org/1999/xlink" width="12px" height="12px" viewBox="139 5249  12 12" xmlns="http://www.w3.org/2000/svg">
  <path d="M 145 5249  C 148.36 5249  151 5251.64  151 5255  C 151 5258.36  148.36 5261  145 5261  C 141.64 5261  139 5258.36  139 5255  C 139 5251.64  141.64 5249  145 5249  Z " fill-rule="nonzero" fill="#ffffff" stroke="none" />
  <path d="M 145 5249.5  C 148.08 5249.5  150.5 5251.92  150.5 5255  C 150.5 5258.08  148.08 5260.5  145 5260.5  C 141.92 5260.5  139.5 5258.08  139.5 5255  C 139.5 5251.92  141.92 5249.5  145 5249.5  Z " stroke-width="1" stroke="#000000" fill="none" />
  <path d="M 145 5258  C 143.32 5258  142 5256.68  142 5255  C 142 5253.32  143.32 5252  145 5252  C 146.68 5252  148 5253.32  148 5255  C 148 5256.68  146.68 5258  145 5258  " fill-rule="nonzero" fill="#000000" stroke="none" />
</svg>