<?xml version="1.0" encoding="utf-8"?>
<svg version="1.1" xmlns:xlink="http://www.w3.org/1999/xlink" width="12px" height="12px" viewBox="766 2312  12 12" xmlns="http://www.w3.org/2000/svg">
  <path d="M 772 2312  C 775.36 2312  778 2314.64  778 2318  C 778 2321.36  775.36 2324  772 2324  C 768.64 2324  766 2321.36  766 2318  C 766 2314.64  768.64 2312  772 2312  Z " fill-rule="nonzero" fill="#ffffff" stroke="none" />
  <path d="M 772 2312.5  C 775.08 2312.5  777.5 2314.92  777.5 2318  C 777.5 2321.08  775.08 2323.5  772 2323.5  C 768.92 2323.5  766.5 2321.08  766.5 2318  C 766.5 2314.92  768.92 2312.5  772 2312.5  Z " stroke-width="1" stroke="#797979" fill="none" />
  <path d="M 772 2321  C 770.32 2321  769 2319.68  769 2318  C 769 2316.32  770.32 2315  772 2315  C 773.68 2315  775 2316.32  775 2318  C 775 2319.68  773.68 2321  772 2321  " fill-rule="nonzero" fill="#797979" stroke="none" />
</svg>