<?xml version="1.0" encoding="utf-8"?>
<svg version="1.1" xmlns:xlink="http://www.w3.org/1999/xlink" width="12px" height="12px" viewBox="766 1479  12 12" xmlns="http://www.w3.org/2000/svg">
  <path d="M 772 1479  C 775.36 1479  778 1481.64  778 1485  C 778 1488.36  775.36 1491  772 1491  C 768.64 1491  766 1488.36  766 1485  C 766 1481.64  768.64 1479  772 1479  Z " fill-rule="nonzero" fill="#ffffff" stroke="none" />
  <path d="M 772 1479.5  C 775.08 1479.5  777.5 1481.92  777.5 1485  C 777.5 1488.08  775.08 1490.5  772 1490.5  C 768.92 1490.5  766.5 1488.08  766.5 1485  C 766.5 1481.92  768.92 1479.5  772 1479.5  Z " stroke-width="1" stroke="#797979" fill="none" />
  <path d="M 772 1488  C 770.32 1488  769 1486.68  769 1485  C 769 1483.32  770.32 1482  772 1482  C 773.68 1482  775 1483.32  775 1485  C 775 1486.68  773.68 1488  772 1488  " fill-rule="nonzero" fill="#797979" stroke="none" />
</svg>