<?xml version="1.0" encoding="utf-8"?>
<svg version="1.1" xmlns:xlink="http://www.w3.org/1999/xlink" width="12px" height="12px" viewBox="766 1043  12 12" xmlns="http://www.w3.org/2000/svg">
  <path d="M 772 1043  C 775.36 1043  778 1045.64  778 1049  C 778 1052.36  775.36 1055  772 1055  C 768.64 1055  766 1052.36  766 1049  C 766 1045.64  768.64 1043  772 1043  Z " fill-rule="nonzero" fill="#ffffff" stroke="none" />
  <path d="M 772 1043.5  C 775.08 1043.5  777.5 1045.92  777.5 1049  C 777.5 1052.08  775.08 1054.5  772 1054.5  C 768.92 1054.5  766.5 1052.08  766.5 1049  C 766.5 1045.92  768.92 1043.5  772 1043.5  Z " stroke-width="1" stroke="#797979" fill="none" />
  <path d="M 772 1052  C 770.32 1052  769 1050.68  769 1049  C 769 1047.32  770.32 1046  772 1046  C 773.68 1046  775 1047.32  775 1049  C 775 1050.68  773.68 1052  772 1052  " fill-rule="nonzero" fill="#797979" stroke="none" />
</svg>