<?xml version="1.0" encoding="utf-8"?>
<svg version="1.1" xmlns:xlink="http://www.w3.org/1999/xlink" width="12px" height="12px" viewBox="139 5774  12 12" xmlns="http://www.w3.org/2000/svg">
  <path d="M 145 5774  C 148.36 5774  151 5776.64  151 5780  C 151 5783.36  148.36 5786  145 5786  C 141.64 5786  139 5783.36  139 5780  C 139 5776.64  141.64 5774  145 5774  Z " fill-rule="nonzero" fill="#ffffff" stroke="none" />
  <path d="M 145 5774.5  C 148.08 5774.5  150.5 5776.92  150.5 5780  C 150.5 5783.08  148.08 5785.5  145 5785.5  C 141.92 5785.5  139.5 5783.08  139.5 5780  C 139.5 5776.92  141.92 5774.5  145 5774.5  Z " stroke-width="1" stroke="#000000" fill="none" />
  <path d="M 145 5783  C 143.32 5783  142 5781.68  142 5780  C 142 5778.32  143.32 5777  145 5777  C 146.68 5777  148 5778.32  148 5780  C 148 5781.68  146.68 5783  145 5783  " fill-rule="nonzero" fill="#000000" stroke="none" />
</svg>