<?xml version="1.0" encoding="utf-8"?>
<svg version="1.1" xmlns:xlink="http://www.w3.org/1999/xlink" width="12px" height="12px" viewBox="766 78  12 12" xmlns="http://www.w3.org/2000/svg">
  <path d="M 772 78  C 775.36 78  778 80.64  778 84  C 778 87.36  775.36 90  772 90  C 768.64 90  766 87.36  766 84  C 766 80.64  768.64 78  772 78  Z " fill-rule="nonzero" fill="#ffffff" stroke="none" />
  <path d="M 772 78.5  C 775.08 78.5  777.5 80.92  777.5 84  C 777.5 87.08  775.08 89.5  772 89.5  C 768.92 89.5  766.5 87.08  766.5 84  C 766.5 80.92  768.92 78.5  772 78.5  Z " stroke-width="1" stroke="#797979" fill="none" />
  <path d="M 772 87  C 770.32 87  769 85.68  769 84  C 769 82.32  770.32 81  772 81  C 773.68 81  775 82.32  775 84  C 775 85.68  773.68 87  772 87  " fill-rule="nonzero" fill="#797979" stroke="none" />
</svg>