<?xml version="1.0" encoding="utf-8"?>
<svg version="1.1" xmlns:xlink="http://www.w3.org/1999/xlink" width="12px" height="12px" viewBox="70 5704  12 12" xmlns="http://www.w3.org/2000/svg">
  <path d="M 76 5704  C 79.36 5704  82 5706.64  82 5710  C 82 5713.36  79.36 5716  76 5716  C 72.64 5716  70 5713.36  70 5710  C 70 5706.64  72.64 5704  76 5704  Z " fill-rule="nonzero" fill="#ffffff" stroke="none" />
  <path d="M 76 5704.5  C 79.08 5704.5  81.5 5706.92  81.5 5710  C 81.5 5713.08  79.08 5715.5  76 5715.5  C 72.92 5715.5  70.5 5713.08  70.5 5710  C 70.5 5706.92  72.92 5704.5  76 5704.5  Z " stroke-width="1" stroke="#000000" fill="none" />
  <path d="M 76 5713  C 74.32 5713  73 5711.68  73 5710  C 73 5708.32  74.32 5707  76 5707  C 77.68 5707  79 5708.32  79 5710  C 79 5711.68  77.68 5713  76 5713  " fill-rule="nonzero" fill="#000000" stroke="none" />
</svg>