<?xml version="1.0" encoding="utf-8"?>
<svg version="1.1" xmlns:xlink="http://www.w3.org/1999/xlink" width="12px" height="12px" viewBox="812 2312  12 12" xmlns="http://www.w3.org/2000/svg">
  <path d="M 818 2312  C 821.36 2312  824 2314.64  824 2318  C 824 2321.36  821.36 2324  818 2324  C 814.64 2324  812 2321.36  812 2318  C 812 2314.64  814.64 2312  818 2312  Z " fill-rule="nonzero" fill="#ffffff" stroke="none" />
  <path d="M 818 2312.5  C 821.08 2312.5  823.5 2314.92  823.5 2318  C 823.5 2321.08  821.08 2323.5  818 2323.5  C 814.92 2323.5  812.5 2321.08  812.5 2318  C 812.5 2314.92  814.92 2312.5  818 2312.5  Z " stroke-width="1" stroke="#797979" fill="none" />
  <path d="M 818 2321  C 816.32 2321  815 2319.68  815 2318  C 815 2316.32  816.32 2315  818 2315  C 819.68 2315  821 2316.32  821 2318  C 821 2319.68  819.68 2321  818 2321  " fill-rule="nonzero" fill="#797979" stroke="none" />
</svg>