<?xml version="1.0" encoding="utf-8"?>
<svg version="1.1" xmlns:xlink="http://www.w3.org/1999/xlink" width="12px" height="12px" viewBox="812 585  12 12" xmlns="http://www.w3.org/2000/svg">
  <path d="M 818 585  C 821.36 585  824 587.64  824 591  C 824 594.36  821.36 597  818 597  C 814.64 597  812 594.36  812 591  C 812 587.64  814.64 585  818 585  Z " fill-rule="nonzero" fill="#ffffff" stroke="none" />
  <path d="M 818 585.5  C 821.08 585.5  823.5 587.92  823.5 591  C 823.5 594.08  821.08 596.5  818 596.5  C 814.92 596.5  812.5 594.08  812.5 591  C 812.5 587.92  814.92 585.5  818 585.5  Z " stroke-width="1" stroke="#797979" fill="none" />
  <path d="M 818 594  C 816.32 594  815 592.68  815 591  C 815 589.32  816.32 588  818 588  C 819.68 588  821 589.32  821 591  C 821 592.68  819.68 594  818 594  " fill-rule="nonzero" fill="#797979" stroke="none" />
</svg>