<?xml version="1.0" encoding="utf-8"?>
<svg version="1.1" xmlns:xlink="http://www.w3.org/1999/xlink" width="12px" height="12px" viewBox="812 78  12 12" xmlns="http://www.w3.org/2000/svg">
  <path d="M 818 78  C 821.36 78  824 80.64  824 84  C 824 87.36  821.36 90  818 90  C 814.64 90  812 87.36  812 84  C 812 80.64  814.64 78  818 78  Z " fill-rule="nonzero" fill="#ffffff" stroke="none" />
  <path d="M 818 78.5  C 821.08 78.5  823.5 80.92  823.5 84  C 823.5 87.08  821.08 89.5  818 89.5  C 814.92 89.5  812.5 87.08  812.5 84  C 812.5 80.92  814.92 78.5  818 78.5  Z " stroke-width="1" stroke="#797979" fill="none" />
  <path d="M 818 87  C 816.32 87  815 85.68  815 84  C 815 82.32  816.32 81  818 81  C 819.68 81  821 82.32  821 84  C 821 85.68  819.68 87  818 87  " fill-rule="nonzero" fill="#797979" stroke="none" />
</svg>