<?xml version="1.0" encoding="utf-8"?>
<svg version="1.1" xmlns:xlink="http://www.w3.org/1999/xlink" width="12px" height="12px" viewBox="766 2896  12 12" xmlns="http://www.w3.org/2000/svg">
  <path d="M 772 2896  C 775.36 2896  778 2898.64  778 2902  C 778 2905.36  775.36 2908  772 2908  C 768.64 2908  766 2905.36  766 2902  C 766 2898.64  768.64 2896  772 2896  Z " fill-rule="nonzero" fill="#ffffff" stroke="none" />
  <path d="M 772 2896.5  C 775.08 2896.5  777.5 2898.92  777.5 2902  C 777.5 2905.08  775.08 2907.5  772 2907.5  C 768.92 2907.5  766.5 2905.08  766.5 2902  C 766.5 2898.92  768.92 2896.5  772 2896.5  Z " stroke-width="1" stroke="#797979" fill="none" />
  <path d="M 772 2905  C 770.32 2905  769 2903.68  769 2902  C 769 2900.32  770.32 2899  772 2899  C 773.68 2899  775 2900.32  775 2902  C 775 2903.68  773.68 2905  772 2905  " fill-rule="nonzero" fill="#797979" stroke="none" />
</svg>