<?xml version="1.0" encoding="utf-8"?>
<svg version="1.1" xmlns:xlink="http://www.w3.org/1999/xlink" width="12px" height="12px" viewBox="766 2513  12 12" xmlns="http://www.w3.org/2000/svg">
  <path d="M 772 2513  C 775.36 2513  778 2515.64  778 2519  C 778 2522.36  775.36 2525  772 2525  C 768.64 2525  766 2522.36  766 2519  C 766 2515.64  768.64 2513  772 2513  Z " fill-rule="nonzero" fill="#ffffff" stroke="none" />
  <path d="M 772 2513.5  C 775.08 2513.5  777.5 2515.92  777.5 2519  C 777.5 2522.08  775.08 2524.5  772 2524.5  C 768.92 2524.5  766.5 2522.08  766.5 2519  C 766.5 2515.92  768.92 2513.5  772 2513.5  Z " stroke-width="1" stroke="#797979" fill="none" />
  <path d="M 772 2522  C 770.32 2522  769 2520.68  769 2519  C 769 2517.32  770.32 2516  772 2516  C 773.68 2516  775 2517.32  775 2519  C 775 2520.68  773.68 2522  772 2522  " fill-rule="nonzero" fill="#797979" stroke="none" />
</svg>