<?xml version="1.0" encoding="utf-8"?>
<svg version="1.1" xmlns:xlink="http://www.w3.org/1999/xlink" width="12px" height="12px" viewBox="766 3964  12 12" xmlns="http://www.w3.org/2000/svg">
  <path d="M 772 3964  C 775.36 3964  778 3966.64  778 3970  C 778 3973.36  775.36 3976  772 3976  C 768.64 3976  766 3973.36  766 3970  C 766 3966.64  768.64 3964  772 3964  Z " fill-rule="nonzero" fill="#ffffff" stroke="none" />
  <path d="M 772 3964.5  C 775.08 3964.5  777.5 3966.92  777.5 3970  C 777.5 3973.08  775.08 3975.5  772 3975.5  C 768.92 3975.5  766.5 3973.08  766.5 3970  C 766.5 3966.92  768.92 3964.5  772 3964.5  Z " stroke-width="1" stroke="#797979" fill="none" />
  <path d="M 772 3973  C 770.32 3973  769 3971.68  769 3970  C 769 3968.32  770.32 3967  772 3967  C 773.68 3967  775 3968.32  775 3970  C 775 3971.68  773.68 3973  772 3973  " fill-rule="nonzero" fill="#797979" stroke="none" />
</svg>