<?xml version="1.0" encoding="utf-8"?>
<svg version="1.1" xmlns:xlink="http://www.w3.org/1999/xlink" width="12px" height="12px" viewBox="812 3627  12 12" xmlns="http://www.w3.org/2000/svg">
  <path d="M 818 3627  C 821.36 3627  824 3629.64  824 3633  C 824 3636.36  821.36 3639  818 3639  C 814.64 3639  812 3636.36  812 3633  C 812 3629.64  814.64 3627  818 3627  Z " fill-rule="nonzero" fill="#ffffff" stroke="none" />
  <path d="M 818 3627.5  C 821.08 3627.5  823.5 3629.92  823.5 3633  C 823.5 3636.08  821.08 3638.5  818 3638.5  C 814.92 3638.5  812.5 3636.08  812.5 3633  C 812.5 3629.92  814.92 3627.5  818 3627.5  Z " stroke-width="1" stroke="#797979" fill="none" />
  <path d="M 818 3636  C 816.32 3636  815 3634.68  815 3633  C 815 3631.32  816.32 3630  818 3630  C 819.68 3630  821 3631.32  821 3633  C 821 3634.68  819.68 3636  818 3636  " fill-rule="nonzero" fill="#797979" stroke="none" />
</svg>