<?xml version="1.0" encoding="utf-8"?>
<svg version="1.1" xmlns:xlink="http://www.w3.org/1999/xlink" width="12px" height="12px" viewBox="766 4259  12 12" xmlns="http://www.w3.org/2000/svg">
  <path d="M 772 4259  C 775.36 4259  778 4261.64  778 4265  C 778 4268.36  775.36 4271  772 4271  C 768.64 4271  766 4268.36  766 4265  C 766 4261.64  768.64 4259  772 4259  Z " fill-rule="nonzero" fill="#ffffff" stroke="none" />
  <path d="M 772 4259.5  C 775.08 4259.5  777.5 4261.92  777.5 4265  C 777.5 4268.08  775.08 4270.5  772 4270.5  C 768.92 4270.5  766.5 4268.08  766.5 4265  C 766.5 4261.92  768.92 4259.5  772 4259.5  Z " stroke-width="1" stroke="#797979" fill="none" />
  <path d="M 772 4268  C 770.32 4268  769 4266.68  769 4265  C 769 4263.32  770.32 4262  772 4262  C 773.68 4262  775 4263.32  775 4265  C 775 4266.68  773.68 4268  772 4268  " fill-rule="nonzero" fill="#797979" stroke="none" />
</svg>