<?xml version="1.0" encoding="utf-8"?>
<svg version="1.1" xmlns:xlink="http://www.w3.org/1999/xlink" width="12px" height="12px" viewBox="812 5314  12 12" xmlns="http://www.w3.org/2000/svg">
  <path d="M 818 5314  C 821.36 5314  824 5316.64  824 5320  C 824 5323.36  821.36 5326  818 5326  C 814.64 5326  812 5323.36  812 5320  C 812 5316.64  814.64 5314  818 5314  Z " fill-rule="nonzero" fill="#ffffff" stroke="none" />
  <path d="M 818 5314.5  C 821.08 5314.5  823.5 5316.92  823.5 5320  C 823.5 5323.08  821.08 5325.5  818 5325.5  C 814.92 5325.5  812.5 5323.08  812.5 5320  C 812.5 5316.92  814.92 5314.5  818 5314.5  Z " stroke-width="1" stroke="#797979" fill="none" />
  <path d="M 818 5323  C 816.32 5323  815 5321.68  815 5320  C 815 5318.32  816.32 5317  818 5317  C 819.68 5317  821 5318.32  821 5320  C 821 5321.68  819.68 5323  818 5323  " fill-rule="nonzero" fill="#797979" stroke="none" />
</svg>