<?xml version="1.0" encoding="utf-8"?>
<svg version="1.1" xmlns:xlink="http://www.w3.org/1999/xlink" width="12px" height="12px" viewBox="812 3964  12 12" xmlns="http://www.w3.org/2000/svg">
  <path d="M 818 3964  C 821.36 3964  824 3966.64  824 3970  C 824 3973.36  821.36 3976  818 3976  C 814.64 3976  812 3973.36  812 3970  C 812 3966.64  814.64 3964  818 3964  Z " fill-rule="nonzero" fill="#ffffff" stroke="none" />
  <path d="M 818 3964.5  C 821.08 3964.5  823.5 3966.92  823.5 3970  C 823.5 3973.08  821.08 3975.5  818 3975.5  C 814.92 3975.5  812.5 3973.08  812.5 3970  C 812.5 3966.92  814.92 3964.5  818 3964.5  Z " stroke-width="1" stroke="#797979" fill="none" />
  <path d="M 818 3973  C 816.32 3973  815 3971.68  815 3970  C 815 3968.32  816.32 3967  818 3967  C 819.68 3967  821 3968.32  821 3970  C 821 3971.68  819.68 3973  818 3973  " fill-rule="nonzero" fill="#797979" stroke="none" />
</svg>