<?xml version="1.0" encoding="utf-8"?>
<svg version="1.1" xmlns:xlink="http://www.w3.org/1999/xlink" width="12px" height="12px" viewBox="766 5052  12 12" xmlns="http://www.w3.org/2000/svg">
  <path d="M 772 5052  C 775.36 5052  778 5054.64  778 5058  C 778 5061.36  775.36 5064  772 5064  C 768.64 5064  766 5061.36  766 5058  C 766 5054.64  768.64 5052  772 5052  Z " fill-rule="nonzero" fill="#ffffff" stroke="none" />
  <path d="M 772 5052.5  C 775.08 5052.5  777.5 5054.92  777.5 5058  C 777.5 5061.08  775.08 5063.5  772 5063.5  C 768.92 5063.5  766.5 5061.08  766.5 5058  C 766.5 5054.92  768.92 5052.5  772 5052.5  Z " stroke-width="1" stroke="#797979" fill="none" />
  <path d="M 772 5061  C 770.32 5061  769 5059.68  769 5058  C 769 5056.32  770.32 5055  772 5055  C 773.68 5055  775 5056.32  775 5058  C 775 5059.68  773.68 5061  772 5061  " fill-rule="nonzero" fill="#797979" stroke="none" />
</svg>