<?xml version="1.0" encoding="utf-8"?>
<svg version="1.1" xmlns:xlink="http://www.w3.org/1999/xlink" width="12px" height="12px" viewBox="766 3737  12 12" xmlns="http://www.w3.org/2000/svg">
  <path d="M 772 3737  C 775.36 3737  778 3739.64  778 3743  C 778 3746.36  775.36 3749  772 3749  C 768.64 3749  766 3746.36  766 3743  C 766 3739.64  768.64 3737  772 3737  Z " fill-rule="nonzero" fill="#ffffff" stroke="none" />
  <path d="M 772 3737.5  C 775.08 3737.5  777.5 3739.92  777.5 3743  C 777.5 3746.08  775.08 3748.5  772 3748.5  C 768.92 3748.5  766.5 3746.08  766.5 3743  C 766.5 3739.92  768.92 3737.5  772 3737.5  Z " stroke-width="1" stroke="#797979" fill="none" />
  <path d="M 772 3746  C 770.32 3746  769 3744.68  769 3743  C 769 3741.32  770.32 3740  772 3740  C 773.68 3740  775 3741.32  775 3743  C 775 3744.68  773.68 3746  772 3746  " fill-rule="nonzero" fill="#797979" stroke="none" />
</svg>