<?xml version="1.0" encoding="utf-8"?>
<svg version="1.1" xmlns:xlink="http://www.w3.org/1999/xlink" width="12px" height="12px" viewBox="766 5450  12 12" xmlns="http://www.w3.org/2000/svg">
  <path d="M 772 5450  C 775.36 5450  778 5452.64  778 5456  C 778 5459.36  775.36 5462  772 5462  C 768.64 5462  766 5459.36  766 5456  C 766 5452.64  768.64 5450  772 5450  Z " fill-rule="nonzero" fill="#ffffff" stroke="none" />
  <path d="M 772 5450.5  C 775.08 5450.5  777.5 5452.92  777.5 5456  C 777.5 5459.08  775.08 5461.5  772 5461.5  C 768.92 5461.5  766.5 5459.08  766.5 5456  C 766.5 5452.92  768.92 5450.5  772 5450.5  Z " stroke-width="1" stroke="#797979" fill="none" />
  <path d="M 772 5459  C 770.32 5459  769 5457.68  769 5456  C 769 5454.32  770.32 5453  772 5453  C 773.68 5453  775 5454.32  775 5456  C 775 5457.68  773.68 5459  772 5459  " fill-rule="nonzero" fill="#797979" stroke="none" />
</svg>