<?xml version="1.0" encoding="utf-8"?>
<svg version="1.1" xmlns:xlink="http://www.w3.org/1999/xlink" width="12px" height="12px" viewBox="812 5177  12 12" xmlns="http://www.w3.org/2000/svg">
  <path d="M 818 5177  C 821.36 5177  824 5179.64  824 5183  C 824 5186.36  821.36 5189  818 5189  C 814.64 5189  812 5186.36  812 5183  C 812 5179.64  814.64 5177  818 5177  Z " fill-rule="nonzero" fill="#ffffff" stroke="none" />
  <path d="M 818 5177.5  C 821.08 5177.5  823.5 5179.92  823.5 5183  C 823.5 5186.08  821.08 5188.5  818 5188.5  C 814.92 5188.5  812.5 5186.08  812.5 5183  C 812.5 5179.92  814.92 5177.5  818 5177.5  Z " stroke-width="1" stroke="#797979" fill="none" />
  <path d="M 818 5186  C 816.32 5186  815 5184.68  815 5183  C 815 5181.32  816.32 5180  818 5180  C 819.68 5180  821 5181.32  821 5183  C 821 5184.68  819.68 5186  818 5186  " fill-rule="nonzero" fill="#797979" stroke="none" />
</svg>