<?xml version="1.0" encoding="utf-8"?>
<svg version="1.1" xmlns:xlink="http://www.w3.org/1999/xlink" width="12px" height="12px" viewBox="812 4171  12 12" xmlns="http://www.w3.org/2000/svg">
  <path d="M 818 4171  C 821.36 4171  824 4173.64  824 4177  C 824 4180.36  821.36 4183  818 4183  C 814.64 4183  812 4180.36  812 4177  C 812 4173.64  814.64 4171  818 4171  Z " fill-rule="nonzero" fill="#ffffff" stroke="none" />
  <path d="M 818 4171.5  C 821.08 4171.5  823.5 4173.92  823.5 4177  C 823.5 4180.08  821.08 4182.5  818 4182.5  C 814.92 4182.5  812.5 4180.08  812.5 4177  C 812.5 4173.92  814.92 4171.5  818 4171.5  Z " stroke-width="1" stroke="#797979" fill="none" />
  <path d="M 818 4180  C 816.32 4180  815 4178.68  815 4177  C 815 4175.32  816.32 4174  818 4174  C 819.68 4174  821 4175.32  821 4177  C 821 4178.68  819.68 4180  818 4180  " fill-rule="nonzero" fill="#797979" stroke="none" />
</svg>