<?xml version="1.0" encoding="utf-8"?>
<svg version="1.1" xmlns:xlink="http://www.w3.org/1999/xlink" width="12px" height="12px" viewBox="812 5577  12 12" xmlns="http://www.w3.org/2000/svg">
  <path d="M 818 5577  C 821.36 5577  824 5579.64  824 5583  C 824 5586.36  821.36 5589  818 5589  C 814.64 5589  812 5586.36  812 5583  C 812 5579.64  814.64 5577  818 5577  Z " fill-rule="nonzero" fill="#ffffff" stroke="none" />
  <path d="M 818 5577.5  C 821.08 5577.5  823.5 5579.92  823.5 5583  C 823.5 5586.08  821.08 5588.5  818 5588.5  C 814.92 5588.5  812.5 5586.08  812.5 5583  C 812.5 5579.92  814.92 5577.5  818 5577.5  Z " stroke-width="1" stroke="#797979" fill="none" />
  <path d="M 818 5586  C 816.32 5586  815 5584.68  815 5583  C 815 5581.32  816.32 5580  818 5580  C 819.68 5580  821 5581.32  821 5583  C 821 5584.68  819.68 5586  818 5586  " fill-rule="nonzero" fill="#797979" stroke="none" />
</svg>