<?xml version="1.0" encoding="utf-8"?>
<svg version="1.1" xmlns:xlink="http://www.w3.org/1999/xlink" width="12px" height="12px" viewBox="812 3853  12 12" xmlns="http://www.w3.org/2000/svg">
  <path d="M 818 3853  C 821.36 3853  824 3855.64  824 3859  C 824 3862.36  821.36 3865  818 3865  C 814.64 3865  812 3862.36  812 3859  C 812 3855.64  814.64 3853  818 3853  Z " fill-rule="nonzero" fill="#ffffff" stroke="none" />
  <path d="M 818 3853.5  C 821.08 3853.5  823.5 3855.92  823.5 3859  C 823.5 3862.08  821.08 3864.5  818 3864.5  C 814.92 3864.5  812.5 3862.08  812.5 3859  C 812.5 3855.92  814.92 3853.5  818 3853.5  Z " stroke-width="1" stroke="#797979" fill="none" />
  <path d="M 818 3862  C 816.32 3862  815 3860.68  815 3859  C 815 3857.32  816.32 3856  818 3856  C 819.68 3856  821 3857.32  821 3859  C 821 3860.68  819.68 3862  818 3862  " fill-rule="nonzero" fill="#797979" stroke="none" />
</svg>