<?xml version="1.0" encoding="utf-8"?>
<svg version="1.1" xmlns:xlink="http://www.w3.org/1999/xlink" width="12px" height="12px" viewBox="812 4259  12 12" xmlns="http://www.w3.org/2000/svg">
  <path d="M 818 4259  C 821.36 4259  824 4261.64  824 4265  C 824 4268.36  821.36 4271  818 4271  C 814.64 4271  812 4268.36  812 4265  C 812 4261.64  814.64 4259  818 4259  Z " fill-rule="nonzero" fill="#ffffff" stroke="none" />
  <path d="M 818 4259.5  C 821.08 4259.5  823.5 4261.92  823.5 4265  C 823.5 4268.08  821.08 4270.5  818 4270.5  C 814.92 4270.5  812.5 4268.08  812.5 4265  C 812.5 4261.92  814.92 4259.5  818 4259.5  Z " stroke-width="1" stroke="#797979" fill="none" />
  <path d="M 818 4268  C 816.32 4268  815 4266.68  815 4265  C 815 4263.32  816.32 4262  818 4262  C 819.68 4262  821 4263.32  821 4265  C 821 4266.68  819.68 4268  818 4268  " fill-rule="nonzero" fill="#797979" stroke="none" />
</svg>