<?xml version="1.0" encoding="utf-8"?>
<svg version="1.1" xmlns:xlink="http://www.w3.org/1999/xlink" width="12px" height="12px" viewBox="812 5052  12 12" xmlns="http://www.w3.org/2000/svg">
  <path d="M 818 5052  C 821.36 5052  824 5054.64  824 5058  C 824 5061.36  821.36 5064  818 5064  C 814.64 5064  812 5061.36  812 5058  C 812 5054.64  814.64 5052  818 5052  Z " fill-rule="nonzero" fill="#ffffff" stroke="none" />
  <path d="M 818 5052.5  C 821.08 5052.5  823.5 5054.92  823.5 5058  C 823.5 5061.08  821.08 5063.5  818 5063.5  C 814.92 5063.5  812.5 5061.08  812.5 5058  C 812.5 5054.92  814.92 5052.5  818 5052.5  Z " stroke-width="1" stroke="#797979" fill="none" />
  <path d="M 818 5061  C 816.32 5061  815 5059.68  815 5058  C 815 5056.32  816.32 5055  818 5055  C 819.68 5055  821 5056.32  821 5058  C 821 5059.68  819.68 5061  818 5061  " fill-rule="nonzero" fill="#797979" stroke="none" />
</svg>