<?xml version="1.0" encoding="utf-8"?>
<svg version="1.1" xmlns:xlink="http://www.w3.org/1999/xlink" width="12px" height="12px" viewBox="766 3853  12 12" xmlns="http://www.w3.org/2000/svg">
  <path d="M 772 3853  C 775.36 3853  778 3855.64  778 3859  C 778 3862.36  775.36 3865  772 3865  C 768.64 3865  766 3862.36  766 3859  C 766 3855.64  768.64 3853  772 3853  Z " fill-rule="nonzero" fill="#ffffff" stroke="none" />
  <path d="M 772 3853.5  C 775.08 3853.5  777.5 3855.92  777.5 3859  C 777.5 3862.08  775.08 3864.5  772 3864.5  C 768.92 3864.5  766.5 3862.08  766.5 3859  C 766.5 3855.92  768.92 3853.5  772 3853.5  Z " stroke-width="1" stroke="#797979" fill="none" />
  <path d="M 772 3862  C 770.32 3862  769 3860.68  769 3859  C 769 3857.32  770.32 3856  772 3856  C 773.68 3856  775 3857.32  775 3859  C 775 3860.68  773.68 3862  772 3862  " fill-rule="nonzero" fill="#797979" stroke="none" />
</svg>