<?xml version="1.0" encoding="utf-8"?>
<svg version="1.1" xmlns:xlink="http://www.w3.org/1999/xlink" width="12px" height="12px" viewBox="766 5386  12 12" xmlns="http://www.w3.org/2000/svg">
  <path d="M 772 5386  C 775.36 5386  778 5388.64  778 5392  C 778 5395.36  775.36 5398  772 5398  C 768.64 5398  766 5395.36  766 5392  C 766 5388.64  768.64 5386  772 5386  Z " fill-rule="nonzero" fill="#ffffff" stroke="none" />
  <path d="M 772 5386.5  C 775.08 5386.5  777.5 5388.92  777.5 5392  C 777.5 5395.08  775.08 5397.5  772 5397.5  C 768.92 5397.5  766.5 5395.08  766.5 5392  C 766.5 5388.92  768.92 5386.5  772 5386.5  Z " stroke-width="1" stroke="#797979" fill="none" />
  <path d="M 772 5395  C 770.32 5395  769 5393.68  769 5392  C 769 5390.32  770.32 5389  772 5389  C 773.68 5389  775 5390.32  775 5392  C 775 5393.68  773.68 5395  772 5395  " fill-rule="nonzero" fill="#797979" stroke="none" />
</svg>