<?xml version="1.0" encoding="utf-8"?>
<svg version="1.1" xmlns:xlink="http://www.w3.org/1999/xlink" width="12px" height="12px" viewBox="812 4700  12 12" xmlns="http://www.w3.org/2000/svg">
  <path d="M 818 4700  C 821.36 4700  824 4702.64  824 4706  C 824 4709.36  821.36 4712  818 4712  C 814.64 4712  812 4709.36  812 4706  C 812 4702.64  814.64 4700  818 4700  Z " fill-rule="nonzero" fill="#ffffff" stroke="none" />
  <path d="M 818 4700.5  C 821.08 4700.5  823.5 4702.92  823.5 4706  C 823.5 4709.08  821.08 4711.5  818 4711.5  C 814.92 4711.5  812.5 4709.08  812.5 4706  C 812.5 4702.92  814.92 4700.5  818 4700.5  Z " stroke-width="1" stroke="#797979" fill="none" />
  <path d="M 818 4709  C 816.32 4709  815 4707.68  815 4706  C 815 4704.32  816.32 4703  818 4703  C 819.68 4703  821 4704.32  821 4706  C 821 4707.68  819.68 4709  818 4709  " fill-rule="nonzero" fill="#797979" stroke="none" />
</svg>