<?xml version="1.0" encoding="utf-8"?>
<svg version="1.1" xmlns:xlink="http://www.w3.org/1999/xlink" width="12px" height="12px" viewBox="812 5763  12 12" xmlns="http://www.w3.org/2000/svg">
  <path d="M 818 5763  C 821.36 5763  824 5765.64  824 5769  C 824 5772.36  821.36 5775  818 5775  C 814.64 5775  812 5772.36  812 5769  C 812 5765.64  814.64 5763  818 5763  Z " fill-rule="nonzero" fill="#ffffff" stroke="none" />
  <path d="M 818 5763.5  C 821.08 5763.5  823.5 5765.92  823.5 5769  C 823.5 5772.08  821.08 5774.5  818 5774.5  C 814.92 5774.5  812.5 5772.08  812.5 5769  C 812.5 5765.92  814.92 5763.5  818 5763.5  Z " stroke-width="1" stroke="#797979" fill="none" />
  <path d="M 818 5772  C 816.32 5772  815 5770.68  815 5769  C 815 5767.32  816.32 5766  818 5766  C 819.68 5766  821 5767.32  821 5769  C 821 5770.68  819.68 5772  818 5772  " fill-rule="nonzero" fill="#797979" stroke="none" />
</svg>