<?xml version="1.0" encoding="utf-8"?>
<svg version="1.1" xmlns:xlink="http://www.w3.org/1999/xlink" width="12px" height="12px" viewBox="812 5703  12 12" xmlns="http://www.w3.org/2000/svg">
  <path d="M 818 5703  C 821.36 5703  824 5705.64  824 5709  C 824 5712.36  821.36 5715  818 5715  C 814.64 5715  812 5712.36  812 5709  C 812 5705.64  814.64 5703  818 5703  Z " fill-rule="nonzero" fill="#ffffff" stroke="none" />
  <path d="M 818 5703.5  C 821.08 5703.5  823.5 5705.92  823.5 5709  C 823.5 5712.08  821.08 5714.5  818 5714.5  C 814.92 5714.5  812.5 5712.08  812.5 5709  C 812.5 5705.92  814.92 5703.5  818 5703.5  Z " stroke-width="1" stroke="#797979" fill="none" />
  <path d="M 818 5712  C 816.32 5712  815 5710.68  815 5709  C 815 5707.32  816.32 5706  818 5706  C 819.68 5706  821 5707.32  821 5709  C 821 5710.68  819.68 5712  818 5712  " fill-rule="nonzero" fill="#797979" stroke="none" />
</svg>