<?xml version="1.0" encoding="utf-8"?>
<svg version="1.1" xmlns:xlink="http://www.w3.org/1999/xlink" width="12px" height="12px" viewBox="812 5927  12 12" xmlns="http://www.w3.org/2000/svg">
  <path d="M 818 5927  C 821.36 5927  824 5929.64  824 5933  C 824 5936.36  821.36 5939  818 5939  C 814.64 5939  812 5936.36  812 5933  C 812 5929.64  814.64 5927  818 5927  Z " fill-rule="nonzero" fill="#ffffff" stroke="none" />
  <path d="M 818 5927.5  C 821.08 5927.5  823.5 5929.92  823.5 5933  C 823.5 5936.08  821.08 5938.5  818 5938.5  C 814.92 5938.5  812.5 5936.08  812.5 5933  C 812.5 5929.92  814.92 5927.5  818 5927.5  Z " stroke-width="1" stroke="#797979" fill="none" />
  <path d="M 818 5936  C 816.32 5936  815 5934.68  815 5933  C 815 5931.32  816.32 5930  818 5930  C 819.68 5930  821 5931.32  821 5933  C 821 5934.68  819.68 5936  818 5936  " fill-rule="nonzero" fill="#797979" stroke="none" />
</svg>