<?xml version="1.0" encoding="utf-8"?>
<svg version="1.1" xmlns:xlink="http://www.w3.org/1999/xlink" width="12px" height="12px" viewBox="766 5763  12 12" xmlns="http://www.w3.org/2000/svg">
  <path d="M 772 5763  C 775.36 5763  778 5765.64  778 5769  C 778 5772.36  775.36 5775  772 5775  C 768.64 5775  766 5772.36  766 5769  C 766 5765.64  768.64 5763  772 5763  Z " fill-rule="nonzero" fill="#ffffff" stroke="none" />
  <path d="M 772 5763.5  C 775.08 5763.5  777.5 5765.92  777.5 5769  C 777.5 5772.08  775.08 5774.5  772 5774.5  C 768.92 5774.5  766.5 5772.08  766.5 5769  C 766.5 5765.92  768.92 5763.5  772 5763.5  Z " stroke-width="1" stroke="#797979" fill="none" />
  <path d="M 772 5772  C 770.32 5772  769 5770.68  769 5769  C 769 5767.32  770.32 5766  772 5766  C 773.68 5766  775 5767.32  775 5769  C 775 5770.68  773.68 5772  772 5772  " fill-rule="nonzero" fill="#797979" stroke="none" />
</svg>