<?xml version="1.0" encoding="utf-8"?>
<svg version="1.1" xmlns:xlink="http://www.w3.org/1999/xlink" width="60px" height="60px" xmlns="http://www.w3.org/2000/svg">
  <g transform="matrix(1 0 0 1 -108 -425 )">
    <path d="M 59.96875 29.84375  L 60 30  C 59.9791666666667 31.1111111111111  56.9791666666667 32.7777777777778  51 35  L 40 36.6666666666667  L 33 40  L 31 40  L 21.84375 58.3333333333333  L 24 58.3333333333333  C 24.5416666666667 58.3333333333333  25.0104166666667 58.4114583333333  25.40625 58.5677083333333  C 25.8020833333333 58.7239583333333  26 58.9236111111111  26 59.1666666666667  C 26 59.4097222222222  25.8020833333333 59.609375  25.40625 59.765625  C 25.0104166666667 59.921875  24.5416666666667 60  24 60  L 21 60  L 16 60  L 14 60  L 14 58.3333333333333  L 16 58.3333333333333  L 16 36.6666666666667  L 11 36.6666666666667  L 5 48.3333333333333  L 2 48.3333333333333  L 1 46.6666666666667  L 1 36.6666666666667  L 2 36.6666666666667  L 2 35  L 6 35  L 6 34.5833333333333  L 0 33.3333333333333  L 0 26.6666666666667  L 6 25.4166666666667  L 6 25  L 2 25  L 2 23.3333333333333  L 1 23.3333333333333  L 1 13.3333333333333  L 2 11.6666666666667  L 5 11.6666666666667  L 11 23.3333333333333  L 16 23.3333333333333  L 16 1.66666666666667  L 14 1.66666666666667  L 14 0  L 16 0  L 21 0  L 24 0  C 24.5416666666667 0  25.0104166666667 0.0781250000000022  25.40625 0.234375  C 25.8020833333333 0.390624999999998  26 0.590277777777775  26 0.83333333333333  C 26 1.07638888888888  25.8020833333333 1.27604166666667  25.40625 1.43229166666667  C 25.0104166666667 1.58854166666667  24.5416666666667 1.66666666666667  24 1.66666666666667  L 21.84375 1.66666666666667  L 31 20  L 33 20  L 40 23.3333333333333  L 51 25  C 56.4375 27.0138888888889  59.4270833333333 28.6284722222222  59.96875 29.84375  Z " fill-rule="nonzero" fill="#3333cc" stroke="none" transform="matrix(1 0 0 1 108 425 )" />
  </g>
</svg>