<?xml version="1.0" encoding="utf-8"?>
<svg version="1.1" xmlns:xlink="http://www.w3.org/1999/xlink" width="12px" height="12px" viewBox="99 233.5  12 12" xmlns="http://www.w3.org/2000/svg">
  <path d="M 105 233.5  C 108.36 233.5  111 236.14  111 239.5  C 111 242.86  108.36 245.5  105 245.5  C 101.64 245.5  99 242.86  99 239.5  C 99 236.14  101.64 233.5  105 233.5  Z " fill-rule="nonzero" fill="#ffffff" stroke="none" />
  <path d="M 105 234  C 108.08 234  110.5 236.42  110.5 239.5  C 110.5 242.58  108.08 245  105 245  C 101.92 245  99.5 242.58  99.5 239.5  C 99.5 236.42  101.92 234  105 234  Z " stroke-width="1" stroke="#797979" fill="none" />
  <path d="M 105 242.5  C 103.32 242.5  102 241.18  102 239.5  C 102 237.82  103.32 236.5  105 236.5  C 106.68 236.5  108 237.82  108 239.5  C 108 241.18  106.68 242.5  105 242.5  " fill-rule="nonzero" fill="#797979" stroke="none" />
</svg>