<?xml version="1.0" encoding="utf-8"?>
<svg version="1.1" xmlns:xlink="http://www.w3.org/1999/xlink" width="12px" height="12px" viewBox="337 251  12 12" xmlns="http://www.w3.org/2000/svg">
  <path d="M 343 251  C 346.36 251  349 253.64  349 257  C 349 260.36  346.36 263  343 263  C 339.64 263  337 260.36  337 257  C 337 253.64  339.64 251  343 251  Z " fill-rule="nonzero" fill="#ffffff" stroke="none" />
  <path d="M 343 251.5  C 346.08 251.5  348.5 253.92  348.5 257  C 348.5 260.08  346.08 262.5  343 262.5  C 339.92 262.5  337.5 260.08  337.5 257  C 337.5 253.92  339.92 251.5  343 251.5  Z " stroke-width="1" stroke="#797979" fill="none" />
  <path d="M 343 260  C 341.32 260  340 258.68  340 257  C 340 255.32  341.32 254  343 254  C 344.68 254  346 255.32  346 257  C 346 258.68  344.68 260  343 260  " fill-rule="nonzero" fill="#797979" stroke="none" />
</svg>