<?xml version="1.0" encoding="utf-8"?>
<svg version="1.1" xmlns:xlink="http://www.w3.org/1999/xlink" width="30px" height="30px" xmlns="http://www.w3.org/2000/svg">
  <g transform="matrix(1 0 0 1 -1131 -327 )">
    <path d="M 21.38671875 3.857421875  C 19.4056919642857 2.95247395833333  17.2767857142857 2.5  15 2.5  C 12.7232142857143 2.5  10.5943080357143 2.95247395833333  8.61328125 3.857421875  C 6.63225446428571 4.76236979166667  5.05859375 5.98307291666667  3.89229910714286 7.51953125  C 2.72600446428571 9.05598958333333  2.14285714285714 10.7161458333333  2.14285714285714 12.5  C 2.14285714285714 13.9583333333333  2.54185267857143 15.3483072916667  3.33984375 16.669921875  C 4.13783482142857 17.9915364583333  5.26227678571429 19.1341145833333  6.71316964285714 20.09765625  L 8.16964285714286 21.07421875  L 7.71763392857143 22.94921875  C 7.44977678571429 24.1341145833333  7.05915178571429 25.25390625  6.54575892857143 26.30859375  C 8.2421875 25.48828125  9.77678571428572 24.375  11.1495535714286 22.96875  L 11.8694196428571 22.2265625  L 12.8236607142857 22.34375  C 13.59375 22.4479166666667  14.3191964285714 22.5  15 22.5  C 17.2767857142857 22.5  19.4056919642857 22.0475260416667  21.38671875 21.142578125  C 23.3677455357143 20.2376302083333  24.94140625 19.0169270833333  26.1077008928571 17.48046875  C 27.2739955357143 15.9440104166667  27.8571428571429 14.2838541666667  27.8571428571429 12.5  C 27.8571428571429 10.7161458333333  27.2739955357143 9.05598958333333  26.1077008928571 7.51953125  C 24.94140625 5.98307291666667  23.3677455357143 4.76236979166667  21.38671875 3.857421875  Z M 27.9910714285714 6.220703125  C 29.3303571428571 8.14127604166666  30 10.234375  30 12.5  C 30 14.765625  29.3303571428571 16.8587239583333  27.9910714285714 18.779296875  C 26.6517857142857 20.6998697916667  24.8325892857143 22.216796875  22.5334821428571 23.330078125  C 20.234375 24.443359375  17.7232142857143 25  15 25  C 14.21875 25  13.4095982142857 24.9479166666667  12.5725446428571 24.84375  C 10.3627232142857 27.1223958333333  7.79575892857143 28.6979166666667  4.87165178571429 29.5703125  C 4.32477678571429 29.7526041666667  3.68861607142857 29.8958333333333  2.96316964285714 30  L 2.87946428571429 30  C 2.71205357142857 30  2.56138392857143 29.931640625  2.42745535714286 29.794921875  C 2.29352678571429 29.658203125  2.20424107142857 29.4791666666667  2.15959821428571 29.2578125  L 2.15959821428571 29.23828125  C 2.12611607142857 29.1861979166667  2.12332589285714 29.1080729166667  2.15122767857143 29.00390625  C 2.17912946428571 28.8997395833333  2.19029017857143 28.8346354166667  2.18470982142857 28.80859375  C 2.17912946428571 28.7825520833333  2.20424107142857 28.720703125  2.26004464285714 28.623046875  L 2.36049107142857 28.447265625  C 2.36049107142857 28.447265625  2.39955357142857 28.3919270833333  2.47767857142857 28.28125  C 2.55580357142857 28.1705729166667  2.60044642857143 28.1119791666667  2.61160714285714 28.10546875  C 2.68973214285714 28.0013020833333  2.86272321428571 27.7766927083333  3.13058035714286 27.431640625  C 3.3984375 27.0865885416667  3.59095982142857 26.8391927083333  3.70814732142857 26.689453125  C 3.82533482142857 26.5397135416667  3.99832589285714 26.2825520833333  4.22712053571429 25.91796875  C 4.45591517857143 25.5533854166667  4.63727678571429 25.2213541666667  4.77120535714286 24.921875  C 4.90513392857143 24.6223958333333  5.05580357142857 24.23828125  5.22321428571429 23.76953125  C 5.390625 23.30078125  5.53571428571429 22.8059895833333  5.65848214285714 22.28515625  C 3.90625 21.1263020833333  2.52511160714286 19.6940104166667  1.51506696428571 17.98828125  C 0.505022321428571 16.2825520833333  0 14.453125  0 12.5  C 0 10.234375  0.669642857142857 8.14127604166666  2.00892857142857 6.220703125  C 3.34821428571429 4.30013020833333  5.16741071428571 2.783203125  7.46651785714286 1.669921875  C 9.765625 0.556640625  12.2767857142857 0  15 0  C 17.7232142857143 0  20.234375 0.556640625  22.5334821428571 1.669921875  C 24.8325892857143 2.783203125  26.6517857142857 4.30013020833333  27.9910714285714 6.220703125  Z " fill-rule="nonzero" fill="#ffffff" stroke="none" transform="matrix(1 0 0 1 1131 327 )" />
  </g>
</svg>