<?xml version="1.0" encoding="utf-8"?>
<svg version="1.1" xmlns:xlink="http://www.w3.org/1999/xlink" width="16px" height="30px" xmlns="http://www.w3.org/2000/svg">
  <g transform="matrix(1 0 0 1 -1138 -445 )">
    <path d="M 15.125 9.13636363636364  C 15.7083333333333 9.77272727272727  16 10.5454545454545  16 11.4545454545455  L 16 18.5454545454545  C 16 19  15.8541666666667 19.3863636363636  15.5625 19.7045454545455  C 15.2708333333333 20.0227272727273  14.9166666666667 20.1818181818182  14.5 20.1818181818182  C 14.0833333333333 20.1818181818182  13.7291666666667 20.0227272727273  13.4375 19.7045454545455  C 13.1458333333333 19.3863636363636  13 19  13 18.5454545454545  L 13 12.5454545454545  L 12 12.5454545454545  L 12 28.0909090909091  C 12 28.6136363636364  11.828125 29.0625  11.484375 29.4375  C 11.140625 29.8125  10.7291666666667 30  10.25 30  C 9.77083333333333 30  9.359375 29.8125  9.015625 29.4375  C 8.671875 29.0625  8.5 28.6136363636364  8.5 28.0909090909091  L 8.5 20.1818181818182  L 7.5 20.1818181818182  L 7.5 28.0909090909091  C 7.5 28.6136363636364  7.328125 29.0625  6.984375 29.4375  C 6.640625 29.8125  6.22916666666667 30  5.75 30  C 5.27083333333333 30  4.859375 29.8125  4.515625 29.4375  C 4.171875 29.0625  4 28.6136363636364  4 28.0909090909091  L 4 12.5454545454545  L 3 12.5454545454545  L 3 18.5454545454545  C 3 19  2.85416666666667 19.3863636363636  2.5625 19.7045454545455  C 2.27083333333333 20.0227272727273  1.91666666666667 20.1818181818182  1.5 20.1818181818182  C 1.08333333333333 20.1818181818182  0.729166666666667 20.0227272727273  0.4375 19.7045454545455  C 0.145833333333333 19.3863636363636  0 19  0 18.5454545454545  L 0 11.4545454545455  C 0 10.5454545454545  0.291666666666667 9.77272727272727  0.875 9.13636363636364  C 1.45833333333333 8.5  2.16666666666667 8.18181818181818  3 8.18181818181818  L 13 8.18181818181818  C 13.8333333333333 8.18181818181818  14.5416666666667 8.5  15.125 9.13636363636364  Z M 10.4765625 1.11647727272727  C 11.1588541666667 1.86079545454545  11.5 2.76136363636364  11.5 3.81818181818182  C 11.5 4.875  11.1588541666667 5.77556818181818  10.4765625 6.51988636363636  C 9.79427083333333 7.26420454545454  8.96875 7.63636363636364  8 7.63636363636364  C 7.03125 7.63636363636364  6.20572916666667 7.26420454545454  5.5234375 6.51988636363636  C 4.84114583333333 5.77556818181818  4.5 4.875  4.5 3.81818181818182  C 4.5 2.76136363636364  4.84114583333333 1.86079545454545  5.5234375 1.11647727272727  C 6.20572916666667 0.372159090909089  7.03125 0  8 0  C 8.96875 0  9.79427083333333 0.372159090909089  10.4765625 1.11647727272727  Z " fill-rule="nonzero" fill="#ffffff" stroke="none" transform="matrix(1 0 0 1 1138 445 )" />
  </g>
</svg>