<?xml version="1.0" encoding="utf-8"?>
<svg version="1.1" xmlns:xlink="http://www.w3.org/1999/xlink" width="350px" height="350px" xmlns="http://www.w3.org/2000/svg">
  <g transform="matrix(1 0 0 1 -665 -230 )">
    <path d="M 840 232  C 936.88 232  1013 308.12  1013 405  C 1013 501.88  936.88 578  840 578  C 743.12 578  667 501.88  667 405  C 667 308.12  743.12 232  840 232  Z " fill-rule="nonzero" fill="#ffffff" stroke="none" fill-opacity="0" />
    <path d="M 840 231.5  C 937.16 231.5  1013.5 307.84  1013.5 405  C 1013.5 502.16  937.16 578.5  840 578.5  C 742.84 578.5  666.5 502.16  666.5 405  C 666.5 307.84  742.84 231.5  840 231.5  Z " stroke-width="3" stroke="#0b365c" fill="none" />
  </g>
</svg>