<?xml version="1.0" encoding="utf-8"?>
<svg version="1.1" xmlns:xlink="http://www.w3.org/1999/xlink" width="12px" height="12px" viewBox="231 227  12 12" xmlns="http://www.w3.org/2000/svg">
  <path d="M 237 227  C 240.36 227  243 229.64  243 233  C 243 236.36  240.36 239  237 239  C 233.64 239  231 236.36  231 233  C 231 229.64  233.64 227  237 227  Z " fill-rule="nonzero" fill="#ffffff" stroke="none" />
  <path d="M 237 227.5  C 240.08 227.5  242.5 229.92  242.5 233  C 242.5 236.08  240.08 238.5  237 238.5  C 233.92 238.5  231.5 236.08  231.5 233  C 231.5 229.92  233.92 227.5  237 227.5  Z " stroke-width="1" stroke="#797979" fill="none" />
  <path d="M 237 236  C 235.32 236  234 234.68  234 233  C 234 231.32  235.32 230  237 230  C 238.68 230  240 231.32  240 233  C 240 234.68  238.68 236  237 236  " fill-rule="nonzero" fill="#797979" stroke="none" />
</svg>