<?xml version="1.0" encoding="utf-8"?>
<svg version="1.1" xmlns:xlink="http://www.w3.org/1999/xlink" width="48px" height="50px" xmlns="http://www.w3.org/2000/svg">
  <g transform="matrix(1 0 0 1 -331 -376 )">
    <path d="M 28.4223602484472 44.689378757515  C 28.7536231884058 45.0233800935204  28.9192546583851 45.4074816299265  28.9192546583851 45.8416833667335  C 28.9192546583851 46.2758851035404  28.7536231884058 46.6599866399466  28.4223602484472 46.9939879759519  L 25.9378881987578 49.498997995992  C 25.6066252587992 49.8329993319973  25.2256728778468 50  24.7950310559006 50  C 24.3643892339545 50  23.9834368530021 49.8329993319973  23.6521739130435 49.498997995992  L 0.496894409937888 26.1523046092184  C 0.165631469979296 25.8183032732131  0 25.4342017368069  0 25  C 0 24.5657982631931  0.165631469979296 24.1816967267869  0.496894409937888 23.8476953907816  L 23.6521739130435 0.501002004008017  C 23.9834368530021 0.16700066800267  24.3643892339545 0  24.7950310559006 0  C 25.2256728778468 0  25.6066252587992 0.16700066800267  25.9378881987578 0.501002004008017  L 28.4223602484472 3.00601202404809  C 28.7536231884058 3.34001336005343  28.9192546583851 3.72411489645958  28.9192546583851 4.15831663326653  C 28.9192546583851 4.59251837007348  28.7536231884058 4.97661990647962  28.4223602484472 5.31062124248497  L 8.8944099378882 25  L 28.4223602484472 44.689378757515  Z M 47.5031055900621 44.689378757515  C 47.8343685300207 45.0233800935204  48 45.4074816299265  48 45.8416833667335  C 48 46.2758851035404  47.8343685300207 46.6599866399466  47.5031055900621 46.9939879759519  L 45.0186335403727 49.498997995992  C 44.6873706004141 49.8329993319973  44.3064182194617 50  43.8757763975155 50  C 43.4451345755694 50  43.064182194617 49.8329993319973  42.7329192546584 49.498997995992  L 19.5776397515528 26.1523046092184  C 19.2463768115942 25.8183032732131  19.0807453416149 25.4342017368069  19.0807453416149 25  C 19.0807453416149 24.5657982631931  19.2463768115942 24.1816967267869  19.5776397515528 23.8476953907816  L 42.7329192546584 0.501002004008017  C 43.064182194617 0.16700066800267  43.4451345755694 0  43.8757763975155 0  C 44.3064182194617 0  44.6873706004141 0.16700066800267  45.0186335403727 0.501002004008017  L 47.5031055900621 3.00601202404809  C 47.8343685300207 3.34001336005343  48 3.72411489645958  48 4.15831663326653  C 48 4.59251837007348  47.8343685300207 4.97661990647962  47.5031055900621 5.31062124248497  L 27.9751552795031 25  L 47.5031055900621 44.689378757515  Z " fill-rule="nonzero" fill="#ffffff" stroke="none" transform="matrix(1 0 0 1 331 376 )" />
  </g>
</svg>