<?xml version="1.0" encoding="utf-8"?>
<svg version="1.1" xmlns:xlink="http://www.w3.org/1999/xlink" width="10px" height="10px" xmlns="http://www.w3.org/2000/svg">
  <g transform="matrix(1 0 0 1 -627 -339 )">
    <path d="M 7.578125 9.04296875  C 7.6542467948718 8.96050347222222  7.69230769230769 8.86284722222222  7.69230769230769 8.75  C 7.69230769230769 8.63715277777778  7.6542467948718 8.53949652777778  7.578125 8.45703125  C 7.50200320512821 8.37456597222222  7.41185897435898 8.33333333333333  7.30769230769231 8.33333333333333  C 7.20352564102564 8.33333333333333  7.11338141025641 8.37456597222222  7.03725961538462 8.45703125  C 6.96113782051282 8.53949652777778  6.92307692307692 8.63715277777778  6.92307692307692 8.75  C 6.92307692307692 8.86284722222222  6.96113782051282 8.96050347222222  7.03725961538462 9.04296875  C 7.11338141025641 9.12543402777778  7.20352564102564 9.16666666666667  7.30769230769231 9.16666666666667  C 7.41185897435898 9.16666666666667  7.50200320512821 9.12543402777778  7.578125 9.04296875  Z M 9.11658653846154 9.04296875  C 9.19270833333333 8.96050347222222  9.23076923076923 8.86284722222222  9.23076923076923 8.75  C 9.23076923076923 8.63715277777778  9.19270833333333 8.53949652777778  9.11658653846154 8.45703125  C 9.04046474358974 8.37456597222222  8.95032051282051 8.33333333333333  8.84615384615385 8.33333333333333  C 8.74198717948718 8.33333333333333  8.65184294871795 8.37456597222222  8.57572115384615 8.45703125  C 8.49959935897436 8.53949652777778  8.46153846153846 8.63715277777778  8.46153846153846 8.75  C 8.46153846153846 8.86284722222222  8.49959935897436 8.96050347222222  8.57572115384615 9.04296875  C 8.65184294871795 9.12543402777778  8.74198717948718 9.16666666666667  8.84615384615385 9.16666666666667  C 8.95032051282051 9.16666666666667  9.04046474358974 9.12543402777778  9.11658653846154 9.04296875  Z M 9.83173076923077 6.84895833333333  C 9.94391025641026 6.97048611111111  10 7.11805555555556  10 7.29166666666667  L 10 9.375  C 10 9.54861111111111  9.94391025641026 9.69618055555556  9.83173076923077 9.81770833333333  C 9.71955128205128 9.93923611111111  9.58333333333334 10  9.42307692307692 10  L 0.576923076923077 10  C 0.416666666666667 10  0.280448717948718 9.93923611111111  0.168269230769231 9.81770833333333  C 0.0560897435897436 9.69618055555556  0 9.54861111111111  0 9.375  L 0 7.29166666666667  C 0 7.11805555555556  0.0560897435897436 6.97048611111111  0.168269230769231 6.84895833333333  C 0.280448717948718 6.72743055555556  0.416666666666667 6.66666666666667  0.576923076923077 6.66666666666667  L 3.37139423076923 6.66666666666667  L 4.18269230769231 7.55208333333333  C 4.4150641025641 7.79513888888889  4.6875 7.91666666666667  5 7.91666666666667  C 5.3125 7.91666666666667  5.5849358974359 7.79513888888889  5.81730769230769 7.55208333333333  L 6.63461538461538 6.66666666666667  L 9.42307692307692 6.66666666666667  C 9.58333333333334 6.66666666666667  9.71955128205128 6.72743055555556  9.83173076923077 6.84895833333333  Z M 7.69230769230769 3.33333333333333  C 7.86057692307692 3.33333333333333  7.97876602564103 3.41796875  8.046875 3.58723958333333  C 8.11498397435898 3.76519097222222  8.0869391025641 3.91710069444444  7.96274038461538 4.04296875  L 5.27043269230769 6.95963541666667  C 5.19831730769231 7.04210069444444  5.10817307692308 7.08333333333333  5 7.08333333333333  C 4.89182692307692 7.08333333333333  4.80168269230769 7.04210069444444  4.72956730769231 6.95963541666667  L 2.03725961538462 4.04296875  C 1.9130608974359 3.91710069444444  1.88501602564103 3.76519097222222  1.953125 3.58723958333333  C 2.02123397435897 3.41796875  2.13942307692308 3.33333333333333  2.30769230769231 3.33333333333333  L 3.84615384615385 3.33333333333333  L 3.84615384615385 0.416666666666666  C 3.84615384615385 0.303819444444443  3.88421474358974 0.206163194444443  3.96033653846154 0.123697916666666  C 4.03645833333333 0.0412326388888895  4.12660256410256 0  4.23076923076923 0  L 5.76923076923077 0  C 5.87339743589744 0  5.96354166666667 0.0412326388888895  6.03966346153846 0.123697916666666  C 6.11578525641026 0.206163194444443  6.15384615384615 0.303819444444443  6.15384615384615 0.416666666666666  L 6.15384615384615 3.33333333333333  L 7.69230769230769 3.33333333333333  Z " fill-rule="nonzero" fill="#008000" stroke="none" transform="matrix(1 0 0 1 627 339 )" />
  </g>
</svg>