<?xml version="1.0" encoding="utf-8"?>
<svg version="1.1" xmlns:xlink="http://www.w3.org/1999/xlink" width="12px" height="12px" viewBox="58 760.5  12 12" xmlns="http://www.w3.org/2000/svg">
  <path d="M 64 760.5  C 67.36 760.5  70 763.14  70 766.5  C 70 769.86  67.36 772.5  64 772.5  C 60.64 772.5  58 769.86  58 766.5  C 58 763.14  60.64 760.5  64 760.5  Z " fill-rule="nonzero" fill="#ffffff" stroke="none" />
  <path d="M 64 761  C 67.08 761  69.5 763.42  69.5 766.5  C 69.5 769.58  67.08 772  64 772  C 60.92 772  58.5 769.58  58.5 766.5  C 58.5 763.42  60.92 761  64 761  Z " stroke-width="1" stroke="#797979" fill="none" />
  <path d="M 64 769.5  C 62.32 769.5  61 768.18  61 766.5  C 61 764.82  62.32 763.5  64 763.5  C 65.68 763.5  67 764.82  67 766.5  C 67 768.18  65.68 769.5  64 769.5  " fill-rule="nonzero" fill="#797979" stroke="none" />
</svg>