<?xml version="1.0" encoding="utf-8"?>
<svg version="1.1" xmlns:xlink="http://www.w3.org/1999/xlink" width="12px" height="12px" viewBox="50 159.5  12 12" xmlns="http://www.w3.org/2000/svg">
  <path d="M 56 159.5  C 59.36 159.5  62 162.14  62 165.5  C 62 168.86  59.36 171.5  56 171.5  C 52.64 171.5  50 168.86  50 165.5  C 50 162.14  52.64 159.5  56 159.5  Z " fill-rule="nonzero" fill="#ffffff" stroke="none" />
  <path d="M 56 160  C 59.08 160  61.5 162.42  61.5 165.5  C 61.5 168.58  59.08 171  56 171  C 52.92 171  50.5 168.58  50.5 165.5  C 50.5 162.42  52.92 160  56 160  Z " stroke-width="1" stroke="#797979" fill="none" />
  <path d="M 56 168.5  C 54.32 168.5  53 167.18  53 165.5  C 53 163.82  54.32 162.5  56 162.5  C 57.68 162.5  59 163.82  59 165.5  C 59 167.18  57.68 168.5  56 168.5  " fill-rule="nonzero" fill="#797979" stroke="none" />
</svg>