<?xml version="1.0" encoding="utf-8"?>
<svg version="1.1" xmlns:xlink="http://www.w3.org/1999/xlink" width="12px" height="12px" viewBox="215 1423.5  12 12" xmlns="http://www.w3.org/2000/svg">
  <path d="M 221 1423.5  C 224.36 1423.5  227 1426.14  227 1429.5  C 227 1432.86  224.36 1435.5  221 1435.5  C 217.64 1435.5  215 1432.86  215 1429.5  C 215 1426.14  217.64 1423.5  221 1423.5  Z " fill-rule="nonzero" fill="#ffffff" stroke="none" />
  <path d="M 221 1424  C 224.08 1424  226.5 1426.42  226.5 1429.5  C 226.5 1432.58  224.08 1435  221 1435  C 217.92 1435  215.5 1432.58  215.5 1429.5  C 215.5 1426.42  217.92 1424  221 1424  Z " stroke-width="1" stroke="#797979" fill="none" />
  <path d="M 221 1432.5  C 219.32 1432.5  218 1431.18  218 1429.5  C 218 1427.82  219.32 1426.5  221 1426.5  C 222.68 1426.5  224 1427.82  224 1429.5  C 224 1431.18  222.68 1432.5  221 1432.5  " fill-rule="nonzero" fill="#797979" stroke="none" />
</svg>