<?xml version="1.0" encoding="utf-8"?>
<svg version="1.1" xmlns:xlink="http://www.w3.org/1999/xlink" width="12px" height="12px" viewBox="58 1423.5  12 12" xmlns="http://www.w3.org/2000/svg">
  <path d="M 64 1423.5  C 67.36 1423.5  70 1426.14  70 1429.5  C 70 1432.86  67.36 1435.5  64 1435.5  C 60.64 1435.5  58 1432.86  58 1429.5  C 58 1426.14  60.64 1423.5  64 1423.5  Z " fill-rule="nonzero" fill="#ffffff" stroke="none" />
  <path d="M 64 1424  C 67.08 1424  69.5 1426.42  69.5 1429.5  C 69.5 1432.58  67.08 1435  64 1435  C 60.92 1435  58.5 1432.58  58.5 1429.5  C 58.5 1426.42  60.92 1424  64 1424  Z " stroke-width="1" stroke="#797979" fill="none" />
  <path d="M 64 1432.5  C 62.32 1432.5  61 1431.18  61 1429.5  C 61 1427.82  62.32 1426.5  64 1426.5  C 65.68 1426.5  67 1427.82  67 1429.5  C 67 1431.18  65.68 1432.5  64 1432.5  " fill-rule="nonzero" fill="#797979" stroke="none" />
</svg>