<?xml version="1.0" encoding="utf-8"?>
<svg version="1.1" xmlns:xlink="http://www.w3.org/1999/xlink" width="12px" height="12px" viewBox="50 854.5  12 12" xmlns="http://www.w3.org/2000/svg">
  <path d="M 56 854.5  C 59.36 854.5  62 857.14  62 860.5  C 62 863.86  59.36 866.5  56 866.5  C 52.64 866.5  50 863.86  50 860.5  C 50 857.14  52.64 854.5  56 854.5  Z " fill-rule="nonzero" fill="#ffffff" stroke="none" />
  <path d="M 56 855  C 59.08 855  61.5 857.42  61.5 860.5  C 61.5 863.58  59.08 866  56 866  C 52.92 866  50.5 863.58  50.5 860.5  C 50.5 857.42  52.92 855  56 855  Z " stroke-width="1" stroke="#797979" fill="none" />
  <path d="M 56 863.5  C 54.32 863.5  53 862.18  53 860.5  C 53 858.82  54.32 857.5  56 857.5  C 57.68 857.5  59 858.82  59 860.5  C 59 862.18  57.68 863.5  56 863.5  " fill-rule="nonzero" fill="#797979" stroke="none" />
</svg>