<?xml version="1.0" encoding="utf-8"?>
<svg version="1.1" xmlns:xlink="http://www.w3.org/1999/xlink" width="12px" height="12px" viewBox="207 854.5  12 12" xmlns="http://www.w3.org/2000/svg">
  <path d="M 213 854.5  C 216.36 854.5  219 857.14  219 860.5  C 219 863.86  216.36 866.5  213 866.5  C 209.64 866.5  207 863.86  207 860.5  C 207 857.14  209.64 854.5  213 854.5  Z " fill-rule="nonzero" fill="#ffffff" stroke="none" />
  <path d="M 213 855  C 216.08 855  218.5 857.42  218.5 860.5  C 218.5 863.58  216.08 866  213 866  C 209.92 866  207.5 863.58  207.5 860.5  C 207.5 857.42  209.92 855  213 855  Z " stroke-width="1" stroke="#797979" fill="none" />
  <path d="M 213 863.5  C 211.32 863.5  210 862.18  210 860.5  C 210 858.82  211.32 857.5  213 857.5  C 214.68 857.5  216 858.82  216 860.5  C 216 862.18  214.68 863.5  213 863.5  " fill-rule="nonzero" fill="#797979" stroke="none" />
</svg>