<?xml version="1.0" encoding="utf-8"?>
<svg version="1.1" xmlns:xlink="http://www.w3.org/1999/xlink" width="30px" height="30px" xmlns="http://www.w3.org/2000/svg">
  <g transform="matrix(1 0 0 1 -331 -684 )">
    <path d="M 9.55915178571435 10.6808035714285  C 9.67075892857145 10.4129464285713  9.6707589285714 10.1395089285713  9.55915178571436 9.86049107142849  C 9.44754464285731 9.58147321428573  9.25781249999999 9.38616071428581  8.98995535714285 9.27455357142852  C 8.72209821428573 9.16294642857153  8.44866071428563 9.16294642857155  8.16964285714285 9.27455357142854  C 6.96428571428567 9.76562500000003  5.89843749999998 10.4743303571428  4.97209821428578 11.400669642857  C 4.04575892857148 12.3270089285716  3.3370535714285 13.3928571428572  2.8459821428569 14.5982142857143  C 2.73437500000019 14.877232142857  2.73437500000007 15.1506696428569  2.84598214285702 15.4185267857142  C 2.95758928571429 15.6863839285714  3.15290178571425 15.8761160714287  3.43191964285701 15.9877232142857  C 3.57700892857162 16.0435267857143  3.71093750000015 16.0714285714286  3.83370535714289 16.0714285714285  C 4.30245535714279 16.0714285714286  4.63727678571425 15.8482142857143  4.83816964285713 15.4017857142857  C 5.21763392857145 14.4642857142856  5.76729910714276 13.6356026785714  6.48716517857139 12.915736607143  C 7.20703124999997 12.1958705357143  8.03571428571417 11.646205357143  8.97321428571439 11.2667410714286  C 9.25223214285719 11.1439732142856  9.44754464285724 10.9486607142857  9.55915178571435 10.6808035714285  Z M 21.2611607142857 7.9854910714286  L 25.3292410714288 3.90066964285715  L 26.0993303571429 4.67075892857153  L 22.0145089285715 8.73883928571412  L 23.1529017857143 9.87723214285703  C 23.364955357143 10.0892857142858  23.4709821428572 10.3431919642855  23.4709821428571 10.6389508928569  C 23.4709821428572 10.9347098214285  23.3649553571429 11.1886160714286  23.1529017857144 11.400669642857  L 22.0814732142857 12.4720982142857  C 23.0747767857142 14.2689732142857  23.5714285714284 16.1830357142858  23.5714285714284 18.2142857142857  C 23.5714285714284 19.8102678571429  23.26171875 21.3364955357143  22.642299107143 22.7929687500001  C 22.0228794642858 24.2494419642858  21.1858258928572 25.5050223214287  20.1311383928572 26.5597098214287  C 19.0764508928569 27.6143973214285  17.8208705357142 28.4514508928571  16.3643973214287 29.0708705357142  C 14.9079241071428 29.6902901785714  13.3816964285714 30  11.7857142857143 29.9999999999999  C 10.1897321428571 30  8.66350446428558 29.6902901785714  7.20703125 29.0708705357143  C 5.75055803571413 28.4514508928572  4.49497767857134 27.6143973214286  3.44029017857137 26.5597098214287  C 2.38560267857154 25.5050223214286  1.54854910714299 24.2494419642857  0.929129464285901 22.79296875  C 0.309709821428633 21.3364955357143  0 19.8102678571428  0 18.2142857142857  C 0 16.6183035714286  0.309709821428612 15.0920758928573  0.929129464285778 13.6356026785713  C 1.54854910714285 12.1791294642858  2.38560267857152 10.9235491071427  3.44029017857144 9.86886160714291  C 4.49497767857149 8.81417410714291  5.75055803571428 7.97712053571435  7.20703124999979 7.35770089285723  C 8.66350446428561 6.73828125000007  10.1897321428571 6.4285714285714  11.7857142857143 6.42857142857135  C 13.8169642857143 6.42857142857136  15.7310267857143 6.92522321428577  17.5279017857143 7.91852678571428  L 18.599330357143 6.84709821428563  C 18.8113839285713 6.63504464285713  19.0652901785713 6.52901785714291  19.3610491071427 6.52901785714283  C 19.6568080357142 6.52901785714288  19.9107142857144 6.63504464285706  20.1227678571429 6.84709821428569  L 21.2611607142857 7.9854910714286  Z M 25.6305803571429 2.58649553571429  C 25.6305803571429 2.73716517857154  25.5747767857144 2.86272321428561  25.4631696428572 2.96316964285713  C 25.3515624999999 3.07477678571434  25.2287946428572 3.13058035714284  25.0948660714287 3.13058035714283  C 24.9497767857143 3.13058035714273  24.8214285714285 3.07477678571445  24.7098214285712 2.96316964285711  L 23.1863839285713 1.45647321428568  C 23.0859375 1.34486607142857  23.0357142857142 1.21651785714272  23.0357142857142 1.07142857142854  C 23.0357142857142 0.926339285714372  23.0859375 0.79799107142861  23.1863839285714 0.686383928571297  C 23.2979910714287 0.585937500000075  23.4263392857142 0.53571428571432  23.5714285714284 0.535714285714299  C 23.716517857143 0.535714285714241  23.8448660714286 0.585937500000073  23.9564732142857 0.686383928571297  L 25.4631696428572 2.20982142857152  C 25.5747767857144 2.31026785714274  25.6305803571429 2.43582589285721  25.6305803571429 2.58649553571429  Z M 29.4642857142857 6.42857142857139  C 29.4642857142858 6.57366071428556  29.4140625000001 6.70200892857146  29.3136160714285 6.81361607142864  C 29.1908482142858 6.91406250000002  29.0625 6.96428571428564  28.9285714285715 6.96428571428564  C 28.7946428571429 6.96428571428563  28.6662946428573 6.9140625000001  28.5435267857142 6.81361607142864  L 27.0368303571429 5.29017857142855  C 26.9252232142855 5.1897321428572  26.8694196428572 5.06417410714286  26.8694196428571 4.91350446428577  C 26.8694196428572 4.76283482142852  26.9252232142855 4.63727678571432  27.0368303571429 4.53683035714293  C 27.1372767857143 4.42522321428562  27.2628348214284 4.36941964285719  27.4135044642856 4.36941964285713  C 27.5641741071428 4.36941964285708  27.6897321428572 4.42522321428559  27.7901785714287 4.53683035714283  L 29.3136160714287 6.04352678571426  C 29.4140625 6.15513392857136  29.4642857142857 6.28348214285722  29.4642857142857 6.42857142857139  Z M 29.8493303571428 3.36495535714278  C 29.9497767857143 3.46540178571433  29.9999999999999 3.59375000000006  30.0000000000001 3.75000000000005  C 30 3.90624999999991  29.9497767857143 4.0345982142858  29.8493303571428 4.1350446428573  C 29.7488839285715 4.23549107142845  29.6205357142858 4.28571428571437  29.4642857142858 4.2857142857143  L 27.8571428571429 4.28571428571438  C 27.7008928571429 4.28571428571429  27.5725446428571 4.23549107142863  27.4720982142858 4.13504464285721  C 27.3716517857144 4.03459821428579  27.3214285714287 3.90624999999993  27.3214285714287 3.75000000000007  C 27.3214285714286 3.59375000000008  27.3716517857144 3.46540178571432  27.4720982142858 3.3649553571427  C 27.5725446428571 3.26450892857154  27.7008928571429 3.21428571428575  27.857142857143 3.21428571428583  L 29.4642857142858 3.21428571428575  C 29.6205357142859 3.21428571428582  29.7488839285714 3.26450892857136  29.8493303571428 3.36495535714278  Z M 26.6350446428573 0.150669642857132  C 26.7354910714286 0.251116071428553  26.7857142857144 0.379464285714408  26.7857142857144 0.535714285714269  L 26.7857142857143 2.14285714285709  C 26.7857142857145 2.29910714285708  26.7354910714286 2.42745535714284  26.6350446428572 2.52790178571447  C 26.5345982142858 2.62834821428579  26.4062499999999 2.67857142857128  26.2499999999999 2.6785714285715  C 26.0937499999999 2.67857142857142  25.9654017857144 2.62834821428572  25.864955357143 2.52790178571447  C 25.7645089285714 2.42745535714292  25.7142857142858 2.29910714285719  25.7142857142857 2.1428571428572  L 25.7142857142857 0.535714285714379  C 25.7142857142858 0.379464285714516  25.7645089285715 0.251116071428624  25.864955357143 0.150669642857132  C 25.9654017857144 0.0502232142858061  26.09375 0  26.25 0  C 26.40625 0  26.5345982142858 0.0502232142858794  26.6350446428573 0.150669642857132  Z M 29.4642857142857 1.07142857142852  C 29.4642857142857 1.21651785714269  29.4140625000001 1.34486607142858  29.3136160714284 1.45647321428576  L 27.7901785714286 2.96316964285707  C 27.6785714285713 3.07477678571428  27.5558035714287 3.13058035714278  27.4218750000001 3.13058035714277  C 27.2767857142857 3.13058035714266  27.1484374999999 3.07477678571439  27.0368303571428 2.96316964285718  C 26.9252232142856 2.86272321428565  26.8694196428572 2.73716517857148  26.8694196428572 2.58649553571423  C 26.8694196428572 2.43582589285715  26.9252232142856 2.31026785714278  27.0368303571429 2.20982142857156  L 28.5435267857144 0.686383928571382  C 28.6551339285714 0.585937500000028  28.7834821428571 0.535714285714407  28.9285714285715 0.535714285714217  C 29.0736607142857 0.535714285714194  29.2020089285715 0.58593750000016  29.3136160714286 0.686383928571382  C 29.4140625000001 0.797991071428621  29.4642857142857 0.926339285714345  29.4642857142857 1.07142857142852  Z " fill-rule="nonzero" fill="#ff0000" stroke="none" transform="matrix(1 0 0 1 331 684 )" />
  </g>
</svg>