<?xml version="1.0" encoding="utf-8"?>
<svg version="1.1" xmlns:xlink="http://www.w3.org/1999/xlink" width="30px" height="30px" xmlns="http://www.w3.org/2000/svg">
  <g transform="matrix(1 0 0 1 -561 -633 )">
    <path d="M 25.3704837721984 7.13235294117656  C 25.7134109001837 6.78921568627452  25.8848744641763 6.37254901960776  25.8848744641763 5.88235294117644  C 25.8848744641763 5.39215686274513  25.7134109001837 4.97549019607837  25.3704837721984 4.6323529411765  C 25.0275566442131 4.28921568627446  24.6111451316596 4.11764705882344  24.1212492345377 4.11764705882344  C 23.6313533374158 4.11764705882344  23.2149418248622 4.28921568627446  22.8720146968769 4.6323529411765  C 22.5290875688916 4.97549019607837  22.357624004899 5.39215686274513  22.357624004899 5.88235294117644  C 22.357624004899 6.37254901960776  22.5290875688916 6.78921568627452  22.8720146968769 7.13235294117656  C 23.2149418248622 7.47549019607843  23.6313533374158 7.64705882352945  24.1212492345377 7.64705882352945  C 24.6111451316596 7.64705882352945  25.0275566442131 7.47549019607843  25.3704837721984 7.13235294117656  Z M 29.8162890385793 0.174632352941111  C 29.9387630128598 0.29105392156863  30 0.428921568627463  30 0.588235294117611  C 30 3.639705882353  29.5376607470913 6.27757352941172  28.6129822412738 8.50183823529411  C 27.6883037354562 10.7261029411765  26.1359461114513 12.9350490196079  23.955909369259 15.1286764705882  C 22.9638701775873 16.109068627451  21.7697489283528 17.1874999999999  20.3735456215554 18.3639705882353  L 20.006123698714 25.3308823529412  C 19.9816289038579 25.5269607843136  19.8836497244336 25.686274509804  19.7121861604409 25.8088235294118  L 12.6576852418861 29.9264705882353  C 12.5719534598898 29.9754901960784  12.4739742804654 30  12.363747703613 30  C 12.2167789344764 30  12.0759338640539 29.9448529411765  11.9412124923454 29.8345588235293  L 10.7654623392529 28.6580882352941  C 10.6062461726883 28.4865196078431  10.5572565829762 28.2904411764707  10.6184935701164 28.0698529411765  L 12.1800367421923 22.9963235294118  L 7.01775872627067 17.8308823529412  L 1.94733619105938 19.3933823529411  C 1.91059399877525 19.405637254902  1.85548071034907 19.4117647058823  1.78199632578074 19.4117647058823  C 1.61053276178808 19.4117647058823  1.46968769136561 19.3566176470588  1.35946111451315 19.2463235294118  L 0.183710961420701 18.0698529411764  C -0.0244947948560821 17.8370098039216  -0.0551132884261847 17.5980392156864  0.0918554807103078 17.3529411764706  L 4.20698101653397 10.2941176470588  C 4.32945499081447 10.1225490196078  4.48867115737909 10.0245098039216  4.68462951622783 10.0000000000001  L 11.6472749540722 9.63235294117644  C 12.8230251071648 8.23529411764706  13.9007960808328 7.04044117647061  14.8805878750765 6.04779411764711  C 17.1830985915493 3.75612745098035  19.3753827311696 2.17524509803924  21.4574402939375 1.30514705882361  C 23.5394978567055 0.435049019607815  26.1788120024495 0  29.3753827311697 0  C 29.5468462951623 0  29.6938150642988 0.0582107843137592  29.8162890385793 0.174632352941111  Z " fill-rule="nonzero" fill="#ff0000" stroke="none" transform="matrix(1 0 0 1 561 633 )" />
  </g>
</svg>