<?xml version="1.0" encoding="utf-8"?>
<svg version="1.1" xmlns:xlink="http://www.w3.org/1999/xlink" width="15px" height="15px" xmlns="http://www.w3.org/2000/svg">
  <g transform="matrix(1 0 0 1 -237 -66 )">
    <path d="M 11.3671875 13.564453125  C 11.4813701923077 13.4407552083333  11.5384615384615 13.2942708333333  11.5384615384615 13.125  C 11.5384615384615 12.9557291666667  11.4813701923077 12.8092447916667  11.3671875 12.685546875  C 11.2530048076923 12.5618489583333  11.1177884615385 12.5  10.9615384615385 12.5  C 10.8052884615385 12.5  10.6700721153846 12.5618489583333  10.5558894230769 12.685546875  C 10.4417067307692 12.8092447916667  10.3846153846154 12.9557291666667  10.3846153846154 13.125  C 10.3846153846154 13.2942708333333  10.4417067307692 13.4407552083333  10.5558894230769 13.564453125  C 10.6700721153846 13.6881510416667  10.8052884615385 13.75  10.9615384615385 13.75  C 11.1177884615385 13.75  11.2530048076923 13.6881510416667  11.3671875 13.564453125  Z M 13.6748798076923 13.564453125  C 13.7890625 13.4407552083333  13.8461538461538 13.2942708333333  13.8461538461538 13.125  C 13.8461538461538 12.9557291666667  13.7890625 12.8092447916667  13.6748798076923 12.685546875  C 13.5606971153846 12.5618489583333  13.4254807692308 12.5  13.2692307692308 12.5  C 13.1129807692308 12.5  12.9777644230769 12.5618489583333  12.8635817307692 12.685546875  C 12.7493990384615 12.8092447916667  12.6923076923077 12.9557291666667  12.6923076923077 13.125  C 12.6923076923077 13.2942708333333  12.7493990384615 13.4407552083333  12.8635817307692 13.564453125  C 12.9777644230769 13.6881510416667  13.1129807692308 13.75  13.2692307692308 13.75  C 13.4254807692308 13.75  13.5606971153846 13.6881510416667  13.6748798076923 13.564453125  Z M 14.7475961538462 10.2734375  C 14.9158653846154 10.4557291666667  15 10.6770833333333  15 10.9375  L 15 14.0625  C 15 14.3229166666667  14.9158653846154 14.5442708333333  14.7475961538462 14.7265625  C 14.5793269230769 14.9088541666667  14.375 15  14.1346153846154 15  L 0.865384615384615 15  C 0.625 15  0.420673076923077 14.9088541666667  0.252403846153846 14.7265625  C 0.0841346153846154 14.5442708333333  0 14.3229166666667  0 14.0625  L 0 10.9375  C 0 10.6770833333333  0.0841346153846154 10.4557291666667  0.252403846153846 10.2734375  C 0.420673076923077 10.0911458333333  0.625 10  0.865384615384615 10  L 5.05709134615385 10  L 6.27403846153846 11.328125  C 6.62259615384615 11.6927083333333  7.03125 11.875  7.5 11.875  C 7.96875 11.875  8.37740384615385 11.6927083333333  8.72596153846154 11.328125  L 9.95192307692308 10  L 14.1346153846154 10  C 14.375 10  14.5793269230769 10.0911458333333  14.7475961538462 10.2734375  Z M 11.5384615384615 5  C 11.7908653846154 5  11.9681490384615 5.126953125  12.0703125 5.380859375  C 12.1724759615385 5.64778645833333  12.1304086538462 5.87565104166667  11.9441105769231 6.064453125  L 7.90564903846154 10.439453125  C 7.79747596153846 10.5631510416667  7.66225961538462 10.625  7.5 10.625  C 7.33774038461538 10.625  7.20252403846154 10.5631510416667  7.09435096153846 10.439453125  L 3.05588942307692 6.064453125  C 2.86959134615385 5.87565104166667  2.82752403846154 5.64778645833333  2.9296875 5.380859375  C 3.03185096153846 5.126953125  3.20913461538462 5  3.46153846153846 5  L 5.76923076923077 5  L 5.76923076923077 0.624999999999999  C 5.76923076923077 0.455729166666665  5.82632211538462 0.309244791666665  5.94050480769231 0.185546874999999  C 6.0546875 0.0618489583333343  6.18990384615385 0  6.34615384615385 0  L 8.65384615384615 0  C 8.81009615384615 0  8.9453125 0.0618489583333343  9.05949519230769 0.185546874999999  C 9.17367788461539 0.309244791666665  9.23076923076923 0.455729166666665  9.23076923076923 0.624999999999999  L 9.23076923076923 5  L 11.5384615384615 5  Z " fill-rule="nonzero" fill="#ffffff" stroke="none" transform="matrix(1 0 0 1 237 66 )" />
  </g>
</svg>