<?xml version="1.0" encoding="utf-8"?>
<svg version="1.1" xmlns:xlink="http://www.w3.org/1999/xlink" width="28px" height="30px" xmlns="http://www.w3.org/2000/svg">
  <g transform="matrix(1 0 0 1 -453 -687 )">
    <path d="M 7.44744318181826 21.587611607143  C 7.57339015151507 21.6936383928571  7.6363636363637 21.8191964285714  7.6363636363637 21.9642857142857  L 7.6363636363637 23.0357142857143  C 7.6363636363637 23.1808035714286  7.57339015151507 23.3063616071429  7.44744318181826 23.412388392857  C 7.32149621212123 23.5184151785714  7.17234848484841 23.5714285714287  7 23.5714285714287  L 5.72727272727282 23.5714285714287  C 5.5549242424242 23.5714285714287  5.40577651515159 23.5184151785714  5.27982954545456 23.412388392857  C 5.15388257575754 23.3063616071429  5.09090909090913 23.1808035714286  5.09090909090913 23.0357142857143  L 5.09090909090913 21.9642857142857  C 5.09090909090913 21.8191964285714  5.15388257575754 21.6936383928571  5.27982954545456 21.587611607143  C 5.40577651515159 21.4815848214286  5.5549242424242 21.4285714285713  5.72727272727282 21.4285714285713  L 7 21.4285714285713  C 7.17234848484841 21.4285714285713  7.32149621212123 21.4815848214286  7.44744318181826 21.587611607143  Z M 7.44744318181826 17.3018973214287  C 7.57339015151507 17.4079241071428  7.6363636363637 17.5334821428571  7.6363636363637 17.6785714285713  L 7.6363636363637 18.75  C 7.6363636363637 18.8950892857142  7.57339015151507 19.0206473214286  7.44744318181826 19.126674107143  C 7.32149621212123 19.2327008928571  7.17234848484841 19.2857142857143  7 19.2857142857143  L 5.72727272727282 19.2857142857143  C 5.5549242424242 19.2857142857143  5.40577651515159 19.2327008928571  5.27982954545456 19.126674107143  C 5.15388257575754 19.0206473214286  5.09090909090913 18.8950892857142  5.09090909090913 18.75  L 5.09090909090913 17.6785714285713  C 5.09090909090913 17.5334821428571  5.15388257575754 17.4079241071428  5.27982954545456 17.3018973214287  C 5.40577651515159 17.1958705357142  5.5549242424242 17.142857142857  5.72727272727282 17.142857142857  L 7 17.142857142857  C 7.17234848484841 17.142857142857  7.32149621212123 17.1958705357142  7.44744318181826 17.3018973214287  Z M 12.5383522727272 17.3018973214287  C 12.6642992424242 17.4079241071428  12.7272727272728 17.5334821428571  12.7272727272728 17.6785714285713  L 12.7272727272728 18.75  C 12.7272727272728 18.8950892857142  12.6642992424242 19.0206473214286  12.5383522727272 19.126674107143  C 12.4124053030304 19.2327008928571  12.2632575757575 19.2857142857143  12.0909090909091 19.2857142857143  L 10.8181818181817 19.2857142857143  C 10.6458333333333 19.2857142857143  10.4966856060605 19.2327008928571  10.3707386363637 19.126674107143  C 10.2447916666667 19.0206473214286  10.1818181818183 18.8950892857142  10.1818181818183 18.75  L 10.1818181818183 17.6785714285713  C 10.1818181818183 17.5334821428571  10.2447916666667 17.4079241071428  10.3707386363637 17.3018973214287  C 10.4966856060605 17.1958705357142  10.6458333333333 17.142857142857  10.8181818181817 17.142857142857  L 12.0909090909091 17.142857142857  C 12.2632575757575 17.142857142857  12.4124053030304 17.1958705357142  12.5383522727272 17.3018973214287  Z M 7.44744318181826 13.0161830357143  C 7.57339015151507 13.1222098214286  7.6363636363637 13.2477678571428  7.6363636363637 13.3928571428572  L 7.6363636363637 14.4642857142857  C 7.6363636363637 14.6093750000001  7.57339015151507 14.7349330357142  7.44744318181826 14.8409598214285  C 7.32149621212123 14.9469866071428  7.17234848484841 15  7 15  L 5.72727272727282 15  C 5.5549242424242 15  5.40577651515159 14.9469866071428  5.27982954545456 14.8409598214285  C 5.15388257575754 14.7349330357142  5.09090909090913 14.6093750000001  5.09090909090913 14.4642857142857  L 5.09090909090913 13.3928571428572  C 5.09090909090913 13.2477678571428  5.15388257575754 13.1222098214286  5.27982954545456 13.0161830357143  C 5.40577651515159 12.9101562500001  5.5549242424242 12.8571428571428  5.72727272727282 12.8571428571428  L 7 12.8571428571428  C 7.17234848484841 12.8571428571428  7.32149621212123 12.9101562500001  7.44744318181826 13.0161830357143  Z M 22.7201704545454 21.587611607143  C 22.8461174242425 21.6936383928571  22.9090909090909 21.8191964285714  22.9090909090909 21.9642857142857  L 22.9090909090909 23.0357142857143  C 22.9090909090909 23.1808035714286  22.8461174242425 23.3063616071429  22.7201704545454 23.412388392857  C 22.5942234848484 23.5184151785714  22.4450757575758 23.5714285714287  22.2727272727272 23.5714285714287  L 21 23.5714285714287  C 20.8276515151516 23.5714285714287  20.6785037878788 23.5184151785714  20.5525568181817 23.412388392857  C 20.4266098484849 23.3063616071429  20.3636363636363 23.1808035714286  20.3636363636363 23.0357142857143  L 20.3636363636363 21.9642857142857  C 20.3636363636363 21.8191964285714  20.4266098484849 21.6936383928571  20.5525568181817 21.587611607143  C 20.6785037878788 21.4815848214286  20.8276515151516 21.4285714285713  21 21.4285714285713  L 22.2727272727272 21.4285714285713  C 22.4450757575758 21.4285714285713  22.5942234848484 21.4815848214286  22.7201704545454 21.587611607143  Z M 17.6292613636363 17.3018973214287  C 17.7552083333333 17.4079241071428  17.8181818181817 17.5334821428571  17.8181818181817 17.6785714285713  L 17.8181818181817 18.75  C 17.8181818181817 18.8950892857142  17.7552083333333 19.0206473214286  17.6292613636363 19.126674107143  C 17.5033143939395 19.2327008928571  17.3541666666667 19.2857142857143  17.1818181818183 19.2857142857143  L 15.9090909090909 19.2857142857143  C 15.7367424242425 19.2857142857143  15.5875946969696 19.2327008928571  15.4616477272728 19.126674107143  C 15.3357007575758 19.0206473214286  15.2727272727272 18.8950892857142  15.2727272727272 18.75  L 15.2727272727272 17.6785714285713  C 15.2727272727272 17.5334821428571  15.3357007575758 17.4079241071428  15.4616477272728 17.3018973214287  C 15.5875946969696 17.1958705357142  15.7367424242425 17.142857142857  15.9090909090909 17.142857142857  L 17.1818181818183 17.142857142857  C 17.3541666666667 17.142857142857  17.5033143939395 17.1958705357142  17.6292613636363 17.3018973214287  Z M 12.5383522727272 13.0161830357143  C 12.6642992424242 13.1222098214286  12.7272727272728 13.2477678571428  12.7272727272728 13.3928571428572  L 12.7272727272728 14.4642857142857  C 12.7272727272728 14.6093750000001  12.6642992424242 14.7349330357142  12.5383522727272 14.8409598214285  C 12.4124053030304 14.9469866071428  12.2632575757575 15  12.0909090909091 15  L 10.8181818181817 15  C 10.6458333333333 15  10.4966856060605 14.9469866071428  10.3707386363637 14.8409598214285  C 10.2447916666667 14.7349330357142  10.1818181818183 14.6093750000001  10.1818181818183 14.4642857142857  L 10.1818181818183 13.3928571428572  C 10.1818181818183 13.2477678571428  10.2447916666667 13.1222098214286  10.3707386363637 13.0161830357143  C 10.4966856060605 12.9101562500001  10.6458333333333 12.8571428571428  10.8181818181817 12.8571428571428  L 12.0909090909091 12.8571428571428  C 12.2632575757575 12.8571428571428  12.4124053030304 12.9101562500001  12.5383522727272 13.0161830357143  Z M 7.44744318181826 8.73046875  C 7.57339015151507 8.83649553571428  7.6363636363637 8.96205357142861  7.6363636363637 9.10714285714283  L 7.6363636363637 10.1785714285715  C 7.6363636363637 10.3236607142857  7.57339015151507 10.4492187500001  7.44744318181826 10.5552455357143  C 7.32149621212123 10.6612723214286  7.17234848484841 10.7142857142857  7 10.7142857142857  L 5.72727272727282 10.7142857142857  C 5.5549242424242 10.7142857142857  5.40577651515159 10.6612723214286  5.27982954545456 10.5552455357143  C 5.15388257575754 10.4492187500001  5.09090909090913 10.3236607142857  5.09090909090913 10.1785714285715  L 5.09090909090913 9.10714285714283  C 5.09090909090913 8.96205357142861  5.15388257575754 8.83649553571428  5.27982954545456 8.73046875  C 5.40577651515159 8.62444196428572  5.5549242424242 8.5714285714285  5.72727272727282 8.5714285714285  L 7 8.5714285714285  C 7.17234848484841 8.5714285714285  7.32149621212123 8.62444196428572  7.44744318181826 8.73046875  Z M 22.7201704545454 17.3018973214287  C 22.8461174242425 17.4079241071428  22.9090909090909 17.5334821428571  22.9090909090909 17.6785714285713  L 22.9090909090909 18.75  C 22.9090909090909 18.8950892857142  22.8461174242425 19.0206473214286  22.7201704545454 19.126674107143  C 22.5942234848484 19.2327008928571  22.4450757575758 19.2857142857143  22.2727272727272 19.2857142857143  L 21 19.2857142857143  C 20.8276515151516 19.2857142857143  20.6785037878788 19.2327008928571  20.5525568181817 19.126674107143  C 20.4266098484849 19.0206473214286  20.3636363636363 18.8950892857142  20.3636363636363 18.75  L 20.3636363636363 17.6785714285713  C 20.3636363636363 17.5334821428571  20.4266098484849 17.4079241071428  20.5525568181817 17.3018973214287  C 20.6785037878788 17.1958705357142  20.8276515151516 17.142857142857  21 17.142857142857  L 22.2727272727272 17.142857142857  C 22.4450757575758 17.142857142857  22.5942234848484 17.1958705357142  22.7201704545454 17.3018973214287  Z M 17.6292613636363 13.0161830357143  C 17.7552083333333 13.1222098214286  17.8181818181817 13.2477678571428  17.8181818181817 13.3928571428572  L 17.8181818181817 14.4642857142857  C 17.8181818181817 14.6093750000001  17.7552083333333 14.7349330357142  17.6292613636363 14.8409598214285  C 17.5033143939395 14.9469866071428  17.3541666666667 15  17.1818181818183 15  L 15.9090909090909 15  C 15.7367424242425 15  15.5875946969696 14.9469866071428  15.4616477272728 14.8409598214285  C 15.3357007575758 14.7349330357142  15.2727272727272 14.6093750000001  15.2727272727272 14.4642857142857  L 15.2727272727272 13.3928571428572  C 15.2727272727272 13.2477678571428  15.3357007575758 13.1222098214286  15.4616477272728 13.0161830357143  C 15.5875946969696 12.9101562500001  15.7367424242425 12.8571428571428  15.9090909090909 12.8571428571428  L 17.1818181818183 12.8571428571428  C 17.3541666666667 12.8571428571428  17.5033143939395 12.9101562500001  17.6292613636363 13.0161830357143  Z M 12.5383522727272 8.73046875  C 12.6642992424242 8.83649553571428  12.7272727272728 8.96205357142861  12.7272727272728 9.10714285714283  L 12.7272727272728 10.1785714285715  C 12.7272727272728 10.3236607142857  12.6642992424242 10.4492187500001  12.5383522727272 10.5552455357143  C 12.4124053030304 10.6612723214286  12.2632575757575 10.7142857142857  12.0909090909091 10.7142857142857  L 10.8181818181817 10.7142857142857  C 10.6458333333333 10.7142857142857  10.4966856060605 10.6612723214286  10.3707386363637 10.5552455357143  C 10.2447916666667 10.4492187500001  10.1818181818183 10.3236607142857  10.1818181818183 10.1785714285715  L 10.1818181818183 9.10714285714283  C 10.1818181818183 8.96205357142861  10.2447916666667 8.83649553571428  10.3707386363637 8.73046875  C 10.4966856060605 8.62444196428572  10.6458333333333 8.5714285714285  10.8181818181817 8.5714285714285  L 12.0909090909091 8.5714285714285  C 12.2632575757575 8.5714285714285  12.4124053030304 8.62444196428572  12.5383522727272 8.73046875  Z M 7.44744318181826 4.44475446428567  C 7.57339015151507 4.55078124999994  7.6363636363637 4.67633928571428  7.6363636363637 4.8214285714285  L 7.6363636363637 5.89285714285717  C 7.6363636363637 6.03794642857139  7.57339015151507 6.16350446428572  7.44744318181826 6.26953125  C 7.32149621212123 6.37555803571428  7.17234848484841 6.4285714285715  7 6.4285714285715  L 5.72727272727282 6.4285714285715  C 5.5549242424242 6.4285714285715  5.40577651515159 6.37555803571428  5.27982954545456 6.26953125  C 5.15388257575754 6.16350446428572  5.09090909090913 6.03794642857139  5.09090909090913 5.89285714285717  L 5.09090909090913 4.8214285714285  C 5.09090909090913 4.67633928571428  5.15388257575754 4.55078124999994  5.27982954545456 4.44475446428567  C 5.40577651515159 4.33872767857139  5.5549242424242 4.28571428571433  5.72727272727282 4.28571428571433  L 7 4.28571428571433  C 7.17234848484841 4.28571428571433  7.32149621212123 4.33872767857139  7.44744318181826 4.44475446428567  Z M 22.7201704545454 13.0161830357143  C 22.8461174242425 13.1222098214286  22.9090909090909 13.2477678571428  22.9090909090909 13.3928571428572  L 22.9090909090909 14.4642857142857  C 22.9090909090909 14.6093750000001  22.8461174242425 14.7349330357142  22.7201704545454 14.8409598214285  C 22.5942234848484 14.9469866071428  22.4450757575758 15  22.2727272727272 15  L 21 15  C 20.8276515151516 15  20.6785037878788 14.9469866071428  20.5525568181817 14.8409598214285  C 20.4266098484849 14.7349330357142  20.3636363636363 14.6093750000001  20.3636363636363 14.4642857142857  L 20.3636363636363 13.3928571428572  C 20.3636363636363 13.2477678571428  20.4266098484849 13.1222098214286  20.5525568181817 13.0161830357143  C 20.6785037878788 12.9101562500001  20.8276515151516 12.8571428571428  21 12.8571428571428  L 22.2727272727272 12.8571428571428  C 22.4450757575758 12.8571428571428  22.5942234848484 12.9101562500001  22.7201704545454 13.0161830357143  Z M 17.6292613636363 8.73046875  C 17.7552083333333 8.83649553571428  17.8181818181817 8.96205357142861  17.8181818181817 9.10714285714283  L 17.8181818181817 10.1785714285715  C 17.8181818181817 10.3236607142857  17.7552083333333 10.4492187500001  17.6292613636363 10.5552455357143  C 17.5033143939395 10.6612723214286  17.3541666666667 10.7142857142857  17.1818181818183 10.7142857142857  L 15.9090909090909 10.7142857142857  C 15.7367424242425 10.7142857142857  15.5875946969696 10.6612723214286  15.4616477272728 10.5552455357143  C 15.3357007575758 10.4492187500001  15.2727272727272 10.3236607142857  15.2727272727272 10.1785714285715  L 15.2727272727272 9.10714285714283  C 15.2727272727272 8.96205357142861  15.3357007575758 8.83649553571428  15.4616477272728 8.73046875  C 15.5875946969696 8.62444196428572  15.7367424242425 8.5714285714285  15.9090909090909 8.5714285714285  L 17.1818181818183 8.5714285714285  C 17.3541666666667 8.5714285714285  17.5033143939395 8.62444196428572  17.6292613636363 8.73046875  Z M 12.5383522727272 4.44475446428567  C 12.6642992424242 4.55078124999994  12.7272727272728 4.67633928571428  12.7272727272728 4.8214285714285  L 12.7272727272728 5.89285714285717  C 12.7272727272728 6.03794642857139  12.6642992424242 6.16350446428572  12.5383522727272 6.26953125  C 12.4124053030304 6.37555803571428  12.2632575757575 6.4285714285715  12.0909090909091 6.4285714285715  L 10.8181818181817 6.4285714285715  C 10.6458333333333 6.4285714285715  10.4966856060605 6.37555803571428  10.3707386363637 6.26953125  C 10.2447916666667 6.16350446428572  10.1818181818183 6.03794642857139  10.1818181818183 5.89285714285717  L 10.1818181818183 4.8214285714285  C 10.1818181818183 4.67633928571428  10.2447916666667 4.55078124999994  10.3707386363637 4.44475446428567  C 10.4966856060605 4.33872767857139  10.6458333333333 4.28571428571433  10.8181818181817 4.28571428571433  L 12.0909090909091 4.28571428571433  C 12.2632575757575 4.28571428571433  12.4124053030304 4.33872767857139  12.5383522727272 4.44475446428567  Z M 22.7201704545454 8.73046875  C 22.8461174242425 8.83649553571428  22.9090909090909 8.96205357142861  22.9090909090909 9.10714285714283  L 22.9090909090909 10.1785714285715  C 22.9090909090909 10.3236607142857  22.8461174242425 10.4492187500001  22.7201704545454 10.5552455357143  C 22.5942234848484 10.6612723214286  22.4450757575758 10.7142857142857  22.2727272727272 10.7142857142857  L 21 10.7142857142857  C 20.8276515151516 10.7142857142857  20.6785037878788 10.6612723214286  20.5525568181817 10.5552455357143  C 20.4266098484849 10.4492187500001  20.3636363636363 10.3236607142857  20.3636363636363 10.1785714285715  L 20.3636363636363 9.10714285714283  C 20.3636363636363 8.96205357142861  20.4266098484849 8.83649553571428  20.5525568181817 8.73046875  C 20.6785037878788 8.62444196428572  20.8276515151516 8.5714285714285  21 8.5714285714285  L 22.2727272727272 8.5714285714285  C 22.4450757575758 8.5714285714285  22.5942234848484 8.62444196428572  22.7201704545454 8.73046875  Z M 17.6292613636363 4.44475446428567  C 17.7552083333333 4.55078124999994  17.8181818181817 4.67633928571428  17.8181818181817 4.8214285714285  L 17.8181818181817 5.89285714285717  C 17.8181818181817 6.03794642857139  17.7552083333333 6.16350446428572  17.6292613636363 6.26953125  C 17.5033143939395 6.37555803571428  17.3541666666667 6.4285714285715  17.1818181818183 6.4285714285715  L 15.9090909090909 6.4285714285715  C 15.7367424242425 6.4285714285715  15.5875946969696 6.37555803571428  15.4616477272728 6.26953125  C 15.3357007575758 6.16350446428572  15.2727272727272 6.03794642857139  15.2727272727272 5.89285714285717  L 15.2727272727272 4.8214285714285  C 15.2727272727272 4.67633928571428  15.3357007575758 4.55078124999994  15.4616477272728 4.44475446428567  C 15.5875946969696 4.33872767857139  15.7367424242425 4.28571428571433  15.9090909090909 4.28571428571433  L 17.1818181818183 4.28571428571433  C 17.3541666666667 4.28571428571433  17.5033143939395 4.33872767857139  17.6292613636363 4.44475446428567  Z M 22.7201704545454 4.44475446428567  C 22.8461174242425 4.55078124999994  22.9090909090909 4.67633928571428  22.9090909090909 4.8214285714285  L 22.9090909090909 5.89285714285717  C 22.9090909090909 6.03794642857139  22.8461174242425 6.16350446428572  22.7201704545454 6.26953125  C 22.5942234848484 6.37555803571428  22.4450757575758 6.4285714285715  22.2727272727272 6.4285714285715  L 21 6.4285714285715  C 20.8276515151516 6.4285714285715  20.6785037878788 6.37555803571428  20.5525568181817 6.26953125  C 20.4266098484849 6.16350446428572  20.3636363636363 6.03794642857139  20.3636363636363 5.89285714285717  L 20.3636363636363 4.8214285714285  C 20.3636363636363 4.67633928571428  20.4266098484849 4.55078124999994  20.5525568181817 4.44475446428567  C 20.6785037878788 4.33872767857139  20.8276515151516 4.28571428571433  21 4.28571428571433  L 22.2727272727272 4.28571428571433  C 22.4450757575758 4.28571428571433  22.5942234848484 4.33872767857139  22.7201704545454 4.44475446428567  Z M 17.8181818181817 24.107142857143  L 17.8181818181817 27.857142857143  L 25 27.857142857143  L 25 2.14285714285717  L 3 2.14285714285717  L 3 27.857142857143  L 10.1818181818183 27.857142857143  L 10.1818181818183 24.107142857143  C 10.1818181818183 23.9620535714284  10.2447916666667 23.8364955357144  10.3707386363637 23.73046875  C 10.4966856060605 23.6244419642856  10.6458333333333 23.5714285714287  10.8181818181817 23.5714285714287  L 17.1818181818183 23.5714285714287  C 17.3541666666667 23.5714285714287  17.5033143939395 23.6244419642856  17.6292613636363 23.73046875  C 17.7552083333333 23.8364955357144  17.8181818181817 23.9620535714284  17.8181818181817 24.107142857143  Z M 27.6221590909091 0.318080357142833  C 27.874053030303 0.530133928571388  28 0.781250000000057  28 1.0714285714285  L 28 28.9285714285713  C 28 29.2187500000001  27.874053030303 29.4698660714284  27.6221590909091 29.681919642857  C 27.3702651515151 29.8939732142856  27.0719696969696 30  26.7272727272728 30  L 1.27272727272718 30  C 0.928030303030361 30  0.629734848484926 29.8939732142856  0.377840909090871 29.681919642857  C 0.125946969697028 29.4698660714284  0 29.2187500000001  0 28.9285714285713  L 0 1.0714285714285  C 0 0.781250000000057  0.125946969697028 0.530133928571388  0.377840909090871 0.318080357142833  C 0.629734848484926 0.106026785714278  0.928030303030361 0  1.27272727272718 0  L 26.7272727272728 0  C 27.0719696969696 0  27.3702651515151 0.106026785714278  27.6221590909091 0.318080357142833  Z " fill-rule="nonzero" fill="#009900" stroke="none" transform="matrix(1 0 0 1 453 687 )" />
  </g>
</svg>