<?xml version="1.0" encoding="utf-8"?>
<svg version="1.1" xmlns:xlink="http://www.w3.org/1999/xlink" width="28px" height="30px" xmlns="http://www.w3.org/2000/svg">
  <g transform="matrix(1 0 0 1 -663 -631 )">
    <path d="M 1.27272727272721 0  L 26.7272727272728 0  C 27.0719696969697 0  27.370265151515 0.106026785714278  27.6221590909091 0.318080357142833  C 27.8740530303031 0.530133928571388  28 0.781250000000057  28 1.0714285714285  L 28 28.9285714285713  C 28 29.2187500000001  27.8740530303031 29.4698660714284  27.6221590909091 29.681919642857  C 27.370265151515 29.8939732142856  27.0719696969697 30  26.7272727272728 30  L 1.27272727272721 30  C 0.92803030303031 30  0.629734848484955 29.8939732142856  0.377840909090929 29.681919642857  C 0.125946969696903 29.4698660714284  0 29.2187500000001  0 28.9285714285713  L 0 1.0714285714285  C 0 0.781250000000057  0.125946969696903 0.530133928571388  0.377840909090929 0.318080357142833  C 0.629734848484955 0.106026785714278  0.92803030303031 0  1.27272727272721 0  Z M 10.3607954545454 4.4363839285715  C 10.2414772727272 4.53683035714283  10.1818181818181 4.66517857142856  10.1818181818181 4.8214285714285  L 10.1818181818181 5.89285714285717  C 10.1818181818181 6.04910714285711  10.2414772727272 6.17745535714283  10.3607954545454 6.27790178571433  C 10.4801136363637 6.37834821428567  10.6325757575757 6.4285714285715  10.8181818181819 6.4285714285715  L 12.0909090909091 6.4285714285715  C 12.276515151515 6.4285714285715  12.4289772727272 6.37834821428567  12.5482954545454 6.27790178571433  C 12.6676136363637 6.17745535714283  12.7272727272728 6.04910714285711  12.7272727272728 5.89285714285717  L 12.7272727272728 4.8214285714285  C 12.7272727272728 4.66517857142856  12.6676136363637 4.53683035714283  12.5482954545454 4.4363839285715  C 12.4289772727272 4.3359375  12.276515151515 4.28571428571433  12.0909090909091 4.28571428571433  L 10.8181818181819 4.28571428571433  C 10.6325757575757 4.28571428571433  10.4801136363637 4.3359375  10.3607954545454 4.4363839285715  Z M 10.3607954545454 8.72209821428567  C 10.2414772727272 8.82254464285717  10.1818181818181 8.95089285714289  10.1818181818181 9.10714285714283  L 10.1818181818181 10.1785714285715  C 10.1818181818181 10.3348214285714  10.2414772727272 10.4631696428572  10.3607954545454 10.5636160714287  C 10.4801136363637 10.6640625  10.6325757575757 10.7142857142857  10.8181818181819 10.7142857142857  L 12.0909090909091 10.7142857142857  C 12.276515151515 10.7142857142857  12.4289772727272 10.6640625  12.5482954545454 10.5636160714287  C 12.6676136363637 10.4631696428572  12.7272727272728 10.3348214285714  12.7272727272728 10.1785714285715  L 12.7272727272728 9.10714285714283  C 12.7272727272728 8.95089285714289  12.6676136363637 8.82254464285717  12.5482954545454 8.72209821428567  C 12.4289772727272 8.62165178571433  12.276515151515 8.5714285714285  12.0909090909091 8.5714285714285  L 10.8181818181819 8.5714285714285  C 10.6325757575757 8.5714285714285  10.4801136363637 8.62165178571433  10.3607954545454 8.72209821428567  Z M 10.3607954545454 13.0078125  C 10.2414772727272 13.1082589285713  10.1818181818181 13.2366071428572  10.1818181818181 13.392857142857  L 10.1818181818181 14.4642857142857  C 10.1818181818181 14.6205357142858  10.2414772727272 14.7488839285713  10.3607954545454 14.849330357143  C 10.4801136363637 14.9497767857143  10.6325757575757 15  10.8181818181819 15  L 12.0909090909091 15  C 12.276515151515 15  12.4289772727272 14.9497767857143  12.5482954545454 14.849330357143  C 12.6676136363637 14.7488839285713  12.7272727272728 14.6205357142858  12.7272727272728 14.4642857142857  L 12.7272727272728 13.392857142857  C 12.7272727272728 13.2366071428572  12.6676136363637 13.1082589285713  12.5482954545454 13.0078125  C 12.4289772727272 12.9073660714287  12.276515151515 12.857142857143  12.0909090909091 12.857142857143  L 10.8181818181819 12.857142857143  C 10.6325757575757 12.857142857143  10.4801136363637 12.9073660714287  10.3607954545454 13.0078125  Z M 10.3607954545454 17.2935267857143  C 10.2414772727272 17.3939732142857  10.1818181818181 17.5223214285716  10.1818181818181 17.6785714285713  L 10.1818181818181 18.75  C 10.1818181818181 18.9062500000001  10.2414772727272 19.0345982142857  10.3607954545454 19.135044642857  C 10.4801136363637 19.2354910714287  10.6325757575757 19.2857142857143  10.8181818181819 19.2857142857143  L 12.0909090909091 19.2857142857143  C 12.276515151515 19.2857142857143  12.4289772727272 19.2354910714287  12.5482954545454 19.135044642857  C 12.6676136363637 19.0345982142857  12.7272727272728 18.9062500000001  12.7272727272728 18.75  L 12.7272727272728 17.6785714285713  C 12.7272727272728 17.5223214285716  12.6676136363637 17.3939732142857  12.5482954545454 17.2935267857143  C 12.4289772727272 17.193080357143  12.276515151515 17.142857142857  12.0909090909091 17.142857142857  L 10.8181818181819 17.142857142857  C 10.6325757575757 17.142857142857  10.4801136363637 17.193080357143  10.3607954545454 17.2935267857143  Z M 7.45738636363628 23.4207589285713  C 7.57670454545465 23.3203125  7.63636363636372 23.1919642857144  7.63636363636372 23.0357142857143  L 7.63636363636372 21.9642857142857  C 7.63636363636372 21.8080357142856  7.57670454545465 21.6796875  7.45738636363628 21.5792410714287  C 7.33806818181814 21.478794642857  7.18560606060597 21.4285714285713  7 21.4285714285713  L 5.72727272727279 21.4285714285713  C 5.54166666666659 21.4285714285713  5.38920454545465 21.478794642857  5.26988636363628 21.5792410714287  C 5.15056818181814 21.6796875  5.09090909090907 21.8080357142856  5.09090909090907 21.9642857142857  L 5.09090909090907 23.0357142857143  C 5.09090909090907 23.1919642857144  5.15056818181814 23.3203125  5.26988636363628 23.4207589285713  C 5.38920454545465 23.521205357143  5.54166666666659 23.5714285714287  5.72727272727279 23.5714285714287  L 7 23.5714285714287  C 7.18560606060597 23.5714285714287  7.33806818181814 23.521205357143  7.45738636363628 23.4207589285713  Z M 7.45738636363628 19.135044642857  C 7.57670454545465 19.0345982142857  7.63636363636372 18.9062500000001  7.63636363636372 18.75  L 7.63636363636372 17.6785714285713  C 7.63636363636372 17.5223214285716  7.57670454545465 17.3939732142857  7.45738636363628 17.2935267857143  C 7.33806818181814 17.193080357143  7.18560606060597 17.142857142857  7 17.142857142857  L 5.72727272727279 17.142857142857  C 5.54166666666659 17.142857142857  5.38920454545465 17.193080357143  5.26988636363628 17.2935267857143  C 5.15056818181814 17.3939732142857  5.09090909090907 17.5223214285716  5.09090909090907 17.6785714285713  L 5.09090909090907 18.75  C 5.09090909090907 18.9062500000001  5.15056818181814 19.0345982142857  5.26988636363628 19.135044642857  C 5.38920454545465 19.2354910714287  5.54166666666659 19.2857142857143  5.72727272727279 19.2857142857143  L 7 19.2857142857143  C 7.18560606060597 19.2857142857143  7.33806818181814 19.2354910714287  7.45738636363628 19.135044642857  Z M 7.45738636363628 14.849330357143  C 7.57670454545465 14.7488839285713  7.63636363636372 14.6205357142858  7.63636363636372 14.4642857142857  L 7.63636363636372 13.392857142857  C 7.63636363636372 13.2366071428572  7.57670454545465 13.1082589285713  7.45738636363628 13.0078125  C 7.33806818181814 12.9073660714287  7.18560606060597 12.857142857143  7 12.857142857143  L 5.72727272727279 12.857142857143  C 5.54166666666659 12.857142857143  5.38920454545465 12.9073660714287  5.26988636363628 13.0078125  C 5.15056818181814 13.1082589285713  5.09090909090907 13.2366071428572  5.09090909090907 13.392857142857  L 5.09090909090907 14.4642857142857  C 5.09090909090907 14.6205357142858  5.15056818181814 14.7488839285713  5.26988636363628 14.849330357143  C 5.38920454545465 14.9497767857143  5.54166666666659 15  5.72727272727279 15  L 7 15  C 7.18560606060597 15  7.33806818181814 14.9497767857143  7.45738636363628 14.849330357143  Z M 7.45738636363628 10.5636160714287  C 7.57670454545465 10.4631696428572  7.63636363636372 10.3348214285714  7.63636363636372 10.1785714285715  L 7.63636363636372 9.10714285714283  C 7.63636363636372 8.95089285714289  7.57670454545465 8.82254464285717  7.45738636363628 8.72209821428567  C 7.33806818181814 8.62165178571433  7.18560606060597 8.5714285714285  7 8.5714285714285  L 5.72727272727279 8.5714285714285  C 5.54166666666659 8.5714285714285  5.38920454545465 8.62165178571433  5.26988636363628 8.72209821428567  C 5.15056818181814 8.82254464285717  5.09090909090907 8.95089285714289  5.09090909090907 9.10714285714283  L 5.09090909090907 10.1785714285715  C 5.09090909090907 10.3348214285714  5.15056818181814 10.4631696428572  5.26988636363628 10.5636160714287  C 5.38920454545465 10.6640625  5.54166666666659 10.7142857142857  5.72727272727279 10.7142857142857  L 7 10.7142857142857  C 7.18560606060597 10.7142857142857  7.33806818181814 10.6640625  7.45738636363628 10.5636160714287  Z M 7.45738636363628 6.27790178571433  C 7.57670454545465 6.17745535714283  7.63636363636372 6.04910714285711  7.63636363636372 5.89285714285717  L 7.63636363636372 4.8214285714285  C 7.63636363636372 4.66517857142856  7.57670454545465 4.53683035714283  7.45738636363628 4.4363839285715  C 7.33806818181814 4.3359375  7.18560606060597 4.28571428571433  7 4.28571428571433  L 5.72727272727279 4.28571428571433  C 5.54166666666659 4.28571428571433  5.38920454545465 4.3359375  5.26988636363628 4.4363839285715  C 5.15056818181814 4.53683035714283  5.09090909090907 4.66517857142856  5.09090909090907 4.8214285714285  L 5.09090909090907 5.89285714285717  C 5.09090909090907 6.04910714285711  5.15056818181814 6.17745535714283  5.26988636363628 6.27790178571433  C 5.38920454545465 6.37834821428567  5.54166666666659 6.4285714285715  5.72727272727279 6.4285714285715  L 7 6.4285714285715  C 7.18560606060597 6.4285714285715  7.33806818181814 6.37834821428567  7.45738636363628 6.27790178571433  Z M 17.6392045454546 27.7064732142857  C 17.7585227272728 27.6060267857143  17.8181818181819 27.4776785714284  17.8181818181819 27.3214285714287  L 17.8181818181819 24.107142857143  C 17.8181818181819 23.9508928571429  17.7585227272728 23.822544642857  17.6392045454546 23.7220982142857  C 17.5198863636363 23.6216517857143  17.3674242424243 23.5714285714287  17.1818181818181 23.5714285714287  L 10.8181818181819 23.5714285714287  C 10.6325757575757 23.5714285714287  10.4801136363637 23.6216517857143  10.3607954545454 23.7220982142857  C 10.2414772727272 23.822544642857  10.1818181818181 23.9508928571429  10.1818181818181 24.107142857143  L 10.1818181818181 27.3214285714287  C 10.1818181818181 27.4776785714284  10.2414772727272 27.6060267857143  10.3607954545454 27.7064732142857  C 10.4801136363637 27.806919642857  10.6325757575757 27.857142857143  10.8181818181819 27.857142857143  L 17.1818181818181 27.857142857143  C 17.3674242424243 27.857142857143  17.5198863636363 27.806919642857  17.6392045454546 27.7064732142857  Z M 17.6392045454546 19.135044642857  C 17.7585227272728 19.0345982142857  17.8181818181819 18.9062500000001  17.8181818181819 18.75  L 17.8181818181819 17.6785714285713  C 17.8181818181819 17.5223214285716  17.7585227272728 17.3939732142857  17.6392045454546 17.2935267857143  C 17.5198863636363 17.193080357143  17.3674242424243 17.142857142857  17.1818181818181 17.142857142857  L 15.9090909090909 17.142857142857  C 15.723484848485 17.142857142857  15.5710227272728 17.193080357143  15.4517045454546 17.2935267857143  C 15.3323863636363 17.3939732142857  15.2727272727272 17.5223214285716  15.2727272727272 17.6785714285713  L 15.2727272727272 18.75  C 15.2727272727272 18.9062500000001  15.3323863636363 19.0345982142857  15.4517045454546 19.135044642857  C 15.5710227272728 19.2354910714287  15.723484848485 19.2857142857143  15.9090909090909 19.2857142857143  L 17.1818181818181 19.2857142857143  C 17.3674242424243 19.2857142857143  17.5198863636363 19.2354910714287  17.6392045454546 19.135044642857  Z M 17.6392045454546 14.849330357143  C 17.7585227272728 14.7488839285713  17.8181818181819 14.6205357142858  17.8181818181819 14.4642857142857  L 17.8181818181819 13.392857142857  C 17.8181818181819 13.2366071428572  17.7585227272728 13.1082589285713  17.6392045454546 13.0078125  C 17.5198863636363 12.9073660714287  17.3674242424243 12.857142857143  17.1818181818181 12.857142857143  L 15.9090909090909 12.857142857143  C 15.723484848485 12.857142857143  15.5710227272728 12.9073660714287  15.4517045454546 13.0078125  C 15.3323863636363 13.1082589285713  15.2727272727272 13.2366071428572  15.2727272727272 13.392857142857  L 15.2727272727272 14.4642857142857  C 15.2727272727272 14.6205357142858  15.3323863636363 14.7488839285713  15.4517045454546 14.849330357143  C 15.5710227272728 14.9497767857143  15.723484848485 15  15.9090909090909 15  L 17.1818181818181 15  C 17.3674242424243 15  17.5198863636363 14.9497767857143  17.6392045454546 14.849330357143  Z M 17.6392045454546 10.5636160714287  C 17.7585227272728 10.4631696428572  17.8181818181819 10.3348214285714  17.8181818181819 10.1785714285715  L 17.8181818181819 9.10714285714283  C 17.8181818181819 8.95089285714289  17.7585227272728 8.82254464285717  17.6392045454546 8.72209821428567  C 17.5198863636363 8.62165178571433  17.3674242424243 8.5714285714285  17.1818181818181 8.5714285714285  L 15.9090909090909 8.5714285714285  C 15.723484848485 8.5714285714285  15.5710227272728 8.62165178571433  15.4517045454546 8.72209821428567  C 15.3323863636363 8.82254464285717  15.2727272727272 8.95089285714289  15.2727272727272 9.10714285714283  L 15.2727272727272 10.1785714285715  C 15.2727272727272 10.3348214285714  15.3323863636363 10.4631696428572  15.4517045454546 10.5636160714287  C 15.5710227272728 10.6640625  15.723484848485 10.7142857142857  15.9090909090909 10.7142857142857  L 17.1818181818181 10.7142857142857  C 17.3674242424243 10.7142857142857  17.5198863636363 10.6640625  17.6392045454546 10.5636160714287  Z M 17.6392045454546 6.27790178571433  C 17.7585227272728 6.17745535714283  17.8181818181819 6.04910714285711  17.8181818181819 5.89285714285717  L 17.8181818181819 4.8214285714285  C 17.8181818181819 4.66517857142856  17.7585227272728 4.53683035714283  17.6392045454546 4.4363839285715  C 17.5198863636363 4.3359375  17.3674242424243 4.28571428571433  17.1818181818181 4.28571428571433  L 15.9090909090909 4.28571428571433  C 15.723484848485 4.28571428571433  15.5710227272728 4.3359375  15.4517045454546 4.4363839285715  C 15.3323863636363 4.53683035714283  15.2727272727272 4.66517857142856  15.2727272727272 4.8214285714285  L 15.2727272727272 5.89285714285717  C 15.2727272727272 6.04910714285711  15.3323863636363 6.17745535714283  15.4517045454546 6.27790178571433  C 15.5710227272728 6.37834821428567  15.723484848485 6.4285714285715  15.9090909090909 6.4285714285715  L 17.1818181818181 6.4285714285715  C 17.3674242424243 6.4285714285715  17.5198863636363 6.37834821428567  17.6392045454546 6.27790178571433  Z M 22.7301136363637 23.4207589285713  C 22.8494318181819 23.3203125  22.9090909090909 23.1919642857144  22.9090909090909 23.0357142857143  L 22.9090909090909 21.9642857142857  C 22.9090909090909 21.8080357142856  22.8494318181819 21.6796875  22.7301136363637 21.5792410714287  C 22.6107954545454 21.478794642857  22.4583333333334 21.4285714285713  22.2727272727272 21.4285714285713  L 21 21.4285714285713  C 20.814393939394 21.4285714285713  20.6619318181819 21.478794642857  20.5426136363637 21.5792410714287  C 20.4232954545454 21.6796875  20.3636363636363 21.8080357142856  20.3636363636363 21.9642857142857  L 20.3636363636363 23.0357142857143  C 20.3636363636363 23.1919642857144  20.4232954545454 23.3203125  20.5426136363637 23.4207589285713  C 20.6619318181819 23.521205357143  20.814393939394 23.5714285714287  21 23.5714285714287  L 22.2727272727272 23.5714285714287  C 22.4583333333334 23.5714285714287  22.6107954545454 23.521205357143  22.7301136363637 23.4207589285713  Z M 22.7301136363637 19.135044642857  C 22.8494318181819 19.0345982142857  22.9090909090909 18.9062500000001  22.9090909090909 18.75  L 22.9090909090909 17.6785714285713  C 22.9090909090909 17.5223214285716  22.8494318181819 17.3939732142857  22.7301136363637 17.2935267857143  C 22.6107954545454 17.193080357143  22.4583333333334 17.142857142857  22.2727272727272 17.142857142857  L 21 17.142857142857  C 20.814393939394 17.142857142857  20.6619318181819 17.193080357143  20.5426136363637 17.2935267857143  C 20.4232954545454 17.3939732142857  20.3636363636363 17.5223214285716  20.3636363636363 17.6785714285713  L 20.3636363636363 18.75  C 20.3636363636363 18.9062500000001  20.4232954545454 19.0345982142857  20.5426136363637 19.135044642857  C 20.6619318181819 19.2354910714287  20.814393939394 19.2857142857143  21 19.2857142857143  L 22.2727272727272 19.2857142857143  C 22.4583333333334 19.2857142857143  22.6107954545454 19.2354910714287  22.7301136363637 19.135044642857  Z M 22.7301136363637 14.849330357143  C 22.8494318181819 14.7488839285713  22.9090909090909 14.6205357142858  22.9090909090909 14.4642857142857  L 22.9090909090909 13.392857142857  C 22.9090909090909 13.2366071428572  22.8494318181819 13.1082589285713  22.7301136363637 13.0078125  C 22.6107954545454 12.9073660714287  22.4583333333334 12.857142857143  22.2727272727272 12.857142857143  L 21 12.857142857143  C 20.814393939394 12.857142857143  20.6619318181819 12.9073660714287  20.5426136363637 13.0078125  C 20.4232954545454 13.1082589285713  20.3636363636363 13.2366071428572  20.3636363636363 13.392857142857  L 20.3636363636363 14.4642857142857  C 20.3636363636363 14.6205357142858  20.4232954545454 14.7488839285713  20.5426136363637 14.849330357143  C 20.6619318181819 14.9497767857143  20.814393939394 15  21 15  L 22.2727272727272 15  C 22.4583333333334 15  22.6107954545454 14.9497767857143  22.7301136363637 14.849330357143  Z M 22.7301136363637 10.5636160714287  C 22.8494318181819 10.4631696428572  22.9090909090909 10.3348214285714  22.9090909090909 10.1785714285715  L 22.9090909090909 9.10714285714283  C 22.9090909090909 8.95089285714289  22.8494318181819 8.82254464285717  22.7301136363637 8.72209821428567  C 22.6107954545454 8.62165178571433  22.4583333333334 8.5714285714285  22.2727272727272 8.5714285714285  L 21 8.5714285714285  C 20.814393939394 8.5714285714285  20.6619318181819 8.62165178571433  20.5426136363637 8.72209821428567  C 20.4232954545454 8.82254464285717  20.3636363636363 8.95089285714289  20.3636363636363 9.10714285714283  L 20.3636363636363 10.1785714285715  C 20.3636363636363 10.3348214285714  20.4232954545454 10.4631696428572  20.5426136363637 10.5636160714287  C 20.6619318181819 10.6640625  20.814393939394 10.7142857142857  21 10.7142857142857  L 22.2727272727272 10.7142857142857  C 22.4583333333334 10.7142857142857  22.6107954545454 10.6640625  22.7301136363637 10.5636160714287  Z M 22.7301136363637 6.27790178571433  C 22.8494318181819 6.17745535714283  22.9090909090909 6.04910714285711  22.9090909090909 5.89285714285717  L 22.9090909090909 4.8214285714285  C 22.9090909090909 4.66517857142856  22.8494318181819 4.53683035714283  22.7301136363637 4.4363839285715  C 22.6107954545454 4.3359375  22.4583333333334 4.28571428571433  22.2727272727272 4.28571428571433  L 21 4.28571428571433  C 20.814393939394 4.28571428571433  20.6619318181819 4.3359375  20.5426136363637 4.4363839285715  C 20.4232954545454 4.53683035714283  20.3636363636363 4.66517857142856  20.3636363636363 4.8214285714285  L 20.3636363636363 5.89285714285717  C 20.3636363636363 6.04910714285711  20.4232954545454 6.17745535714283  20.5426136363637 6.27790178571433  C 20.6619318181819 6.37834821428567  20.814393939394 6.4285714285715  21 6.4285714285715  L 22.2727272727272 6.4285714285715  C 22.4583333333334 6.4285714285715  22.6107954545454 6.37834821428567  22.7301136363637 6.27790178571433  Z " fill-rule="nonzero" fill="#009900" stroke="none" transform="matrix(1 0 0 1 663 631 )" />
  </g>
</svg>