<?xml version="1.0" encoding="utf-8"?>
<svg version="1.1" xmlns:xlink="http://www.w3.org/1999/xlink" width="30px" height="30px" xmlns="http://www.w3.org/2000/svg">
  <g transform="matrix(1 0 0 1 -249 -687 )">
    <path d="M 18.53515625 11.4648437499999  C 19.51171875 12.4414062500001  20 13.6197916666667  20 15  C 20 16.3802083333333  19.51171875 17.5585937499999  18.53515625 18.5351562500001  C 17.55859375 19.51171875  16.3802083333334 20.0000000000001  15 20.0000000000001  C 13.6197916666666 20.0000000000001  12.44140625 19.51171875  11.46484375 18.5351562500001  C 10.48828125 17.5585937499999  10 16.3802083333333  10 15  C 10 13.6197916666667  10.48828125 12.4414062500001  11.46484375 11.4648437499999  C 12.44140625 10.48828125  13.6197916666666 9.99999999999994  15 9.99999999999994  C 16.3802083333334 9.99999999999994  17.55859375 10.48828125  18.53515625 11.4648437499999  Z M 20.302734375 20.302734375  C 21.767578125 18.837890625  22.5 17.0703125000001  22.5 15  C 22.5 12.9296874999999  21.767578125 11.162109375  20.302734375 9.697265625  C 18.837890625 8.232421875  17.0703125 7.5  15 7.5  C 12.9296875 7.5  11.162109375 8.232421875  9.697265625 9.697265625  C 8.232421875 11.162109375  7.5 12.9296874999999  7.5 15  C 7.5 17.0703125000001  8.232421875 18.837890625  9.697265625 20.302734375  C 11.162109375 21.767578125  12.9296875 22.5  15 22.5  C 17.0703125 22.5  18.837890625 21.767578125  20.302734375 20.302734375  Z M 22.0703125 7.92968750000006  C 24.0234375 9.88281249999994  25 12.2395833333333  25 15  C 25 17.7604166666667  24.0234375 20.1171875000001  22.0703125 22.0703124999999  C 20.1171875 24.0234375  17.7604166666667 24.9999999999999  15 24.9999999999999  C 12.2395833333333 24.9999999999999  9.88281250000003 24.0234375  7.92968749999997 22.0703124999999  C 5.9765625 20.1171875000001  4.99999999999997 17.7604166666667  4.99999999999997 15  C 4.99999999999997 12.2395833333333  5.9765625 9.88281249999994  7.92968749999997 7.92968750000006  C 9.88281250000003 5.9765625  12.2395833333333 5.00000000000006  15 5.00000000000006  C 17.7604166666667 5.00000000000006  20.1171875 5.9765625  22.0703125 7.92968750000006  Z M 26.50390625 19.8535156250001  C 27.16796875 18.310546875  27.5 16.6927083333333  27.5 15  C 27.5 13.3072916666667  27.16796875 11.689453125  26.50390625 10.1464843749999  C 25.83984375 8.60351562500006  24.951171875 7.27539062499994  23.837890625 6.16210937499994  C 22.724609375 5.04882812499994  21.396484375 4.16015625  19.853515625 3.49609374999994  C 18.310546875 2.83203125000006  16.6927083333333 2.49999999999994  15 2.49999999999994  C 13.3072916666667 2.49999999999994  11.689453125 2.83203125000006  10.146484375 3.49609374999994  C 8.60351562499997 4.16015625  7.27539062500003 5.04882812499994  6.16210937500003 6.16210937499994  C 5.04882812500003 7.27539062499994  4.16015625 8.60351562500006  3.49609375000003 10.1464843749999  C 2.83203124999997 11.689453125  2.50000000000003 13.3072916666667  2.50000000000003 15  C 2.50000000000003 16.6927083333333  2.83203124999997 18.310546875  3.49609375000003 19.8535156250001  C 4.16015625 21.3964843749999  5.04882812500003 22.7246093750001  6.16210937500003 23.8378906250001  C 7.27539062500003 24.9511718750001  8.60351562499997 25.83984375  10.146484375 26.5039062500001  C 11.689453125 27.1679687499999  13.3072916666667 27.5000000000001  15 27.5000000000001  C 16.6927083333333 27.5000000000001  18.310546875 27.1679687499999  19.853515625 26.5039062500001  C 21.396484375 25.83984375  22.724609375 24.9511718750001  23.837890625 23.8378906250001  C 24.951171875 22.7246093750001  25.83984375 21.3964843749999  26.50390625 19.8535156250001  Z M 27.98828125 7.470703125  C 29.3294270833334 9.76888020833337  30 12.2786458333333  30 15  C 30 17.7213541666667  29.3294270833334 20.2311197916666  27.98828125 22.529296875  C 26.6471354166667 24.8274739583334  24.8274739583333 26.6471354166666  22.529296875 27.9882812499999  C 20.2311197916667 29.3294270833333  17.7213541666666 30  15 30  C 12.2786458333334 30  9.76888020833331 29.3294270833333  7.470703125 27.9882812499999  C 5.17252604166669 26.6471354166666  3.35286458333331 24.8274739583334  2.01171874999997 22.529296875  C 0.670572916666629 20.2311197916666  0 17.7213541666667  0 15  C 0 12.2786458333333  0.670572916666629 9.76888020833337  2.01171874999997 7.470703125  C 3.35286458333331 5.17252604166663  5.17252604166669 3.35286458333337  7.470703125 2.01171875000006  C 9.76888020833331 0.670572916666749  12.2786458333334 0  15 0  C 17.7213541666666 0  20.2311197916667 0.670572916666749  22.529296875 2.01171875000006  C 24.8274739583333 3.35286458333337  26.6471354166667 5.17252604166663  27.98828125 7.470703125  Z " fill-rule="nonzero" fill="#0033cc" stroke="none" transform="matrix(1 0 0 1 249 687 )" />
  </g>
</svg>