<?xml version="1.0" encoding="utf-8"?>
<svg version="1.1" xmlns:xlink="http://www.w3.org/1999/xlink" width="30px" height="30px" xmlns="http://www.w3.org/2000/svg">
  <g transform="matrix(1 0 0 1 -399 -687 )">
    <path d="M 12.6060267857143 27.2042410714287  C 13.3314732142857 27.338169642857  14.0066964285715 27.4107142857143  14.6316964285715 27.421875  L 14.6316964285715 28.5267857142857  C 12.3102678571428 28.4598214285713  10.1618303571428 27.8487723214287  8.18638392857148 26.693638392857  C 6.2109375 25.5385044642857  4.63169642857148 24.0011160714287  3.44866071428574 22.0814732142857  L 4.41964285714278 21.5122767857143  C 4.74330357142852 22.0591517857143  5.15066964285722 22.611607142857  5.64174107142852 23.169642857143  L 6.72991071428574 22.2154017857143  C 8.38169642857148 24.0904017857143  10.4352678571428 25.2734375  12.890625 25.7645089285713  L 12.6060267857143 27.2042410714287  Z M 4.01785714285722 15  C 4.01785714285722 16.2165178571428  4.21875 17.3995535714285  4.62053571428574 18.549107142857  L 3.23102678571426 19.017857142857  C 3.4765625 19.6875  3.75 20.3125  4.05133928571426 20.892857142857  L 3.09709821428574 21.4453125  C 2.00334821428574 19.4363839285713  1.45647321428574 17.2879464285715  1.45647321428574 15  C 1.45647321428574 12.7120535714285  2.00334821428574 10.5636160714285  3.09709821428574 8.5546875  L 4.05133928571426 9.10714285714283  C 3.71651785714278 9.73214285714283  3.44308035714278 10.3571428571428  3.23102678571426 10.9821428571428  L 4.60379464285722 11.4508928571428  C 4.21316964285722 12.5669642857143  4.01785714285722 13.75  4.01785714285722 15  Z M 24.3582589285715 23.169642857143  C 24.8493303571428 22.611607142857  25.2566964285715 22.0591517857143  25.5803571428572 21.5122767857143  L 26.5513392857143 22.0814732142857  C 25.3683035714285 24.0011160714287  23.7890625 25.5385044642857  21.8136160714285 26.693638392857  C 19.8381696428572 27.8487723214287  17.6897321428572 28.4598214285713  15.3683035714285 28.5267857142857  L 15.3683035714285 27.421875  C 15.9933035714285 27.4107142857143  16.6685267857143 27.338169642857  17.3939732142857 27.2042410714287  L 17.109375 25.7645089285713  C 19.5647321428572 25.2734375  21.6183035714285 24.0904017857143  23.2700892857143 22.2154017857143  L 24.3582589285715 23.169642857143  Z M 21.3950892857143 9.40848214285717  C 22.1316964285715 10.2566964285715  22.6841517857143 11.1997767857143  23.0524553571428 12.2377232142857  L 19.1517857142857 13.5770089285715  C 19.3080357142857 14.0457589285715  19.3861607142857 14.5200892857143  19.3861607142857 15  C 19.3861607142857 15.4799107142857  19.3080357142857 15.9542410714285  19.1517857142857 16.4229910714285  L 23.0357142857143 17.7622767857143  C 22.6897321428572 18.7890625  22.1428571428572 19.732142857143  21.3950892857143 20.591517857143  L 18.2979910714285 17.8794642857143  C 17.6618303571428 18.627232142857  16.8415178571428 19.1015625  15.8370535714285 19.302455357143  L 16.640625 23.3370535714287  C 16.0602678571428 23.4486607142857  15.5133928571428 23.5044642857143  15 23.5044642857143  C 14.4866071428572 23.5044642857143  13.9397321428572 23.4486607142857  13.359375 23.3370535714287  L 14.1629464285715 19.302455357143  C 13.1584821428572 19.1015625  12.3381696428572 18.627232142857  11.7020089285715 17.8794642857143  L 8.60491071428574 20.591517857143  C 7.85714285714278 19.732142857143  7.31026785714278 18.7890625  6.96428571428574 17.7622767857143  L 10.8482142857143 16.4229910714285  C 10.6919642857143 15.9542410714285  10.6138392857143 15.4799107142857  10.6138392857143 15  C 10.6138392857143 14.5200892857143  10.6919642857143 14.0457589285715  10.8482142857143 13.5770089285715  L 6.94754464285722 12.2377232142857  C 7.31584821428574 11.1997767857143  7.86830357142852 10.2566964285715  8.60491071428574 9.40848214285717  L 11.7020089285715 12.1205357142857  C 12.3604910714285 11.3616071428572  13.1808035714285 10.8816964285715  14.1629464285715 10.6808035714285  L 13.359375 6.66294642857152  C 13.8504464285715 6.55133928571435  14.3973214285715 6.49553571428566  15 6.49553571428566  C 15.6026785714285 6.49553571428566  16.1495535714285 6.55133928571435  16.640625 6.66294642857152  L 15.8370535714285 10.6808035714285  C 16.8191964285715 10.8816964285715  17.6395089285715 11.3616071428572  18.2979910714285 12.1205357142857  L 21.3950892857143 9.40848214285717  Z M 8.18638392857148 3.30636160714283  C 10.1506696428572 2.15122767857152  12.2991071428572 1.54017857142848  14.6316964285715 1.47321428571434  L 14.6316964285715 2.578125  C 13.90625 2.60044642857152  13.2310267857143 2.67299107142848  12.6060267857143 2.79575892857152  L 12.890625 4.23549107142848  C 10.4352678571428 4.70424107142848  8.38169642857148 5.88169642857152  6.72991071428574 7.76785714285717  L 5.64174107142852 6.83035714285717  C 5.21763392857148 7.29910714285717  4.81026785714278 7.84598214285717  4.41964285714278 8.47098214285717  L 3.46540178571426 7.91852678571435  C 4.6484375 5.99888392857152  6.22209821428574 4.46149553571434  8.18638392857148 3.30636160714283  Z M 26.9029017857143 8.5546875  C 27.9966517857143 10.5636160714285  28.5435267857143 12.7120535714285  28.5435267857143 15  C 28.5435267857143 17.2879464285715  27.9966517857143 19.4363839285713  26.9029017857143 21.4453125  L 25.9486607142857 20.892857142857  C 26.25 20.3125  26.5234375 19.6875  26.7689732142857 19.017857142857  L 25.3794642857143 18.549107142857  C 25.78125 17.3995535714285  25.9821428571428 16.2165178571428  25.9821428571428 15  C 25.9821428571428 13.75  25.7868303571428 12.5669642857143  25.3962053571428 11.4508928571428  L 26.7689732142857 10.9821428571428  C 26.5569196428572 10.3571428571428  26.2834821428572 9.73214285714283  25.9486607142857 9.10714285714283  L 26.9029017857143 8.5546875  Z M 21.8136160714285 3.30636160714283  C 23.7779017857143 4.46149553571434  25.3515625 5.99888392857152  26.5345982142857 7.91852678571435  L 25.5803571428572 8.47098214285717  C 25.1897321428572 7.84598214285717  24.7823660714285 7.29910714285717  24.3582589285715 6.83035714285717  L 23.2700892857143 7.76785714285717  C 21.6183035714285 5.88169642857152  19.5647321428572 4.70424107142848  17.109375 4.23549107142848  L 17.3939732142857 2.79575892857152  C 16.7689732142857 2.67299107142848  16.09375 2.60044642857152  15.3683035714285 2.578125  L 15.3683035714285 1.47321428571434  C 17.7008928571428 1.54017857142848  19.8493303571428 2.15122767857152  21.8136160714285 3.30636160714283  Z M 28.1333705357143 20.541294642857  C 28.88671875 18.7779017857143  29.2633928571428 16.9308035714285  29.2633928571428 15  C 29.2633928571428 13.0691964285715  28.88671875 11.2220982142857  28.1333705357143 9.45870535714283  C 27.3800223214285 7.6953125  26.3671875 6.17745535714283  25.0948660714285 4.90513392857152  C 23.8225446428572 3.6328125  22.3046875 2.61997767857152  20.5412946428572 1.86662946428566  C 18.7779017857143 1.11328125  16.9308035714285 0.736607142857172  15 0.736607142857172  C 13.0691964285715 0.736607142857172  11.2220982142857 1.11328125  9.45870535714278 1.86662946428566  C 7.6953125 2.61997767857152  6.17745535714278 3.6328125  4.90513392857148 4.90513392857152  C 3.6328125 6.17745535714283  2.61997767857148 7.6953125  1.86662946428574 9.45870535714283  C 1.11328125 11.2220982142857  0.736607142857224 13.0691964285715  0.736607142857224 15  C 0.736607142857224 16.9308035714285  1.11328125 18.7779017857143  1.86662946428574 20.541294642857  C 2.61997767857148 22.3046875  3.6328125 23.822544642857  4.90513392857148 25.0948660714287  C 6.17745535714278 26.3671875  7.6953125 27.3800223214287  9.45870535714278 28.1333705357143  C 11.2220982142857 28.88671875  13.0691964285715 29.263392857143  15 29.263392857143  C 16.9308035714285 29.263392857143  18.7779017857143 28.88671875  20.5412946428572 28.1333705357143  C 22.3046875 27.3800223214287  23.8225446428572 26.3671875  25.0948660714285 25.0948660714287  C 26.3671875 23.822544642857  27.3800223214285 22.3046875  28.1333705357143 20.541294642857  Z M 28.8113839285715 9.17410714285717  C 29.6037946428572 11.0267857142857  30 12.96875  30 15  C 30 17.03125  29.6037946428572 18.9732142857143  28.8113839285715 20.825892857143  C 28.0189732142857 22.6785714285713  26.953125 24.2745535714287  25.6138392857143 25.6138392857143  C 24.2745535714285 26.953125  22.6785714285715 28.0189732142857  20.8258928571428 28.8113839285713  C 18.9732142857143 29.603794642857  17.03125 30  15 30  C 12.96875 30  11.0267857142857 29.603794642857  9.17410714285722 28.8113839285713  C 7.32142857142852 28.0189732142857  5.72544642857148 26.953125  4.38616071428574 25.6138392857143  C 3.046875 24.2745535714287  1.98102678571426 22.6785714285713  1.18861607142852 20.825892857143  C 0.396205357142776 18.9732142857143  0 17.03125  0 15  C 0 12.96875  0.396205357142776 11.0267857142857  1.18861607142852 9.17410714285717  C 1.98102678571426 7.32142857142848  3.046875 5.72544642857152  4.38616071428574 4.38616071428566  C 5.72544642857148 3.046875  7.32142857142852 1.98102678571434  9.17410714285722 1.18861607142848  C 11.0267857142857 0.396205357142828  12.96875 0  15 0  C 17.03125 0  18.9732142857143 0.396205357142828  20.8258928571428 1.18861607142848  C 22.6785714285715 1.98102678571434  24.2745535714285 3.046875  25.6138392857143 4.38616071428566  C 26.953125 5.72544642857152  28.0189732142857 7.32142857142848  28.8113839285715 9.17410714285717  Z " fill-rule="nonzero" fill="#ff0000" stroke="none" transform="matrix(1 0 0 1 399 687 )" />
  </g>
</svg>