<?xml version="1.0" encoding="utf-8"?>
<svg version="1.1" xmlns:xlink="http://www.w3.org/1999/xlink" width="50px" height="30px" xmlns="http://www.w3.org/2000/svg">
  <g transform="matrix(1 0 0 1 -323 -636 )">
    <path d="M 49.9739583333333 14.921875  L 50 15  C 49.9826388888889 15.5555555555556  47.4826388888889 16.3888888888889  42.5 17.5  L 33.3333333333333 18.3333333333333  L 27.5 20  L 25.8333333333333 20  L 18.203125 29.1666666666667  L 20 29.1666666666667  C 20.4513888888889 29.1666666666667  20.8420138888889 29.2057291666667  21.171875 29.2838541666667  C 21.5017361111111 29.3619791666667  21.6666666666667 29.4618055555556  21.6666666666667 29.5833333333333  C 21.6666666666667 29.7048611111111  21.5017361111111 29.8046875  21.171875 29.8828125  C 20.8420138888889 29.9609375  20.4513888888889 30  20 30  L 17.5 30  L 13.3333333333333 30  L 11.6666666666667 30  L 11.6666666666667 29.1666666666667  L 14 29.1666666666667  L 14 18.3333333333333  L 9.16666666666667 18.3333333333333  L 4.16666666666667 24.1666666666667  L 1.66666666666667 24.1666666666667  L 0.833333333333333 23.3333333333333  L 0.833333333333333 18.3333333333333  L 1.66666666666667 18.3333333333333  L 1.66666666666667 17.5  L 5 17.5  L 5 17.2916666666667  L 0 16.6666666666667  L 0 13.3333333333333  L 5 12.7083333333333  L 5 12.5  L 1.66666666666667 12.5  L 1.66666666666667 11.6666666666667  L 0.833333333333333 11.6666666666667  L 0.833333333333333 6.66666666666667  L 1.66666666666667 5.83333333333333  L 4.16666666666667 5.83333333333333  L 9.16666666666667 11.6666666666667  L 14 11.6666666666667  L 14 0.833333333333334  L 11.6666666666667 0.833333333333334  L 11.6666666666667 0  L 13.3333333333333 0  L 17.5 0  L 20 0  C 20.4513888888889 0  20.8420138888889 0.0390625000000011  21.171875 0.1171875  C 21.5017361111111 0.195312499999999  21.6666666666667 0.295138888888887  21.6666666666667 0.416666666666665  C 21.6666666666667 0.53819444444444  21.5017361111111 0.638020833333335  21.171875 0.716145833333334  C 20.8420138888889 0.794270833333333  20.4513888888889 0.833333333333334  20 0.833333333333334  L 18.203125 0.833333333333334  L 25.8333333333333 10  L 27.5 10  L 33.3333333333333 11.6666666666667  L 42.5 12.5  C 47.03125 13.5069444444444  49.5225694444445 14.3142361111111  49.9739583333333 14.921875  Z " fill-rule="nonzero" fill="#009900" stroke="none" transform="matrix(1 0 0 1 323 636 )" />
  </g>
</svg>