<?xml version="1.0" encoding="utf-8"?>
<svg version="1.1" xmlns:xlink="http://www.w3.org/1999/xlink" width="30px" height="30px" xmlns="http://www.w3.org/2000/svg">
  <g transform="matrix(1 0 0 1 -400 -633 )">
    <path d="M 6.66666666666656 19.1796875000001  C 9.03935185185187 17.9296875  11.261574074074 17.2135416666668  13.3333333333334 17.0312499999999  L 13.3333333333334 13.2812499999999  C 11.238425925926 13.4895833333332  9.01620370370367 14.2513020833332  6.66666666666656 15.5664062499999  L 6.66666666666656 19.1796875000001  Z M 6.66666666666656 11.1718749999999  C 9.15509259259266 9.7265625  11.3773148148148 8.95833333333338  13.3333333333334 8.86718750000007  L 13.3333333333334 5.01953124999993  C 11.3425925925926 5.12369791666669  9.12037037037047 5.94401041666669  6.66666666666656 7.48046874999993  L 6.66666666666656 11.1718749999999  Z M 22.6909722222223 19.7070312500001  C 24.0798611111112 19.7070312500001  25.7754629629629 19.1080729166666  27.7777777777779 17.9101562499999  L 27.7777777777779 14.3164062500001  C 25.0578703703705 15.8268229166666  22.8356481481481 16.2890625  21.1111111111111 15.703125  L 21.1111111111111 11.3281250000001  C 20.8796296296295 11.25  20.6539351851851 11.1523437500001  20.4340277777777 11.0351562500001  C 20.3761574074073 10.9960937499999  20.1851851851851 10.8854166666668  19.8611111111112 10.7031249999999  C 19.537037037037 10.5208333333333  19.3373842592592 10.4101562499999  19.2621527777777 10.37109375  C 19.1869212962963 10.3320312500001  19.0046296296295 10.2343749999999  18.7152777777778 10.078125  C 18.4259259259259 9.92187500000007  18.226273148148 9.82096354166662  18.1163194444444 9.77539062500007  C 18.0063657407407 9.72981770833331  17.8182870370371 9.64518229166662  17.5520833333334 9.521484375  C 17.2858796296296 9.39778645833338  17.0775462962963 9.31640625  16.9270833333333 9.27734375000007  C 16.7766203703703 9.23828124999993  16.5740740740741 9.18294270833324  16.3194444444445 9.111328125  C 16.0648148148148 9.03971354166676  15.8362268518519 8.99088541666669  15.6336805555556 8.96484375  C 15.4311342592594 8.93880208333331  15.2025462962963 8.91276041666662  14.9479166666667 8.88671874999993  C 14.693287037037 8.86067708333324  14.4386574074074 8.84765625  14.1840277777779 8.84765625  C 13.9178240740741 8.84765625  13.6342592592593 8.86718750000007  13.3333333333334 8.90625  L 13.3333333333334 13.2421875  L 13.6631944444444 13.2421875  C 14.8437499999999 13.2421875  15.9577546296295 13.4309895833332  17.0052083333334 13.8085937499999  C 18.0526620370371 14.1861979166666  19.1956018518518 14.7200520833332  20.4340277777777 15.41015625  C 20.6539351851851 15.52734375  20.8796296296295 15.6249999999999  21.1111111111111 15.703125  L 21.1111111111111 19.3749999999999  C 21.5972222222222 19.5963541666667  22.1238425925926 19.7070312500001  22.6909722222223 19.7070312500001  Z M 21.1111111111111 11.3281250000001  C 22.8240740740741 11.8749999999999  25.0462962962963 11.2890624999999  27.7777777777779 9.57031250000007  L 27.7777777777779 5.87890625000007  C 25.8217592592593 7.06380208333331  24.0509259259259 7.65624999999993  22.4652777777778 7.65624999999993  C 21.9444444444445 7.65624999999993  21.4930555555556 7.60416666666676  21.1111111111111 7.5  L 21.1111111111111 11.3281250000001  Z M 3.79340277777773 0.732421875  C 4.22743055555555 1.22070312500007  4.44444444444445 1.80989583333338  4.44444444444445 2.49999999999993  C 4.44444444444445 2.95572916666669  4.34317129629633 3.37239583333331  4.14062500000008 3.75  C 3.93807870370359 4.12760416666669  3.66898148148141 4.42708333333331  3.33333333333328 4.64843750000007  L 3.33333333333328 29.3750000000001  C 3.33333333333328 29.5572916666667  3.28125 29.70703125  3.17708333333344 29.82421875  C 3.07291666666664 29.94140625  2.93981481481477 30  2.77777777777781 30  L 1.66666666666664 30  C 1.50462962962969 30  1.37152777777781 29.94140625  1.26736111111102 29.82421875  C 1.16319444444445 29.70703125  1.11111111111117 29.5572916666667  1.11111111111117 29.3750000000001  L 1.11111111111117 4.64843750000007  C 0.775462962963047 4.42708333333331  0.506365740740625 4.12760416666669  0.303819444444375 3.75  C 0.101273148148125 3.37239583333331  0 2.95572916666669  0 2.49999999999993  C 0 1.80989583333338  0.217013888888906 1.22070312500007  0.651041666666719 0.732421875  C 1.08506944444453 0.244140624999933  1.60879629629625 0  2.22222222222211 0  C 2.8356481481482 0  3.35937499999992 0.244140624999933  3.79340277777773 0.732421875  Z M 29.4618055555556 2.67578124999993  C 29.820601851852 2.93619791666662  30 3.29427083333324  30 3.75  L 30 18.6523437500001  C 30 19.16015625  29.7974537037037 19.5312500000001  29.392361111111 19.7656250000001  C 29.2766203703705 19.8307291666667  29.1782407407408 19.8893229166667  29.0972222222222 19.9414062500001  C 26.5740740740741 21.4518229166666  24.4386574074075 22.20703125  22.6909722222223 22.20703125  C 21.6724537037037 22.20703125  20.7581018518519 21.9791666666666  19.9479166666666 21.5234375000001  L 19.4618055555555 21.2499999999999  C 18.7210648148149 20.8203125000001  18.1481481481481 20.5078125  17.7430555555556 20.3124999999999  C 17.3379629629629 20.1171875000001  16.8113425925925 19.9283854166666  16.1631944444445 19.74609375  C 15.5150462962964 19.5638020833334  14.8553240740741 19.4726562500001  14.1840277777779 19.4726562500001  C 13.0034722222221 19.4726562500001  11.6406250000001 19.7591145833332  10.0954861111111 20.33203125  C 8.55034722222211 20.9049479166668  7.22800925925938 21.5690104166666  6.12847222222219 22.32421875  C 5.95486111111102 22.44140625  5.76388888888898 22.5  5.55555555555563 22.5  C 5.37037037037047 22.5  5.18518518518508 22.4479166666666  4.99999999999992 22.3437500000001  C 4.62962962962961 22.0963541666666  4.44444444444445 21.7317708333334  5 21.2499999999999  L 5 6.75781250000007  C 4.44444444444445 6.30208333333331  4.6238425925925 5.94401041666669  4.98263888888883 5.68359375  C 5.38773148148156 5.41015625000007  5.84201388888891 5.13346354166662  6.34548611111109 4.85351562500007  C 6.84895833333328 4.57356770833331  7.50868055555555 4.23502604166676  8.32465277777789 3.837890625  C 9.140625 3.44075520833324  10.023148148148 3.11848958333324  10.9722222222223 2.87109375  C 11.9212962962962 2.62369791666676  12.818287037037 2.49999999999993  13.6631944444444 2.49999999999993  C 14.9594907407407 2.49999999999993  16.1689814814816 2.70182291666662  17.2916666666667 3.10546875  C 18.4143518518519 3.50911458333338  19.6238425925925 4.06901041666669  20.9201388888888 4.78515624999993  C 21.3599537037037 5.03255208333338  21.8749999999999 5.15625  22.4652777777778 5.15625  C 23.8773148148149 5.15625  25.6712962962963 4.42708333333331  27.8472222222223 2.96874999999993  C 28.1018518518518 2.8125  28.2812500000001 2.70182291666662  28.3854166666666 2.63671875  C 28.744212962963 2.42838541666669  29.1030092592593 2.44140624999993  29.4618055555556 2.67578124999993  Z " fill-rule="nonzero" fill="#fefefe" stroke="none" transform="matrix(1 0 0 1 400 633 )" />
  </g>
</svg>