<?xml version="1.0" encoding="utf-8"?>
<svg version="1.1" xmlns:xlink="http://www.w3.org/1999/xlink" width="30px" height="30px" xmlns="http://www.w3.org/2000/svg">
  <g transform="matrix(1 0 0 1 -179 -687 )">
    <path d="M 26.2794012829651 0.299572039942926  C 27.647897362794 -0.156918687589161  28.7027797576622 -0.0713266761769827  29.4440484675695 0.556348074179662  C 30.0712758374911 1.29814550641948  30.1568068424805 2.35378031383742  29.7006414825374 3.72325249643368  C 29.2444761225944 5.09272467902994  28.4746970776907 6.31954350927244  27.3913043478261 7.40370898716117  L 23.9486813970065 10.848787446505  L 27.3699215965788 25.7417974322398  C 27.4411974340698 26.0128388017119  27.3556664290804 26.2482168330955  27.1133285816109 26.4479315263909  L 24.3763364219529 28.5021398002854  C 24.2765502494654 28.5877318116976  24.1411261582323 28.6305278174037  23.9700641482538 28.6305278174037  C 23.9130434782608 28.6305278174037  23.8631503920171 28.623395149786  23.8203848895224 28.6091298145506  C 23.6065573770492 28.5663338088445  23.4568781183178 28.4522111269615  23.3713471133286 28.2667617689015  L 17.4055595153242 17.3965763195436  L 11.8674269422665 22.9386590584879  L 13.0007127583748 27.0898716119829  C 13.0719885958659 27.3323823109843  13.0149679258731 27.5534950071327  12.8296507483963 27.7532097004281  L 10.7769066286529 29.8074179743223  C 10.6486101211688 29.9358059914407  10.4846756949393 30  10.2851033499644 30  L 10.2423378474698 30  C 10.0285103349966 29.9714693295292  9.85744832501778 29.8787446504993  9.72915181753397 29.7218259629102  L 5.68781183178889 24.3295292439373  L 0.299358517462588 20.2853067047076  C 0.142551674982133 20.1854493580598  0.0498930862437192 20.0213980028532  0.0213827512473472 19.793152639087  C 0.00712758374902478 19.6077032810271  0.0712758374910663 19.4293865905848  0.213827512473199 19.2582025677603  L 2.26657163221662 17.1825962910129  C 2.3948681397007 17.0542082738945  2.55880256593018 16.9900142653352  2.75837491090533 16.9900142653352  C 2.84390591589445 16.9900142653352  2.90092658588746 16.9971469329529  2.92943692088384 17.0114122681883  L 7.07769066286537 18.1455064194009  L 12.6158232359231 12.6034236804564  L 1.75338560228083 6.63338088445076  C 1.55381325730568 6.51925820256779  1.4326443335709 6.34807417974323  1.3898788310762 6.11982881597709  C 1.36136849607983 5.89158345221115  1.42551674982187 5.69900142653349  1.58232359230233 5.54208273894433  L 4.31931575196004 2.80313837375181  C 4.51888809693519 2.61768901569185  4.73271560940839 2.56062767475027  4.96079828937991 2.63195435092725  L 19.1803278688524 6.03423680456491  L 22.6015680684247 2.61055634807416  C 23.6849607982893 1.52639087018542  24.910905203136 0.756062767475013  26.2794012829651 0.299572039942926  Z " fill-rule="nonzero" fill="#008000" stroke="none" transform="matrix(1 0 0 1 179 687 )" />
  </g>
</svg>