<?xml version="1.0" encoding="utf-8"?>
<svg version="1.1" xmlns:xlink="http://www.w3.org/1999/xlink" width="50px" height="32px" xmlns="http://www.w3.org/2000/svg">
  <g transform="matrix(1 0 0 1 -239 -634 )">
    <path d="M 39.8207720588235 19  L 14.2463235294118 19  C 12.5612745098039 20.6060606060606  10.5085784313726 21.0909090909091  8.08823529411765 21.0909090909091  L 5.14705882352941 21.0909090909091  L 5.14705882352941 19.6363636363636  L 3.67647058823529 19.6363636363636  C 3.47732843137255 19.6363636363636  3.30499387254902 19.4583333333333  3.15946691176471 19.1022727272727  C 3.01393995098039 18.7462121212121  2.94117647058824 18.3181818181818  2.94117647058824 17.8181818181818  C 2.94117647058824 17.4545454545455  2.99479166666667 17.0833333333333  3.10202205882353 16.7045454545455  C 2.21354166666667 16.6742424242424  1.47441789215686 16.594696969697  0.884650735294118 16.4659090909091  C 0.294883578431373 16.3371212121212  0 16.1818181818182  0 16  C 0 15.8181818181818  0.294883578431373 15.6628787878788  0.884650735294118 15.5340909090909  C 1.47441789215686 15.405303030303  2.21354166666667 15.3257575757576  3.10202205882353 15.2954545454545  C 2.99479166666667 14.9166666666667  2.94117647058824 14.5454545454545  2.94117647058824 14.1818181818182  C 2.94117647058824 13.6818181818182  3.01393995098039 13.2537878787879  3.15946691176471 12.8977272727273  C 3.30499387254902 12.5416666666667  3.47732843137255 12.3636363636364  3.67647058823529 12.3636363636364  L 5.14705882352941 12.3636363636364  L 5.14705882352941 10.9090909090909  L 8.08823529411765 10.9090909090909  C 10.5085784313726 10.9090909090909  12.5612745098039 11.3939393939394  14.2463235294118 13  L 39.8207720588235 13  C 40.4641544117647 12.469696969697  41.2798713235294 12.6060606060606  42.2679227941176 12.7727272727273  C 43.2559742647059 12.9393939393939  43.8725490196078 13.0454545454545  44.1176470588235 13.0909090909091  C 45.4810049019608 13.3181818181818  46.6299019607843 13.625  47.5643382352941 14.0113636363636  C 48.4987745098039 14.3977272727273  49.1383272058824 14.7575757575758  49.4829963235294 15.0909090909091  C 49.8276654411765 15.4242424242424  50 15.7272727272727  50 16  C 50 16.2727272727273  49.8276654411765 16.5757575757576  49.4829963235294 16.9090909090909  C 49.1383272058824 17.2424242424242  48.4987745098039 17.6022727272727  47.5643382352941 17.9886363636364  C 46.6299019607843 18.375  45.4810049019608 18.6818181818182  44.1176470588235 18.9090909090909  C 43.8725490196078 18.9545454545455  43.2559742647059 19.0606060606061  42.2679227941176 19.2272727272727  C 41.2798713235294 19.3939393939394  40.4641544117647 19.530303030303  39.8207720588235 19  Z M 41.8198529411765 13.2272727272727  L 39.9586397058824 13.9090909090909  C 40.7705269607843 14.4545454545455  41.1764705882353 15.1515151515152  41.1764705882353 16  C 41.1764705882353 16.8484848484848  40.7705269607843 17.5454545454545  39.9586397058824 18.0909090909091  L 41.8198529411765 18.7727272727273  C 42.8615196078431 18.0454545454545  43.3823529411765 17.1212121212121  43.3823529411765 16  C 43.3823529411765 14.8787878787879  42.8615196078431 13.9545454545455  41.8198529411765 13.2272727272727  Z M 8.08823529411765 21.4545454545455  C 10.4932598039216 21.4545454545455  12.5842524509804 20.969696969697  14.3612132352941 20  L 37.6838235294118 20  C 34.359681372549 20.5757575757576  30.8670343137255 21.1818181818182  27.2058823529412 21.8181818181818  C 26.3327205882353 21.8181818181818  25.4672181372549 22  24.609375 22.3636363636364  C 23.7515318627451 22.7272727272727  23.1158088235294 23.0909090909091  22.7022058823529 23.4545454545455  L 22.0588235294118 24  L 15.4411764705882 30.5454545454545  C 15.0428921568627 30.9393939393939  14.5029105392157 31.280303030303  13.8212316176471 31.5681818181818  C 13.1395526960784 31.8560606060606  12.4540441176471 32  11.7647058823529 32  L 9.55882352941176 32  L 7.421875 21.4545454545455  L 8.08823529411765 21.4545454545455  Z M 14.3612132352941 12  C 12.5842524509804 11.030303030303  10.4932598039216 10.5454545454545  8.08823529411765 10.5454545454545  L 7.421875 10.5454545454545  L 9.55882352941176 0  L 11.7647058823529 0  C 12.469362745098 0  13.1587009803922 0.143939393939391  13.8327205882353 0.431818181818183  C 14.5067401960784 0.719696969696965  15.0428921568627 1.06060606060606  15.4411764705882 1.45454545454545  L 22.0588235294118 8  C 22.1200980392157 8.06060606060606  22.2043504901961 8.14015151515151  22.3115808823529 8.23863636363636  C 22.4188112745098 8.33712121212121  22.6524203431373 8.51136363636364  23.0124080882353 8.76136363636364  C 23.3723958333333 9.01136363636364  23.7438725490196 9.23106060606061  24.1268382352941 9.42045454545455  C 24.5098039215686 9.60984848484848  24.9808517156863 9.78409090909091  25.5399816176471 9.94318181818182  C 26.0991115196078 10.1022727272727  26.6544117647059 10.1818181818182  27.2058823529412 10.1818181818182  L 37.6838235294118 12  L 14.3612132352941 12  Z " fill-rule="nonzero" fill="#008000" stroke="none" transform="matrix(1 0 0 1 239 634 )" />
  </g>
</svg>