<?xml version="1.0" encoding="utf-8"?>
<svg version="1.1" xmlns:xlink="http://www.w3.org/1999/xlink" width="30px" height="30px" xmlns="http://www.w3.org/2000/svg">
  <g transform="matrix(1 0 0 1 -123 -633 )">
    <path d="M 28.393753485778 0.183946488294379  C 28.7841606246515 -0.0501672240802247  29.1634132738428 -0.039018952062434  29.5315114333519 0.217391304347751  C 29.8996095928611 0.484949832775894  30.0501952035694 0.841694537346695  29.9832682654769 1.28762541806015  L 25.6999442275516 26.9732441471572  C 25.6441717791411 27.2965440356744  25.4656999442275 27.5473801560759  25.1645287228109 27.7257525083612  C 25.0083658672616 27.8149386845039  24.835471277189 27.8595317725752  24.6458449525935 27.8595317725752  C 24.5231455660903 27.8595317725752  24.3892916899051 27.8316610925307  24.2442833240379 27.7759197324414  L 15.4266592303402 24.1806020066889  L 10.4406023424429 29.6488294314381  C 10.2398215281651 29.8829431438127  9.97769102063586 30  9.65421081985494 30  C 9.49804796430567 30  9.36977133296159 29.9777034559643  9.2693809258227 29.9331103678929  C 9.05744562186288 29.8550724637681  8.8901282766314 29.7240802675585  8.76742889012826 29.5401337792641  C 8.64472950362529 29.3561872909699  8.58337981037363 29.1527313266444  8.58337981037363 28.9297658862876  L 8.58337981037363 21.371237458194  L 0.686001115448903 18.1438127090301  C 0.273284997211306 17.9877369007804  0.0501952035694444 17.6811594202898  0.0167317345231481 17.2240802675586  C -0.0167317345231481 16.7892976588629  0.161740100390375 16.4604236343367  0.552147239263888 16.2374581939799  L 28.393753485778 0.183946488294379  Z M 15.5772448410485 21.923076923077  L 23.8092582264362 25.2842809364549  L 27.5069715560513 3.16053511705682  L 3.5136642498606 16.989966555184  L 9.13552704963752 19.2809364548494  L 23.5750139431121 8.59531772575243  L 15.5772448410485 21.923076923077  Z " fill-rule="nonzero" fill="#ff6600" stroke="none" transform="matrix(1 0 0 1 123 633 )" />
  </g>
</svg>