<?xml version="1.0" encoding="utf-8"?>
<svg version="1.1" xmlns:xlink="http://www.w3.org/1999/xlink" width="30px" height="30px" xmlns="http://www.w3.org/2000/svg">
  <g transform="matrix(1 0 0 1 -178 -633 )">
    <path d="M 28.9291689905187 0  C 29.1522587841606 0  29.3530395984383 0.0613839285714919  29.5315114333519 0.184151785714309  C 29.8996095928611 0.452008928571381  30.0501952035694 0.809151785714365  29.9832682654769 1.25558035714293  L 25.6999442275516 26.9698660714286  C 25.6441717791411 27.2935267857144  25.4656999442275 27.5446428571428  25.1645287228109 27.7232142857143  C 25.0083658672616 27.8125000000001  24.835471277189 27.8571428571429  24.6458449525935 27.8571428571429  C 24.5231455660903 27.8571428571429  24.3892916899051 27.8292410714285  24.2442833240379 27.7734375  L 16.664807585053 24.6763392857143  L 12.6157278304518 29.6149553571429  C 12.414947016174 29.8716517857144  12.1416620189626 30  11.7958728388176 30  C 11.6508644729503 30  11.5281650864474 29.9776785714286  11.4277746793085 29.9330357142857  C 11.2158393753487 29.8549107142857  11.0457334076966 29.7237723214286  10.9174567763525 29.5396205357143  C 10.7891801450083 29.35546875  10.7250418293362 29.1517857142857  10.7250418293362 28.9285714285714  L 10.7250418293362 23.0859375  L 25.181260457334 5.35714285714293  L 7.29503625209139 20.8426339285714  L 0.686001115448903 18.1305803571429  C 0.273284997211306 17.9743303571429  0.0501952035694444 17.6674107142857  0.0167317345231481 17.2098214285714  C -0.00557724484110622 16.7633928571428  0.172894590072588 16.4341517857143  0.552147239263888 16.2220982142857  L 28.393753485778 0.150669642857072  C 28.5610708310094 0.0502232142856905  28.739542665923 0  28.9291689905187 0  Z " fill-rule="nonzero" fill="#0033cc" stroke="none" transform="matrix(1 0 0 1 178 633 )" />
  </g>
</svg>