<?xml version="1.0" encoding="utf-8"?>
<svg version="1.1" xmlns:xlink="http://www.w3.org/1999/xlink" width="30px" height="30px" xmlns="http://www.w3.org/2000/svg">
  <g transform="matrix(1 0 0 1 -455 -633 )">
    <path d="M 29.6289062500001 17.1289062500001  C 29.8763020833334 16.8815104166666  30 16.5885416666666  30 16.2500000000001  L 30 13.7499999999999  C 30 11.1328125  29.3587239583333 8.77604166666676  28.0761718750001 6.6796875  C 26.7936197916666 4.58333333333324  25.0097656249999 2.94596354166676  22.7246093749999 1.76757812499993  C 20.4394531249999 0.589192708333311  17.8645833333334 0  15 0  C 12.1354166666666 0  9.56054687500007 0.589192708333311  7.27539062500007 1.76757812499993  C 4.99023437500007 2.94596354166676  3.20638020833336 4.58333333333324  1.92382812499993 6.6796875  C 0.641276041666714 8.77604166666676  0 11.1328125  0 13.7499999999999  L 0 16.2500000000001  C 0 16.5885416666666  0.123697916666572 16.8815104166666  0.371093749999929 17.1289062500001  C 0.618489583333286 17.3763020833333  0.911458333333286 17.4999999999999  1.24999999999993 17.4999999999999  L 8.74999999999993 17.4999999999999  C 9.08854166666657 17.4999999999999  9.38151041666657 17.3763020833333  9.62890624999993 17.1289062500001  C 9.87630208333329 16.8815104166666  10.0000000000001 16.5885416666666  10.0000000000001 16.2500000000001  L 10.0000000000001 13.7499999999999  C 10.0000000000001 13.0729166666666  10.1529947916666 12.4869791666666  10.458984375 11.9921874999999  C 10.7649739583334 11.4973958333332  11.1132812500001 11.1263020833334  11.5039062499999 10.8789062499999  C 11.89453125 10.6315104166667  12.3567708333334 10.4361979166666  12.890625 10.2929687499999  C 13.4244791666666 10.1497395833332  13.8411458333334 10.0651041666668  14.1406249999999 10.0390625000001  C 14.4401041666667 10.0130208333334  14.7265624999999 9.99999999999993  15 9.99999999999993  C 15.2734375000001 9.99999999999993  15.5598958333333 10.0130208333334  15.8593750000001 10.0390625000001  C 16.1588541666666 10.0651041666668  16.5755208333334 10.1497395833332  17.109375 10.2929687499999  C 17.6432291666666 10.4361979166666  18.10546875 10.6315104166667  18.4960937500001 10.8789062499999  C 18.8867187499999 11.1263020833334  19.2350260416666 11.4973958333332  19.541015625 11.9921874999999  C 19.8470052083334 12.4869791666666  19.9999999999999 13.0729166666666  19.9999999999999 13.7499999999999  L 19.9999999999999 16.2500000000001  C 19.9999999999999 16.5885416666666  20.1236979166667 16.8815104166666  20.3710937500001 17.1289062500001  C 20.6184895833334 17.3763020833333  20.9114583333334 17.4999999999999  21.2500000000001 17.4999999999999  L 28.7500000000001 17.4999999999999  C 29.0885416666667 17.4999999999999  29.3815104166667 17.3763020833333  29.6289062500001 17.1289062500001  Z M 9.62890624999993 29.6289062499999  C 9.87630208333329 29.3815104166667  10.0000000000001 29.0885416666667  10.0000000000001 28.7499999999999  L 10.0000000000001 21.2499999999999  C 10.0000000000001 20.9114583333334  9.87630208333329 20.6184895833334  9.62890624999993 20.3710937499999  C 9.38151041666657 20.1236979166667  9.08854166666657 20.0000000000001  8.74999999999993 20.0000000000001  L 1.24999999999993 20.0000000000001  C 0.911458333333286 20.0000000000001  0.618489583333286 20.1236979166667  0.371093749999929 20.3710937499999  C 0.123697916666572 20.6184895833334  0 20.9114583333334  0 21.2499999999999  L 0 28.7499999999999  C 0 29.0885416666667  0.123697916666572 29.3815104166667  0.371093749999929 29.6289062499999  C 0.618489583333286 29.8763020833334  0.911458333333286 30  1.24999999999993 30  L 8.74999999999993 30  C 9.08854166666657 30  9.38151041666657 29.8763020833334  9.62890624999993 29.6289062499999  Z M 29.6289062500001 29.6289062499999  C 29.8763020833334 29.3815104166667  30 29.0885416666667  30 28.7499999999999  L 30 21.2499999999999  C 30 20.9114583333334  29.8763020833334 20.6184895833334  29.6289062500001 20.3710937499999  C 29.3815104166667 20.1236979166667  29.0885416666667 20.0000000000001  28.7500000000001 20.0000000000001  L 21.2500000000001 20.0000000000001  C 20.9114583333334 20.0000000000001  20.6184895833334 20.1236979166667  20.3710937500001 20.3710937499999  C 20.1236979166667 20.6184895833334  19.9999999999999 20.9114583333334  19.9999999999999 21.2499999999999  L 19.9999999999999 28.7499999999999  C 19.9999999999999 29.0885416666667  20.1236979166667 29.3815104166667  20.3710937500001 29.6289062499999  C 20.6184895833334 29.8763020833334  20.9114583333334 30  21.2500000000001 30  L 28.7500000000001 30  C 29.0885416666667 30  29.3815104166667 29.8763020833334  29.6289062500001 29.6289062499999  Z " fill-rule="nonzero" fill="#f1f1f1" stroke="none" transform="matrix(1 0 0 1 455 633 )" />
  </g>
</svg>