<?xml version="1.0" encoding="utf-8"?>
<svg version="1.1" xmlns:xlink="http://www.w3.org/1999/xlink" width="26px" height="30px" xmlns="http://www.w3.org/2000/svg">
  <g transform="matrix(1 0 0 1 -510 -633 )">
    <path d="M 12.0478515625 24.0183423913044  C 12.6826171875 23.5088315217391  13 22.8940217391304  13 22.1739130434782  C 13 21.6847826086956  12.8307291666666 21.2160326086956  12.4921875 20.7676630434782  C 12.4752604166666 20.7540760869566  12.3440755208334 20.6012228260869  12.0986328125 20.3091032608697  C 11.8531901041666 20.0169836956522  11.6373697916666 19.7588315217391  11.451171875 19.5346467391303  C 11.2649739583334 19.3104619565218  11.0533854166666 19.0115489130434  10.81640625 18.6379076086956  C 10.5794270833334 18.2642663043478  10.4016927083334 17.9211956521739  10.283203125 17.6086956521739  C 10.2154947916666 17.391304347826  10.0377604166666 17.2826086956521  9.75 17.2826086956521  C 9.4622395833334 17.2826086956521  9.2845052083334 17.391304347826  9.216796875 17.6086956521739  C 9.0983072916666 17.9211956521739  8.9205729166666 18.2642663043478  8.68359375 18.6379076086956  C 8.4466145833334 19.0115489130434  8.2350260416666 19.3104619565218  8.048828125 19.5346467391303  C 7.8626302083334 19.7588315217391  7.6468098958334 20.0169836956522  7.4013671875 20.3091032608697  C 7.1559244791666 20.6012228260869  7.0247395833334 20.7540760869566  7.0078125 20.7676630434782  C 6.6692708333334 21.2160326086956  6.5 21.6847826086956  6.5 22.1739130434782  C 6.5 22.8940217391304  6.8173828125 23.5088315217391  7.4521484375 24.0183423913044  C 8.0869140625 24.5278532608697  8.8528645833334 24.7826086956521  9.75 24.7826086956521  C 10.6471354166666 24.7826086956521  11.4130859375 24.5278532608697  12.0478515625 24.0183423913044  Z M 23.943359375 13.960597826087  C 25.314453125 15.6861413043478  26 17.5543478260869  26 19.5652173913044  C 26 22.445652173913  24.73046875 24.9048913043479  22.19140625 26.9429347826088  C 19.65234375 28.9809782608697  16.5885416666666 30  13 30  C 9.4114583333334 30  6.34765625 28.9809782608697  3.80859375 26.9429347826088  C 1.26953125 24.9048913043479  0 22.445652173913  0 19.5652173913044  C 0 17.5951086956522  0.685546875 15.7269021739131  2.056640625 13.960597826087  C 2.158203125 13.8383152173912  2.6871744791666 13.2235054347827  3.6435546875 12.1161684782609  C 4.5999348958334 11.0088315217391  5.4547526041666 9.98301630434777  6.2080078125 9.03872282608702  C 6.9612630208334 8.09442934782608  7.8033854166666 6.88519021739129  8.734375 5.41100543478263  C 9.6653645833334 3.93682065217398  10.3678385416666 2.56793478260878  10.841796875 1.30434782608702  C 10.994140625 0.896739130434735  11.2819010416666 0.577445652173918  11.705078125 0.346467391304388  C 12.1282552083334 0.115489130434857  12.5598958333334 0  13 0  C 13.4401041666666 0  13.8759765625 0.115489130434857  14.3076171875 0.346467391304388  C 14.7392578125 0.577445652173918  15.0227864583334 0.896739130434735  15.158203125 1.30434782608702  C 15.6321614583334 2.56793478260878  16.3346354166666 3.93682065217398  17.265625 5.41100543478263  C 18.1966145833334 6.88519021739129  19.0387369791666 8.09442934782608  19.7919921875 9.03872282608702  C 20.5452473958334 9.98301630434777  21.4000651041666 11.0088315217391  22.3564453125 12.1161684782609  C 23.3128255208334 13.2235054347827  23.841796875 13.8383152173912  23.943359375 13.960597826087  Z " fill-rule="nonzero" fill="#3300ff" stroke="none" transform="matrix(1 0 0 1 510 633 )" />
  </g>
</svg>