<?xml version="1.0" encoding="utf-8"?>
<svg version="1.1" xmlns:xlink="http://www.w3.org/1999/xlink" width="30px" height="30px" xmlns="http://www.w3.org/2000/svg">
  <g transform="matrix(1 0 0 1 -122 -687 )">
    <path d="M 25.6877323420076 17.1395167575995  C 25.7001239157372 17.170693686672  25.7063197026022 17.2174590802806  25.7063197026022 17.2798129384256  L 25.7063197026022 28.5035074045207  C 25.7063197026022 28.9088074824629  25.5885997521685 29.2595479345285  25.3531598513011 29.5557287607172  C 25.1177199504337 29.8519095869057  24.8389095415117 30  24.5167286245353 30  L 17.3791821561338 30  L 17.3791821561338 21.0210444271238  L 12.6208178438662 21.0210444271238  L 12.6208178438662 30  L 5.48327137546467 30  C 5.16109045848827 30  4.88228004956628 29.8519095869057  4.64684014869891 29.5557287607172  C 4.41140024783154 29.2595479345285  4.29368029739775 28.9088074824629  4.29368029739775 28.5035074045207  L 4.29368029739775 17.2798129384256  C 4.29368029739775 17.2642244738895  4.29677819083027 17.2408417770849  4.3029739776951 17.2096648480124  C 4.30916976456013 17.1784879189399  4.31226765799245 17.1551052221355  4.31226765799245 17.1395167575995  L 15 6.05611847233035  L 25.6877323420076 17.1395167575995  Z M 29.9814126394051 15.1169134840219  C 29.9938042131352 15.3273577552612  29.9504337050806 15.510522213562  29.8513011152417 15.6664068589244  L 28.6988847583643 17.3967264224473  C 28.5997521685254 17.5370226032735  28.4696406443618 17.6227591582231  28.3085501858738 17.6539360872956  L 28.2527881040893 17.6539360872956  C 28.0916976456009 17.6539360872956  27.9615861214373 17.5993764614185  27.8624535315984 17.4902572096649  L 15 3.99844115354654  L 2.13754646840163 17.4902572096649  C 1.98884758364309 17.6149649259548  1.84014869888475 17.6695245518317  1.69144981412641 17.6539360872956  C 1.53035935563821 17.6227591582231  1.40024783147456 17.5370226032735  1.30111524163567 17.3967264224473  L 0.148698884758339 15.6664068589244  C 0.0495662949194465 15.510522213562  0.0061957868648305 15.3273577552612  0.0185873605948927 15.1169134840219  C 0.0309789343247544 14.9064692127826  0.099132589838893 14.738893219018  0.22304832713771 14.6141855027281  L 13.5873605947956 0.607950116913495  C 13.9838909541511 0.202650038971039  14.4547707558861 0  15 0  C 15.5452292441139 0  16.0161090458489 0.202650038971039  16.4126394052044 0.607950116913495  L 20.9479553903346 5.37802026500401  L 20.9479553903346 0.818394388152797  C 20.9479553903346 0.600155884645422  21.0037174721191 0.420888542478603  21.1152416356878 0.280592361652528  C 21.2267657992564 0.140296180826075  21.3692688971499 0.0701480904132268  21.5427509293679 0.0701480904132268  L 25.1115241635687 0.0701480904132268  C 25.2850061957869 0.0701480904132268  25.4275092936803 0.140296180826075  25.539033457249 0.280592361652528  C 25.650557620818 0.420888542478603  25.7063197026022 0.600155884645422  25.7063197026022 0.818394388152797  L 25.7063197026022 10.3585346843336  L 29.7769516728623 14.6141855027281  C 29.9008674101611 14.738893219018  29.9690210656752 14.9064692127826  29.9814126394051 15.1169134840219  Z " fill-rule="nonzero" fill="#0033cc" stroke="none" transform="matrix(1 0 0 1 122 687 )" />
  </g>
</svg>