<?xml version="1.0" encoding="utf-8"?>
<svg version="1.1" xmlns:xlink="http://www.w3.org/1999/xlink" width="30px" height="30px" xmlns="http://www.w3.org/2000/svg">
  <g transform="matrix(1 0 0 1 -610 -633 )">
    <path d="M 20.4157366071428 1.01283482142865  C 22.1177455357142 1.67689732142853  23.6439732142858 2.61160714285712  24.9944196428572 3.81696428571423  C 23.1529017857143 2.58928571428564  21.1495535714286 1.97544642857135  18.984375 1.97544642857135  C 17.2544642857142 1.97544642857135  15.6194196428572 2.38281249999994  14.0792410714285 3.19754464285712  C 12.5390625 4.01227678571429  11.1997767857143 5.12834821428571  10.0613839285715 6.54575892857135  C 9.22433035714283 7.58370535714288  8.55747767857139 8.80022321428564  8.06082589285717 10.1953125  C 7.56417410714278 11.5904017857144  7.29352678571422 13.0747767857142  7.2488839285715 14.6484375  L 7.2488839285715 15.3515625  C 7.29352678571422 16.9252232142858  7.56417410714278 18.4095982142856  8.06082589285717 19.8046875  C 8.55747767857139 21.1997767857144  9.22433035714283 22.4162946428571  10.0613839285715 23.4542410714287  C 11.1997767857143 24.8716517857143  12.5390625 25.9877232142857  14.0792410714285 26.8024553571429  C 15.6194196428572 27.6171875000001  17.2544642857142 28.0245535714287  18.984375 28.0245535714287  C 21.1495535714286 28.0245535714287  23.1529017857143 27.4107142857144  24.9944196428572 26.1830357142858  C 23.6439732142858 27.3883928571429  22.1121651785714 28.3258928571429  20.3989955357143 28.9955357142858  C 18.6858258928572 29.6651785714287  16.8861607142857 30  15 30  C 14.6763392857142 30  14.4363839285714 29.9944196428572  14.2801339285715 29.9832589285713  C 12.3270089285714 29.8939732142856  10.4687499999999 29.4363839285715  8.70535714285717 28.6104910714287  C 6.94196428571422 27.7845982142856  5.42410714285717 26.7075892857144  4.15178571428567 25.3794642857142  C 2.87946428571433 24.0513392857143  1.86941964285722 22.4832589285713  1.12165178571433 20.6752232142858  C 0.373883928571445 18.8671875  0 16.9754464285713  0 15  C 0 12.9687500000001  0.39620535714289 11.0267857142856  1.1886160714285 9.17410714285712  C 1.98102678571428 7.32142857142859  3.046875 5.72544642857135  4.38616071428567 4.38616071428577  C 5.7254464285715 3.046875  7.32142857142861 1.98102678571436  9.17410714285717 1.18861607142865  C 11.0267857142857 0.396205357142945  12.9687500000001 0  15 0  L 15.0502232142857 0  C 16.9252232142857 0.0111607142856441  18.7137276785714 0.348772321428589  20.4157366071428 1.01283482142865  Z M 28.7360491071428 8.95647321428577  C 29.5786830357143 10.8537946428571  30 12.8683035714285  30 15  C 30 17.1428571428571  29.5703124999999 19.1657366071428  28.7109375 21.0686383928571  C 27.8515625000001 22.9715401785714  26.6629464285714 24.6261160714287  25.1450892857143 26.0323660714287  C 23.9843750000001 26.7354910714287  22.7455357142857 27.0870535714287  21.4285714285715 27.0870535714287  C 19.8995535714286 27.0870535714287  18.4765625000001 26.6183035714287  17.1595982142857 25.6808035714287  C 18.8783482142857 25.0558035714285  20.2929687500001 23.7555803571429  21.4034598214285 21.7801339285713  C 22.5139508928571 19.8046875  23.0691964285715 17.5446428571429  23.0691964285715 15  C 23.0691964285715 12.4665178571429  22.5167410714285 10.2120535714287  21.4118303571428 8.23660714285712  C 20.3069196428572 6.26116071428577  18.8950892857142 4.95535714285712  17.1763392857143 4.31919642857135  C 18.5044642857143 3.39285714285718  19.921875 2.9296875  21.4285714285715 2.9296875  C 22.7566964285714 2.9296875  24.0178571428572 3.29241071428564  25.2120535714285 4.01785714285712  C 26.71875 5.41294642857147  27.8934151785714 7.05915178571429  28.7360491071428 8.95647321428577  Z " fill-rule="nonzero" fill="#3366cc" stroke="none" transform="matrix(1 0 0 1 610 633 )" />
  </g>
</svg>