<?xml version="1.0" encoding="utf-8"?>
<svg version="1.1" xmlns:xlink="http://www.w3.org/1999/xlink" width="30px" height="30px" xmlns="http://www.w3.org/2000/svg">
  <g transform="matrix(1 0 0 1 -508 -687 )">
    <path d="M 12.0368303571429 19.2857142857142  L 10.1953125 13.6607142857142  L 15 10.1785714285713  L 19.8046875 13.6607142857142  L 17.9799107142857 19.2857142857142  L 12.0368303571429 19.2857142857142  Z M 9.17410714285714 1.18861607142872  C 11.0267857142857 0.396205357142907  12.96875 0  15 0  C 17.03125 0  18.9732142857143 0.396205357142907  20.8258928571429 1.18861607142872  C 22.6785714285715 1.98102678571419  24.2745535714286 3.046875  25.6138392857143 4.38616071428581  C 26.953125 5.72544642857128  28.0189732142857 7.32142857142872  28.8113839285714 9.17410714285709  C 29.6037946428571 11.0267857142858  30 12.96875  30 15  C 30 17.03125  29.6037946428571 18.9732142857142  28.8113839285714 20.8258928571429  C 28.0189732142857 22.6785714285713  26.953125 24.2745535714287  25.6138392857143 25.6138392857142  C 24.2745535714286 26.953125  22.6785714285715 28.0189732142858  20.8258928571429 28.8113839285713  C 18.9732142857143 29.6037946428571  17.03125 30  15 30  C 12.96875 30  11.0267857142857 29.6037946428571  9.17410714285714 28.8113839285713  C 7.32142857142854 28.0189732142858  5.72544642857143 26.953125  4.38616071428571 25.6138392857142  C 3.046875 24.2745535714287  1.98102678571425 22.6785714285713  1.18861607142857 20.8258928571429  C 0.39620535714289 18.9732142857142  0 17.03125  0 15  C 0 12.96875  0.39620535714289 11.0267857142858  1.18861607142857 9.17410714285709  C 1.98102678571425 7.32142857142872  3.046875 5.72544642857128  4.38616071428571 4.38616071428581  C 5.72544642857143 3.046875  7.32142857142854 1.98102678571419  9.17410714285714 1.18861607142872  Z M 24.8604910714286 20.390625  L 25.3627232142857 22.6004464285713  C 27.0256696428571 20.3348214285713  27.8571428571429 17.8013392857142  27.8571428571429 15  L 27.8571428571429 14.9497767857142  L 26.1495535714286 16.4397321428571  L 22.1316964285714 12.6897321428571  L 23.1863839285714 7.28236607142872  L 25.4296875 7.48325892857128  C 23.7555803571429 5.18415178571419  21.5848214285714 3.61049107142872  18.9174107142857 2.76227678571419  L 19.8046875 4.83816964285709  L 15 7.5  L 10.1953125 4.83816964285709  L 11.0825892857143 2.76227678571419  C 8.4151785714286 3.61049107142872  6.24441964285714 5.18415178571419  4.5703125 7.48325892857128  L 6.83035714285714 7.28236607142872  L 7.86830357142857 12.6897321428571  L 3.85044642857143 16.4397321428571  L 2.14285714285714 14.9497767857142  L 2.14285714285714 15  C 2.14285714285714 17.8013392857142  2.97433035714289 20.3348214285713  4.63727678571429 22.6004464285713  L 5.13950892857143 20.390625  L 10.5970982142857 21.0602678571429  L 12.9241071428571 26.0491071428571  L 10.9821428571429 27.2042410714287  C 12.2879464285714 27.6395089285713  13.6272321428571 27.8571428571429  15 27.8571428571429  C 16.3727678571429 27.8571428571429  17.7120535714286 27.6395089285713  19.0178571428571 27.2042410714287  L 17.0758928571429 26.0491071428571  L 19.4029017857143 21.0602678571429  L 24.8604910714286 20.390625  Z " fill-rule="nonzero" fill="#009900" stroke="none" transform="matrix(1 0 0 1 508 687 )" />
  </g>
</svg>