<?xml version="1.0" encoding="utf-8"?>
<svg version="1.1" xmlns:xlink="http://www.w3.org/1999/xlink" width="45px" height="45px" xmlns="http://www.w3.org/2000/svg">
  <g transform="matrix(1 0 0 1 -16 -134 )">
    <path d="M 38.5 135  C 50.54 135  60 144.46  60 156.5  C 60 168.54  50.54 178  38.5 178  C 26.46 178  17 168.54  17 156.5  C 17 144.46  26.46 135  38.5 135  Z " fill-rule="nonzero" fill="#41699a" stroke="none" fill-opacity="0" />
    <path d="M 38.5 135  C 50.54 135  60 144.46  60 156.5  C 60 168.54  50.54 178  38.5 178  C 26.46 178  17 168.54  17 156.5  C 17 144.46  26.46 135  38.5 135  Z " stroke-width="2" stroke="#333399" fill="none" />
  </g>
</svg>