<?xml version="1.0" encoding="utf-8"?>
<svg version="1.1" xmlns:xlink="http://www.w3.org/1999/xlink" width="35px" height="56px" xmlns="http://www.w3.org/2000/svg">
  <defs>
    <filter x="43px" y="687px" width="35px" height="56px" filterUnits="userSpaceOnUse" id="filter52">
      <feOffset dx="5" dy="5" in="SourceAlpha" result="shadowOffsetInner" />
      <feGaussianBlur stdDeviation="2.5" in="shadowOffsetInner" result="shadowGaussian" />
      <feComposite in2="shadowGaussian" operator="atop" in="SourceAlpha" result="shadowComposite" />
      <feColorMatrix type="matrix" values="0 0 0 0 1  0 0 0 0 1  0 0 0 0 1  0 0 0 0.349019607843137 0  " in="shadowComposite" />
    </filter>
    <g id="widget53">
      <path d="M 23.6328125 14.0090909090909  C 24.5442708333333 14.9848484848485  25 16.169696969697  25 17.5636363636364  L 25 28.4363636363636  C 25 29.1333333333333  24.7721354166667 29.7257575757576  24.31640625 30.2136363636364  C 23.8606770833333 30.7015151515152  23.3072916666667 30.9454545454545  22.65625 30.9454545454545  C 22.0052083333333 30.9454545454545  21.4518229166667 30.7015151515152  20.99609375 30.2136363636364  C 20.5403645833333 29.7257575757576  20.3125 29.1333333333333  20.3125 28.4363636363636  L 20.3125 19.2363636363636  L 18.75 19.2363636363636  L 18.75 43.0727272727273  C 18.75 43.8742424242424  18.4814453125 44.5625  17.9443359375 45.1375  C 17.4072265625 45.7125  16.7643229166667 46  16.015625 46  C 15.2669270833333 46  14.6240234375 45.7125  14.0869140625 45.1375  C 13.5498046875 44.5625  13.28125 43.8742424242424  13 43.0727272727273  L 13 30.9454545454545  L 12 30.9454545454545  L 12 43.0727272727273  C 11.71875 43.8742424242424  11.4501953125 44.5625  10.9130859375 45.1375  C 10.3759765625 45.7125  9.73307291666667 46  8.984375 46  C 8.23567708333333 46  7.5927734375 45.7125  7.0556640625 45.1375  C 6.5185546875 44.5625  6.25 43.8742424242424  6.25 43.0727272727273  L 6.25 19.2363636363636  L 4.6875 19.2363636363636  L 4.6875 28.4363636363636  C 4.6875 29.1333333333333  4.45963541666667 29.7257575757576  4.00390625 30.2136363636364  C 3.54817708333333 30.7015151515152  2.99479166666667 30.9454545454545  2.34375 30.9454545454545  C 1.69270833333333 30.9454545454545  1.13932291666667 30.7015151515152  0.68359375 30.2136363636364  C 0.227864583333333 29.7257575757576  0 29.1333333333333  0 28.4363636363636  L 0 17.5636363636364  C 0 16.169696969697  0.455729166666667 14.9848484848485  1.3671875 14.0090909090909  C 2.27864583333333 13.0333333333333  3.38541666666667 12.5454545454545  4.6875 13  L 20.3125 13  C 21.6145833333333 12.5454545454545  22.7213541666667 13.0333333333333  23.6328125 14.0090909090909  Z M 16.36962890625 1.71193181818182  C 17.4357096354167 2.85321969696969  17.96875 4.23409090909091  17.96875 5.85454545454546  C 17.96875 7.475  17.4357096354167 8.85587121212121  16.36962890625 9.99715909090909  C 15.3035481770833 11.138446969697  14.013671875 11.7090909090909  12.5 11.7090909090909  C 10.986328125 11.7090909090909  9.69645182291667 11.138446969697  8.63037109375 9.99715909090909  C 7.56429036458333 8.85587121212121  7.03125 7.475  7.03125 5.85454545454546  C 7.03125 4.23409090909091  7.56429036458333 2.85321969696969  8.63037109375 1.71193181818182  C 9.69645182291667 0.570643939393936  10.986328125 0  12.5 0  C 14.013671875 0  15.3035481770833 0.570643939393936  16.36962890625 1.71193181818182  Z " fill-rule="nonzero" fill="#000066" stroke="none" transform="matrix(1 0 0 1 43 687 )" />
    </g>
  </defs>
  <g transform="matrix(1 0 0 1 -43 -687 )">
    <use xlink:href="#widget53" filter="url(#filter52)" />
    <use xlink:href="#widget53" />
  </g>
</svg>