<?xml version="1.0" encoding="utf-8"?>
<svg version="1.1" xmlns:xlink="http://www.w3.org/1999/xlink" width="12px" height="12px" viewBox="417 577.5  12 12" xmlns="http://www.w3.org/2000/svg">
  <path d="M 423 577.5  C 426.36 577.5  429 580.14  429 583.5  C 429 586.86  426.36 589.5  423 589.5  C 419.64 589.5  417 586.86  417 583.5  C 417 580.14  419.64 577.5  423 577.5  Z " fill-rule="nonzero" fill="#ffffff" stroke="none" />
  <path d="M 423 578  C 426.08 578  428.5 580.42  428.5 583.5  C 428.5 586.58  426.08 589  423 589  C 419.92 589  417.5 586.58  417.5 583.5  C 417.5 580.42  419.92 578  423 578  Z " stroke-width="1" stroke="#797979" fill="none" />
  <path d="M 423 586.5  C 421.32 586.5  420 585.18  420 583.5  C 420 581.82  421.32 580.5  423 580.5  C 424.68 580.5  426 581.82  426 583.5  C 426 585.18  424.68 586.5  423 586.5  " fill-rule="nonzero" fill="#797979" stroke="none" />
</svg>