<?xml version="1.0" encoding="utf-8"?>
<svg version="1.1" xmlns:xlink="http://www.w3.org/1999/xlink" width="15px" height="15px" xmlns="http://www.w3.org/2000/svg">
  <g transform="matrix(1 0 0 1 -73 -161 )">
    <path d="M 7.86830357142857 14.82421875  C 7.76785714285714 14.94140625  7.64508928571429 15  7.5 15  C 7.35491071428571 15  7.23214285714286 14.94140625  7.13169642857143 14.82421875  L 1.90848214285714 8.9453125  C 1.85267857142857 8.89322916666667  1.77594866071429 8.80859375  1.67829241071429 8.69140625  C 1.58063616071429 8.57421875  1.42578125 8.36100260416667  1.21372767857143 8.0517578125  C 1.00167410714286 7.74251302083333  0.811941964285714 7.42513020833333  0.64453125 7.099609375  C 0.477120535714286 6.77408854166667  0.327845982142857 6.38020833333333  0.196707589285714 5.91796875  C 0.0655691964285714 5.45572916666667  0 5.00651041666667  0 4.5703125  C 0 3.13802083333333  0.354352678571428 2.01822916666667  1.06305803571429 1.2109375  C 1.77176339285714 0.403645833333333  2.75111607142857 0  4.00111607142857 0  C 4.34709821428571 0  4.70005580357143 0.0699869791666657  5.05998883928571 0.209960937500001  C 5.419921875 0.349934895833332  5.75474330357143 0.538736979166666  6.064453125 0.7763671875  C 6.37416294642857 1.01399739583333  6.640625 1.23697916666667  6.86383928571429 1.4453125  C 7.08705357142857 1.65364583333333  7.29910714285714 1.875  7.5 2.109375  C 7.70089285714286 1.875  7.91294642857143 1.65364583333333  8.13616071428572 1.4453125  C 8.359375 1.23697916666667  8.62583705357143 1.01399739583333  8.935546875 0.7763671875  C 9.24525669642857 0.538736979166666  9.580078125 0.349934895833332  9.94001116071428 0.209960937500001  C 10.2999441964286 0.0699869791666657  10.6529017857143 0  10.9988839285714 0  C 12.2488839285714 0  13.2282366071429 0.403645833333333  13.9369419642857 1.2109375  C 14.6456473214286 2.01822916666667  15 3.13802083333333  15 4.5703125  C 15 6.00911458333333  14.3610491071429 7.47395833333333  13.0831473214286 8.96484375  L 7.86830357142857 14.82421875  Z " fill-rule="nonzero" fill="#ff0000" stroke="none" transform="matrix(1 0 0 1 73 161 )" />
  </g>
</svg>