<?xml version="1.0" encoding="utf-8"?>
<svg version="1.1" xmlns:xlink="http://www.w3.org/1999/xlink" width="12px" height="12px" viewBox="307 402  12 12" xmlns="http://www.w3.org/2000/svg">
  <path d="M 313 402  C 316.36 402  319 404.64  319 408  C 319 411.36  316.36 414  313 414  C 309.64 414  307 411.36  307 408  C 307 404.64  309.64 402  313 402  Z " fill-rule="nonzero" fill="#ffffff" stroke="none" />
  <path d="M 313 402.5  C 316.08 402.5  318.5 404.92  318.5 408  C 318.5 411.08  316.08 413.5  313 413.5  C 309.92 413.5  307.5 411.08  307.5 408  C 307.5 404.92  309.92 402.5  313 402.5  Z " stroke-width="1" stroke="#797979" fill="none" />
  <path d="M 313 411  C 311.32 411  310 409.68  310 408  C 310 406.32  311.32 405  313 405  C 314.68 405  316 406.32  316 408  C 316 409.68  314.68 411  313 411  " fill-rule="nonzero" fill="#797979" stroke="none" />
</svg>