<?xml version="1.0" encoding="utf-8"?>
<svg version="1.1" xmlns:xlink="http://www.w3.org/1999/xlink" width="12px" height="12px" viewBox="418 603.5  12 12" xmlns="http://www.w3.org/2000/svg">
  <path d="M 424 603.5  C 427.36 603.5  430 606.14  430 609.5  C 430 612.86  427.36 615.5  424 615.5  C 420.64 615.5  418 612.86  418 609.5  C 418 606.14  420.64 603.5  424 603.5  Z " fill-rule="nonzero" fill="#ffffff" stroke="none" />
  <path d="M 424 604  C 427.08 604  429.5 606.42  429.5 609.5  C 429.5 612.58  427.08 615  424 615  C 420.92 615  418.5 612.58  418.5 609.5  C 418.5 606.42  420.92 604  424 604  Z " stroke-width="1" stroke="#797979" fill="none" />
  <path d="M 424 612.5  C 422.32 612.5  421 611.18  421 609.5  C 421 607.82  422.32 606.5  424 606.5  C 425.68 606.5  427 607.82  427 609.5  C 427 611.18  425.68 612.5  424 612.5  " fill-rule="nonzero" fill="#797979" stroke="none" />
</svg>