<?xml version="1.0" encoding="utf-8"?>
<svg version="1.1" xmlns:xlink="http://www.w3.org/1999/xlink" width="12px" height="12px" viewBox="567 602.5  12 12" xmlns="http://www.w3.org/2000/svg">
  <path d="M 573 602.5  C 576.36 602.5  579 605.14  579 608.5  C 579 611.86  576.36 614.5  573 614.5  C 569.64 614.5  567 611.86  567 608.5  C 567 605.14  569.64 602.5  573 602.5  Z " fill-rule="nonzero" fill="#ffffff" stroke="none" />
  <path d="M 573 603  C 576.08 603  578.5 605.42  578.5 608.5  C 578.5 611.58  576.08 614  573 614  C 569.92 614  567.5 611.58  567.5 608.5  C 567.5 605.42  569.92 603  573 603  Z " stroke-width="1" stroke="#797979" fill="none" />
  <path d="M 573 611.5  C 571.32 611.5  570 610.18  570 608.5  C 570 606.82  571.32 605.5  573 605.5  C 574.68 605.5  576 606.82  576 608.5  C 576 610.18  574.68 611.5  573 611.5  " fill-rule="nonzero" fill="#797979" stroke="none" />
</svg>