<?xml version="1.0" encoding="utf-8"?>
<svg version="1.1" xmlns:xlink="http://www.w3.org/1999/xlink" width="12px" height="12px" viewBox="417 535.5  12 12" xmlns="http://www.w3.org/2000/svg">
  <path d="M 423 535.5  C 426.36 535.5  429 538.14  429 541.5  C 429 544.86  426.36 547.5  423 547.5  C 419.64 547.5  417 544.86  417 541.5  C 417 538.14  419.64 535.5  423 535.5  Z " fill-rule="nonzero" fill="#ffffff" stroke="none" />
  <path d="M 423 536  C 426.08 536  428.5 538.42  428.5 541.5  C 428.5 544.58  426.08 547  423 547  C 419.92 547  417.5 544.58  417.5 541.5  C 417.5 538.42  419.92 536  423 536  Z " stroke-width="1" stroke="#797979" fill="none" />
  <path d="M 423 544.5  C 421.32 544.5  420 543.18  420 541.5  C 420 539.82  421.32 538.5  423 538.5  C 424.68 538.5  426 539.82  426 541.5  C 426 543.18  424.68 544.5  423 544.5  " fill-rule="nonzero" fill="#797979" stroke="none" />
</svg>