<?xml version="1.0" encoding="utf-8"?>
<svg version="1.1" xmlns:xlink="http://www.w3.org/1999/xlink" width="12px" height="12px" viewBox="394 383.5  12 12" xmlns="http://www.w3.org/2000/svg">
  <path d="M 400 383.5  C 403.36 383.5  406 386.14  406 389.5  C 406 392.86  403.36 395.5  400 395.5  C 396.64 395.5  394 392.86  394 389.5  C 394 386.14  396.64 383.5  400 383.5  Z " fill-rule="nonzero" fill="#ffffff" stroke="none" />
  <path d="M 400 384  C 403.08 384  405.5 386.42  405.5 389.5  C 405.5 392.58  403.08 395  400 395  C 396.92 395  394.5 392.58  394.5 389.5  C 394.5 386.42  396.92 384  400 384  Z " stroke-width="1" stroke="#797979" fill="none" />
  <path d="M 400 392.5  C 398.32 392.5  397 391.18  397 389.5  C 397 387.82  398.32 386.5  400 386.5  C 401.68 386.5  403 387.82  403 389.5  C 403 391.18  401.68 392.5  400 392.5  " fill-rule="nonzero" fill="#797979" stroke="none" />
</svg>