<?xml version="1.0" encoding="utf-8"?>
<svg version="1.1" xmlns:xlink="http://www.w3.org/1999/xlink" width="12px" height="12px" viewBox="154 383.5  12 12" xmlns="http://www.w3.org/2000/svg">
  <path d="M 160 383.5  C 163.36 383.5  166 386.14  166 389.5  C 166 392.86  163.36 395.5  160 395.5  C 156.64 395.5  154 392.86  154 389.5  C 154 386.14  156.64 383.5  160 383.5  Z " fill-rule="nonzero" fill="#ffffff" stroke="none" />
  <path d="M 160 384  C 163.08 384  165.5 386.42  165.5 389.5  C 165.5 392.58  163.08 395  160 395  C 156.92 395  154.5 392.58  154.5 389.5  C 154.5 386.42  156.92 384  160 384  Z " stroke-width="1" stroke="#797979" fill="none" />
  <path d="M 160 392.5  C 158.32 392.5  157 391.18  157 389.5  C 157 387.82  158.32 386.5  160 386.5  C 161.68 386.5  163 387.82  163 389.5  C 163 391.18  161.68 392.5  160 392.5  " fill-rule="nonzero" fill="#797979" stroke="none" />
</svg>