<?xml version="1.0" encoding="utf-8"?>
<svg version="1.1" xmlns:xlink="http://www.w3.org/1999/xlink" width="12px" height="12px" viewBox="239 446  12 12" xmlns="http://www.w3.org/2000/svg">
  <path d="M 245 446  C 248.36 446  251 448.64  251 452  C 251 455.36  248.36 458  245 458  C 241.64 458  239 455.36  239 452  C 239 448.64  241.64 446  245 446  Z " fill-rule="nonzero" fill="#ffffff" stroke="none" />
  <path d="M 245 446.5  C 248.08 446.5  250.5 448.92  250.5 452  C 250.5 455.08  248.08 457.5  245 457.5  C 241.92 457.5  239.5 455.08  239.5 452  C 239.5 448.92  241.92 446.5  245 446.5  Z " stroke-width="1" stroke="#797979" fill="none" />
  <path d="M 245 455  C 243.32 455  242 453.68  242 452  C 242 450.32  243.32 449  245 449  C 246.68 449  248 450.32  248 452  C 248 453.68  246.68 455  245 455  " fill-rule="nonzero" fill="#797979" stroke="none" />
</svg>