<?xml version="1.0" encoding="utf-8"?>
<svg version="1.1" xmlns:xlink="http://www.w3.org/1999/xlink" width="12px" height="12px" viewBox="53 446  12 12" xmlns="http://www.w3.org/2000/svg">
  <path d="M 59 446  C 62.36 446  65 448.64  65 452  C 65 455.36  62.36 458  59 458  C 55.64 458  53 455.36  53 452  C 53 448.64  55.64 446  59 446  Z " fill-rule="nonzero" fill="#ffffff" stroke="none" />
  <path d="M 59 446.5  C 62.08 446.5  64.5 448.92  64.5 452  C 64.5 455.08  62.08 457.5  59 457.5  C 55.92 457.5  53.5 455.08  53.5 452  C 53.5 448.92  55.92 446.5  59 446.5  Z " stroke-width="1" stroke="#797979" fill="none" />
  <path d="M 59 455  C 57.32 455  56 453.68  56 452  C 56 450.32  57.32 449  59 449  C 60.68 449  62 450.32  62 452  C 62 453.68  60.68 455  59 455  " fill-rule="nonzero" fill="#797979" stroke="none" />
</svg>