<?xml version="1.0" encoding="utf-8"?>
<svg version="1.1" xmlns:xlink="http://www.w3.org/1999/xlink" width="12px" height="12px" viewBox="239 478  12 12" xmlns="http://www.w3.org/2000/svg">
  <path d="M 245 478  C 248.36 478  251 480.64  251 484  C 251 487.36  248.36 490  245 490  C 241.64 490  239 487.36  239 484  C 239 480.64  241.64 478  245 478  Z " fill-rule="nonzero" fill="#ffffff" stroke="none" />
  <path d="M 245 478.5  C 248.08 478.5  250.5 480.92  250.5 484  C 250.5 487.08  248.08 489.5  245 489.5  C 241.92 489.5  239.5 487.08  239.5 484  C 239.5 480.92  241.92 478.5  245 478.5  Z " stroke-width="1" stroke="#797979" fill="none" />
  <path d="M 245 487  C 243.32 487  242 485.68  242 484  C 242 482.32  243.32 481  245 481  C 246.68 481  248 482.32  248 484  C 248 485.68  246.68 487  245 487  " fill-rule="nonzero" fill="#797979" stroke="none" />
</svg>