<?xml version="1.0" encoding="utf-8"?>
<svg version="1.1" xmlns:xlink="http://www.w3.org/1999/xlink" width="12px" height="12px" viewBox="53 478  12 12" xmlns="http://www.w3.org/2000/svg">
  <path d="M 59 478  C 62.36 478  65 480.64  65 484  C 65 487.36  62.36 490  59 490  C 55.64 490  53 487.36  53 484  C 53 480.64  55.64 478  59 478  Z " fill-rule="nonzero" fill="#ffffff" stroke="none" />
  <path d="M 59 478.5  C 62.08 478.5  64.5 480.92  64.5 484  C 64.5 487.08  62.08 489.5  59 489.5  C 55.92 489.5  53.5 487.08  53.5 484  C 53.5 480.92  55.92 478.5  59 478.5  Z " stroke-width="1" stroke="#797979" fill="none" />
  <path d="M 59 487  C 57.32 487  56 485.68  56 484  C 56 482.32  57.32 481  59 481  C 60.68 481  62 482.32  62 484  C 62 485.68  60.68 487  59 487  " fill-rule="nonzero" fill="#797979" stroke="none" />
</svg>