<?xml version="1.0" encoding="utf-8"?>
<svg version="1.1" xmlns:xlink="http://www.w3.org/1999/xlink" width="15px" height="15px" xmlns="http://www.w3.org/2000/svg">
  <g transform="matrix(1 0 0 1 -73 -160 )">
    <path d="M 12.3549107142857 8.046875  C 13.4040178571429 6.82291666666667  13.9285714285714 5.6640625  13.9285714285714 4.5703125  C 13.9285714285714 4.04296875  13.8685825892857 3.57747395833333  13.7486049107143 3.173828125  C 13.6286272321429 2.77018229166666  13.4751674107143 2.44954427083333  13.2882254464286 2.2119140625  C 13.1012834821429 1.97428385416667  12.8738839285714 1.78059895833333  12.6060267857143 1.630859375  C 12.3381696428571 1.48111979166666  12.0758928571429 1.38020833333333  11.8191964285714 1.328125  C 11.5625 1.27604166666666  11.2890625 1.25  10.9988839285714 1.25  C 10.7087053571429 1.25  10.3962053571429 1.3330078125  10.0613839285714 1.4990234375  C 9.7265625 1.6650390625  9.41824776785714 1.87337239583333  9.13643973214286 2.1240234375  C 8.85463169642857 2.37467447916666  8.61328125 2.60904947916666  8.41238839285714 2.8271484375  C 8.21149553571429 3.04524739583333  8.04408482142857 3.24544270833333  7.91015625 3.427734375  C 7.80970982142857 3.57096354166667  7.67299107142857 3.642578125  7.5 3.642578125  C 7.32700892857143 3.642578125  7.19029017857143 3.57096354166667  7.08984375 3.427734375  C 6.95591517857143 3.24544270833333  6.78850446428571 3.04524739583333  6.58761160714286 2.8271484375  C 6.38671875 2.60904947916666  6.14536830357143 2.37467447916666  5.86356026785714 2.1240234375  C 5.58175223214286 1.87337239583333  5.2734375 1.6650390625  4.93861607142857 1.4990234375  C 4.60379464285714 1.3330078125  4.29129464285714 1.25  4.00111607142857 1.25  C 3.7109375 1.25  3.4375 1.27604166666666  3.18080357142857 1.328125  C 2.92410714285714 1.38020833333333  2.66183035714286 1.48111979166666  2.39397321428571 1.630859375  C 2.12611607142857 1.78059895833333  1.89871651785714 1.97428385416667  1.71177455357143 2.2119140625  C 1.52483258928571 2.44954427083333  1.37137276785714 2.77018229166666  1.25139508928571 3.173828125  C 1.13141741071429 3.57747395833333  1.07142857142857 4.04296875  1.07142857142857 4.5703125  C 1.07142857142857 5.6640625  1.59319196428571 6.81966145833333  2.63671875 8.037109375  L 7.5 13.505859375  L 12.3549107142857 8.046875  Z M 13.9369419642857 1.2109375  C 14.6456473214286 2.01822916666667  15 3.13802083333333  15 4.5703125  C 15 6.00911458333333  14.3610491071429 7.47395833333333  13.0831473214286 8.96484375  L 7.86830357142857 14.82421875  C 7.76785714285714 14.94140625  7.64508928571429 15  7.5 15  C 7.35491071428571 15  7.23214285714286 14.94140625  7.13169642857143 14.82421875  L 1.90848214285714 8.9453125  C 1.85267857142857 8.89322916666667  1.77594866071429 8.80859375  1.67829241071429 8.69140625  C 1.58063616071429 8.57421875  1.42578125 8.36100260416667  1.21372767857143 8.0517578125  C 1.00167410714286 7.74251302083333  0.811941964285714 7.42513020833333  0.64453125 7.099609375  C 0.477120535714286 6.77408854166667  0.327845982142857 6.38020833333333  0.196707589285714 5.91796875  C 0.0655691964285714 5.45572916666667  0 5.00651041666667  0 4.5703125  C 0 3.13802083333333  0.354352678571428 2.01822916666667  1.06305803571429 1.2109375  C 1.77176339285714 0.403645833333333  2.75111607142857 0  4.00111607142857 0  C 4.34709821428571 0  4.70005580357143 0.0699869791666657  5.05998883928571 0.209960937500001  C 5.419921875 0.349934895833332  5.75474330357143 0.538736979166666  6.064453125 0.7763671875  C 6.37416294642857 1.01399739583333  6.640625 1.23697916666667  6.86383928571429 1.4453125  C 7.08705357142857 1.65364583333333  7.29910714285714 1.875  7.5 2.109375  C 7.70089285714286 1.875  7.91294642857143 1.65364583333333  8.13616071428572 1.4453125  C 8.359375 1.23697916666667  8.62583705357143 1.01399739583333  8.935546875 0.7763671875  C 9.24525669642857 0.538736979166666  9.580078125 0.349934895833332  9.94001116071428 0.209960937500001  C 10.2999441964286 0.0699869791666657  10.6529017857143 0  10.9988839285714 0  C 12.2488839285714 0  13.2282366071429 0.403645833333333  13.9369419642857 1.2109375  Z " fill-rule="nonzero" fill="#ff0000" stroke="none" transform="matrix(1 0 0 1 73 160 )" />
  </g>
</svg>