<?xml version="1.0" encoding="utf-8"?>
<svg version="1.1" xmlns:xlink="http://www.w3.org/1999/xlink" width="12px" height="12px" viewBox="240 34  12 12" xmlns="http://www.w3.org/2000/svg">
  <path d="M 246 34  C 249.36 34  252 36.64  252 40  C 252 43.36  249.36 46  246 46  C 242.64 46  240 43.36  240 40  C 240 36.64  242.64 34  246 34  Z " fill-rule="nonzero" fill="#ffffff" stroke="none" />
  <path d="M 246 34.5  C 249.08 34.5  251.5 36.92  251.5 40  C 251.5 43.08  249.08 45.5  246 45.5  C 242.92 45.5  240.5 43.08  240.5 40  C 240.5 36.92  242.92 34.5  246 34.5  Z " stroke-width="1" stroke="#797979" fill="none" />
  <path d="M 246 43  C 244.32 43  243 41.68  243 40  C 243 38.32  244.32 37  246 37  C 247.68 37  249 38.32  249 40  C 249 41.68  247.68 43  246 43  " fill-rule="nonzero" fill="#797979" stroke="none" />
</svg>