<?xml version="1.0" encoding="utf-8"?>
<svg version="1.1" xmlns:xlink="http://www.w3.org/1999/xlink" width="30px" height="30px" xmlns="http://www.w3.org/2000/svg">
  <g transform="matrix(1 0 0 1 -1465 -211 )">
    <path d="M 25.9558823529412 23.2904411764706  C 26.2990196078431 22.9473039215686  26.4705882352941 22.5367647058824  26.4705882352941 22.0588235294118  C 26.4705882352941 21.5686274509804  26.2990196078431 21.1519607843137  25.9558823529412 20.8088235294118  L 22.1323529411765 16.9852941176471  C 21.7892156862745 16.6421568627451  21.3725490196078 16.4705882352941  20.8823529411765 16.4705882352941  C 20.3676470588235 16.4705882352941  19.9264705882353 16.6666666666667  19.5588235294118 17.0588235294118  C 19.5955882352941 17.0955882352941  19.7120098039216 17.2089460784314  19.9080882352941 17.3988970588235  C 20.1041666666667 17.5888480392157  20.2359068627451 17.7205882352941  20.3033088235294 17.7941176470588  C 20.3707107843137 17.8676470588235  20.4626225490196 17.984068627451  20.5790441176471 18.1433823529412  C 20.6954656862745 18.3026960784314  20.7751225490196 18.4589460784314  20.8180147058824 18.6121323529412  C 20.8609068627451 18.765318627451  20.8823529411765 18.9338235294118  20.8823529411765 19.1176470588235  C 20.8823529411765 19.6078431372549  20.7107843137255 20.0245098039216  20.3676470588235 20.3676470588235  C 20.0245098039216 20.7107843137255  19.6078431372549 20.8823529411765  19.1176470588235 20.8823529411765  C 18.9338235294118 20.8823529411765  18.765318627451 20.8609068627451  18.6121323529412 20.8180147058824  C 18.4589460784314 20.7751225490196  18.3026960784314 20.6954656862745  18.1433823529412 20.5790441176471  C 17.984068627451 20.4626225490196  17.8676470588235 20.3707107843137  17.7941176470588 20.3033088235294  C 17.7205882352941 20.2359068627451  17.5888480392157 20.1041666666667  17.3988970588235 19.9080882352941  C 17.2089460784314 19.7120098039216  17.0955882352941 19.5955882352941  17.0588235294118 19.5588235294118  C 16.6544117647059 19.9387254901961  16.4522058823529 20.3860294117647  16.4522058823529 20.9007352941176  C 16.4522058823529 21.390931372549  16.6237745098039 21.8075980392157  16.9669117647059 22.1507352941176  L 20.7536764705882 25.9558823529412  C 21.0845588235294 26.2867647058824  21.5012254901961 26.4522058823529  22.0036764705882 26.4522058823529  C 22.4938725490196 26.4522058823529  22.9105392156863 26.2928921568627  23.2536764705882 25.9742647058824  L 25.9558823529412 23.2904411764706  Z M 12.9411764705882 10.4411764705882  C 13.3455882352941 10.0612745098039  13.5477941176471 9.61397058823529  13.5477941176471 9.09926470588235  C 13.5477941176471 8.60906862745098  13.3762254901961 8.19240196078431  13.0330882352941 7.84926470588235  L 9.24632352941176 4.04411764705882  C 8.9031862745098 3.70098039215686  8.48651960784314 3.52941176470588  7.99632352941176 3.52941176470588  C 7.51838235294118 3.52941176470588  7.10171568627451 3.69485294117647  6.74632352941176 4.02573529411765  L 4.04411764705882 6.70955882352941  C 3.70098039215686 7.05269607843137  3.52941176470588 7.46323529411765  3.52941176470588 7.94117647058823  C 3.52941176470588 8.4313725490196  3.70098039215686 8.84803921568627  4.04411764705882 9.19117647058824  L 7.86764705882353 13.0147058823529  C 8.19852941176471 13.3455882352941  8.61519607843137 13.5110294117647  9.11764705882353 13.5110294117647  C 9.63235294117647 13.5110294117647  10.0735294117647 13.3210784313725  10.4411764705882 12.9411764705882  C 10.4044117647059 12.9044117647059  10.2879901960784 12.7910539215686  10.0919117647059 12.6011029411765  C 9.89583333333334 12.4111519607843  9.7640931372549 12.2794117647059  9.69669117647059 12.2058823529412  C 9.62928921568628 12.1323529411765  9.53737745098039 12.015931372549  9.42095588235294 11.8566176470588  C 9.30453431372549 11.6973039215686  9.22487745098039 11.5410539215686  9.18198529411765 11.3878676470588  C 9.1390931372549 11.234681372549  9.11764705882353 11.0661764705882  9.11764705882353 10.8823529411765  C 9.11764705882353 10.3921568627451  9.28921568627451 9.97549019607843  9.63235294117647 9.63235294117647  C 9.97549019607843 9.28921568627451  10.3921568627451 9.11764705882353  10.8823529411765 9.11764705882353  C 11.0661764705882 9.11764705882353  11.234681372549 9.1390931372549  11.3878676470588 9.18198529411765  C 11.5410539215686 9.22487745098039  11.6973039215686 9.30453431372549  11.8566176470588 9.42095588235294  C 12.015931372549 9.53737745098039  12.1323529411765 9.62928921568627  12.2058823529412 9.69669117647059  C 12.2794117647059 9.7640931372549  12.4111519607843 9.89583333333333  12.6011029411765 10.0919117647059  C 12.7910539215686 10.2879901960784  12.9044117647059 10.4044117647059  12.9411764705882 10.4411764705882  Z M 28.4558823529412 18.3088235294118  C 29.4852941176471 19.3382352941176  30 20.5882352941176  30 22.0588235294118  C 30 23.5294117647059  29.4791666666667 24.7732843137255  28.4375 25.7904411764706  L 25.7352941176471 28.4742647058824  C 24.718137254902 29.4914215686274  23.4742647058824 30  22.0036764705882 30  C 20.5208333333333 30  19.2708333333333 29.4791666666667  18.2536764705882 28.4375  L 14.4669117647059 24.6323529411765  C 13.4497549019608 23.6151960784314  12.9411764705882 22.3713235294118  12.9411764705882 20.9007352941176  C 12.9411764705882 19.3933823529412  13.4803921568627 18.1127450980392  14.5588235294118 17.0588235294118  L 12.9411764705882 15.4411764705882  C 11.8872549019608 16.5196078431373  10.6127450980392 17.0588235294118  9.11764705882353 17.0588235294118  C 7.64705882352941 17.0588235294118  6.39705882352941 16.5441176470588  5.36764705882353 15.5147058823529  L 1.54411764705882 11.6911764705882  C 0.514705882352941 10.6617647058824  0 9.41176470588235  0 7.94117647058823  C 0 6.47058823529412  0.520833333333333 5.22671568627451  1.5625 4.20955882352941  L 4.26470588235294 1.52573529411765  C 5.28186274509804 0.508578431372547  6.52573529411765 0  7.99632352941176 0  C 9.47916666666667 0  10.7291666666667 0.520833333333331  11.7463235294118 1.5625  L 15.5330882352941 5.36764705882353  C 16.5502450980392 6.38480392156862  17.0588235294118 7.62867647058823  17.0588235294118 9.09926470588235  C 17.0588235294118 10.6066176470588  16.5196078431373 11.8872549019608  15.4411764705882 12.9411764705882  L 17.0588235294118 14.5588235294118  C 18.1127450980392 13.4803921568627  19.3872549019608 12.9411764705882  20.8823529411765 12.9411764705882  C 22.3529411764706 12.9411764705882  23.6029411764706 13.4558823529412  24.6323529411765 14.4852941176471  L 28.4558823529412 18.3088235294118  Z " fill-rule="nonzero" fill="#ffffff" stroke="none" transform="matrix(1 0 0 1 1465 211 )" />
  </g>
</svg>