<?xml version="1.0" encoding="utf-8"?>
<svg version="1.1" xmlns:xlink="http://www.w3.org/1999/xlink" width="30px" height="30px" xmlns="http://www.w3.org/2000/svg">
  <g transform="matrix(1 0 0 1 -1140 -326 )">
    <path d="M 22.734375 27.12890625  C 22.9627403846154 26.8815104166667  23.0769230769231 26.5885416666667  23.0769230769231 26.25  C 23.0769230769231 25.9114583333333  22.9627403846154 25.6184895833333  22.734375 25.37109375  C 22.5060096153846 25.1236979166667  22.2355769230769 25  21.9230769230769 25  C 21.6105769230769 25  21.3401442307692 25.1236979166667  21.1117788461538 25.37109375  C 20.8834134615385 25.6184895833333  20.7692307692308 25.9114583333333  20.7692307692308 26.25  C 20.7692307692308 26.5885416666667  20.8834134615385 26.8815104166667  21.1117788461538 27.12890625  C 21.3401442307692 27.3763020833333  21.6105769230769 27.5  21.9230769230769 27.5  C 22.2355769230769 27.5  22.5060096153846 27.3763020833333  22.734375 27.12890625  Z M 27.3497596153846 27.12890625  C 27.578125 26.8815104166667  27.6923076923077 26.5885416666667  27.6923076923077 26.25  C 27.6923076923077 25.9114583333333  27.578125 25.6184895833333  27.3497596153846 25.37109375  C 27.1213942307692 25.1236979166667  26.8509615384615 25  26.5384615384615 25  C 26.2259615384615 25  25.9555288461538 25.1236979166667  25.7271634615385 25.37109375  C 25.4987980769231 25.6184895833333  25.3846153846154 25.9114583333333  25.3846153846154 26.25  C 25.3846153846154 26.5885416666667  25.4987980769231 26.8815104166667  25.7271634615385 27.12890625  C 25.9555288461538 27.3763020833333  26.2259615384615 27.5  26.5384615384615 27.5  C 26.8509615384615 27.5  27.1213942307692 27.3763020833333  27.3497596153846 27.12890625  Z M 29.4951923076923 20.546875  C 29.8317307692308 20.9114583333333  30 21.3541666666667  30 21.875  L 30 28.125  C 30 28.6458333333333  29.8317307692308 29.0885416666667  29.4951923076923 29.453125  C 29.1586538461539 29.8177083333333  28.75 30  28.2692307692308 30  L 1.73076923076923 30  C 1.25 30  0.841346153846154 29.8177083333333  0.504807692307692 29.453125  C 0.168269230769231 29.0885416666667  0 28.6458333333333  0 28.125  L 0 21.875  C 0 21.3541666666667  0.168269230769231 20.9114583333333  0.504807692307692 20.546875  C 0.841346153846154 20.1822916666667  1.25 20  1.73076923076923 20  L 10.1141826923077 20  L 12.5480769230769 22.65625  C 13.2451923076923 23.3854166666667  14.0625 23.75  15 23.75  C 15.9375 23.75  16.7548076923077 23.3854166666667  17.4519230769231 22.65625  L 19.9038461538462 20  L 28.2692307692308 20  C 28.75 20  29.1586538461539 20.1822916666667  29.4951923076923 20.546875  Z M 23.0769230769231 10  C 23.5817307692308 10  23.9362980769231 10.25390625  24.140625 10.76171875  C 24.3449519230769 11.2955729166667  24.2608173076923 11.7513020833333  23.8882211538462 12.12890625  L 15.8112980769231 20.87890625  C 15.5949519230769 21.1263020833333  15.3245192307692 21.25  15 21.25  C 14.6754807692308 21.25  14.4050480769231 21.1263020833333  14.1887019230769 20.87890625  L 6.11177884615385 12.12890625  C 5.73918269230769 11.7513020833333  5.65504807692308 11.2955729166667  5.859375 10.76171875  C 6.06370192307692 10.25390625  6.41826923076923 10  6.92307692307692 10  L 11.5384615384615 10  L 11.5384615384615 1.25  C 11.5384615384615 0.911458333333329  11.6526442307692 0.618489583333329  11.8810096153846 0.371093749999999  C 12.109375 0.123697916666669  12.3798076923077 0  12.6923076923077 0  L 17.3076923076923 0  C 17.6201923076923 0  17.890625 0.123697916666669  18.1189903846154 0.371093749999999  C 18.3473557692308 0.618489583333329  18.4615384615385 0.911458333333329  18.4615384615385 1.25  L 18.4615384615385 10  L 23.0769230769231 10  Z " fill-rule="nonzero" fill="#ffffff" stroke="none" transform="matrix(1 0 0 1 1140 326 )" />
  </g>
</svg>