<?xml version="1.0" encoding="utf-8"?>
<svg version="1.1" xmlns:xlink="http://www.w3.org/1999/xlink" width="19px" height="19px" xmlns="http://www.w3.org/2000/svg">
  <g transform="matrix(1 0 0 1 -658 -308 )">
    <path d="M 667.5 309  C 672.26 309  676 312.74  676 317.5  C 676 322.26  672.26 326  667.5 326  C 662.74 326  659 322.26  659 317.5  C 659 312.74  662.74 309  667.5 309  Z " fill-rule="nonzero" fill="#ffffff" stroke="none" fill-opacity="0" />
    <path d="M 667.5 309  C 672.26 309  676 312.74  676 317.5  C 676 322.26  672.26 326  667.5 326  C 662.74 326  659 322.26  659 317.5  C 659 312.74  662.74 309  667.5 309  Z " stroke-width="2" stroke="#0000ff" fill="none" />
  </g>
</svg>