<?xml version="1.0" encoding="utf-8"?>
<svg version="1.1" xmlns:xlink="http://www.w3.org/1999/xlink" width="42px" height="42px" xmlns="http://www.w3.org/2000/svg">
  <g transform="matrix(1 0 0 1 -646 -296 )">
    <path d="M 667 297  C 678.2 297  687 305.8  687 317  C 687 328.2  678.2 337  667 337  C 655.8 337  647 328.2  647 317  C 647 305.8  655.8 297  667 297  Z " fill-rule="nonzero" fill="#ffffff" stroke="none" fill-opacity="0" />
    <path d="M 667 297  C 678.2 297  687 305.8  687 317  C 687 328.2  678.2 337  667 337  C 655.8 337  647 328.2  647 317  C 647 305.8  655.8 297  667 297  Z " stroke-width="2" stroke="#008000" fill="none" />
  </g>
</svg>