<?xml version="1.0" encoding="utf-8"?>
<svg version="1.1" xmlns:xlink="http://www.w3.org/1999/xlink" width="11px" height="11px" xmlns="http://www.w3.org/2000/svg">
  <g transform="matrix(1 0 0 1 -662 -313 )">
    <path d="M 667.5 314  C 670.02 314  672 315.98  672 318.5  C 672 321.02  670.02 323  667.5 323  C 664.98 323  663 321.02  663 318.5  C 663 315.98  664.98 314  667.5 314  Z " fill-rule="nonzero" fill="#ffffff" stroke="none" fill-opacity="0" />
    <path d="M 667.5 314  C 670.02 314  672 315.98  672 318.5  C 672 321.02  670.02 323  667.5 323  C 664.98 323  663 321.02  663 318.5  C 663 315.98  664.98 314  667.5 314  Z " stroke-width="2" stroke="#00ffff" fill="none" />
  </g>
</svg>