<?xml version="1.0" encoding="utf-8"?>
<svg version="1.1" xmlns:xlink="http://www.w3.org/1999/xlink" width="227px" height="230px" xmlns="http://www.w3.org/2000/svg">
  <g transform="matrix(1 0 0 1 -440 -333 )">
    <path d="M 553.5 334  C 616.5 334  666 384.16  666 448  C 666 511.84  616.5 562  553.5 562  C 490.5 562  441 511.84  441 448  C 441 384.16  490.5 334  553.5 334  Z " fill-rule="nonzero" fill="#ffffff" stroke="none" fill-opacity="0" />
    <path d="M 553.5 334  C 616.5 334  666 384.16  666 448  C 666 511.84  616.5 562  553.5 562  C 490.5 562  441 511.84  441 448  C 441 384.16  490.5 334  553.5 334  Z " stroke-width="2" stroke="#009900" fill="none" />
  </g>
</svg>