<?xml version="1.0" encoding="utf-8"?>
<svg version="1.1" xmlns:xlink="http://www.w3.org/1999/xlink" width="263px" height="266px" xmlns="http://www.w3.org/2000/svg">
  <g transform="matrix(1 0 0 1 -421 -314 )">
    <path d="M 552.5 315  C 625.58 315  683 373.08  683 447  C 683 520.92  625.58 579  552.5 579  C 479.42 579  422 520.92  422 447  C 422 373.08  479.42 315  552.5 315  Z " fill-rule="nonzero" fill="#ffffff" stroke="none" fill-opacity="0" />
    <path d="M 552.5 315  C 625.58 315  683 373.08  683 447  C 683 520.92  625.58 579  552.5 579  C 479.42 579  422 520.92  422 447  C 422 373.08  479.42 315  552.5 315  Z " stroke-width="2" stroke="#0000ff" fill="none" />
  </g>
</svg>