<?xml version="1.0" encoding="utf-8"?>
<svg version="1.1" xmlns:xlink="http://www.w3.org/1999/xlink" width="268px" height="268px" xmlns="http://www.w3.org/2000/svg">
  <g transform="matrix(1 0 0 1 -546 -308 )">
    <path d="M 680 309  C 754.48 309  813 367.52  813 442  C 813 516.48  754.48 575  680 575  C 605.52 575  547 516.48  547 442  C 547 367.52  605.52 309  680 309  Z " fill-rule="nonzero" fill="#ffffff" stroke="none" fill-opacity="0" />
    <path d="M 680 309  C 754.48 309  813 367.52  813 442  C 813 516.48  754.48 575  680 575  C 605.52 575  547 516.48  547 442  C 547 367.52  605.52 309  680 309  Z " stroke-width="2" stroke="#0000ff" fill="none" />
  </g>
</svg>