<?xml version="1.0" encoding="utf-8"?>
<svg version="1.1" xmlns:xlink="http://www.w3.org/1999/xlink" width="255px" height="255px" xmlns="http://www.w3.org/2000/svg">
  <g transform="matrix(1 0 0 1 -553 -315 )">
    <path d="M 680.5 316  C 751.34 316  807 371.66  807 442.5  C 807 513.34  751.34 569  680.5 569  C 609.66 569  554 513.34  554 442.5  C 554 371.66  609.66 316  680.5 316  Z " fill-rule="nonzero" fill="#ffffff" stroke="none" fill-opacity="0" />
    <path d="M 680.5 316  C 751.34 316  807 371.66  807 442.5  C 807 513.34  751.34 569  680.5 569  C 609.66 569  554 513.34  554 442.5  C 554 371.66  609.66 316  680.5 316  Z " stroke-width="2" stroke="#ffff00" fill="none" />
  </g>
</svg>