<?xml version="1.0" encoding="utf-8"?>
<svg version="1.1" xmlns:xlink="http://www.w3.org/1999/xlink" width="292px" height="292px" xmlns="http://www.w3.org/2000/svg">
  <g transform="matrix(1 0 0 1 -534 -296 )">
    <path d="M 680 297  C 761.2 297  825 360.8  825 442  C 825 523.2  761.2 587  680 587  C 598.8 587  535 523.2  535 442  C 535 360.8  598.8 297  680 297  Z " fill-rule="nonzero" fill="#ffffff" stroke="none" fill-opacity="0" />
    <path d="M 680 297  C 761.2 297  825 360.8  825 442  C 825 523.2  761.2 587  680 587  C 598.8 587  535 523.2  535 442  C 535 360.8  598.8 297  680 297  Z " stroke-width="2" stroke="#008000" fill="none" />
  </g>
</svg>