<?xml version="1.0" encoding="utf-8"?>
<svg version="1.1" xmlns:xlink="http://www.w3.org/1999/xlink" width="272px" height="272px" xmlns="http://www.w3.org/2000/svg">
  <g transform="matrix(1 0 0 1 -544 -306 )">
    <path d="M 680 307  C 755.6 307  815 366.4  815 442  C 815 517.6  755.6 577  680 577  C 604.4 577  545 517.6  545 442  C 545 366.4  604.4 307  680 307  Z " fill-rule="nonzero" fill="#ffffff" stroke="none" fill-opacity="0" />
    <path d="M 680 307  C 755.6 307  815 366.4  815 442  C 815 517.6  755.6 577  680 577  C 604.4 577  545 517.6  545 442  C 545 366.4  604.4 307  680 307  Z " stroke-width="2" stroke="#00ff33" fill="none" />
  </g>
</svg>