<?xml version="1.0" encoding="utf-8"?>
<svg version="1.1" xmlns:xlink="http://www.w3.org/1999/xlink" width="250px" height="250px" xmlns="http://www.w3.org/2000/svg">
  <g transform="matrix(1 0 0 1 -556 -317 )">
    <path d="M 681 318  C 750.44 318  805 372.56  805 442  C 805 511.44  750.44 566  681 566  C 611.56 566  557 511.44  557 442  C 557 372.56  611.56 318  681 318  Z " fill-rule="nonzero" fill="#ffffff" stroke="none" fill-opacity="0" />
    <path d="M 681 318  C 750.44 318  805 372.56  805 442  C 805 511.44  750.44 566  681 566  C 611.56 566  557 511.44  557 442  C 557 372.56  611.56 318  681 318  Z " stroke-width="2" stroke="#ff9900" fill="none" />
  </g>
</svg>