<?xml version="1.0" encoding="utf-8"?>
<svg version="1.1" xmlns:xlink="http://www.w3.org/1999/xlink" width="12px" height="12px" viewBox="466 227  12 12" xmlns="http://www.w3.org/2000/svg">
  <path d="M 472 227  C 475.36 227  478 229.64  478 233  C 478 236.36  475.36 239  472 239  C 468.64 239  466 236.36  466 233  C 466 229.64  468.64 227  472 227  Z " fill-rule="nonzero" fill="#ffffff" stroke="none" />
  <path d="M 472 227.5  C 475.08 227.5  477.5 229.92  477.5 233  C 477.5 236.08  475.08 238.5  472 238.5  C 468.92 238.5  466.5 236.08  466.5 233  C 466.5 229.92  468.92 227.5  472 227.5  Z " stroke-width="1" stroke="#797979" fill="none" />
  <path d="M 472 236  C 470.32 236  469 234.68  469 233  C 469 231.32  470.32 230  472 230  C 473.68 230  475 231.32  475 233  C 475 234.68  473.68 236  472 236  " fill-rule="nonzero" fill="#797979" stroke="none" />
</svg>