<?xml version="1.0" encoding="utf-8"?>
<svg version="1.1" xmlns:xlink="http://www.w3.org/1999/xlink" width="12px" height="12px" viewBox="377 204  12 12" xmlns="http://www.w3.org/2000/svg">
  <path d="M 383 204  C 386.36 204  389 206.64  389 210  C 389 213.36  386.36 216  383 216  C 379.64 216  377 213.36  377 210  C 377 206.64  379.64 204  383 204  Z " fill-rule="nonzero" fill="#ffffff" stroke="none" />
  <path d="M 383 204.5  C 386.08 204.5  388.5 206.92  388.5 210  C 388.5 213.08  386.08 215.5  383 215.5  C 379.92 215.5  377.5 213.08  377.5 210  C 377.5 206.92  379.92 204.5  383 204.5  Z " stroke-width="1" stroke="#797979" fill="none" />
  <path d="M 383 213  C 381.32 213  380 211.68  380 210  C 380 208.32  381.32 207  383 207  C 384.68 207  386 208.32  386 210  C 386 211.68  384.68 213  383 213  " fill-rule="nonzero" fill="#797979" stroke="none" />
</svg>