<?xml version="1.0" encoding="utf-8"?>
<svg version="1.1" xmlns:xlink="http://www.w3.org/1999/xlink" width="12px" height="12px" viewBox="500 188.5  12 12" xmlns="http://www.w3.org/2000/svg">
  <path d="M 506 188.5  C 509.36 188.5  512 191.14  512 194.5  C 512 197.86  509.36 200.5  506 200.5  C 502.64 200.5  500 197.86  500 194.5  C 500 191.14  502.64 188.5  506 188.5  Z " fill-rule="nonzero" fill="#ffffff" stroke="none" />
  <path d="M 506 189  C 509.08 189  511.5 191.42  511.5 194.5  C 511.5 197.58  509.08 200  506 200  C 502.92 200  500.5 197.58  500.5 194.5  C 500.5 191.42  502.92 189  506 189  Z " stroke-width="1" stroke="#797979" fill="none" />
  <path d="M 506 197.5  C 504.32 197.5  503 196.18  503 194.5  C 503 192.82  504.32 191.5  506 191.5  C 507.68 191.5  509 192.82  509 194.5  C 509 196.18  507.68 197.5  506 197.5  " fill-rule="nonzero" fill="#797979" stroke="none" />
</svg>