<?xml version="1.0" encoding="utf-8"?>
<svg version="1.1" xmlns:xlink="http://www.w3.org/1999/xlink" width="12px" height="12px" viewBox="-136 192  12 12" xmlns="http://www.w3.org/2000/svg">
  <path d="M -130 192  C -126.64 192  -124 194.64  -124 198  C -124 201.36  -126.64 204  -130 204  C -133.36 204  -136 201.36  -136 198  C -136 194.64  -133.36 192  -130 192  Z " fill-rule="nonzero" fill="#ffffff" stroke="none" />
  <path d="M -130 192.5  C -126.92 192.5  -124.5 194.92  -124.5 198  C -124.5 201.08  -126.92 203.5  -130 203.5  C -133.08 203.5  -135.5 201.08  -135.5 198  C -135.5 194.92  -133.08 192.5  -130 192.5  Z " stroke-width="1" stroke="#797979" fill="none" />
  <path d="M -130 201  C -131.68 201  -133 199.68  -133 198  C -133 196.32  -131.68 195  -130 195  C -128.32 195  -127 196.32  -127 198  C -127 199.68  -128.32 201  -130 201  " fill-rule="nonzero" fill="#797979" stroke="none" />
</svg>