<?xml version="1.0" encoding="utf-8"?>
<svg version="1.1" xmlns:xlink="http://www.w3.org/1999/xlink" width="12px" height="12px" viewBox="544 745  12 12" xmlns="http://www.w3.org/2000/svg">
  <path d="M 550 745  C 553.36 745  556 747.64  556 751  C 556 754.36  553.36 757  550 757  C 546.64 757  544 754.36  544 751  C 544 747.64  546.64 745  550 745  Z " fill-rule="nonzero" fill="#ffffff" stroke="none" />
  <path d="M 550 745.5  C 553.08 745.5  555.5 747.92  555.5 751  C 555.5 754.08  553.08 756.5  550 756.5  C 546.92 756.5  544.5 754.08  544.5 751  C 544.5 747.92  546.92 745.5  550 745.5  Z " stroke-width="1" stroke="#797979" fill="none" />
  <path d="M 550 754  C 548.32 754  547 752.68  547 751  C 547 749.32  548.32 748  550 748  C 551.68 748  553 749.32  553 751  C 553 752.68  551.68 754  550 754  " fill-rule="nonzero" fill="#797979" stroke="none" />
</svg>