<?xml version="1.0" encoding="utf-8"?>
<svg version="1.1" xmlns:xlink="http://www.w3.org/1999/xlink" width="12px" height="12px" viewBox="746 745  12 12" xmlns="http://www.w3.org/2000/svg">
  <path d="M 752 745  C 755.36 745  758 747.64  758 751  C 758 754.36  755.36 757  752 757  C 748.64 757  746 754.36  746 751  C 746 747.64  748.64 745  752 745  Z " fill-rule="nonzero" fill="#ffffff" stroke="none" />
  <path d="M 752 745.5  C 755.08 745.5  757.5 747.92  757.5 751  C 757.5 754.08  755.08 756.5  752 756.5  C 748.92 756.5  746.5 754.08  746.5 751  C 746.5 747.92  748.92 745.5  752 745.5  Z " stroke-width="1" stroke="#797979" fill="none" />
  <path d="M 752 754  C 750.32 754  749 752.68  749 751  C 749 749.32  750.32 748  752 748  C 753.68 748  755 749.32  755 751  C 755 752.68  753.68 754  752 754  " fill-rule="nonzero" fill="#797979" stroke="none" />
</svg>