<?xml version="1.0" encoding="utf-8"?>
<svg version="1.1" xmlns:xlink="http://www.w3.org/1999/xlink" width="12px" height="12px" viewBox="639 745  12 12" xmlns="http://www.w3.org/2000/svg">
  <path d="M 645 745  C 648.36 745  651 747.64  651 751  C 651 754.36  648.36 757  645 757  C 641.64 757  639 754.36  639 751  C 639 747.64  641.64 745  645 745  Z " fill-rule="nonzero" fill="#ffffff" stroke="none" />
  <path d="M 645 745.5  C 648.08 745.5  650.5 747.92  650.5 751  C 650.5 754.08  648.08 756.5  645 756.5  C 641.92 756.5  639.5 754.08  639.5 751  C 639.5 747.92  641.92 745.5  645 745.5  Z " stroke-width="1" stroke="#797979" fill="none" />
  <path d="M 645 754  C 643.32 754  642 752.68  642 751  C 642 749.32  643.32 748  645 748  C 646.68 748  648 749.32  648 751  C 648 752.68  646.68 754  645 754  " fill-rule="nonzero" fill="#797979" stroke="none" />
</svg>