<?xml version="1.0" encoding="utf-8"?>
<svg version="1.1" xmlns:xlink="http://www.w3.org/1999/xlink" width="12px" height="12px" viewBox="344 702.5  12 12" xmlns="http://www.w3.org/2000/svg">
  <path d="M 350 702.5  C 353.36 702.5  356 705.14  356 708.5  C 356 711.86  353.36 714.5  350 714.5  C 346.64 714.5  344 711.86  344 708.5  C 344 705.14  346.64 702.5  350 702.5  Z " fill-rule="nonzero" fill="#ffffff" stroke="none" />
  <path d="M 350 703  C 353.08 703  355.5 705.42  355.5 708.5  C 355.5 711.58  353.08 714  350 714  C 346.92 714  344.5 711.58  344.5 708.5  C 344.5 705.42  346.92 703  350 703  Z " stroke-width="1" stroke="#797979" fill="none" />
  <path d="M 350 711.5  C 348.32 711.5  347 710.18  347 708.5  C 347 706.82  348.32 705.5  350 705.5  C 351.68 705.5  353 706.82  353 708.5  C 353 710.18  351.68 711.5  350 711.5  " fill-rule="nonzero" fill="#797979" stroke="none" />
</svg>