<?xml version="1.0" encoding="utf-8"?>
<svg version="1.1" xmlns:xlink="http://www.w3.org/1999/xlink" width="12px" height="12px" viewBox="234 702.5  12 12" xmlns="http://www.w3.org/2000/svg">
  <path d="M 240 702.5  C 243.36 702.5  246 705.14  246 708.5  C 246 711.86  243.36 714.5  240 714.5  C 236.64 714.5  234 711.86  234 708.5  C 234 705.14  236.64 702.5  240 702.5  Z " fill-rule="nonzero" fill="#ffffff" stroke="none" />
  <path d="M 240 703  C 243.08 703  245.5 705.42  245.5 708.5  C 245.5 711.58  243.08 714  240 714  C 236.92 714  234.5 711.58  234.5 708.5  C 234.5 705.42  236.92 703  240 703  Z " stroke-width="1" stroke="#797979" fill="none" />
  <path d="M 240 711.5  C 238.32 711.5  237 710.18  237 708.5  C 237 706.82  238.32 705.5  240 705.5  C 241.68 705.5  243 706.82  243 708.5  C 243 710.18  241.68 711.5  240 711.5  " fill-rule="nonzero" fill="#797979" stroke="none" />
</svg>