<?xml version="1.0" encoding="utf-8"?>
<svg version="1.1" xmlns:xlink="http://www.w3.org/1999/xlink" width="12px" height="12px" viewBox="457 702.5  12 12" xmlns="http://www.w3.org/2000/svg">
  <path d="M 463 702.5  C 466.36 702.5  469 705.14  469 708.5  C 469 711.86  466.36 714.5  463 714.5  C 459.64 714.5  457 711.86  457 708.5  C 457 705.14  459.64 702.5  463 702.5  Z " fill-rule="nonzero" fill="#ffffff" stroke="none" />
  <path d="M 463 703  C 466.08 703  468.5 705.42  468.5 708.5  C 468.5 711.58  466.08 714  463 714  C 459.92 714  457.5 711.58  457.5 708.5  C 457.5 705.42  459.92 703  463 703  Z " stroke-width="1" stroke="#797979" fill="none" />
  <path d="M 463 711.5  C 461.32 711.5  460 710.18  460 708.5  C 460 706.82  461.32 705.5  463 705.5  C 464.68 705.5  466 706.82  466 708.5  C 466 710.18  464.68 711.5  463 711.5  " fill-rule="nonzero" fill="#797979" stroke="none" />
</svg>