<?xml version="1.0" encoding="utf-8"?>
<svg version="1.1" xmlns:xlink="http://www.w3.org/1999/xlink" width="12px" height="12px" viewBox="118 12  12 12" xmlns="http://www.w3.org/2000/svg">
  <path d="M 124 12  C 127.36 12  130 14.64  130 18  C 130 21.36  127.36 24  124 24  C 120.64 24  118 21.36  118 18  C 118 14.64  120.64 12  124 12  Z " fill-rule="nonzero" fill="#ffffff" stroke="none" />
  <path d="M 124 12.5  C 127.08 12.5  129.5 14.92  129.5 18  C 129.5 21.08  127.08 23.5  124 23.5  C 120.92 23.5  118.5 21.08  118.5 18  C 118.5 14.92  120.92 12.5  124 12.5  Z " stroke-width="1" stroke="#797979" fill="none" />
  <path d="M 124 21  C 122.32 21  121 19.68  121 18  C 121 16.32  122.32 15  124 15  C 125.68 15  127 16.32  127 18  C 127 19.68  125.68 21  124 21  " fill-rule="nonzero" fill="#797979" stroke="none" />
</svg>